G04 EAGLE Gerber RS-274X export*
G75*
%MOMM*%
%FSLAX34Y34*%
%LPD*%
%INCopper Layer 15*%
%IPPOS*%
%AMOC8*
5,1,8,0,0,1.08239X$1,22.5*%
G01*
G04 Define Apertures*
%ADD10C,1.560000*%
%ADD11C,1.508000*%
%ADD12C,0.756400*%
%ADD13C,0.152400*%
D10*
X139510Y1250030D03*
X139510Y1224630D03*
X139510Y1199230D03*
X164910Y1250030D03*
X164910Y1224630D03*
X164910Y1199230D03*
X190310Y1250030D03*
X190310Y1224630D03*
X190310Y1199230D03*
X215710Y1250030D03*
X215710Y1224630D03*
X215710Y1199230D03*
X241110Y1250030D03*
X241110Y1224630D03*
X241110Y1199230D03*
X266510Y1250030D03*
X266510Y1224630D03*
X266510Y1199230D03*
X291910Y1250030D03*
X291910Y1224630D03*
X291910Y1199230D03*
X317310Y1250030D03*
X317310Y1224630D03*
X317310Y1199230D03*
X342710Y1250030D03*
X342710Y1224630D03*
X342710Y1199230D03*
X368110Y1250030D03*
X368110Y1224630D03*
X368110Y1199230D03*
X393510Y1250030D03*
X393510Y1224630D03*
X393510Y1199230D03*
X418910Y1250030D03*
X418910Y1224630D03*
X418910Y1199230D03*
X444310Y1250030D03*
X444310Y1224630D03*
X444310Y1199230D03*
X469710Y1250030D03*
X469710Y1224630D03*
X469710Y1199230D03*
X495110Y1250030D03*
X495110Y1224630D03*
X495110Y1199230D03*
X520510Y1250030D03*
X520510Y1224630D03*
X520510Y1199230D03*
X545910Y1250030D03*
X545910Y1224630D03*
X545910Y1199230D03*
X571310Y1250030D03*
X571310Y1224630D03*
X571310Y1199230D03*
X596710Y1250030D03*
X596710Y1224630D03*
X596710Y1199230D03*
X622110Y1250030D03*
X622110Y1224630D03*
X622110Y1199230D03*
X647510Y1250030D03*
X647510Y1224630D03*
X647510Y1199230D03*
X672910Y1250030D03*
X672910Y1224630D03*
X672910Y1199230D03*
X698310Y1250030D03*
X698310Y1224630D03*
X698310Y1199230D03*
X723710Y1250030D03*
X723710Y1224630D03*
X723710Y1199230D03*
X749110Y1250030D03*
X749110Y1224630D03*
X749110Y1199230D03*
X774510Y1250030D03*
X774510Y1224630D03*
X774510Y1199230D03*
X799910Y1250030D03*
X799910Y1224630D03*
X799910Y1199230D03*
X825310Y1250030D03*
X825310Y1224630D03*
X825310Y1199230D03*
X850710Y1250030D03*
X850710Y1224630D03*
X850710Y1199230D03*
X876110Y1250030D03*
X876110Y1224630D03*
X876110Y1199230D03*
X901510Y1250030D03*
X901510Y1224630D03*
X901510Y1199230D03*
X926910Y1250030D03*
X926910Y1224630D03*
X926910Y1199230D03*
D11*
X655170Y80680D03*
X655170Y106080D03*
X629770Y80680D03*
X629770Y106080D03*
X604370Y80680D03*
X604370Y106080D03*
X578970Y80680D03*
X578970Y106080D03*
X553570Y80680D03*
X553570Y106080D03*
X528170Y80680D03*
X528170Y106080D03*
X502770Y80680D03*
X502770Y106080D03*
X477370Y80680D03*
X477370Y106080D03*
X451970Y80680D03*
X451970Y106080D03*
X426570Y80680D03*
X426570Y106080D03*
X401170Y80680D03*
X401170Y106080D03*
X375770Y80680D03*
X375770Y106080D03*
D10*
X989010Y1249680D03*
X989010Y1224280D03*
X989010Y1198880D03*
X1014410Y1249680D03*
X1014410Y1224280D03*
X1014410Y1198880D03*
X1039810Y1249680D03*
X1039810Y1224280D03*
X1039810Y1198880D03*
X1065210Y1249680D03*
X1065210Y1224280D03*
X1065210Y1198880D03*
X1090610Y1249680D03*
X1090610Y1224280D03*
X1090610Y1198880D03*
X1116010Y1249680D03*
X1116010Y1224280D03*
X1116010Y1198880D03*
X1141410Y1249680D03*
X1141410Y1224280D03*
X1141410Y1198880D03*
X1166810Y1249680D03*
X1166810Y1224280D03*
X1166810Y1198880D03*
X1192210Y1249680D03*
X1192210Y1224280D03*
X1192210Y1198880D03*
X1217610Y1249680D03*
X1217610Y1224280D03*
X1217610Y1198880D03*
X1243010Y1249680D03*
X1243010Y1224280D03*
X1243010Y1198880D03*
X1268410Y1249680D03*
X1268410Y1224280D03*
X1268410Y1198880D03*
X1293810Y1249680D03*
X1293810Y1224280D03*
X1293810Y1198880D03*
X1319210Y1249680D03*
X1319210Y1224280D03*
X1319210Y1198880D03*
X1344610Y1249680D03*
X1344610Y1224280D03*
X1344610Y1198880D03*
X1370010Y1249680D03*
X1370010Y1224280D03*
X1370010Y1198880D03*
X1395410Y1249680D03*
X1395410Y1224280D03*
X1395410Y1198880D03*
X1420810Y1249680D03*
X1420810Y1224280D03*
X1420810Y1198880D03*
X1446210Y1249680D03*
X1446210Y1224280D03*
X1446210Y1198880D03*
X1471610Y1249680D03*
X1471610Y1224280D03*
X1471610Y1198880D03*
X1497010Y1249680D03*
X1497010Y1224280D03*
X1497010Y1198880D03*
X1522410Y1249680D03*
X1522410Y1224280D03*
X1522410Y1198880D03*
X1547810Y1249680D03*
X1547810Y1224280D03*
X1547810Y1198880D03*
X1573210Y1249680D03*
X1573210Y1224280D03*
X1573210Y1198880D03*
X1598610Y1249680D03*
X1598610Y1224280D03*
X1598610Y1198880D03*
X1624010Y1249680D03*
X1624010Y1224280D03*
X1624010Y1198880D03*
X1649410Y1249680D03*
X1649410Y1224280D03*
X1649410Y1198880D03*
X1674810Y1249680D03*
X1674810Y1224280D03*
X1674810Y1198880D03*
X1700210Y1249680D03*
X1700210Y1224280D03*
X1700210Y1198880D03*
X1725610Y1249680D03*
X1725610Y1224280D03*
X1725610Y1198880D03*
X1751010Y1249680D03*
X1751010Y1224280D03*
X1751010Y1198880D03*
X1776410Y1249680D03*
X1776410Y1224280D03*
X1776410Y1198880D03*
D11*
X1399540Y80680D03*
X1399540Y106080D03*
X1374140Y80680D03*
X1374140Y106080D03*
X1348740Y80680D03*
X1348740Y106080D03*
X1323340Y80680D03*
X1323340Y106080D03*
X1297940Y80680D03*
X1297940Y106080D03*
X1272540Y80680D03*
X1272540Y106080D03*
X1247140Y80680D03*
X1247140Y106080D03*
X1221740Y80680D03*
X1221740Y106080D03*
X1196340Y80680D03*
X1196340Y106080D03*
X1170940Y80680D03*
X1170940Y106080D03*
X1145540Y80680D03*
X1145540Y106080D03*
X1120140Y80680D03*
X1120140Y106080D03*
D12*
X274320Y912565D03*
X587498Y911312D03*
X742549Y913146D03*
X109502Y912791D03*
X887730Y778510D03*
X271780Y772442D03*
X740410Y772442D03*
X806450Y784860D03*
X654050Y788670D03*
X496570Y787400D03*
X342900Y784860D03*
X180340Y788670D03*
X355600Y652780D03*
X504190Y651510D03*
X655320Y651510D03*
X808990Y652780D03*
X188441Y653261D03*
X109471Y771172D03*
X30706Y793750D03*
X1637030Y508000D03*
X866140Y506730D03*
X866140Y349250D03*
X1165860Y506448D03*
X1316835Y505615D03*
X1015370Y505460D03*
X1092200Y635000D03*
X1241173Y634617D03*
X1394460Y635000D03*
X1475774Y507718D03*
X1713230Y636270D03*
X1637030Y356870D03*
X1092200Y481330D03*
X1244600Y481330D03*
X1714500Y481330D03*
X942340Y481612D03*
X1394460Y481612D03*
X1553210Y481612D03*
X1014730Y357858D03*
X1165784Y359128D03*
X1316990Y357858D03*
X1475740Y359128D03*
X947672Y633730D03*
X1552623Y635000D03*
X35476Y651510D03*
X894362Y911125D03*
X432612Y772442D03*
X433590Y914400D03*
X588010Y772447D03*
X43690Y880870D03*
X48709Y741231D03*
X63075Y861372D03*
X67135Y721099D03*
X85594Y698600D03*
X84199Y841513D03*
X129632Y854565D03*
X129668Y712598D03*
X148792Y873962D03*
X148947Y731877D03*
X200660Y887277D03*
X200660Y746713D03*
X220165Y868225D03*
X220854Y727836D03*
X239730Y848671D03*
X240125Y708513D03*
X288114Y846914D03*
X288114Y707214D03*
X309234Y726957D03*
X309171Y866595D03*
X328459Y746958D03*
X328543Y887051D03*
X374069Y734642D03*
X374151Y875529D03*
X393347Y715363D03*
X393429Y856251D03*
X437984Y702144D03*
X438680Y842664D03*
X458198Y721446D03*
X458051Y862943D03*
X478508Y740702D03*
X477119Y882432D03*
X522681Y740969D03*
X522404Y880034D03*
X541922Y860158D03*
X541960Y721690D03*
X561201Y840879D03*
X561239Y702411D03*
X607401Y711829D03*
X606885Y852788D03*
X626436Y731351D03*
X626021Y872210D03*
X670434Y885316D03*
X669290Y747628D03*
X689713Y866037D03*
X688770Y728550D03*
X708991Y846759D03*
X708049Y709272D03*
X753004Y705996D03*
X753785Y844706D03*
X772675Y725625D03*
X772240Y865029D03*
X790222Y886230D03*
X790083Y746996D03*
X833826Y873251D03*
X833987Y734440D03*
X853006Y853874D03*
X853167Y715063D03*
X900430Y839470D03*
X901700Y702310D03*
X920979Y721589D03*
X920976Y858678D03*
X940257Y740867D03*
X940221Y877991D03*
X37245Y887277D03*
X44422Y749796D03*
X56844Y868018D03*
X60764Y727581D03*
X79263Y705597D03*
X76381Y847581D03*
X124178Y847166D03*
X123444Y705969D03*
X142366Y867536D03*
X142520Y725450D03*
X161645Y886815D03*
X161572Y744956D03*
X213739Y874651D03*
X214428Y734262D03*
X233392Y855185D03*
X233662Y714940D03*
X281688Y840488D03*
X281688Y700788D03*
X301896Y859767D03*
X301896Y720067D03*
X321732Y740832D03*
X321970Y879500D03*
X367642Y741068D03*
X367724Y882216D03*
X386921Y721789D03*
X386934Y862607D03*
X406200Y702510D03*
X406372Y843308D03*
X451794Y714997D03*
X451670Y856471D03*
X471076Y734325D03*
X470784Y875914D03*
X515620Y886460D03*
X516890Y748030D03*
X535496Y866584D03*
X535534Y728116D03*
X554774Y847306D03*
X554813Y708838D03*
X600853Y704819D03*
X600810Y846011D03*
X620040Y724895D03*
X619609Y865769D03*
X638856Y886405D03*
X637283Y746209D03*
X683286Y872464D03*
X682344Y734977D03*
X702565Y853185D03*
X701622Y715698D03*
X746564Y699574D03*
X746189Y839449D03*
X766479Y718932D03*
X766344Y858073D03*
X785608Y738618D03*
X784431Y878857D03*
X827758Y880232D03*
X827572Y740878D03*
X846580Y860300D03*
X846840Y721588D03*
X866240Y702210D03*
X865859Y841021D03*
X914488Y852246D03*
X914552Y715162D03*
X933831Y734441D03*
X933795Y871565D03*
X50116Y874444D03*
X54510Y734179D03*
X73196Y713060D03*
X70132Y854306D03*
X116840Y840740D03*
X116815Y699745D03*
X135940Y861110D03*
X136094Y719024D03*
X155218Y880388D03*
X155373Y738303D03*
X207313Y881077D03*
X207671Y740645D03*
X226966Y861799D03*
X227280Y721410D03*
X246603Y702087D03*
X246193Y842281D03*
X294541Y853341D03*
X294541Y713641D03*
X315306Y734406D03*
X315544Y873074D03*
X360680Y747136D03*
X361111Y888454D03*
X380495Y728215D03*
X380577Y869103D03*
X399774Y708937D03*
X400035Y850003D03*
X445726Y849343D03*
X444748Y708571D03*
X464243Y728305D03*
X464877Y868969D03*
X484457Y888364D03*
X484576Y748228D03*
X529069Y873011D03*
X529108Y734543D03*
X548348Y853732D03*
X548386Y715264D03*
X593677Y699087D03*
X594173Y839795D03*
X613648Y718435D03*
X613242Y859284D03*
X632855Y737785D03*
X631518Y879565D03*
X676860Y878890D03*
X675917Y741403D03*
X696139Y859611D03*
X695196Y722124D03*
X715543Y840458D03*
X714475Y702845D03*
X760121Y851222D03*
X760276Y712218D03*
X779416Y731958D03*
X778197Y871925D03*
X820222Y886658D03*
X821580Y747738D03*
X840154Y866726D03*
X840413Y728014D03*
X859235Y847250D03*
X859791Y708637D03*
X908050Y845820D03*
X908126Y708736D03*
X927405Y728015D03*
X927368Y865138D03*
X947313Y748179D03*
X946647Y884417D03*
X272742Y894389D03*
X587851Y892628D03*
X742549Y893628D03*
D13*
X272742Y894389D02*
X271698Y893345D01*
X110772Y893345D01*
D12*
X110772Y893345D03*
D13*
X427506Y432284D02*
X427506Y107016D01*
X426570Y106080D01*
X427506Y432284D02*
X263144Y596646D01*
X110772Y893345D02*
X34731Y893345D01*
X20066Y878680D01*
X433819Y894828D02*
X584200Y894828D01*
D12*
X894362Y892949D03*
X433590Y894828D03*
D13*
X433819Y894828D01*
X587851Y892628D02*
X741549Y892628D01*
X742549Y893628D01*
X893683Y893628D01*
X894362Y892949D01*
X20066Y878680D02*
X20066Y654028D01*
X77448Y596646D01*
X263144Y596646D01*
X272742Y894389D02*
X358463Y894389D01*
X358597Y894522D01*
X433513Y894522D02*
X433819Y894828D01*
X433513Y894522D02*
X358597Y894522D01*
X584200Y894828D02*
X585651Y894828D01*
X587851Y892628D01*
X588010Y902517D02*
X742278Y902517D01*
D12*
X273050Y903477D03*
X433578Y903916D03*
X588010Y902224D03*
D13*
X588010Y902517D01*
D12*
X742549Y902788D03*
D13*
X742278Y902517D01*
D12*
X110051Y902433D03*
D13*
X104238Y896620D01*
X414204Y431616D02*
X414204Y93714D01*
X401170Y80680D01*
X414204Y431616D02*
X252222Y593598D01*
X104238Y896620D02*
X33695Y896620D01*
X17018Y879943D01*
X742278Y902517D02*
X742588Y902207D01*
D12*
X894362Y902037D03*
D13*
X894192Y902207D02*
X742588Y902207D01*
X894192Y902207D02*
X894362Y902037D01*
X588010Y902224D02*
X435270Y902224D01*
X433578Y903916D01*
X273490Y903916D01*
X273050Y903477D01*
X111094Y903477D01*
X110051Y902433D01*
X17018Y879943D02*
X17018Y652765D01*
X76185Y593598D01*
X252222Y593598D01*
X334959Y922800D02*
X167640Y922800D01*
X334959Y922800D02*
X494734Y922800D01*
X648498Y922800D01*
D12*
X494734Y922800D03*
X798959Y922800D03*
D13*
X648498Y922800D01*
X402106Y432284D02*
X402106Y107016D01*
X401170Y106080D01*
X402106Y432284D02*
X243840Y590550D01*
D12*
X21930Y913966D03*
D13*
X30764Y922800D02*
X167640Y922800D01*
X30764Y922800D02*
X21930Y913966D01*
X13970Y906007D01*
D12*
X168628Y919950D03*
D13*
X167640Y920938D02*
X167640Y922800D01*
X167640Y920938D02*
X168628Y919950D01*
D12*
X334959Y922800D03*
X648498Y922800D03*
D13*
X13970Y906007D02*
X13970Y651503D01*
X74923Y590550D01*
X243840Y590550D01*
X174950Y928558D02*
X175260Y928868D01*
X174950Y928558D02*
X15737Y928558D01*
X175260Y928868D02*
X344170Y928868D01*
X505460Y928868D01*
D12*
X175260Y928868D03*
X505882Y929290D03*
D13*
X505460Y928868D01*
D12*
X805076Y929536D03*
X344170Y928868D03*
D13*
X391010Y430680D02*
X391010Y95920D01*
X375770Y80680D01*
X391010Y430680D02*
X234188Y587502D01*
D12*
X15488Y928310D03*
D13*
X15737Y928558D01*
X15488Y928310D02*
X10922Y923744D01*
D12*
X659746Y929484D03*
D13*
X659552Y929290D02*
X505882Y929290D01*
X659552Y929290D02*
X659746Y929484D01*
X659798Y929536D02*
X805076Y929536D01*
X659798Y929536D02*
X659746Y929484D01*
X10922Y923744D02*
X10922Y650240D01*
X73660Y587502D01*
X234188Y587502D01*
X264442Y821690D02*
X422910Y821690D01*
X423064Y821536D01*
D12*
X422910Y821690D03*
X264442Y821690D03*
X580544Y821536D03*
D13*
X734766Y821690D02*
X886460Y821690D01*
D12*
X734766Y821690D03*
X107161Y821209D03*
D13*
X426570Y80754D02*
X426570Y80680D01*
X440690Y94874D02*
X440690Y431800D01*
X440690Y94874D02*
X426570Y80754D01*
X440690Y431800D02*
X269748Y602742D01*
X107161Y821209D02*
X107642Y821690D01*
X106398Y821972D02*
X69258Y821972D01*
X26162Y778876D01*
X580699Y821690D02*
X734766Y821690D01*
X580699Y821690D02*
X580544Y821536D01*
X423064Y821536D01*
X264442Y821690D02*
X107642Y821690D01*
X107161Y821209D02*
X106398Y821972D01*
D12*
X886460Y821690D03*
D13*
X26162Y778876D02*
X26162Y669406D01*
X92826Y602742D02*
X269748Y602742D01*
X92826Y602742D02*
X26162Y669406D01*
D12*
X110490Y752896D03*
X273789Y753450D03*
D13*
X487196Y89310D02*
X478566Y80680D01*
X477370Y80680D01*
X487196Y89310D02*
X487196Y432553D01*
X304815Y614934D01*
X433548Y753995D02*
X433897Y754344D01*
D12*
X894116Y753958D03*
D13*
X742142Y753696D02*
X590683Y753696D01*
X590038Y753051D01*
X588745Y754344D01*
X433897Y754344D01*
X433003Y753450D02*
X273789Y753450D01*
X433003Y753450D02*
X433548Y753995D01*
X273236Y752896D02*
X110490Y752896D01*
X273236Y752896D02*
X273789Y753450D01*
D12*
X589987Y753001D03*
D13*
X590038Y753051D01*
D12*
X742142Y753486D03*
D13*
X742142Y753696D01*
X818957Y753696D01*
X819067Y753806D01*
X893964Y753806D02*
X894116Y753958D01*
X893964Y753806D02*
X819067Y753806D01*
D12*
X433882Y752725D03*
D13*
X433882Y753661D02*
X433548Y753995D01*
X433882Y753661D02*
X433882Y752725D01*
X41909Y755864D02*
X38354Y752310D01*
X107522Y755864D02*
X110490Y752896D01*
X107522Y755864D02*
X41909Y755864D01*
X38354Y752310D02*
X38354Y681075D01*
X104495Y614934D02*
X304815Y614934D01*
X104495Y614934D02*
X38354Y681075D01*
D12*
X110176Y761984D03*
D13*
X110892Y761268D01*
D12*
X273296Y762538D03*
D13*
X741624Y762784D02*
X742142Y762265D01*
X742894Y761514D01*
X477108Y106342D02*
X477370Y106080D01*
X477108Y106342D02*
X477108Y431980D01*
X297202Y611886D01*
D12*
X894116Y763046D03*
D13*
X892584Y761514D02*
X742894Y761514D01*
X892584Y761514D02*
X894116Y763046D01*
X741624Y762784D02*
X590683Y762784D01*
X590038Y762139D01*
X588818Y763359D01*
X590038Y762139D02*
X590088Y762089D01*
X588818Y763359D02*
X588768Y763409D01*
X433874Y763409D01*
X433819Y763354D01*
X433003Y762538D01*
X273296Y762538D01*
X272026Y761268D01*
X110892Y761268D01*
D12*
X433882Y761813D03*
D13*
X433882Y763291D02*
X433819Y763354D01*
X433882Y763291D02*
X433882Y761813D01*
D12*
X589987Y762089D03*
D13*
X590088Y762089D01*
D12*
X742142Y762574D03*
D13*
X742142Y762265D01*
X110176Y761984D02*
X43718Y761984D01*
X35306Y753572D01*
X35306Y679812D01*
X103232Y611886D02*
X297202Y611886D01*
X103232Y611886D02*
X35306Y679812D01*
D12*
X646430Y778510D03*
D13*
X451970Y82024D02*
X451970Y80680D01*
X451970Y82024D02*
X462464Y92518D01*
X462464Y432154D01*
X285780Y608838D01*
X179070Y778510D02*
X50927Y778510D01*
X37528Y765112D02*
X32258Y759841D01*
D12*
X179070Y776098D03*
D13*
X50927Y778510D02*
X37528Y765112D01*
X179070Y776098D02*
X179070Y778510D01*
D12*
X37528Y765112D03*
D13*
X590528Y778510D02*
X646430Y778510D01*
X590528Y778510D02*
X590524Y778515D01*
X585497Y778515D01*
X32258Y759841D02*
X32258Y678550D01*
X101970Y608838D02*
X285780Y608838D01*
X101970Y608838D02*
X32258Y678550D01*
D12*
X795938Y772838D03*
D13*
X790266Y778510D02*
X646430Y778510D01*
X790266Y778510D02*
X795938Y772838D01*
D12*
X494030Y775264D03*
D13*
X492568Y778510D02*
X341432Y778510D01*
X492568Y778510D02*
X492794Y778284D01*
X494030Y778284D01*
X494030Y775264D01*
X494030Y778284D02*
X585266Y778284D01*
X585497Y778515D01*
D12*
X341432Y775772D03*
D13*
X341432Y778510D01*
X183618Y778510D02*
X179070Y778510D01*
X183618Y778510D02*
X185102Y777025D01*
X190129Y777025D01*
X191614Y778510D01*
X341432Y778510D01*
X186131Y784578D02*
X183719Y782166D01*
D12*
X506730Y784860D03*
X664210Y784860D03*
D13*
X451708Y106342D02*
X451970Y106080D01*
X451708Y106342D02*
X451708Y432249D01*
X278167Y605790D01*
X183719Y782166D02*
X41414Y782166D01*
D12*
X32230Y772982D03*
D13*
X32214Y772998D02*
X29210Y769994D01*
X32230Y772982D02*
X32214Y772998D01*
X32230Y772982D02*
X41414Y782166D01*
X29210Y769994D02*
X29210Y670668D01*
X94088Y605790D02*
X278167Y605790D01*
X94088Y605790D02*
X29210Y670668D01*
D12*
X805026Y775772D03*
D13*
X795938Y784860D02*
X664210Y784860D01*
X795938Y784860D02*
X805026Y775772D01*
X664210Y784860D02*
X658822Y784860D01*
X656564Y782602D01*
X651537Y782602D01*
X649279Y784860D01*
X506730Y784860D01*
X502612Y784860D01*
X499084Y781332D01*
X494057Y781332D01*
X490529Y784860D01*
X350520Y784860D01*
D12*
X351988Y784860D03*
D13*
X350520Y784860D01*
X348968Y787374D02*
X345414Y790928D01*
X348968Y786412D02*
X350520Y784860D01*
X348968Y786412D02*
X348968Y787374D01*
X345414Y790928D02*
X192481Y790928D01*
X186131Y784578D01*
D12*
X187616Y783093D03*
D13*
X186131Y784578D01*
D12*
X101600Y668020D03*
D13*
X734060Y681990D02*
X885190Y681990D01*
X734060Y681990D02*
X581660Y681990D01*
X425450Y681990D01*
X262890Y681990D01*
D12*
X885190Y681990D03*
D13*
X132080Y621030D02*
X101600Y651510D01*
X101600Y668020D01*
X132080Y621030D02*
X326390Y621030D01*
X515644Y431776D01*
X515644Y93554D01*
X502770Y80680D01*
D12*
X262890Y681990D03*
X425450Y681990D03*
X581660Y681990D03*
X734060Y681990D03*
D13*
X262890Y681990D02*
X115570Y681990D01*
X101600Y668020D01*
X796646Y833476D02*
X797211Y834041D01*
X334899Y833476D02*
X171450Y833476D01*
X336550Y833476D02*
X336952Y833074D01*
X793750Y833476D02*
X796646Y833476D01*
D12*
X171450Y833476D03*
X678180Y688340D03*
X525780Y689610D03*
X368300Y688340D03*
X199390Y688340D03*
D13*
X797211Y834041D02*
X888079Y834041D01*
X368300Y688340D02*
X199390Y688340D01*
X524510Y688340D02*
X525780Y689610D01*
X524510Y688340D02*
X368300Y688340D01*
X676910Y689610D02*
X678180Y688340D01*
X676910Y689610D02*
X525780Y689610D01*
X678180Y688340D02*
X822960Y688340D01*
X502436Y106414D02*
X502770Y106080D01*
X502436Y431783D02*
X316237Y617982D01*
X502436Y431783D02*
X502436Y106414D01*
X171450Y833476D02*
X56545Y833476D01*
X822960Y688340D02*
X902713Y688340D01*
X854682Y396240D02*
X1002030Y396240D01*
X1149350Y396240D01*
X1302738Y396240D01*
X1461770Y396240D01*
X1625600Y396240D01*
D12*
X1625600Y396240D03*
X858520Y547370D03*
D13*
X1007110Y547370D01*
X1156970Y547370D01*
X1305560Y547370D02*
X1306830Y548640D01*
X1305560Y547370D02*
X1156970Y547370D01*
X1306830Y548640D02*
X1462758Y548640D01*
X1624330Y548640D01*
D12*
X1624330Y548640D03*
X1306830Y548640D03*
X1156970Y547370D03*
X1007110Y547370D03*
D13*
X1002030Y396240D02*
X1002126Y396144D01*
D12*
X1002256Y396144D03*
D13*
X1002126Y396144D01*
D12*
X1149446Y396144D03*
D13*
X1149350Y396240D01*
D12*
X1302738Y395759D03*
D13*
X1302738Y396240D01*
D12*
X1462758Y548640D03*
D13*
X1461770Y396240D02*
X1462650Y395360D01*
X1462758Y395360D01*
D12*
X1463190Y394928D03*
D13*
X1462758Y395360D01*
D12*
X854682Y396240D03*
D13*
X1625600Y396240D02*
X1722120Y396240D01*
X1725930Y400050D01*
X1725930Y425450D01*
X1729740Y429260D01*
X1729740Y535940D01*
X1717040Y548640D01*
X1624330Y548640D01*
X1247140Y106680D02*
X1247140Y106080D01*
X1247140Y106680D02*
X1134618Y219202D01*
X199390Y688340D02*
X198120Y687070D01*
X44422Y687070D01*
X23114Y800046D02*
X30634Y807566D01*
D12*
X334899Y833476D03*
D13*
X56545Y833476D02*
X30634Y807566D01*
X334899Y833476D02*
X336550Y833476D01*
D12*
X30634Y807566D03*
X822960Y688058D03*
D13*
X822960Y688340D01*
X964105Y758015D02*
X888079Y834041D01*
X964105Y758015D02*
X964105Y749732D01*
X902713Y688340D01*
D12*
X44422Y687070D03*
X489255Y833074D03*
X643654Y833476D03*
X793750Y833845D03*
D13*
X793750Y833476D01*
X743580Y833476D02*
X643654Y833476D01*
X743580Y833476D02*
X743675Y833381D01*
X748702Y833381D01*
X748797Y833476D01*
X793750Y833476D01*
X488852Y833476D02*
X334899Y833476D01*
X488852Y833476D02*
X489255Y833074D01*
X643252Y833074D01*
X643654Y833476D01*
X113510Y617982D02*
X44422Y687070D01*
X113510Y617982D02*
X316237Y617982D01*
X267850Y599694D02*
X78711Y599694D01*
X23114Y655291D01*
X23114Y800046D01*
X984181Y219202D02*
X1134618Y219202D01*
X854682Y348701D02*
X854682Y396240D01*
X854682Y348701D02*
X984181Y219202D01*
D12*
X894232Y441808D03*
X894746Y596234D03*
X913511Y422529D03*
X914476Y577407D03*
X951418Y407858D03*
X954731Y558128D03*
X971393Y426441D03*
X974781Y577574D03*
X990757Y446931D03*
X994184Y599312D03*
X1038400Y601170D03*
X1037666Y448234D03*
X1057679Y581891D03*
X1056945Y428955D03*
X1076479Y561894D03*
X1076223Y409677D03*
X1118847Y572747D03*
X1115172Y419212D03*
X1135086Y437856D03*
X1138505Y592026D03*
X1179830Y607020D03*
X1180198Y454670D03*
X1199129Y587761D03*
X1200229Y435407D03*
X1219657Y416103D03*
X1218766Y568483D03*
X1261157Y410257D03*
X1263889Y566659D03*
X1280436Y429536D03*
X1283168Y585938D03*
X1298853Y449676D03*
X1301901Y606509D03*
X1344724Y593951D03*
X1344392Y442287D03*
X1364855Y423305D03*
X1364101Y574277D03*
X1409700Y560070D03*
X1410970Y408940D03*
X1428979Y579349D03*
X1430249Y428219D03*
X1449527Y447497D03*
X1448713Y599083D03*
X1497406Y600634D03*
X1497406Y448234D03*
X1516685Y581355D03*
X1516685Y428955D03*
X1535963Y562077D03*
X1535963Y409677D03*
X1582446Y574066D03*
X1582572Y420522D03*
X1601864Y593345D03*
X1601851Y439801D03*
X1652270Y454660D03*
X1652209Y607020D03*
X1671549Y435381D03*
X1672173Y588427D03*
X1690827Y416103D03*
X1692363Y568426D03*
X1738706Y567766D03*
X1739976Y414096D03*
X1757985Y587045D03*
X1759255Y433375D03*
X1777263Y606323D03*
X1778533Y452653D03*
X887806Y448234D03*
X888954Y603296D03*
X907085Y428955D03*
X908233Y584017D03*
X926363Y409677D03*
X926479Y563705D03*
X964906Y420076D03*
X968506Y570996D03*
X987964Y590096D03*
X985247Y439588D03*
X1031882Y607505D03*
X1031240Y454660D03*
X1051252Y588318D03*
X1050519Y435381D03*
X1070411Y568919D03*
X1069797Y416103D03*
X1112720Y566022D03*
X1108111Y413421D03*
X1128659Y431429D03*
X1132079Y585600D03*
X1150311Y607020D03*
X1147263Y451383D03*
X1192703Y594188D03*
X1193041Y441808D03*
X1213231Y422529D03*
X1212390Y574959D03*
X1254731Y403831D03*
X1257463Y560233D03*
X1274010Y423110D03*
X1276742Y579512D03*
X1293134Y442543D03*
X1295833Y598978D03*
X1337643Y600377D03*
X1338706Y449454D03*
X1358429Y429731D03*
X1357280Y580703D03*
X1377708Y410452D03*
X1377180Y561236D03*
X1422552Y572922D03*
X1423822Y421792D03*
X1443101Y441071D03*
X1442743Y592201D03*
X1490980Y607060D03*
X1490980Y454660D03*
X1510259Y587781D03*
X1510259Y435381D03*
X1529537Y568503D03*
X1529537Y416103D03*
X1576020Y567640D03*
X1576146Y414096D03*
X1595316Y586919D03*
X1595425Y433375D03*
X1616230Y606072D03*
X1614703Y452653D03*
X1665122Y441808D03*
X1665747Y594853D03*
X1684401Y422529D03*
X1685696Y576244D03*
X1732280Y561340D03*
X1733550Y407670D03*
X1751559Y580619D03*
X1752829Y426949D03*
X1770837Y599897D03*
X1772107Y446227D03*
X881017Y454660D03*
X880659Y607853D03*
X900659Y435381D03*
X901807Y590443D03*
X919937Y416103D03*
X920451Y570529D03*
X958479Y413649D03*
X961077Y564651D03*
X978856Y432713D03*
X981359Y583849D03*
X997263Y453277D03*
X1000252Y607342D03*
X1044826Y594744D03*
X1044092Y441808D03*
X1064105Y575465D03*
X1063371Y422529D03*
X1105995Y559895D03*
X1101684Y406994D03*
X1122233Y425003D03*
X1125652Y579174D03*
X1141045Y444749D03*
X1144573Y599189D03*
X1186276Y600614D03*
X1186624Y448244D03*
X1206180Y581602D03*
X1206630Y428955D03*
X1226083Y409677D03*
X1225725Y562056D03*
X1267583Y416683D03*
X1270316Y573086D03*
X1286862Y435962D03*
X1289594Y592364D03*
X1330960Y606547D03*
X1331490Y455090D03*
X1351268Y587544D03*
X1351965Y436157D03*
X1371282Y416879D03*
X1370565Y567474D03*
X1416126Y566496D03*
X1417396Y415366D03*
X1435405Y585775D03*
X1436675Y434645D03*
X1455953Y453923D03*
X1455139Y605509D03*
X1503832Y594208D03*
X1503832Y441808D03*
X1523111Y574929D03*
X1523111Y422529D03*
X1569594Y561214D03*
X1569720Y407670D03*
X1588873Y580493D03*
X1588999Y426949D03*
X1608412Y599771D03*
X1608277Y446227D03*
X1658696Y448234D03*
X1659321Y601279D03*
X1677975Y428955D03*
X1678600Y582000D03*
X1697253Y409677D03*
X1698069Y560634D03*
X1745132Y574192D03*
X1746402Y420522D03*
X1764411Y593471D03*
X1765681Y439801D03*
D13*
X1238250Y537210D02*
X1088390Y537210D01*
X1238250Y537210D02*
X1390650Y537210D01*
X1549400Y537210D01*
X1710690Y537210D01*
D12*
X1710690Y537210D03*
X1088390Y537210D03*
X1238250Y537210D03*
X1390650Y537210D03*
X1549400Y537210D03*
X938812Y537210D03*
D13*
X1088390Y537210D01*
X938812Y537210D02*
X862330Y537210D01*
X1183640Y93380D02*
X1170940Y80680D01*
X835632Y510512D02*
X862330Y537210D01*
X1183640Y122652D02*
X1183640Y93380D01*
X1183640Y122652D02*
X1102330Y203962D01*
X977868Y203962D01*
X835632Y346198D02*
X835632Y510512D01*
X835632Y346198D02*
X977868Y203962D01*
D12*
X1021446Y648802D03*
D13*
X1021278Y648970D01*
D12*
X863831Y648970D03*
D13*
X1021278Y648970D01*
D12*
X1173762Y649168D03*
D13*
X1173396Y648802D02*
X1021446Y648802D01*
X1173396Y648802D02*
X1173762Y649168D01*
X1327348Y649168D01*
X1328420Y650240D01*
X1483642Y650240D01*
D12*
X1324892Y650240D03*
D13*
X1328420Y650240D01*
D12*
X1483642Y650240D03*
X1634566Y646506D03*
D13*
X1634414Y646506D02*
X1630680Y650240D01*
X1634414Y646506D02*
X1634566Y646506D01*
X1630680Y650240D02*
X1483642Y650240D01*
X863831Y648970D02*
X854710Y648970D01*
X1131570Y157480D02*
X1131570Y92110D01*
X1120140Y80680D01*
X823440Y617700D02*
X854710Y648970D01*
X1097280Y191770D02*
X1131570Y157480D01*
X1097280Y191770D02*
X972818Y191770D01*
X823440Y341148D02*
X823440Y617700D01*
X823440Y341148D02*
X972818Y191770D01*
X1010920Y641350D02*
X856493Y641350D01*
D12*
X1626870Y641350D03*
D13*
X1472212Y642620D02*
X1470942Y641350D01*
X1310640Y641350D01*
X1625600Y642620D02*
X1626870Y641350D01*
X1625600Y642620D02*
X1472212Y642620D01*
D12*
X856493Y641350D03*
X1009582Y641083D03*
D13*
X1010653Y641083D01*
X1010920Y641350D01*
D12*
X1159276Y641006D03*
D13*
X1159621Y641350D01*
X1010920Y641350D01*
X1159621Y641350D02*
X1310640Y641350D01*
D12*
X1310159Y641831D03*
D13*
X1310640Y641350D01*
D12*
X1472212Y642620D03*
D13*
X856493Y641350D02*
X826488Y611345D01*
X1098543Y194818D02*
X1144778Y148583D01*
X1144778Y106842D01*
X1145540Y106080D01*
X1098543Y194818D02*
X974080Y194818D01*
X826488Y342410D02*
X826488Y611345D01*
X826488Y342410D02*
X974080Y194818D01*
X1101342Y622176D02*
X1101020Y622498D01*
X952241Y622498D01*
D12*
X1251452Y621703D03*
D13*
X1101854Y622176D02*
X1101342Y622176D01*
X1101854Y622176D02*
X1250979Y622176D01*
X1251452Y621703D01*
X1404298Y621228D02*
X1562100Y621228D01*
X1404298Y621228D02*
X1403350Y622176D01*
D12*
X1403115Y622176D03*
D13*
X1403350Y622176D01*
X1402643Y621703D02*
X1251452Y621703D01*
X1402643Y621703D02*
X1403115Y622176D01*
D12*
X1562266Y622176D03*
D13*
X1562266Y621394D01*
X1562100Y621228D01*
D12*
X1725162Y622176D03*
D13*
X1724214Y621228D02*
X1562100Y621228D01*
X1724214Y621228D02*
X1725162Y622176D01*
D12*
X952752Y623009D03*
D13*
X952241Y622498D01*
X952752Y623009D02*
X950212Y623009D01*
X948942Y621739D01*
X846529Y621739D01*
X1158240Y93380D02*
X1145540Y80680D01*
X829536Y604746D02*
X846529Y621739D01*
X1158240Y139431D02*
X1158240Y93380D01*
X1158240Y139431D02*
X1099805Y197866D01*
D12*
X1101854Y622106D03*
D13*
X1101854Y622176D01*
X1099805Y197866D02*
X975343Y197866D01*
X829536Y343673D02*
X829536Y604746D01*
X829536Y343673D02*
X975343Y197866D01*
X1101446Y613192D02*
X1101446Y613410D01*
X1101446Y613192D02*
X1101342Y613088D01*
D12*
X1251452Y612615D03*
D13*
X1250979Y613088D02*
X1101342Y613088D01*
X1250979Y613088D02*
X1251452Y612615D01*
D12*
X1403115Y613088D03*
D13*
X1403350Y613088D01*
X1402877Y612615D02*
X1251452Y612615D01*
X1402877Y612615D02*
X1403350Y613088D01*
X1561112Y613128D02*
X1562100Y612140D01*
X1561112Y613128D02*
X1488467Y613128D01*
X1488427Y613088D01*
X1403350Y613088D01*
X1562100Y612140D02*
X1562256Y612140D01*
D12*
X1562266Y613088D03*
D13*
X1562266Y612150D02*
X1562256Y612140D01*
X1562266Y612150D02*
X1562266Y613088D01*
D12*
X1725162Y613088D03*
D13*
X1101446Y613410D02*
X1100935Y613921D01*
D12*
X952179Y613921D03*
D13*
X1100935Y613921D01*
X952179Y613921D02*
X948369Y617731D01*
X850141Y617731D01*
X832584Y600174D01*
X1649313Y613088D02*
X1725162Y613088D01*
X1649313Y613088D02*
X1648365Y612140D01*
X1562256Y612140D01*
X1170940Y131042D02*
X1170940Y106080D01*
X1170940Y131042D02*
X1101068Y200914D01*
D12*
X1101854Y613018D03*
D13*
X1101342Y613088D02*
X1101272Y613018D01*
X1101854Y613018D01*
X1101068Y200914D02*
X976605Y200914D01*
X832584Y344935D02*
X832584Y600174D01*
X832584Y344935D02*
X976605Y200914D01*
D12*
X1088390Y386080D03*
X1238250Y386080D03*
D13*
X1390650Y386080D01*
X1549400Y386080D01*
X1238250Y386080D02*
X1088390Y386080D01*
D12*
X1390650Y386080D03*
X1549400Y386080D03*
X1704340Y386080D03*
D13*
X1088390Y386080D02*
X960120Y386080D01*
X944880Y370840D01*
D12*
X944880Y370840D03*
D13*
X1704058Y386362D02*
X1704340Y386080D01*
X1704058Y386362D02*
X1549682Y386362D01*
X1549400Y386080D01*
X1261110Y113030D02*
X1151890Y222250D01*
X1261110Y113030D02*
X1261110Y94650D01*
X1247140Y80680D01*
X944880Y370840D02*
X928370Y354330D01*
X928370Y308536D01*
X1014656Y222250D01*
X1151890Y222250D01*
D12*
X872490Y496570D03*
D13*
X1025814Y496570D01*
X1173762Y496570D01*
X1324892Y496570D01*
X1482090Y496570D01*
X1633220Y496570D01*
D12*
X1633220Y496570D03*
X1482090Y496570D03*
X1025814Y496570D03*
X1173762Y496570D03*
X1324892Y496570D03*
D13*
X872490Y496570D02*
X851401Y496570D01*
X838680Y483849D01*
X1196848Y113755D02*
X1196848Y106588D01*
X1196340Y106080D01*
X1196848Y113755D02*
X1103593Y207010D01*
X979130Y207010D01*
X838680Y347460D02*
X838680Y483849D01*
X838680Y347460D02*
X979130Y207010D01*
D12*
X852170Y487680D03*
D13*
X1310989Y490220D02*
X1469399Y490220D01*
X1310989Y490220D02*
X1160780Y490220D01*
X1010920Y490220D01*
X854710Y490220D01*
X852170Y487680D01*
D12*
X1160780Y490220D03*
X1010920Y490220D03*
X1310989Y490220D03*
X1469399Y490220D03*
D13*
X852170Y487680D02*
X841728Y477238D01*
D12*
X1646993Y490220D03*
D13*
X1469399Y490220D01*
X1206166Y90506D02*
X1196340Y80680D01*
X1206166Y90506D02*
X1206166Y112690D01*
X1108798Y210058D01*
X980393Y210058D01*
X841728Y348723D02*
X841728Y477238D01*
X841728Y348723D02*
X980393Y210058D01*
X951230Y470098D02*
X1101090Y470098D01*
X1252220Y470098D01*
X1403350Y470098D01*
D12*
X1561061Y470098D03*
X1403350Y470098D03*
X1252220Y470098D03*
X1101090Y470098D03*
D13*
X951230Y470098D02*
X860757Y470098D01*
D12*
X951061Y470374D03*
D13*
X951061Y470267D01*
X951230Y470098D01*
X860757Y470098D02*
X844776Y454117D01*
X1221740Y108620D02*
X1221740Y106080D01*
X1221740Y108620D02*
X1117254Y213106D01*
X1403350Y470098D02*
X1561061Y470098D01*
X1117254Y213106D02*
X981656Y213106D01*
X844776Y349986D02*
X844776Y454117D01*
X844776Y349986D02*
X981656Y213106D01*
D12*
X1723672Y470098D03*
D13*
X1561061Y470098D01*
X1252220Y461010D02*
X1101090Y461010D01*
X1403350Y461010D02*
X1562100Y461010D01*
D12*
X1562100Y461010D03*
X1403350Y461010D03*
X1252220Y461010D03*
X1101090Y461010D03*
D13*
X1252220Y461010D02*
X1328828Y461010D01*
X1328976Y461158D01*
X1334003Y461158D01*
X1334151Y461010D01*
X1403350Y461010D01*
X1101090Y461010D02*
X951473Y461010D01*
D12*
X951473Y461286D03*
D13*
X951473Y461010D01*
X878786Y461010D01*
X1233170Y113792D02*
X1233170Y92110D01*
X1221740Y80680D01*
X847824Y430048D02*
X878786Y461010D01*
X1130808Y216154D02*
X1233170Y113792D01*
X1130808Y216154D02*
X982918Y216154D01*
X847824Y351248D02*
X847824Y430048D01*
X847824Y351248D02*
X982918Y216154D01*
D12*
X1723672Y461010D03*
D13*
X1562100Y461010D01*
M02*
