G04 EAGLE Gerber RS-274X export*
G75*
%MOMM*%
%FSLAX34Y34*%
%LPD*%
%INSoldermask Top*%
%IPPOS*%
%AMOC8*
5,1,8,0,0,1.08239X$1,22.5*%
G01*
G04 Define Apertures*
%ADD10C,4.203200*%
%ADD11R,1.600200X0.551200*%
%ADD12R,1.763200X1.763200*%
%ADD13C,1.763200*%
%ADD14R,0.832300X0.763200*%
%ADD15R,1.711200X1.711200*%
%ADD16C,1.711200*%
%ADD17C,0.959600*%
D10*
X48500Y103500D03*
X1776000Y103500D03*
X1776000Y978500D03*
X912500Y1138500D03*
X48500Y978500D03*
D11*
X347500Y695820D03*
X347500Y702320D03*
X347500Y708820D03*
X347500Y721820D03*
X347500Y715320D03*
X347500Y728320D03*
X347500Y734820D03*
X347500Y741320D03*
X347500Y747820D03*
X347500Y754320D03*
X420620Y695820D03*
X420620Y702320D03*
X420620Y708820D03*
X420620Y715320D03*
X420620Y721820D03*
X420620Y728320D03*
X420620Y734820D03*
X420620Y741320D03*
X420620Y747820D03*
X420620Y754320D03*
X420620Y760820D03*
X420620Y767320D03*
X347500Y767320D03*
X347500Y760820D03*
X348126Y836760D03*
X348126Y843260D03*
X348126Y849760D03*
X348126Y862760D03*
X348126Y856260D03*
X348126Y869260D03*
X348126Y875760D03*
X348126Y882260D03*
X348126Y888760D03*
X348126Y895260D03*
X421246Y836760D03*
X421246Y843260D03*
X421246Y849760D03*
X421246Y856260D03*
X421246Y862760D03*
X421246Y869260D03*
X421246Y875760D03*
X421246Y882260D03*
X421246Y888760D03*
X421246Y895260D03*
X421246Y901760D03*
X421246Y908260D03*
X348126Y908260D03*
X348126Y901760D03*
X502440Y833620D03*
X502440Y840120D03*
X502440Y846620D03*
X502440Y859620D03*
X502440Y853120D03*
X502440Y866120D03*
X502440Y872620D03*
X502440Y879120D03*
X502440Y885620D03*
X502440Y892120D03*
X575560Y833620D03*
X575560Y840120D03*
X575560Y846620D03*
X575560Y853120D03*
X575560Y859620D03*
X575560Y866120D03*
X575560Y872620D03*
X575560Y879120D03*
X575560Y885620D03*
X575560Y892120D03*
X575560Y898620D03*
X575560Y905120D03*
X502440Y905120D03*
X502440Y898620D03*
X503730Y694950D03*
X503730Y701450D03*
X503730Y707950D03*
X503730Y720950D03*
X503730Y714450D03*
X503730Y727450D03*
X503730Y733950D03*
X503730Y740450D03*
X503730Y746950D03*
X503730Y753450D03*
X576850Y694950D03*
X576850Y701450D03*
X576850Y707950D03*
X576850Y714450D03*
X576850Y720950D03*
X576850Y727450D03*
X576850Y733950D03*
X576850Y740450D03*
X576850Y746950D03*
X576850Y753450D03*
X576850Y759950D03*
X576850Y766450D03*
X503730Y766450D03*
X503730Y759950D03*
X656740Y833020D03*
X656740Y839520D03*
X656740Y846020D03*
X656740Y859020D03*
X656740Y852520D03*
X656740Y865520D03*
X656740Y872020D03*
X656740Y878520D03*
X656740Y885020D03*
X656740Y891520D03*
X729860Y833020D03*
X729860Y839520D03*
X729860Y846020D03*
X729860Y852520D03*
X729860Y859020D03*
X729860Y865520D03*
X729860Y872020D03*
X729860Y878520D03*
X729860Y885020D03*
X729860Y891520D03*
X729860Y898020D03*
X729860Y904520D03*
X656740Y904520D03*
X656740Y898020D03*
X655670Y695220D03*
X655670Y701720D03*
X655670Y708220D03*
X655670Y721220D03*
X655670Y714720D03*
X655670Y727720D03*
X655670Y734220D03*
X655670Y740720D03*
X655670Y747220D03*
X655670Y753720D03*
X728790Y695220D03*
X728790Y701720D03*
X728790Y708220D03*
X728790Y714720D03*
X728790Y721220D03*
X728790Y727720D03*
X728790Y734220D03*
X728790Y740720D03*
X728790Y747220D03*
X728790Y753720D03*
X728790Y760220D03*
X728790Y766720D03*
X655670Y766720D03*
X655670Y760220D03*
X186860Y695220D03*
X186860Y701720D03*
X186860Y708220D03*
X186860Y721220D03*
X186860Y714720D03*
X186860Y727720D03*
X186860Y734220D03*
X186860Y740720D03*
X186860Y747220D03*
X186860Y753720D03*
X259980Y695220D03*
X259980Y701720D03*
X259980Y708220D03*
X259980Y714720D03*
X259980Y721220D03*
X259980Y727720D03*
X259980Y734220D03*
X259980Y740720D03*
X259980Y747220D03*
X259980Y753720D03*
X259980Y760220D03*
X259980Y766720D03*
X186860Y766720D03*
X186860Y760220D03*
X187120Y835020D03*
X187120Y841520D03*
X187120Y848020D03*
X187120Y861020D03*
X187120Y854520D03*
X187120Y867520D03*
X187120Y874020D03*
X187120Y880520D03*
X187120Y887020D03*
X187120Y893520D03*
X260240Y835020D03*
X260240Y841520D03*
X260240Y848020D03*
X260240Y854520D03*
X260240Y861020D03*
X260240Y867520D03*
X260240Y874020D03*
X260240Y880520D03*
X260240Y887020D03*
X260240Y893520D03*
X260240Y900020D03*
X260240Y906520D03*
X187120Y906520D03*
X187120Y900020D03*
X24640Y835420D03*
X24640Y841920D03*
X24640Y848420D03*
X24640Y861420D03*
X24640Y854920D03*
X24640Y867920D03*
X24640Y874420D03*
X24640Y880920D03*
X24640Y887420D03*
X24640Y893920D03*
X97760Y835420D03*
X97760Y841920D03*
X97760Y848420D03*
X97760Y854920D03*
X97760Y861420D03*
X97760Y867920D03*
X97760Y874420D03*
X97760Y880920D03*
X97760Y887420D03*
X97760Y893920D03*
X97760Y900420D03*
X97760Y906920D03*
X24640Y906920D03*
X24640Y900420D03*
X24765Y694420D03*
X24765Y700920D03*
X24765Y707420D03*
X24765Y720420D03*
X24765Y713920D03*
X24765Y726920D03*
X24765Y733420D03*
X24765Y739920D03*
X24765Y746420D03*
X24765Y752920D03*
X97885Y694420D03*
X97885Y700920D03*
X97885Y707420D03*
X97885Y713920D03*
X97885Y720420D03*
X97885Y726920D03*
X97885Y733420D03*
X97885Y739920D03*
X97885Y746420D03*
X97885Y752920D03*
X97885Y759420D03*
X97885Y765920D03*
X24765Y765920D03*
X24765Y759420D03*
X806960Y834020D03*
X806960Y840520D03*
X806960Y847020D03*
X806960Y860020D03*
X806960Y853520D03*
X806960Y866520D03*
X806960Y873020D03*
X806960Y879520D03*
X806960Y886020D03*
X806960Y892520D03*
X880080Y834020D03*
X880080Y840520D03*
X880080Y847020D03*
X880080Y853520D03*
X880080Y860020D03*
X880080Y866520D03*
X880080Y873020D03*
X880080Y879520D03*
X880080Y886020D03*
X880080Y892520D03*
X880080Y899020D03*
X880080Y905520D03*
X806960Y905520D03*
X806960Y899020D03*
X808470Y695890D03*
X808470Y702390D03*
X808470Y708890D03*
X808470Y721890D03*
X808470Y715390D03*
X808470Y728390D03*
X808470Y734890D03*
X808470Y741390D03*
X808470Y747890D03*
X808470Y754390D03*
X881590Y695890D03*
X881590Y702390D03*
X881590Y708890D03*
X881590Y715390D03*
X881590Y721890D03*
X881590Y728390D03*
X881590Y734890D03*
X881590Y741390D03*
X881590Y747890D03*
X881590Y754390D03*
X881590Y760890D03*
X881590Y767390D03*
X808470Y767390D03*
X808470Y760890D03*
D12*
X139510Y1250030D03*
D13*
X139510Y1224630D03*
X139510Y1199230D03*
X164910Y1250030D03*
X164910Y1224630D03*
X164910Y1199230D03*
X190310Y1250030D03*
X190310Y1224630D03*
X190310Y1199230D03*
X215710Y1250030D03*
X215710Y1224630D03*
X215710Y1199230D03*
X241110Y1250030D03*
X241110Y1224630D03*
X241110Y1199230D03*
X266510Y1250030D03*
X266510Y1224630D03*
X266510Y1199230D03*
X291910Y1250030D03*
X291910Y1224630D03*
X291910Y1199230D03*
X317310Y1250030D03*
X317310Y1224630D03*
X317310Y1199230D03*
X342710Y1250030D03*
X342710Y1224630D03*
X342710Y1199230D03*
X368110Y1250030D03*
X368110Y1224630D03*
X368110Y1199230D03*
X393510Y1250030D03*
X393510Y1224630D03*
X393510Y1199230D03*
X418910Y1250030D03*
X418910Y1224630D03*
X418910Y1199230D03*
X444310Y1250030D03*
X444310Y1224630D03*
X444310Y1199230D03*
X469710Y1250030D03*
X469710Y1224630D03*
X469710Y1199230D03*
X495110Y1250030D03*
X495110Y1224630D03*
X495110Y1199230D03*
X520510Y1250030D03*
X520510Y1224630D03*
X520510Y1199230D03*
X545910Y1250030D03*
X545910Y1224630D03*
X545910Y1199230D03*
X571310Y1250030D03*
X571310Y1224630D03*
X571310Y1199230D03*
X596710Y1250030D03*
X596710Y1224630D03*
X596710Y1199230D03*
X622110Y1250030D03*
X622110Y1224630D03*
X622110Y1199230D03*
X647510Y1250030D03*
X647510Y1224630D03*
X647510Y1199230D03*
X672910Y1250030D03*
X672910Y1224630D03*
X672910Y1199230D03*
X698310Y1250030D03*
X698310Y1224630D03*
X698310Y1199230D03*
X723710Y1250030D03*
X723710Y1224630D03*
X723710Y1199230D03*
X749110Y1250030D03*
X749110Y1224630D03*
X749110Y1199230D03*
X774510Y1250030D03*
X774510Y1224630D03*
X774510Y1199230D03*
X799910Y1250030D03*
X799910Y1224630D03*
X799910Y1199230D03*
X825310Y1250030D03*
X825310Y1224630D03*
X825310Y1199230D03*
X850710Y1250030D03*
X850710Y1224630D03*
X850710Y1199230D03*
X876110Y1250030D03*
X876110Y1224630D03*
X876110Y1199230D03*
X901510Y1250030D03*
X901510Y1224630D03*
X901510Y1199230D03*
X926910Y1250030D03*
X926910Y1224630D03*
X926910Y1199230D03*
D14*
X809150Y671066D03*
X809150Y661374D03*
X1016000Y524276D03*
X1016000Y514584D03*
X1165860Y525546D03*
X1165860Y515854D03*
X1316990Y525546D03*
X1316990Y515854D03*
X1475740Y525546D03*
X1475740Y515854D03*
X1637030Y526816D03*
X1637030Y517124D03*
X866140Y525546D03*
X866140Y515854D03*
X1475740Y376956D03*
X1475740Y367264D03*
X1637030Y375686D03*
X1637030Y365994D03*
X1316990Y375686D03*
X1316990Y365994D03*
X1165180Y376986D03*
X1165180Y367294D03*
X180720Y809346D03*
X180720Y799654D03*
X17921Y801793D03*
X17921Y792101D03*
X342470Y807576D03*
X342470Y797884D03*
X24520Y672276D03*
X24520Y662584D03*
X348130Y671546D03*
X348130Y661854D03*
X504530Y671776D03*
X504530Y662084D03*
X496550Y806266D03*
X496550Y796574D03*
X654300Y807606D03*
X654300Y797914D03*
X807280Y804296D03*
X807280Y794604D03*
X187460Y671506D03*
X187460Y661814D03*
X655480Y671706D03*
X655480Y662014D03*
D15*
X655170Y80680D03*
D16*
X655170Y106080D03*
X629770Y80680D03*
X629770Y106080D03*
X604370Y80680D03*
X604370Y106080D03*
X578970Y80680D03*
X578970Y106080D03*
X553570Y80680D03*
X553570Y106080D03*
X528170Y80680D03*
X528170Y106080D03*
X502770Y80680D03*
X502770Y106080D03*
X477370Y80680D03*
X477370Y106080D03*
X451970Y80680D03*
X451970Y106080D03*
X426570Y80680D03*
X426570Y106080D03*
X401170Y80680D03*
X401170Y106080D03*
X375770Y80680D03*
X375770Y106080D03*
D11*
X1165650Y402400D03*
X1165650Y408900D03*
X1165650Y415400D03*
X1165650Y428400D03*
X1165650Y421900D03*
X1165650Y434900D03*
X1165650Y441400D03*
X1165650Y447900D03*
X1165650Y454400D03*
X1165650Y460900D03*
X1238770Y402400D03*
X1238770Y408900D03*
X1238770Y415400D03*
X1238770Y421900D03*
X1238770Y428400D03*
X1238770Y434900D03*
X1238770Y441400D03*
X1238770Y447900D03*
X1238770Y454400D03*
X1238770Y460900D03*
X1238770Y467400D03*
X1238770Y473900D03*
X1165650Y473900D03*
X1165650Y467400D03*
X1165650Y555020D03*
X1165650Y561520D03*
X1165650Y568020D03*
X1165650Y581020D03*
X1165650Y574520D03*
X1165650Y587520D03*
X1165650Y594020D03*
X1165650Y600520D03*
X1165650Y607020D03*
X1165650Y613520D03*
X1238770Y555020D03*
X1238770Y561520D03*
X1238770Y568020D03*
X1238770Y574520D03*
X1238770Y581020D03*
X1238770Y587520D03*
X1238770Y594020D03*
X1238770Y600520D03*
X1238770Y607020D03*
X1238770Y613520D03*
X1238770Y620020D03*
X1238770Y626520D03*
X1165650Y626520D03*
X1165650Y620020D03*
X1317240Y555020D03*
X1317240Y561520D03*
X1317240Y568020D03*
X1317240Y581020D03*
X1317240Y574520D03*
X1317240Y587520D03*
X1317240Y594020D03*
X1317240Y600520D03*
X1317240Y607020D03*
X1317240Y613520D03*
X1390360Y555020D03*
X1390360Y561520D03*
X1390360Y568020D03*
X1390360Y574520D03*
X1390360Y581020D03*
X1390360Y587520D03*
X1390360Y594020D03*
X1390360Y600520D03*
X1390360Y607020D03*
X1390360Y613520D03*
X1390360Y620020D03*
X1390360Y626520D03*
X1317240Y626520D03*
X1317240Y620020D03*
X1317240Y402760D03*
X1317240Y409260D03*
X1317240Y415760D03*
X1317240Y428760D03*
X1317240Y422260D03*
X1317240Y435260D03*
X1317240Y441760D03*
X1317240Y448260D03*
X1317240Y454760D03*
X1317240Y461260D03*
X1390360Y402760D03*
X1390360Y409260D03*
X1390360Y415760D03*
X1390360Y422260D03*
X1390360Y428760D03*
X1390360Y435260D03*
X1390360Y441760D03*
X1390360Y448260D03*
X1390360Y454760D03*
X1390360Y461260D03*
X1390360Y467760D03*
X1390360Y474260D03*
X1317240Y474260D03*
X1317240Y467760D03*
X1475650Y555020D03*
X1475650Y561520D03*
X1475650Y568020D03*
X1475650Y581020D03*
X1475650Y574520D03*
X1475650Y587520D03*
X1475650Y594020D03*
X1475650Y600520D03*
X1475650Y607020D03*
X1475650Y613520D03*
X1548770Y555020D03*
X1548770Y561520D03*
X1548770Y568020D03*
X1548770Y574520D03*
X1548770Y581020D03*
X1548770Y587520D03*
X1548770Y594020D03*
X1548770Y600520D03*
X1548770Y607020D03*
X1548770Y613520D03*
X1548770Y620020D03*
X1548770Y626520D03*
X1475650Y626520D03*
X1475650Y620020D03*
X1475650Y402400D03*
X1475650Y408900D03*
X1475650Y415400D03*
X1475650Y428400D03*
X1475650Y421900D03*
X1475650Y434900D03*
X1475650Y441400D03*
X1475650Y447900D03*
X1475650Y454400D03*
X1475650Y460900D03*
X1548770Y402400D03*
X1548770Y408900D03*
X1548770Y415400D03*
X1548770Y421900D03*
X1548770Y428400D03*
X1548770Y434900D03*
X1548770Y441400D03*
X1548770Y447900D03*
X1548770Y454400D03*
X1548770Y460900D03*
X1548770Y467400D03*
X1548770Y473900D03*
X1475650Y473900D03*
X1475650Y467400D03*
X1015650Y402400D03*
X1015650Y408900D03*
X1015650Y415400D03*
X1015650Y428400D03*
X1015650Y421900D03*
X1015650Y434900D03*
X1015650Y441400D03*
X1015650Y447900D03*
X1015650Y454400D03*
X1015650Y460900D03*
X1088770Y402400D03*
X1088770Y408900D03*
X1088770Y415400D03*
X1088770Y421900D03*
X1088770Y428400D03*
X1088770Y434900D03*
X1088770Y441400D03*
X1088770Y447900D03*
X1088770Y454400D03*
X1088770Y460900D03*
X1088770Y467400D03*
X1088770Y473900D03*
X1015650Y473900D03*
X1015650Y467400D03*
X1015650Y555020D03*
X1015650Y561520D03*
X1015650Y568020D03*
X1015650Y581020D03*
X1015650Y574520D03*
X1015650Y587520D03*
X1015650Y594020D03*
X1015650Y600520D03*
X1015650Y607020D03*
X1015650Y613520D03*
X1088770Y555020D03*
X1088770Y561520D03*
X1088770Y568020D03*
X1088770Y574520D03*
X1088770Y581020D03*
X1088770Y587520D03*
X1088770Y594020D03*
X1088770Y600520D03*
X1088770Y607020D03*
X1088770Y613520D03*
X1088770Y620020D03*
X1088770Y626520D03*
X1015650Y626520D03*
X1015650Y620020D03*
X865650Y555020D03*
X865650Y561520D03*
X865650Y568020D03*
X865650Y581020D03*
X865650Y574520D03*
X865650Y587520D03*
X865650Y594020D03*
X865650Y600520D03*
X865650Y607020D03*
X865650Y613520D03*
X938770Y555020D03*
X938770Y561520D03*
X938770Y568020D03*
X938770Y574520D03*
X938770Y581020D03*
X938770Y587520D03*
X938770Y594020D03*
X938770Y600520D03*
X938770Y607020D03*
X938770Y613520D03*
X938770Y620020D03*
X938770Y626520D03*
X865650Y626520D03*
X865650Y620020D03*
X865650Y402400D03*
X865650Y408900D03*
X865650Y415400D03*
X865650Y428400D03*
X865650Y421900D03*
X865650Y434900D03*
X865650Y441400D03*
X865650Y447900D03*
X865650Y454400D03*
X865650Y460900D03*
X938770Y402400D03*
X938770Y408900D03*
X938770Y415400D03*
X938770Y421900D03*
X938770Y428400D03*
X938770Y434900D03*
X938770Y441400D03*
X938770Y447900D03*
X938770Y454400D03*
X938770Y460900D03*
X938770Y467400D03*
X938770Y473900D03*
X865650Y473900D03*
X865650Y467400D03*
X1637240Y555020D03*
X1637240Y561520D03*
X1637240Y568020D03*
X1637240Y581020D03*
X1637240Y574520D03*
X1637240Y587520D03*
X1637240Y594020D03*
X1637240Y600520D03*
X1637240Y607020D03*
X1637240Y613520D03*
X1710360Y555020D03*
X1710360Y561520D03*
X1710360Y568020D03*
X1710360Y574520D03*
X1710360Y581020D03*
X1710360Y587520D03*
X1710360Y594020D03*
X1710360Y600520D03*
X1710360Y607020D03*
X1710360Y613520D03*
X1710360Y620020D03*
X1710360Y626520D03*
X1637240Y626520D03*
X1637240Y620020D03*
X1637240Y402400D03*
X1637240Y408900D03*
X1637240Y415400D03*
X1637240Y428400D03*
X1637240Y421900D03*
X1637240Y434900D03*
X1637240Y441400D03*
X1637240Y447900D03*
X1637240Y454400D03*
X1637240Y460900D03*
X1710360Y402400D03*
X1710360Y408900D03*
X1710360Y415400D03*
X1710360Y421900D03*
X1710360Y428400D03*
X1710360Y434900D03*
X1710360Y441400D03*
X1710360Y447900D03*
X1710360Y454400D03*
X1710360Y460900D03*
X1710360Y467400D03*
X1710360Y473900D03*
X1637240Y473900D03*
X1637240Y467400D03*
D12*
X989010Y1249680D03*
D13*
X989010Y1224280D03*
X989010Y1198880D03*
X1014410Y1249680D03*
X1014410Y1224280D03*
X1014410Y1198880D03*
X1039810Y1249680D03*
X1039810Y1224280D03*
X1039810Y1198880D03*
X1065210Y1249680D03*
X1065210Y1224280D03*
X1065210Y1198880D03*
X1090610Y1249680D03*
X1090610Y1224280D03*
X1090610Y1198880D03*
X1116010Y1249680D03*
X1116010Y1224280D03*
X1116010Y1198880D03*
X1141410Y1249680D03*
X1141410Y1224280D03*
X1141410Y1198880D03*
X1166810Y1249680D03*
X1166810Y1224280D03*
X1166810Y1198880D03*
X1192210Y1249680D03*
X1192210Y1224280D03*
X1192210Y1198880D03*
X1217610Y1249680D03*
X1217610Y1224280D03*
X1217610Y1198880D03*
X1243010Y1249680D03*
X1243010Y1224280D03*
X1243010Y1198880D03*
X1268410Y1249680D03*
X1268410Y1224280D03*
X1268410Y1198880D03*
X1293810Y1249680D03*
X1293810Y1224280D03*
X1293810Y1198880D03*
X1319210Y1249680D03*
X1319210Y1224280D03*
X1319210Y1198880D03*
X1344610Y1249680D03*
X1344610Y1224280D03*
X1344610Y1198880D03*
X1370010Y1249680D03*
X1370010Y1224280D03*
X1370010Y1198880D03*
X1395410Y1249680D03*
X1395410Y1224280D03*
X1395410Y1198880D03*
X1420810Y1249680D03*
X1420810Y1224280D03*
X1420810Y1198880D03*
X1446210Y1249680D03*
X1446210Y1224280D03*
X1446210Y1198880D03*
X1471610Y1249680D03*
X1471610Y1224280D03*
X1471610Y1198880D03*
X1497010Y1249680D03*
X1497010Y1224280D03*
X1497010Y1198880D03*
X1522410Y1249680D03*
X1522410Y1224280D03*
X1522410Y1198880D03*
X1547810Y1249680D03*
X1547810Y1224280D03*
X1547810Y1198880D03*
X1573210Y1249680D03*
X1573210Y1224280D03*
X1573210Y1198880D03*
X1598610Y1249680D03*
X1598610Y1224280D03*
X1598610Y1198880D03*
X1624010Y1249680D03*
X1624010Y1224280D03*
X1624010Y1198880D03*
X1649410Y1249680D03*
X1649410Y1224280D03*
X1649410Y1198880D03*
X1674810Y1249680D03*
X1674810Y1224280D03*
X1674810Y1198880D03*
X1700210Y1249680D03*
X1700210Y1224280D03*
X1700210Y1198880D03*
X1725610Y1249680D03*
X1725610Y1224280D03*
X1725610Y1198880D03*
X1751010Y1249680D03*
X1751010Y1224280D03*
X1751010Y1198880D03*
X1776410Y1249680D03*
X1776410Y1224280D03*
X1776410Y1198880D03*
D14*
X1014730Y375686D03*
X1014730Y365994D03*
X866140Y368066D03*
X866140Y358374D03*
D15*
X1399540Y80680D03*
D16*
X1399540Y106080D03*
X1374140Y80680D03*
X1374140Y106080D03*
X1348740Y80680D03*
X1348740Y106080D03*
X1323340Y80680D03*
X1323340Y106080D03*
X1297940Y80680D03*
X1297940Y106080D03*
X1272540Y80680D03*
X1272540Y106080D03*
X1247140Y80680D03*
X1247140Y106080D03*
X1221740Y80680D03*
X1221740Y106080D03*
X1196340Y80680D03*
X1196340Y106080D03*
X1170940Y80680D03*
X1170940Y106080D03*
X1145540Y80680D03*
X1145540Y106080D03*
X1120140Y80680D03*
X1120140Y106080D03*
D17*
X274320Y912565D03*
X587498Y911312D03*
X742549Y913146D03*
X109502Y912791D03*
X887730Y778510D03*
X271780Y772442D03*
X740410Y772442D03*
X806450Y784860D03*
X654050Y788670D03*
X496570Y787400D03*
X342900Y784860D03*
X180340Y788670D03*
X355600Y652780D03*
X504190Y651510D03*
X655320Y651510D03*
X808990Y652780D03*
X188441Y653261D03*
X109471Y771172D03*
X30706Y793750D03*
X1637030Y508000D03*
X866140Y506730D03*
X866140Y349250D03*
X1165860Y506448D03*
X1316835Y505615D03*
X1015370Y505460D03*
X1092200Y635000D03*
X1241173Y634617D03*
X1394460Y635000D03*
X1475774Y507718D03*
X1713230Y636270D03*
X1637030Y356870D03*
X1092200Y481330D03*
X1244600Y481330D03*
X1714500Y481330D03*
X942340Y481612D03*
X1394460Y481612D03*
X1553210Y481612D03*
X1014730Y357858D03*
X1165784Y359128D03*
X1316990Y357858D03*
X1475740Y359128D03*
X947672Y633730D03*
X1552623Y635000D03*
X35476Y651510D03*
X894362Y911125D03*
X432612Y772442D03*
X433590Y914400D03*
X588010Y772447D03*
X43690Y880870D03*
X48709Y741231D03*
X63075Y861372D03*
X67135Y721099D03*
X85594Y698600D03*
X84199Y841513D03*
X129632Y854565D03*
X129668Y712598D03*
X148792Y873962D03*
X148947Y731877D03*
X200660Y887277D03*
X200660Y746713D03*
X220165Y868225D03*
X220854Y727836D03*
X239730Y848671D03*
X240125Y708513D03*
X288114Y846914D03*
X288114Y707214D03*
X309234Y726957D03*
X309171Y866595D03*
X328459Y746958D03*
X328543Y887051D03*
X374069Y734642D03*
X374151Y875529D03*
X393347Y715363D03*
X393429Y856251D03*
X437984Y702144D03*
X438680Y842664D03*
X458198Y721446D03*
X458051Y862943D03*
X478508Y740702D03*
X477119Y882432D03*
X522681Y740969D03*
X522404Y880034D03*
X541922Y860158D03*
X541960Y721690D03*
X561201Y840879D03*
X561239Y702411D03*
X607401Y711829D03*
X606885Y852788D03*
X626436Y731351D03*
X626021Y872210D03*
X670434Y885316D03*
X669290Y747628D03*
X689713Y866037D03*
X688770Y728550D03*
X708991Y846759D03*
X708049Y709272D03*
X753004Y705996D03*
X753785Y844706D03*
X772675Y725625D03*
X772240Y865029D03*
X790222Y886230D03*
X790083Y746996D03*
X833826Y873251D03*
X833987Y734440D03*
X853006Y853874D03*
X853167Y715063D03*
X900430Y839470D03*
X901700Y702310D03*
X920979Y721589D03*
X920976Y858678D03*
X940257Y740867D03*
X940221Y877991D03*
X37245Y887277D03*
X44422Y749796D03*
X56844Y868018D03*
X60764Y727581D03*
X79263Y705597D03*
X76381Y847581D03*
X124178Y847166D03*
X123444Y705969D03*
X142366Y867536D03*
X142520Y725450D03*
X161645Y886815D03*
X161572Y744956D03*
X213739Y874651D03*
X214428Y734262D03*
X233392Y855185D03*
X233662Y714940D03*
X281688Y840488D03*
X281688Y700788D03*
X301896Y859767D03*
X301896Y720067D03*
X321732Y740832D03*
X321970Y879500D03*
X367642Y741068D03*
X367724Y882216D03*
X386921Y721789D03*
X386934Y862607D03*
X406200Y702510D03*
X406372Y843308D03*
X451794Y714997D03*
X451670Y856471D03*
X471076Y734325D03*
X470784Y875914D03*
X515620Y886460D03*
X516890Y748030D03*
X535496Y866584D03*
X535534Y728116D03*
X554774Y847306D03*
X554813Y708838D03*
X600853Y704819D03*
X600810Y846011D03*
X620040Y724895D03*
X619609Y865769D03*
X638856Y886405D03*
X637283Y746209D03*
X683286Y872464D03*
X682344Y734977D03*
X702565Y853185D03*
X701622Y715698D03*
X746564Y699574D03*
X746189Y839449D03*
X766479Y718932D03*
X766344Y858073D03*
X785608Y738618D03*
X784431Y878857D03*
X827758Y880232D03*
X827572Y740878D03*
X846580Y860300D03*
X846840Y721588D03*
X866240Y702210D03*
X865859Y841021D03*
X914488Y852246D03*
X914552Y715162D03*
X933831Y734441D03*
X933795Y871565D03*
X50116Y874444D03*
X54510Y734179D03*
X73196Y713060D03*
X70132Y854306D03*
X116840Y840740D03*
X116815Y699745D03*
X135940Y861110D03*
X136094Y719024D03*
X155218Y880388D03*
X155373Y738303D03*
X207313Y881077D03*
X207671Y740645D03*
X226966Y861799D03*
X227280Y721410D03*
X246603Y702087D03*
X246193Y842281D03*
X294541Y853341D03*
X294541Y713641D03*
X315306Y734406D03*
X315544Y873074D03*
X360680Y747136D03*
X361111Y888454D03*
X380495Y728215D03*
X380577Y869103D03*
X399774Y708937D03*
X400035Y850003D03*
X445726Y849343D03*
X444748Y708571D03*
X464243Y728305D03*
X464877Y868969D03*
X484457Y888364D03*
X484576Y748228D03*
X529069Y873011D03*
X529108Y734543D03*
X548348Y853732D03*
X548386Y715264D03*
X593677Y699087D03*
X594173Y839795D03*
X613648Y718435D03*
X613242Y859284D03*
X632855Y737785D03*
X631518Y879565D03*
X676860Y878890D03*
X675917Y741403D03*
X696139Y859611D03*
X695196Y722124D03*
X715543Y840458D03*
X714475Y702845D03*
X760121Y851222D03*
X760276Y712218D03*
X779416Y731958D03*
X778197Y871925D03*
X820222Y886658D03*
X821580Y747738D03*
X840154Y866726D03*
X840413Y728014D03*
X859235Y847250D03*
X859791Y708637D03*
X908050Y845820D03*
X908126Y708736D03*
X927405Y728015D03*
X927368Y865138D03*
X947313Y748179D03*
X946647Y884417D03*
X272742Y894389D03*
X587851Y892628D03*
X742549Y893628D03*
X110772Y893345D03*
X894362Y892949D03*
X433590Y894828D03*
X273050Y903477D03*
X433578Y903916D03*
X588010Y902224D03*
X742549Y902788D03*
X110051Y902433D03*
X894362Y902037D03*
X494734Y922800D03*
X798959Y922800D03*
X21930Y913966D03*
X168628Y919950D03*
X334959Y922800D03*
X648498Y922800D03*
X175260Y928868D03*
X505882Y929290D03*
X805076Y929536D03*
X344170Y928868D03*
X15488Y928310D03*
X659746Y929484D03*
X422910Y821690D03*
X264442Y821690D03*
X580544Y821536D03*
X734766Y821690D03*
X107161Y821209D03*
X886460Y821690D03*
X110490Y752896D03*
X273789Y753450D03*
X894116Y753958D03*
X589987Y753001D03*
X742142Y753486D03*
X433882Y752725D03*
X110176Y761984D03*
X273296Y762538D03*
X894116Y763046D03*
X433882Y761813D03*
X589987Y762089D03*
X742142Y762574D03*
X646430Y778510D03*
X179070Y776098D03*
X37528Y765112D03*
X795938Y772838D03*
X494030Y775264D03*
X341432Y775772D03*
X506730Y784860D03*
X664210Y784860D03*
X32230Y772982D03*
X805026Y775772D03*
X351988Y784860D03*
X187616Y783093D03*
X101600Y668020D03*
X885190Y681990D03*
X262890Y681990D03*
X425450Y681990D03*
X581660Y681990D03*
X734060Y681990D03*
X171450Y833476D03*
X678180Y688340D03*
X525780Y689610D03*
X368300Y688340D03*
X199390Y688340D03*
X1625600Y396240D03*
X858520Y547370D03*
X1624330Y548640D03*
X1306830Y548640D03*
X1156970Y547370D03*
X1007110Y547370D03*
X1002256Y396144D03*
X1149446Y396144D03*
X1302738Y395759D03*
X1462758Y548640D03*
X1463190Y394928D03*
X854682Y396240D03*
X334899Y833476D03*
X30634Y807566D03*
X822960Y688058D03*
X44422Y687070D03*
X489255Y833074D03*
X643654Y833476D03*
X793750Y833845D03*
X894232Y441808D03*
X894746Y596234D03*
X913511Y422529D03*
X914476Y577407D03*
X951418Y407858D03*
X954731Y558128D03*
X971393Y426441D03*
X974781Y577574D03*
X990757Y446931D03*
X994184Y599312D03*
X1038400Y601170D03*
X1037666Y448234D03*
X1057679Y581891D03*
X1056945Y428955D03*
X1076479Y561894D03*
X1076223Y409677D03*
X1118847Y572747D03*
X1115172Y419212D03*
X1135086Y437856D03*
X1138505Y592026D03*
X1179830Y607020D03*
X1180198Y454670D03*
X1199129Y587761D03*
X1200229Y435407D03*
X1219657Y416103D03*
X1218766Y568483D03*
X1261157Y410257D03*
X1263889Y566659D03*
X1280436Y429536D03*
X1283168Y585938D03*
X1298853Y449676D03*
X1301901Y606509D03*
X1344724Y593951D03*
X1344392Y442287D03*
X1364855Y423305D03*
X1364101Y574277D03*
X1409700Y560070D03*
X1410970Y408940D03*
X1428979Y579349D03*
X1430249Y428219D03*
X1449527Y447497D03*
X1448713Y599083D03*
X1497406Y600634D03*
X1497406Y448234D03*
X1516685Y581355D03*
X1516685Y428955D03*
X1535963Y562077D03*
X1535963Y409677D03*
X1582446Y574066D03*
X1582572Y420522D03*
X1601864Y593345D03*
X1601851Y439801D03*
X1652270Y454660D03*
X1652209Y607020D03*
X1671549Y435381D03*
X1672173Y588427D03*
X1690827Y416103D03*
X1692363Y568426D03*
X1738706Y567766D03*
X1739976Y414096D03*
X1757985Y587045D03*
X1759255Y433375D03*
X1777263Y606323D03*
X1778533Y452653D03*
X887806Y448234D03*
X888954Y603296D03*
X907085Y428955D03*
X908233Y584017D03*
X926363Y409677D03*
X926479Y563705D03*
X964906Y420076D03*
X968506Y570996D03*
X987964Y590096D03*
X985247Y439588D03*
X1031882Y607505D03*
X1031240Y454660D03*
X1051252Y588318D03*
X1050519Y435381D03*
X1070411Y568919D03*
X1069797Y416103D03*
X1112720Y566022D03*
X1108111Y413421D03*
X1128659Y431429D03*
X1132079Y585600D03*
X1150311Y607020D03*
X1147263Y451383D03*
X1192703Y594188D03*
X1193041Y441808D03*
X1213231Y422529D03*
X1212390Y574959D03*
X1254731Y403831D03*
X1257463Y560233D03*
X1274010Y423110D03*
X1276742Y579512D03*
X1293134Y442543D03*
X1295833Y598978D03*
X1337643Y600377D03*
X1338706Y449454D03*
X1358429Y429731D03*
X1357280Y580703D03*
X1377708Y410452D03*
X1377180Y561236D03*
X1422552Y572922D03*
X1423822Y421792D03*
X1443101Y441071D03*
X1442743Y592201D03*
X1490980Y607060D03*
X1490980Y454660D03*
X1510259Y587781D03*
X1510259Y435381D03*
X1529537Y568503D03*
X1529537Y416103D03*
X1576020Y567640D03*
X1576146Y414096D03*
X1595316Y586919D03*
X1595425Y433375D03*
X1616230Y606072D03*
X1614703Y452653D03*
X1665122Y441808D03*
X1665747Y594853D03*
X1684401Y422529D03*
X1685696Y576244D03*
X1732280Y561340D03*
X1733550Y407670D03*
X1751559Y580619D03*
X1752829Y426949D03*
X1770837Y599897D03*
X1772107Y446227D03*
X881017Y454660D03*
X880659Y607853D03*
X900659Y435381D03*
X901807Y590443D03*
X919937Y416103D03*
X920451Y570529D03*
X958479Y413649D03*
X961077Y564651D03*
X978856Y432713D03*
X981359Y583849D03*
X997263Y453277D03*
X1000252Y607342D03*
X1044826Y594744D03*
X1044092Y441808D03*
X1064105Y575465D03*
X1063371Y422529D03*
X1105995Y559895D03*
X1101684Y406994D03*
X1122233Y425003D03*
X1125652Y579174D03*
X1141045Y444749D03*
X1144573Y599189D03*
X1186276Y600614D03*
X1186624Y448244D03*
X1206180Y581602D03*
X1206630Y428955D03*
X1226083Y409677D03*
X1225725Y562056D03*
X1267583Y416683D03*
X1270316Y573086D03*
X1286862Y435962D03*
X1289594Y592364D03*
X1330960Y606547D03*
X1331490Y455090D03*
X1351268Y587544D03*
X1351965Y436157D03*
X1371282Y416879D03*
X1370565Y567474D03*
X1416126Y566496D03*
X1417396Y415366D03*
X1435405Y585775D03*
X1436675Y434645D03*
X1455953Y453923D03*
X1455139Y605509D03*
X1503832Y594208D03*
X1503832Y441808D03*
X1523111Y574929D03*
X1523111Y422529D03*
X1569594Y561214D03*
X1569720Y407670D03*
X1588873Y580493D03*
X1588999Y426949D03*
X1608412Y599771D03*
X1608277Y446227D03*
X1658696Y448234D03*
X1659321Y601279D03*
X1677975Y428955D03*
X1678600Y582000D03*
X1697253Y409677D03*
X1698069Y560634D03*
X1745132Y574192D03*
X1746402Y420522D03*
X1764411Y593471D03*
X1765681Y439801D03*
X1710690Y537210D03*
X1088390Y537210D03*
X1238250Y537210D03*
X1390650Y537210D03*
X1549400Y537210D03*
X938812Y537210D03*
X1021446Y648802D03*
X863831Y648970D03*
X1173762Y649168D03*
X1324892Y650240D03*
X1483642Y650240D03*
X1634566Y646506D03*
X1626870Y641350D03*
X856493Y641350D03*
X1009582Y641083D03*
X1159276Y641006D03*
X1310159Y641831D03*
X1472212Y642620D03*
X1251452Y621703D03*
X1403115Y622176D03*
X1562266Y622176D03*
X1725162Y622176D03*
X952752Y623009D03*
X1101854Y622106D03*
X1251452Y612615D03*
X1403115Y613088D03*
X1562266Y613088D03*
X1725162Y613088D03*
X952179Y613921D03*
X1101854Y613018D03*
X1088390Y386080D03*
X1238250Y386080D03*
X1390650Y386080D03*
X1549400Y386080D03*
X1704340Y386080D03*
X944880Y370840D03*
X872490Y496570D03*
X1633220Y496570D03*
X1482090Y496570D03*
X1025814Y496570D03*
X1173762Y496570D03*
X1324892Y496570D03*
X852170Y487680D03*
X1160780Y490220D03*
X1010920Y490220D03*
X1310989Y490220D03*
X1469399Y490220D03*
X1646993Y490220D03*
X1561061Y470098D03*
X1403350Y470098D03*
X1252220Y470098D03*
X1101090Y470098D03*
X951061Y470374D03*
X1723672Y470098D03*
X1562100Y461010D03*
X1403350Y461010D03*
X1252220Y461010D03*
X1101090Y461010D03*
X951473Y461286D03*
X1723672Y461010D03*
M02*
