G04 EAGLE Gerber RS-274X export*
G75*
%MOMM*%
%FSLAX34Y34*%
%LPD*%
%INBottom Copper*%
%IPPOS*%
%AMOC8*
5,1,8,0,0,1.08239X$1,22.5*%
G01*
G04 Define Apertures*
%ADD10R,1.508000X1.508000*%
%ADD11C,1.508000*%
%ADD12R,1.530000X1.530000*%
%ADD13C,1.530000*%
%ADD14C,0.756400*%
%ADD15C,0.152400*%
D10*
X412750Y76200D03*
D11*
X412750Y50800D03*
X438150Y76200D03*
X438150Y50800D03*
X463550Y76200D03*
X463550Y50800D03*
X488950Y76200D03*
X488950Y50800D03*
X514350Y76200D03*
X514350Y50800D03*
X539750Y76200D03*
X539750Y50800D03*
X565150Y76200D03*
X565150Y50800D03*
X590550Y76200D03*
X590550Y50800D03*
X615950Y76200D03*
X615950Y50800D03*
X641350Y76200D03*
X641350Y50800D03*
X666750Y76200D03*
X666750Y50800D03*
X692150Y76200D03*
X692150Y50800D03*
D10*
X1404620Y77470D03*
D11*
X1404620Y52070D03*
X1430020Y77470D03*
X1430020Y52070D03*
X1455420Y77470D03*
X1455420Y52070D03*
X1480820Y77470D03*
X1480820Y52070D03*
X1506220Y77470D03*
X1506220Y52070D03*
X1531620Y77470D03*
X1531620Y52070D03*
X1557020Y77470D03*
X1557020Y52070D03*
X1582420Y77470D03*
X1582420Y52070D03*
X1607820Y77470D03*
X1607820Y52070D03*
X1633220Y77470D03*
X1633220Y52070D03*
X1658620Y77470D03*
X1658620Y52070D03*
X1684020Y77470D03*
X1684020Y52070D03*
D12*
X76200Y647700D03*
D13*
X76200Y673100D03*
X101600Y647700D03*
X101600Y673100D03*
X127000Y647700D03*
X127000Y673100D03*
X152400Y647700D03*
X152400Y673100D03*
X177800Y647700D03*
X177800Y673100D03*
X203200Y647700D03*
X203200Y673100D03*
X228600Y647700D03*
X228600Y673100D03*
X254000Y647700D03*
X254000Y673100D03*
X279400Y647700D03*
X279400Y673100D03*
X304800Y647700D03*
X304800Y673100D03*
X330200Y647700D03*
X330200Y673100D03*
X355600Y647700D03*
X355600Y673100D03*
X381000Y647700D03*
X381000Y673100D03*
X406400Y647700D03*
X406400Y673100D03*
X431800Y647700D03*
X431800Y673100D03*
X457200Y647700D03*
X457200Y673100D03*
X482600Y647700D03*
X482600Y673100D03*
X508000Y647700D03*
X508000Y673100D03*
X533400Y647700D03*
X533400Y673100D03*
X558800Y647700D03*
X558800Y673100D03*
X584200Y647700D03*
X584200Y673100D03*
X609600Y647700D03*
X609600Y673100D03*
X635000Y647700D03*
X635000Y673100D03*
X660400Y647700D03*
X660400Y673100D03*
X685800Y647700D03*
X685800Y673100D03*
X711200Y647700D03*
X711200Y673100D03*
X736600Y647700D03*
X736600Y673100D03*
X762000Y647700D03*
X762000Y673100D03*
X787400Y647700D03*
X787400Y673100D03*
X812800Y647700D03*
X812800Y673100D03*
X838200Y647700D03*
X838200Y673100D03*
X863600Y647700D03*
X863600Y673100D03*
X889000Y647700D03*
X889000Y673100D03*
X914400Y647700D03*
X914400Y673100D03*
X939800Y647700D03*
X939800Y673100D03*
X965200Y647700D03*
X965200Y673100D03*
D12*
X1130300Y647700D03*
D13*
X1130300Y673100D03*
X1155700Y647700D03*
X1155700Y673100D03*
X1181100Y647700D03*
X1181100Y673100D03*
X1206500Y647700D03*
X1206500Y673100D03*
X1231900Y647700D03*
X1231900Y673100D03*
X1257300Y647700D03*
X1257300Y673100D03*
X1282700Y647700D03*
X1282700Y673100D03*
X1308100Y647700D03*
X1308100Y673100D03*
X1333500Y647700D03*
X1333500Y673100D03*
X1358900Y647700D03*
X1358900Y673100D03*
X1384300Y647700D03*
X1384300Y673100D03*
X1409700Y647700D03*
X1409700Y673100D03*
X1435100Y647700D03*
X1435100Y673100D03*
X1460500Y647700D03*
X1460500Y673100D03*
X1485900Y647700D03*
X1485900Y673100D03*
X1511300Y647700D03*
X1511300Y673100D03*
X1536700Y647700D03*
X1536700Y673100D03*
X1562100Y647700D03*
X1562100Y673100D03*
X1587500Y647700D03*
X1587500Y673100D03*
X1612900Y647700D03*
X1612900Y673100D03*
X1638300Y647700D03*
X1638300Y673100D03*
X1663700Y647700D03*
X1663700Y673100D03*
X1689100Y647700D03*
X1689100Y673100D03*
X1714500Y647700D03*
X1714500Y673100D03*
X1739900Y647700D03*
X1739900Y673100D03*
X1765300Y647700D03*
X1765300Y673100D03*
X1790700Y647700D03*
X1790700Y673100D03*
X1816100Y647700D03*
X1816100Y673100D03*
X1841500Y647700D03*
X1841500Y673100D03*
X1866900Y647700D03*
X1866900Y673100D03*
X1892300Y647700D03*
X1892300Y673100D03*
X1917700Y647700D03*
X1917700Y673100D03*
X1943100Y647700D03*
X1943100Y673100D03*
X1968500Y647700D03*
X1968500Y673100D03*
X1993900Y647700D03*
X1993900Y673100D03*
X2019300Y647700D03*
X2019300Y673100D03*
D14*
X114300Y265430D03*
X508000Y261620D03*
X711200Y264160D03*
X901700Y265430D03*
X304800Y264160D03*
X114300Y417830D03*
X304800Y417830D03*
X508000Y415290D03*
X711200Y417830D03*
X901700Y416560D03*
X975360Y539750D03*
X784860Y386080D03*
X976630Y386362D03*
X580390Y386362D03*
X377190Y386362D03*
X186690Y386362D03*
X783590Y538762D03*
X183588Y538762D03*
X582058Y538762D03*
X377588Y538762D03*
X1155700Y414020D03*
X1346200Y415290D03*
X1536700Y412750D03*
X1727200Y415290D03*
X1917700Y414020D03*
X1917700Y262890D03*
X1727200Y261620D03*
X1536700Y261620D03*
X1346200Y261620D03*
X1155700Y260350D03*
X1992630Y386080D03*
X1800860Y386080D03*
X1611630Y386080D03*
X1421130Y386080D03*
X1230630Y386080D03*
X1992630Y538480D03*
X1802130Y538198D03*
X1611630Y538904D03*
X1421130Y538340D03*
X1229360Y538340D03*
D15*
X138506Y505384D02*
X138506Y352984D01*
X138506Y505384D02*
X138506Y571924D01*
X86136Y663164D02*
X76200Y673100D01*
D14*
X138488Y505402D03*
D15*
X138506Y505384D01*
X138506Y571924D02*
X86136Y624295D01*
X86136Y663164D01*
D14*
X138636Y352854D03*
D15*
X138506Y352984D01*
X151359Y340131D02*
X151359Y492531D01*
X111536Y663164D02*
X101600Y673100D01*
D14*
X151340Y492550D03*
D15*
X151359Y492531D01*
X151359Y571503D01*
X111536Y611326D01*
X111536Y663164D01*
D14*
X151489Y340001D03*
D15*
X151359Y340131D01*
X164211Y327279D02*
X164211Y479679D01*
X136936Y663164D02*
X127000Y673100D01*
D14*
X164193Y479697D03*
D15*
X164211Y479679D01*
X164211Y571082D01*
X136936Y598357D01*
X136936Y663164D01*
D14*
X164341Y327149D03*
D15*
X164211Y327279D01*
D14*
X176669Y466432D03*
D15*
X166929Y658571D02*
X152400Y673100D01*
X166929Y658571D02*
X166929Y582065D01*
X176669Y572325D02*
X176669Y466432D01*
X176669Y572325D02*
X166929Y582065D01*
D14*
X176669Y313772D03*
D15*
X176669Y314032D01*
X176836Y466266D02*
X176669Y466432D01*
X176836Y466266D02*
X176836Y314199D01*
X176669Y314032D01*
D14*
X220144Y470448D03*
D15*
X190500Y660400D02*
X177800Y673100D01*
X219572Y471021D02*
X220144Y470448D01*
X219572Y471021D02*
X219572Y572193D01*
X190500Y601265D01*
X190500Y660400D01*
D14*
X219915Y318975D03*
D15*
X219915Y470219D01*
X220144Y470448D01*
D14*
X232997Y483643D03*
D15*
X215900Y660400D02*
X203200Y673100D01*
X233288Y572178D02*
X233288Y483934D01*
X232997Y483643D01*
X233288Y572178D02*
X215900Y589566D01*
X215900Y660400D01*
D14*
X232767Y331827D03*
D15*
X232767Y483413D02*
X232997Y483643D01*
X232767Y483413D02*
X232767Y331827D01*
D14*
X245670Y496772D03*
D15*
X245947Y496495D01*
X245947Y345007D01*
X241524Y660176D02*
X228600Y673100D01*
X241524Y660176D02*
X241524Y576274D01*
X245670Y572128D01*
X245670Y496772D01*
D14*
X245620Y344680D03*
D15*
X245947Y345007D01*
X259080Y510540D02*
X259080Y572770D01*
X259080Y510540D02*
X258343Y509803D01*
X263936Y663164D02*
X254000Y673100D01*
X263936Y663164D02*
X263936Y577626D01*
X259080Y572770D01*
D14*
X258600Y509803D03*
D15*
X258343Y509803D01*
D14*
X258472Y357532D03*
D15*
X258343Y357661D02*
X258343Y509803D01*
X258343Y357661D02*
X258472Y357532D01*
D14*
X326466Y352984D03*
D15*
X326466Y505384D01*
X326466Y572776D01*
X292100Y607142D01*
X292100Y660400D02*
X279400Y673100D01*
X292100Y660400D02*
X292100Y607142D01*
D14*
X326436Y505414D03*
D15*
X326466Y505384D01*
D14*
X339319Y340131D03*
D15*
X339319Y492531D01*
X319248Y658652D02*
X304800Y673100D01*
X319248Y658652D02*
X319248Y593069D01*
D14*
X339289Y492561D03*
D15*
X339319Y492531D01*
X339319Y572999D01*
X319248Y593069D01*
D14*
X352171Y327279D03*
D15*
X352171Y479679D01*
X343946Y581376D02*
X343946Y659354D01*
X330200Y673100D01*
D14*
X352141Y479709D03*
D15*
X352171Y479679D01*
X352171Y573151D01*
X343946Y581376D01*
D14*
X365023Y314427D03*
X365023Y466827D03*
D15*
X365023Y314427D01*
X364606Y467244D02*
X364606Y572886D01*
X364606Y467244D02*
X365023Y466827D01*
X365536Y663164D02*
X355600Y673100D01*
X365536Y663164D02*
X365536Y573816D01*
X364606Y572886D01*
D14*
X412826Y318846D03*
X412826Y471246D03*
D15*
X412826Y318846D01*
X396464Y657636D02*
X381000Y673100D01*
X396464Y657636D02*
X396464Y591514D01*
X412826Y575152D01*
X412826Y471246D01*
D14*
X425679Y331699D03*
D15*
X425679Y484099D01*
X421864Y657636D02*
X406400Y673100D01*
X421864Y657636D02*
X421864Y577544D01*
X425679Y573730D01*
X425679Y484099D01*
D14*
X425752Y484099D03*
D15*
X425679Y484099D01*
D14*
X438531Y344551D03*
D15*
X438531Y496951D01*
X437754Y497728D01*
X441736Y663164D02*
X431800Y673100D01*
D14*
X438568Y496988D03*
D15*
X438531Y496951D01*
X441736Y577357D02*
X441736Y663164D01*
X437754Y573375D02*
X437754Y497728D01*
X437754Y573375D02*
X441736Y577357D01*
D14*
X451383Y357403D03*
D15*
X451383Y509803D01*
X450850Y510337D01*
X450850Y572770D01*
X467136Y663164D02*
X457200Y673100D01*
X467136Y663164D02*
X467136Y589056D01*
X450850Y572770D01*
D14*
X451420Y509840D03*
D15*
X451383Y509803D01*
D14*
X531066Y352854D03*
D15*
X495300Y660400D02*
X482600Y673100D01*
X495300Y660400D02*
X495300Y607561D01*
D14*
X530803Y505517D03*
D15*
X530906Y571954D02*
X495300Y607561D01*
X530803Y571851D02*
X530803Y505517D01*
X530803Y571851D02*
X530906Y571954D01*
X531066Y505254D02*
X531066Y352854D01*
X531066Y505254D02*
X530803Y505517D01*
D14*
X543919Y340001D03*
D15*
X543919Y492401D01*
X543789Y492531D01*
X522448Y658652D02*
X508000Y673100D01*
D14*
X543759Y492561D03*
D15*
X543789Y492531D01*
X522448Y592844D02*
X522448Y658652D01*
X543202Y493118D02*
X543759Y492561D01*
X543202Y572089D02*
X522448Y592844D01*
X543202Y572089D02*
X543202Y493118D01*
D14*
X556771Y327149D03*
D15*
X556771Y479549D01*
X556611Y479709D01*
X543336Y663164D02*
X533400Y673100D01*
X543336Y663164D02*
X543336Y585414D01*
D14*
X556611Y479709D03*
D15*
X556600Y572150D02*
X543336Y585414D01*
X556600Y572150D02*
X556600Y479720D01*
X556611Y479709D01*
D14*
X569624Y314296D03*
X569493Y466827D03*
D15*
X569624Y466696D02*
X569624Y314296D01*
X569624Y466696D02*
X569493Y466827D01*
X568736Y663164D02*
X558800Y673100D01*
X570346Y467680D02*
X569493Y466827D01*
X570346Y467680D02*
X570346Y572770D01*
X568736Y574380D01*
X568736Y663164D01*
X584200Y673100D02*
X596900Y660400D01*
X596900Y591424D01*
D14*
X617106Y471246D03*
D15*
X617106Y571218D02*
X596900Y591424D01*
X617106Y571218D02*
X617106Y471246D01*
D14*
X615181Y318233D03*
D15*
X616111Y326601D02*
X617106Y327596D01*
X617106Y471246D01*
X616111Y319163D02*
X615181Y318233D01*
X616111Y319163D02*
X616111Y326601D01*
X624230Y658470D02*
X609600Y673100D01*
X624230Y658470D02*
X624230Y577492D01*
D14*
X629242Y485696D03*
D15*
X629242Y572481D02*
X624230Y577492D01*
X629242Y572481D02*
X629242Y485696D01*
D14*
X627848Y331270D03*
D15*
X627872Y340544D02*
X629242Y341914D01*
X629242Y485696D01*
X627872Y331294D02*
X627848Y331270D01*
X627872Y331294D02*
X627872Y340544D01*
D14*
X642076Y498566D03*
D15*
X641760Y498250D01*
X642076Y498566D02*
X642076Y572145D01*
X644936Y575004D01*
X644936Y663164D01*
X635000Y673100D01*
D14*
X640367Y344457D03*
D15*
X641406Y362353D02*
X641760Y362707D01*
X641760Y498250D01*
X641406Y345496D02*
X640367Y344457D01*
X641406Y345496D02*
X641406Y362353D01*
D14*
X654929Y511419D03*
D15*
X654738Y511228D01*
X670336Y651816D02*
X660400Y661752D01*
X660400Y673100D01*
X654929Y571878D02*
X654929Y511419D01*
X654929Y571878D02*
X670336Y587285D01*
X670336Y651816D01*
D14*
X650522Y358577D03*
D15*
X654738Y362793D01*
X654738Y511228D01*
D14*
X734266Y352854D03*
D15*
X734136Y352984D01*
X734136Y505384D01*
X701079Y657821D02*
X685800Y673100D01*
D14*
X734099Y505421D03*
D15*
X734136Y505384D01*
X734136Y572731D01*
X701079Y605788D01*
X701079Y657821D01*
D14*
X747119Y340001D03*
X746989Y492531D03*
D15*
X746989Y340131D02*
X747119Y340001D01*
X746989Y340131D02*
X746989Y492531D01*
X726496Y657804D02*
X711200Y673100D01*
X746557Y492963D02*
X746989Y492531D01*
X746557Y492963D02*
X746557Y572742D01*
X726496Y592802D02*
X726496Y657804D01*
X726496Y592802D02*
X746557Y572742D01*
D14*
X759971Y327149D03*
X759841Y479679D03*
D15*
X759841Y327279D02*
X759971Y327149D01*
X759841Y327279D02*
X759841Y479679D01*
X751545Y658155D02*
X736600Y673100D01*
X751545Y658155D02*
X751545Y580184D01*
X759841Y571889D02*
X759841Y479679D01*
X759841Y571889D02*
X751545Y580184D01*
D14*
X772824Y314296D03*
X772693Y466827D03*
D15*
X772824Y466696D01*
X772824Y314296D01*
X772693Y466827D02*
X772693Y662407D01*
X762000Y673100D01*
D14*
X816686Y318846D03*
X817956Y471246D03*
D15*
X816686Y319400D02*
X816686Y318846D01*
X816686Y319400D02*
X817956Y320670D01*
X817956Y471246D01*
X800100Y660400D02*
X787400Y673100D01*
X800100Y660400D02*
X800100Y590154D01*
X817794Y471408D02*
X817956Y471246D01*
X817794Y471408D02*
X817794Y572460D01*
X800100Y590154D01*
D14*
X830809Y484099D03*
D15*
X830809Y332155D01*
D14*
X830450Y332155D03*
D15*
X830809Y332155D01*
X828264Y657636D02*
X812800Y673100D01*
X828264Y657636D02*
X828264Y575004D01*
X830809Y572460D01*
X830809Y484099D01*
D14*
X843661Y496951D03*
D15*
X843661Y345821D02*
X843189Y345349D01*
X843661Y345821D02*
X843661Y496951D01*
D14*
X843303Y345349D03*
D15*
X843189Y345349D01*
X848136Y663164D02*
X838200Y673100D01*
X848136Y663164D02*
X848136Y576788D01*
X843661Y572313D02*
X843661Y496951D01*
X843661Y572313D02*
X848136Y576788D01*
D14*
X856513Y509803D03*
D15*
X856513Y358673D01*
D14*
X856155Y358287D03*
D15*
X856155Y358315D02*
X856513Y358673D01*
X856155Y358315D02*
X856155Y358287D01*
X856513Y509803D02*
X856513Y572734D01*
X873536Y651816D02*
X863600Y661752D01*
X863600Y673100D01*
X873536Y589757D02*
X856513Y572734D01*
X873536Y589757D02*
X873536Y651816D01*
D14*
X924636Y352984D03*
X924636Y505384D03*
D15*
X924636Y352984D01*
X889000Y661752D02*
X889000Y673100D01*
X889000Y661752D02*
X898936Y651816D01*
X924636Y572612D02*
X924636Y505384D01*
X924636Y572612D02*
X898936Y598312D01*
X898936Y651816D01*
D14*
X937489Y340131D03*
X937489Y492531D03*
D15*
X937489Y340131D01*
X937489Y492531D02*
X937489Y572460D01*
X924336Y585612D01*
X924336Y651816D01*
X914400Y661752D02*
X914400Y673100D01*
X914400Y661752D02*
X924336Y651816D01*
D14*
X950341Y327279D03*
X950341Y479679D03*
D15*
X950341Y327279D01*
X950341Y662559D02*
X939800Y673100D01*
X950341Y662559D02*
X950341Y479679D01*
D14*
X963193Y314427D03*
X963193Y466827D03*
D15*
X963193Y314427D01*
X975136Y663164D02*
X965200Y673100D01*
X975136Y663164D02*
X975136Y583831D01*
X963193Y571888D01*
X963193Y466827D01*
X132080Y511810D02*
X132080Y571500D01*
X76084Y627496D01*
X76084Y647584D02*
X76200Y647700D01*
X76084Y647584D02*
X76084Y627496D01*
D14*
X132062Y511828D03*
D15*
X132080Y511810D01*
D14*
X132080Y359150D03*
D15*
X132080Y511810D01*
X144932Y498958D02*
X144932Y346558D01*
X144932Y498958D02*
X144932Y572349D01*
D14*
X144914Y498976D03*
D15*
X144932Y498958D01*
X144932Y572349D02*
X101600Y615681D01*
X101600Y647700D01*
D14*
X145063Y346428D03*
D15*
X144932Y346558D01*
X157785Y333705D02*
X157785Y486105D01*
D14*
X157767Y486123D03*
D15*
X157785Y486105D01*
X157785Y571928D01*
X127000Y602712D01*
X127000Y647700D01*
D14*
X157915Y333575D03*
D15*
X157785Y333705D01*
X170601Y320889D02*
X170601Y473217D01*
X170637Y473253D01*
D14*
X170601Y473253D03*
D15*
X170637Y473253D01*
X152400Y589743D02*
X152400Y647700D01*
X170601Y571542D02*
X170601Y473217D01*
X170601Y571542D02*
X152400Y589743D01*
D14*
X170768Y320723D03*
D15*
X170601Y320889D01*
D14*
X213718Y463965D03*
D15*
X213718Y463908D01*
X213360Y463550D01*
X213928Y464175D02*
X213928Y572256D01*
X213928Y464175D02*
X213718Y463965D01*
X177800Y608384D02*
X177800Y647700D01*
X177800Y608384D02*
X213928Y572256D01*
D14*
X213360Y312677D03*
D15*
X213360Y463550D01*
D14*
X226571Y476988D03*
D15*
X226430Y477129D01*
X226430Y572185D01*
X203200Y595415D01*
X203200Y647700D01*
D14*
X226341Y325401D03*
D15*
X226341Y476759D02*
X226571Y476988D01*
X226341Y476759D02*
X226341Y325401D01*
D14*
X239700Y489890D03*
D15*
X238876Y490713D01*
X238876Y572171D01*
X228600Y582447D01*
X228600Y647700D01*
D14*
X239194Y338254D03*
D15*
X239194Y489384D02*
X239700Y489890D01*
X239194Y489384D02*
X239194Y338254D01*
D14*
X252096Y503198D03*
D15*
X252096Y502286D01*
X252532Y503634D02*
X252532Y572572D01*
X252532Y503634D02*
X252096Y503198D01*
X254000Y574040D02*
X254000Y647700D01*
X254000Y574040D02*
X252532Y572572D01*
D14*
X252095Y351057D03*
D15*
X252095Y502285D02*
X252096Y502286D01*
X252095Y502285D02*
X252095Y351057D01*
D14*
X320040Y359410D03*
D15*
X320040Y511810D01*
X320040Y572654D01*
X279400Y613294D01*
X279400Y647700D01*
D14*
X320010Y511840D03*
D15*
X320040Y511810D01*
D14*
X332892Y346558D03*
D15*
X332892Y498958D01*
X332892Y572898D01*
X304800Y600990D01*
X304800Y647700D01*
D14*
X332863Y498987D03*
D15*
X332892Y498958D01*
D14*
X345745Y333705D03*
D15*
X345745Y486105D01*
X330200Y588620D02*
X330200Y647700D01*
D14*
X345715Y486135D03*
D15*
X345745Y486105D01*
X345745Y573075D01*
X330200Y588620D01*
D14*
X358597Y320853D03*
D15*
X358597Y473253D01*
X355600Y576224D02*
X355600Y647700D01*
D14*
X358538Y473253D03*
D15*
X358597Y473253D01*
X358597Y573227D01*
X355600Y576224D01*
D14*
X406400Y312420D03*
X406400Y464820D03*
D15*
X406400Y312420D01*
X406400Y464820D02*
X406262Y464958D01*
X406262Y573205D01*
X381000Y598467D01*
X381000Y647700D01*
D14*
X419252Y325272D03*
X419252Y477672D03*
D15*
X419252Y325272D01*
X406400Y586158D02*
X406400Y647700D01*
X406400Y586158D02*
X419252Y573305D01*
X419252Y477672D01*
D14*
X432105Y338125D03*
D15*
X432105Y490525D01*
X431800Y490830D01*
X431800Y647700D01*
D14*
X432142Y490562D03*
D15*
X432105Y490525D01*
D14*
X444957Y350977D03*
D15*
X444957Y503377D01*
X444302Y504032D01*
D14*
X444994Y503414D03*
D15*
X444957Y503377D01*
X457200Y585971D02*
X457200Y647700D01*
X444302Y573073D02*
X444302Y504032D01*
X444302Y573073D02*
X457200Y585971D01*
D14*
X524510Y359150D03*
D15*
X524510Y511810D01*
X482600Y614680D02*
X482600Y647700D01*
X482600Y614680D02*
X524510Y572770D01*
X524480Y511840D02*
X524510Y511810D01*
X524480Y511840D02*
X524510Y511870D01*
X524510Y572770D01*
D14*
X524377Y511943D03*
D15*
X524480Y511840D01*
D14*
X537493Y346428D03*
D15*
X537493Y498828D01*
X537333Y498987D01*
X508000Y601711D02*
X508000Y647700D01*
X537333Y572379D02*
X537333Y498987D01*
X537333Y572379D02*
X508000Y601711D01*
D14*
X537134Y498987D03*
D15*
X537333Y498987D01*
D14*
X550345Y333575D03*
D15*
X550345Y485975D01*
X550185Y486135D01*
D14*
X550185Y486135D03*
D15*
X550185Y571957D01*
X533400Y588742D01*
X533400Y647700D01*
D14*
X563198Y320723D03*
D15*
X563198Y473123D01*
X563067Y473253D01*
X558800Y576498D02*
X558800Y647700D01*
D14*
X563008Y473253D03*
D15*
X563067Y473253D01*
X563008Y473253D02*
X563148Y473393D01*
X563148Y572150D01*
X558800Y576498D01*
D14*
X608204Y312294D03*
X609600Y464820D03*
D15*
X609600Y572176D01*
X584200Y597576D01*
X584200Y647700D01*
X609600Y464820D02*
X609600Y321234D01*
X609113Y320746D01*
X609113Y313203D02*
X608204Y312294D01*
X609113Y313203D02*
X609113Y320746D01*
X609600Y585272D02*
X609600Y647700D01*
X623174Y571698D02*
X623174Y478847D01*
X623174Y571698D02*
X609600Y585272D01*
D14*
X623174Y478847D03*
X622179Y324087D03*
D15*
X621780Y328756D02*
X621780Y333783D01*
X623174Y335177D01*
X623174Y478847D01*
X622179Y328358D02*
X622179Y324087D01*
X622179Y328358D02*
X621780Y328756D01*
D14*
X635650Y492140D03*
D15*
X635334Y491824D01*
X635650Y492140D02*
X635650Y647080D01*
X635030Y647700D01*
X635000Y647700D01*
D14*
X633940Y338030D03*
D15*
X635334Y348006D02*
X635334Y491824D01*
X635334Y348006D02*
X634299Y346970D01*
X634299Y338389D02*
X633940Y338030D01*
X634299Y338389D02*
X634299Y346970D01*
D14*
X648503Y504993D03*
D15*
X648187Y504677D01*
X660400Y584200D02*
X660400Y647700D01*
X660400Y584200D02*
X648503Y572303D01*
X648503Y504993D01*
D14*
X648187Y349489D03*
D15*
X644454Y356064D02*
X644454Y361091D01*
X648187Y364823D02*
X648187Y504677D01*
X648187Y352331D02*
X648187Y349489D01*
X644454Y361091D02*
X648187Y364823D01*
X644454Y356064D02*
X648187Y352331D01*
D14*
X727710Y359150D03*
D15*
X727710Y511810D01*
D14*
X727673Y511847D03*
D15*
X727710Y511810D01*
X727710Y573577D01*
X685800Y615487D01*
X685800Y647700D01*
D14*
X740693Y346428D03*
D15*
X740562Y346558D01*
X740562Y498958D01*
D14*
X740489Y498958D03*
D15*
X740562Y498958D01*
X740562Y573155D01*
X711200Y602518D01*
X711200Y647700D01*
D14*
X753545Y333575D03*
X753415Y486105D03*
D15*
X753415Y333705D02*
X753545Y333575D01*
X753415Y333705D02*
X753415Y486105D01*
X736600Y589549D02*
X736600Y647700D01*
X736600Y589549D02*
X753415Y572734D01*
X753415Y486105D01*
D14*
X766398Y320723D03*
X766267Y473253D03*
D15*
X766398Y473123D01*
X766398Y320723D01*
X766267Y473253D02*
X766267Y572313D01*
X762000Y576580D01*
X762000Y647700D01*
D14*
X810260Y312420D03*
X811530Y464820D03*
D15*
X810260Y463550D02*
X810260Y312420D01*
X810260Y463550D02*
X811530Y464820D01*
X810936Y465414D01*
X810936Y571500D01*
X787400Y595036D02*
X787400Y647700D01*
X787400Y595036D02*
X810936Y571500D01*
D14*
X824382Y477672D03*
D15*
X824382Y325272D01*
D14*
X824024Y325272D03*
D15*
X824382Y325272D01*
X812800Y584002D02*
X812800Y647700D01*
X824652Y572150D02*
X824652Y477942D01*
X824382Y477672D01*
X824652Y572150D02*
X812800Y584002D01*
D14*
X837235Y490525D03*
D15*
X837235Y338809D01*
D14*
X836877Y338809D03*
D15*
X837235Y338809D01*
X837235Y646735D02*
X838200Y647700D01*
X837235Y646735D02*
X837235Y490525D01*
D14*
X850087Y503377D03*
D15*
X850087Y351832D01*
D14*
X849729Y351832D03*
D15*
X850087Y351832D01*
X850087Y503377D02*
X850087Y571889D01*
X863600Y585402D01*
X863600Y647700D01*
D14*
X918210Y359410D03*
X918210Y511810D03*
D15*
X918210Y359410D01*
X918210Y511810D02*
X918210Y572188D01*
X882650Y607748D01*
X882650Y641350D02*
X889000Y647700D01*
X882650Y641350D02*
X882650Y607748D01*
D14*
X931062Y346558D03*
X931062Y498958D03*
D15*
X931062Y346558D01*
X931062Y572618D02*
X914400Y589280D01*
X914400Y647700D01*
X931062Y572618D02*
X931062Y498958D01*
D14*
X943915Y333705D03*
X943915Y486105D03*
D15*
X943915Y333705D01*
X943915Y572465D02*
X939800Y576580D01*
X939800Y647700D01*
X943915Y572465D02*
X943915Y486105D01*
D14*
X956767Y320853D03*
X956767Y473253D03*
D15*
X956767Y320853D01*
X965200Y580390D02*
X965200Y647700D01*
X965200Y580390D02*
X956767Y571957D01*
X956767Y473253D01*
D14*
X990600Y365760D03*
X201930Y365218D03*
X393700Y365218D03*
X596900Y365760D03*
X800100Y365218D03*
X201930Y374306D03*
X393700Y374306D03*
X596900Y374848D03*
X800100Y374306D03*
X990600Y374848D03*
X125730Y392430D03*
X892810Y392430D03*
X703580Y392430D03*
X501650Y392430D03*
X297180Y392430D03*
X708660Y401320D03*
X893092Y401518D03*
X501650Y401518D03*
X297180Y401518D03*
X124460Y401518D03*
X189230Y292100D03*
X375920Y292100D03*
X774700Y292100D03*
X577850Y292100D03*
X965200Y292100D03*
X989330Y517962D03*
X598056Y518160D03*
X207860Y518160D03*
X804304Y518160D03*
X395984Y518160D03*
X989330Y527050D03*
X598056Y527248D03*
X207860Y527248D03*
X804304Y527248D03*
X395984Y527248D03*
X891540Y544830D03*
X703580Y544830D03*
X502920Y544830D03*
X297180Y544830D03*
X126012Y544830D03*
X891540Y554990D03*
X703580Y554990D03*
X502920Y554990D03*
X297180Y554990D03*
X126012Y554990D03*
X190500Y444500D03*
X974090Y444500D03*
X783590Y444500D03*
X580390Y444500D03*
X371091Y444500D03*
X697230Y459740D03*
X495300Y459740D03*
X290830Y459740D03*
X101600Y459740D03*
X890270Y458470D03*
X890496Y306070D03*
X699996Y307340D03*
X496796Y307340D03*
X292326Y307340D03*
X102842Y306609D03*
X1906270Y307340D03*
X1143000Y307340D03*
X1333500Y307340D03*
X1524000Y307340D03*
X1714500Y307340D03*
X1906270Y459740D03*
X1143000Y459740D03*
X1333500Y459740D03*
X1524000Y459740D03*
X1714500Y459740D03*
X1985010Y444500D03*
X1803400Y444500D03*
X1612900Y444500D03*
X1422400Y444500D03*
X1231900Y444500D03*
X1907540Y544830D03*
X1714500Y544972D03*
X1524000Y544972D03*
X1333500Y544972D03*
X1146810Y544972D03*
X1907540Y553918D03*
X1714500Y554060D03*
X1524000Y554060D03*
X1333500Y554060D03*
X1156970Y553918D03*
X2006600Y528320D03*
X1816100Y528320D03*
X1625600Y528320D03*
X1435100Y528320D03*
X1244600Y528320D03*
X2006600Y518160D03*
X1816100Y518160D03*
X1625600Y518160D03*
X1435100Y518160D03*
X1244600Y518160D03*
X1981200Y292100D03*
X1803400Y292100D03*
X1612900Y292100D03*
X1422400Y292100D03*
X1230630Y292100D03*
X1908810Y400050D03*
X1144270Y400050D03*
X1333500Y401320D03*
X1524000Y401320D03*
X1717040Y401320D03*
X1908810Y390962D03*
X1717040Y392232D03*
X1524000Y392232D03*
X1333500Y392232D03*
X1144270Y390962D03*
X2005330Y365760D03*
X1816100Y365760D03*
X1625600Y365760D03*
X1435100Y365760D03*
X1244600Y365760D03*
X2005330Y374848D03*
X1816100Y374848D03*
X1625600Y374848D03*
X1435100Y374848D03*
X1244600Y374848D03*
X1170940Y511810D03*
D15*
X1130300Y623570D02*
X1130300Y647700D01*
D14*
X1170940Y359410D03*
D15*
X1170940Y511810D01*
X1170940Y546607D02*
X1174468Y550135D01*
X1170940Y546607D02*
X1170940Y511810D01*
X1174468Y579402D02*
X1130300Y623570D01*
X1174468Y579402D02*
X1174468Y550135D01*
D14*
X1183792Y498958D03*
D15*
X1183940Y499105D01*
X1183940Y582930D01*
X1155700Y611170D02*
X1155700Y647700D01*
X1155700Y611170D02*
X1183940Y582930D01*
D14*
X1183792Y346558D03*
D15*
X1183792Y498958D01*
D14*
X1196645Y486105D03*
D15*
X1196940Y486401D01*
X1196940Y582930D01*
X1181100Y598770D02*
X1181100Y647700D01*
X1181100Y598770D02*
X1196940Y582930D01*
D14*
X1196645Y333705D03*
D15*
X1196645Y486105D01*
D14*
X1209497Y473253D03*
D15*
X1209940Y473696D01*
X1209940Y582930D01*
X1206500Y586370D02*
X1206500Y647700D01*
X1206500Y586370D02*
X1209940Y582930D01*
D14*
X1209497Y320853D03*
D15*
X1209497Y473253D01*
D14*
X1250950Y466090D03*
D15*
X1250950Y584420D01*
X1231900Y603470D01*
X1231900Y647700D01*
X1250950Y466090D02*
X1250668Y465808D01*
X1250668Y320720D01*
D14*
X1247379Y309837D03*
D15*
X1248232Y318283D02*
X1250668Y320720D01*
X1248232Y310690D02*
X1247379Y309837D01*
X1248232Y310690D02*
X1248232Y318283D01*
D14*
X1263802Y478942D03*
D15*
X1263802Y584568D01*
X1257300Y591070D01*
X1257300Y647700D01*
X1263802Y478942D02*
X1263802Y333854D01*
D14*
X1260726Y322196D03*
D15*
X1261084Y331136D02*
X1263802Y333854D01*
X1261084Y322554D02*
X1260726Y322196D01*
X1261084Y322554D02*
X1261084Y331136D01*
D14*
X1276655Y491795D03*
D15*
X1276655Y583685D01*
X1282700Y589730D02*
X1282700Y647700D01*
X1282700Y589730D02*
X1276655Y583685D01*
X1273358Y362936D02*
X1273358Y352859D01*
X1273358Y362936D02*
X1276655Y366233D01*
X1276655Y491795D01*
D14*
X1273578Y335048D03*
D15*
X1273578Y352639D01*
X1273358Y352859D01*
D14*
X1289507Y504647D03*
D15*
X1289507Y584457D01*
X1308100Y603049D02*
X1308100Y647700D01*
X1308100Y603049D02*
X1289507Y584457D01*
X1279454Y360411D02*
X1279454Y355384D01*
D14*
X1285522Y348810D03*
D15*
X1289507Y370464D02*
X1289507Y504647D01*
X1289507Y370464D02*
X1279454Y360411D01*
X1279454Y355384D02*
X1285522Y349316D01*
X1285522Y348810D01*
D14*
X1361440Y511810D03*
D15*
X1361440Y584200D01*
X1333500Y612140D02*
X1333500Y647700D01*
X1333500Y612140D02*
X1361440Y584200D01*
D14*
X1361440Y359410D03*
D15*
X1361440Y511810D01*
D14*
X1374292Y498958D03*
D15*
X1374440Y499105D01*
X1374440Y584200D01*
X1358900Y599740D02*
X1358900Y647700D01*
X1358900Y599740D02*
X1374440Y584200D01*
D14*
X1374292Y346558D03*
D15*
X1374292Y498958D01*
D14*
X1387145Y486105D03*
D15*
X1387440Y486401D01*
X1387440Y584200D01*
X1384300Y587340D02*
X1384300Y647700D01*
X1384300Y587340D02*
X1387440Y584200D01*
D14*
X1387145Y333705D03*
D15*
X1387145Y486105D01*
D14*
X1399997Y473253D03*
D15*
X1400440Y473696D01*
X1400440Y584200D01*
X1409700Y593460D02*
X1409700Y647700D01*
X1409700Y593460D02*
X1400440Y584200D01*
D14*
X1399997Y320853D03*
D15*
X1399997Y473253D01*
D14*
X1441450Y466090D03*
D15*
X1441450Y584200D01*
X1435100Y590550D01*
X1435100Y647700D01*
D14*
X1441450Y313408D03*
D15*
X1441168Y465808D02*
X1441450Y466090D01*
X1441168Y465808D02*
X1441168Y313690D01*
X1441450Y313408D01*
D14*
X1454302Y478942D03*
D15*
X1454302Y583832D01*
X1460500Y590030D02*
X1460500Y647700D01*
X1460500Y590030D02*
X1454302Y583832D01*
D14*
X1454797Y325767D03*
D15*
X1454302Y326261D02*
X1454302Y478942D01*
X1454302Y326261D02*
X1454797Y325767D01*
D14*
X1467155Y491795D03*
X1467649Y338619D03*
D15*
X1467649Y491301D02*
X1467155Y491795D01*
X1467649Y491301D02*
X1467649Y338619D01*
X1485900Y602999D02*
X1485900Y647700D01*
X1467155Y584254D02*
X1467155Y491795D01*
X1467155Y584254D02*
X1485900Y602999D01*
D14*
X1480007Y504647D03*
X1480502Y351472D03*
D15*
X1480502Y504153D02*
X1480007Y504647D01*
X1480502Y504153D02*
X1480502Y351472D01*
X1480007Y504647D02*
X1480007Y584675D01*
X1511300Y615968D01*
X1511300Y647700D01*
D14*
X1551940Y511810D03*
D15*
X1551940Y584200D01*
X1536700Y599440D02*
X1536700Y647700D01*
X1536700Y599440D02*
X1551940Y584200D01*
D14*
X1551940Y359410D03*
D15*
X1551940Y511810D01*
D14*
X1564792Y498958D03*
D15*
X1564940Y499105D01*
X1564940Y584200D01*
X1562100Y587040D02*
X1562100Y647700D01*
X1562100Y587040D02*
X1564940Y584200D01*
D14*
X1564792Y346558D03*
D15*
X1564792Y498958D01*
D14*
X1577645Y486105D03*
D15*
X1577940Y486401D01*
X1577940Y583530D01*
X1587500Y593090D02*
X1587500Y647700D01*
X1587500Y593090D02*
X1577940Y583530D01*
D14*
X1577645Y333705D03*
D15*
X1577645Y486105D01*
D14*
X1590497Y473253D03*
D15*
X1590940Y473696D01*
X1590940Y584200D01*
X1612900Y606160D02*
X1612900Y647700D01*
X1612900Y606160D02*
X1590940Y584200D01*
D14*
X1590497Y320853D03*
D15*
X1590497Y473253D01*
X1631950Y465808D02*
X1631950Y585250D01*
X1638300Y591600D02*
X1638300Y647700D01*
X1638300Y591600D02*
X1631950Y585250D01*
X1631950Y464820D02*
X1631668Y464538D01*
D14*
X1631950Y465808D03*
D15*
X1631950Y464820D01*
X1631668Y464538D02*
X1631668Y320720D01*
D14*
X1628379Y309837D03*
D15*
X1629232Y318283D02*
X1631668Y320720D01*
X1629232Y310690D02*
X1628379Y309837D01*
X1629232Y310690D02*
X1629232Y318283D01*
X1644802Y477672D02*
X1644802Y585102D01*
X1663700Y604000D02*
X1663700Y647700D01*
X1663700Y604000D02*
X1644802Y585102D01*
D14*
X1645297Y478167D03*
D15*
X1644802Y477672D01*
X1644938Y477537D02*
X1644938Y333990D01*
X1644938Y477537D02*
X1644802Y477672D01*
D14*
X1641726Y322196D03*
D15*
X1642084Y331136D02*
X1644938Y333990D01*
X1642084Y322554D02*
X1641726Y322196D01*
X1642084Y322554D02*
X1642084Y331136D01*
X1657655Y490525D02*
X1657655Y584955D01*
X1689100Y616400D02*
X1689100Y647700D01*
X1689100Y616400D02*
X1657655Y584955D01*
D14*
X1658149Y491019D03*
D15*
X1657655Y490525D01*
X1657791Y490389D01*
X1654358Y362936D02*
X1654358Y352859D01*
X1654358Y362936D02*
X1657791Y366369D01*
X1657791Y490389D01*
D14*
X1654578Y335048D03*
D15*
X1654578Y352639D01*
X1654358Y352859D01*
X1670507Y503377D02*
X1670507Y584807D01*
X1714500Y628800D02*
X1714500Y647700D01*
X1714500Y628800D02*
X1670507Y584807D01*
D14*
X1671002Y503872D03*
D15*
X1670507Y503377D01*
X1670643Y503241D01*
X1660454Y360411D02*
X1660454Y355384D01*
D14*
X1666522Y348810D03*
D15*
X1670643Y370601D02*
X1670643Y503241D01*
X1670643Y370601D02*
X1660454Y360411D01*
X1666522Y349316D02*
X1666522Y348810D01*
X1666522Y349316D02*
X1660454Y355384D01*
D14*
X1742440Y511810D03*
D15*
X1742440Y584200D01*
X1739900Y586740D02*
X1739900Y647700D01*
X1739900Y586740D02*
X1742440Y584200D01*
D14*
X1742440Y359410D03*
D15*
X1742440Y511810D01*
D14*
X1755292Y498958D03*
D15*
X1755440Y499105D01*
X1755440Y584200D01*
X1765300Y594060D02*
X1765300Y647700D01*
X1765300Y594060D02*
X1755440Y584200D01*
D14*
X1755292Y346558D03*
D15*
X1755292Y498958D01*
D14*
X1768145Y486105D03*
D15*
X1768440Y486401D01*
X1768440Y584200D01*
X1790700Y606460D02*
X1790700Y647700D01*
X1790700Y606460D02*
X1768440Y584200D01*
D14*
X1768145Y333705D03*
D15*
X1768145Y486105D01*
D14*
X1780997Y473253D03*
D15*
X1781440Y473696D01*
X1781440Y584200D01*
X1816100Y618860D02*
X1816100Y647700D01*
X1816100Y618860D02*
X1781440Y584200D01*
D14*
X1780997Y320853D03*
D15*
X1780997Y473253D01*
D14*
X1823720Y466090D03*
D15*
X1823720Y585250D01*
X1841500Y603030D02*
X1841500Y647700D01*
X1841500Y603030D02*
X1823720Y585250D01*
D14*
X1822450Y313408D03*
D15*
X1823438Y465808D02*
X1823720Y466090D01*
X1823438Y465808D02*
X1823438Y314396D01*
X1822450Y313408D01*
D14*
X1836572Y478942D03*
D15*
X1836572Y585102D01*
X1866900Y615430D02*
X1866900Y647700D01*
X1866900Y615430D02*
X1836572Y585102D01*
X1836214Y478584D02*
X1836214Y326184D01*
X1836214Y478584D02*
X1836572Y478942D01*
D14*
X1835894Y325805D03*
D15*
X1835894Y325864D02*
X1836214Y326184D01*
X1835894Y325864D02*
X1835894Y325805D01*
D14*
X1849425Y491795D03*
D15*
X1849425Y584955D01*
X1892300Y627830D02*
X1892300Y647700D01*
X1892300Y627830D02*
X1849425Y584955D01*
X1849067Y491437D02*
X1849067Y339037D01*
X1849067Y491437D02*
X1849425Y491795D01*
D14*
X1848747Y338657D03*
D15*
X1848747Y338717D02*
X1849067Y339037D01*
X1848747Y338717D02*
X1848747Y338657D01*
D14*
X1862277Y504647D03*
D15*
X1862277Y584657D01*
X1917700Y640080D02*
X1917700Y647700D01*
X1917700Y640080D02*
X1862277Y584657D01*
X1861919Y504289D02*
X1861919Y351889D01*
X1861919Y504289D02*
X1862277Y504647D01*
D14*
X1861599Y351510D03*
D15*
X1861599Y351569D02*
X1861919Y351889D01*
X1861599Y351569D02*
X1861599Y351510D01*
D14*
X1932940Y511810D03*
D15*
X1932940Y637540D01*
X1943100Y647700D01*
D14*
X1932940Y359410D03*
D15*
X1932940Y511810D01*
D14*
X1945792Y498958D03*
D15*
X1945940Y499105D01*
X1945940Y584200D01*
X1968500Y606760D02*
X1968500Y647700D01*
X1968500Y606760D02*
X1945940Y584200D01*
D14*
X1945792Y346558D03*
D15*
X1945792Y498958D01*
D14*
X1958645Y486105D03*
D15*
X1958940Y486401D01*
X1958940Y584200D01*
X1993900Y619160D02*
X1993900Y647700D01*
X1993900Y619160D02*
X1958940Y584200D01*
D14*
X1958645Y333705D03*
D15*
X1958645Y486105D01*
D14*
X1971497Y473253D03*
D15*
X1971940Y473696D01*
X1971940Y584200D01*
X2019300Y631560D02*
X2019300Y647700D01*
X2019300Y631560D02*
X1971940Y584200D01*
D14*
X1971497Y320853D03*
D15*
X1971497Y473253D01*
D14*
X1177366Y505384D03*
D15*
X1143312Y660088D02*
X1130300Y673100D01*
X1143312Y660088D02*
X1143312Y617058D01*
D14*
X1177366Y352984D03*
D15*
X1177366Y505384D01*
X1177516Y505534D01*
X1177516Y582854D01*
X1143312Y617058D01*
D14*
X1190219Y492531D03*
D15*
X1190440Y492753D01*
X1190440Y582930D01*
X1168400Y660400D02*
X1155700Y673100D01*
X1168400Y660400D02*
X1168400Y604970D01*
X1190440Y582930D01*
D14*
X1190219Y340131D03*
D15*
X1190219Y492531D01*
D14*
X1203071Y479679D03*
D15*
X1203440Y480048D01*
X1203440Y582930D01*
X1193800Y660400D02*
X1181100Y673100D01*
X1193800Y660400D02*
X1193800Y592570D01*
X1203440Y582930D01*
D14*
X1203071Y327279D03*
D15*
X1203071Y479679D01*
D14*
X1215923Y466827D03*
D15*
X1216440Y467343D01*
X1216440Y663160D01*
X1206500Y673100D01*
D14*
X1215923Y314427D03*
D15*
X1215923Y466827D01*
D14*
X1257376Y472516D03*
D15*
X1257376Y584494D01*
X1244600Y597270D01*
X1244600Y660400D02*
X1231900Y673100D01*
X1244600Y660400D02*
X1244600Y597270D01*
X1257376Y472516D02*
X1257376Y327428D01*
D14*
X1254300Y315770D03*
D15*
X1254658Y324709D02*
X1257376Y327428D01*
X1254658Y316128D02*
X1254300Y315770D01*
X1254658Y316128D02*
X1254658Y324709D01*
D14*
X1270229Y485369D03*
D15*
X1270229Y584429D01*
X1267236Y587421D01*
X1267236Y663164D02*
X1257300Y673100D01*
X1267236Y663164D02*
X1267236Y587421D01*
X1270229Y485369D02*
X1270229Y340280D01*
D14*
X1267152Y328622D03*
D15*
X1267510Y337562D02*
X1270229Y340280D01*
X1267510Y328980D02*
X1267152Y328622D01*
X1267510Y328980D02*
X1267510Y337562D01*
D14*
X1283081Y498221D03*
D15*
X1283081Y583611D01*
X1292636Y663164D02*
X1282700Y673100D01*
X1292636Y663164D02*
X1292636Y593166D01*
X1283081Y583611D01*
X1276406Y361674D02*
X1276406Y354122D01*
D14*
X1280005Y341475D03*
D15*
X1279454Y346296D02*
X1279454Y351074D01*
X1276406Y354122D01*
X1280005Y345746D02*
X1280005Y341475D01*
X1280005Y345746D02*
X1279454Y346296D01*
X1283081Y368349D02*
X1283081Y498221D01*
X1283081Y368349D02*
X1276406Y361674D01*
D14*
X1295933Y511073D03*
D15*
X1318036Y663164D02*
X1308100Y673100D01*
X1295933Y584032D02*
X1295933Y511073D01*
X1318036Y606135D02*
X1318036Y663164D01*
X1318036Y606135D02*
X1295933Y584032D01*
D14*
X1285522Y357898D03*
D15*
X1295933Y368309D01*
X1295933Y511073D01*
D14*
X1367866Y505384D03*
D15*
X1367940Y505458D01*
X1367940Y584200D01*
X1346200Y660400D02*
X1333500Y673100D01*
X1346200Y660400D02*
X1346200Y605940D01*
X1367940Y584200D01*
D14*
X1367866Y352984D03*
D15*
X1367866Y505384D01*
D14*
X1380719Y492531D03*
D15*
X1380940Y492753D01*
X1380940Y584200D01*
X1371600Y660400D02*
X1358900Y673100D01*
X1371600Y660400D02*
X1371600Y593540D01*
X1380940Y584200D01*
D14*
X1380719Y340131D03*
D15*
X1380719Y492531D01*
D14*
X1393571Y479679D03*
D15*
X1393940Y480048D01*
X1393940Y584200D01*
X1394236Y663164D02*
X1384300Y673100D01*
X1394236Y663164D02*
X1394236Y584496D01*
X1393940Y584200D01*
D14*
X1393571Y327279D03*
D15*
X1393571Y479679D01*
D14*
X1406423Y466827D03*
D15*
X1406940Y467343D01*
X1406940Y584200D01*
X1419636Y663164D02*
X1409700Y673100D01*
X1419636Y663164D02*
X1419636Y596896D01*
X1406940Y584200D01*
D14*
X1406423Y314427D03*
D15*
X1406423Y466827D01*
D14*
X1447876Y472516D03*
D15*
X1447876Y585546D01*
X1445036Y588386D01*
X1445036Y663164D02*
X1435100Y673100D01*
X1445036Y663164D02*
X1445036Y588386D01*
D14*
X1448370Y319340D03*
D15*
X1447876Y374964D02*
X1447876Y472516D01*
X1448370Y374470D02*
X1448370Y319340D01*
X1448370Y374470D02*
X1447876Y374964D01*
D14*
X1460729Y485369D03*
D15*
X1470436Y663164D02*
X1460500Y673100D01*
X1470436Y663164D02*
X1470436Y594385D01*
D14*
X1461223Y332193D03*
D15*
X1461223Y484874D02*
X1460729Y485369D01*
X1461223Y484874D02*
X1461223Y332193D01*
X1460729Y485369D02*
X1460729Y584678D01*
X1470436Y594385D01*
D14*
X1473581Y498221D03*
X1474075Y345045D03*
D15*
X1474075Y497727D02*
X1473581Y498221D01*
X1474075Y497727D02*
X1474075Y345045D01*
X1495836Y663246D02*
X1485982Y673100D01*
X1485900Y673100D01*
X1473581Y583829D02*
X1473581Y498221D01*
X1473581Y583829D02*
X1495836Y606084D01*
X1495836Y663246D01*
D14*
X1486433Y511073D03*
D15*
X1521236Y663164D02*
X1511300Y673100D01*
D14*
X1486928Y357898D03*
D15*
X1486928Y510579D02*
X1486433Y511073D01*
X1486928Y510579D02*
X1486928Y357898D01*
X1486433Y511073D02*
X1486433Y584251D01*
X1521236Y619053D01*
X1521236Y663164D01*
D14*
X1558366Y505384D03*
D15*
X1558440Y505458D01*
X1558440Y584200D01*
X1549400Y660400D02*
X1536700Y673100D01*
X1549400Y660400D02*
X1549400Y593240D01*
X1558440Y584200D01*
D14*
X1558366Y352984D03*
D15*
X1558366Y505384D01*
D14*
X1571219Y492531D03*
D15*
X1571440Y492753D01*
X1571440Y584200D01*
X1572036Y663164D02*
X1562100Y673100D01*
X1572036Y663164D02*
X1572036Y584796D01*
X1571440Y584200D01*
D14*
X1571219Y340131D03*
D15*
X1571219Y492531D01*
D14*
X1584071Y479679D03*
D15*
X1584440Y480048D01*
X1584440Y584200D01*
X1597436Y663164D02*
X1587500Y673100D01*
X1597436Y663164D02*
X1597436Y597196D01*
X1584440Y584200D01*
D14*
X1584071Y327279D03*
D15*
X1584071Y479679D01*
D14*
X1596923Y466827D03*
D15*
X1597440Y467343D01*
X1597440Y584200D01*
X1622836Y663164D02*
X1612900Y673100D01*
X1622836Y663164D02*
X1622836Y609596D01*
X1597440Y584200D01*
D14*
X1596923Y314427D03*
D15*
X1596923Y466827D01*
X1638376Y471246D02*
X1638376Y585176D01*
X1648236Y663164D02*
X1638300Y673100D01*
X1648236Y663164D02*
X1648236Y595036D01*
X1638376Y585176D01*
D14*
X1638870Y471740D03*
D15*
X1638376Y471246D01*
X1638376Y327428D01*
D14*
X1635300Y315770D03*
D15*
X1635658Y324709D02*
X1638376Y327428D01*
X1635658Y316128D02*
X1635300Y315770D01*
X1635658Y316128D02*
X1635658Y324709D01*
X1651229Y484099D02*
X1651229Y585029D01*
X1673636Y663164D02*
X1663700Y673100D01*
X1673636Y663164D02*
X1673636Y607436D01*
X1651229Y585029D01*
D14*
X1651723Y484593D03*
D15*
X1651229Y484099D01*
X1651365Y483963D01*
X1651365Y364253D01*
D14*
X1648152Y328622D03*
D15*
X1648510Y328980D01*
X1648510Y361399D01*
X1651365Y364253D01*
X1664081Y496951D02*
X1664081Y584881D01*
X1699036Y663164D02*
X1689100Y673100D01*
X1699036Y663164D02*
X1699036Y619836D01*
X1664081Y584881D01*
D14*
X1664575Y497445D03*
D15*
X1664081Y496951D01*
X1664217Y496815D01*
X1657406Y361674D02*
X1657406Y354122D01*
D14*
X1661005Y341475D03*
D15*
X1660454Y346296D02*
X1660454Y351074D01*
X1657406Y354122D01*
X1661005Y345746D02*
X1661005Y341475D01*
X1661005Y345746D02*
X1660454Y346296D01*
X1664217Y368485D02*
X1664217Y496815D01*
X1664217Y368485D02*
X1657406Y361674D01*
X1676933Y509803D02*
X1676933Y584733D01*
X1724436Y663164D02*
X1714500Y673100D01*
X1724436Y663164D02*
X1724436Y632236D01*
X1676933Y584733D01*
D14*
X1677428Y510298D03*
D15*
X1676933Y509803D01*
X1677070Y509667D01*
D14*
X1666522Y357898D03*
D15*
X1677070Y368445D01*
X1677070Y509667D01*
D14*
X1748866Y505384D03*
D15*
X1748940Y505458D01*
X1748940Y584200D01*
X1749836Y663164D02*
X1739900Y673100D01*
X1749836Y663164D02*
X1749836Y585096D01*
X1748940Y584200D01*
D14*
X1748866Y352984D03*
D15*
X1748866Y505384D01*
D14*
X1761719Y492531D03*
D15*
X1761940Y492753D01*
X1761940Y584200D01*
X1775236Y663164D02*
X1765300Y673100D01*
X1775236Y663164D02*
X1775236Y597496D01*
X1761940Y584200D01*
D14*
X1761719Y340131D03*
D15*
X1761719Y492531D01*
D14*
X1774571Y479679D03*
D15*
X1774940Y480048D01*
X1774940Y584200D01*
X1800636Y663164D02*
X1790700Y673100D01*
X1800636Y663164D02*
X1800636Y609896D01*
X1774940Y584200D01*
D14*
X1774571Y327279D03*
D15*
X1774571Y479679D01*
D14*
X1787423Y466827D03*
D15*
X1787940Y467343D01*
X1787940Y584200D01*
X1826036Y663164D02*
X1816100Y673100D01*
X1826036Y663164D02*
X1826036Y622296D01*
X1787940Y584200D01*
D14*
X1787423Y314427D03*
D15*
X1787423Y466827D01*
D14*
X1830146Y472516D03*
D15*
X1830146Y585176D01*
X1851436Y663164D02*
X1841500Y673100D01*
X1851436Y663164D02*
X1851436Y606466D01*
X1830146Y585176D01*
X1830146Y472516D02*
X1829788Y472158D01*
X1829788Y319758D01*
D14*
X1829506Y319340D03*
D15*
X1829506Y319476D02*
X1829788Y319758D01*
X1829506Y319476D02*
X1829506Y319340D01*
D14*
X1842999Y485369D03*
D15*
X1842999Y585029D01*
X1876836Y663164D02*
X1866900Y673100D01*
X1876836Y663164D02*
X1876836Y618866D01*
X1842999Y585029D01*
X1842640Y485010D02*
X1842640Y332610D01*
X1842640Y485010D02*
X1842999Y485369D01*
D14*
X1842320Y332231D03*
D15*
X1842320Y332290D02*
X1842640Y332610D01*
X1842320Y332290D02*
X1842320Y332231D01*
D14*
X1855851Y498221D03*
D15*
X1855851Y584881D01*
X1902236Y663164D02*
X1892300Y673100D01*
X1902236Y663164D02*
X1902236Y631266D01*
X1855851Y584881D01*
X1855493Y497863D02*
X1855493Y345463D01*
X1855493Y497863D02*
X1855851Y498221D01*
D14*
X1855173Y345083D03*
D15*
X1855173Y345143D02*
X1855493Y345463D01*
X1855173Y345143D02*
X1855173Y345083D01*
D14*
X1868703Y511073D03*
D15*
X1868703Y584652D01*
X1927636Y663164D02*
X1917700Y673100D01*
X1927636Y663164D02*
X1927636Y643584D01*
X1868703Y584652D01*
X1868345Y510715D02*
X1868345Y358315D01*
X1868345Y510715D02*
X1868703Y511073D01*
D14*
X1868025Y357936D03*
D15*
X1868025Y357995D02*
X1868345Y358315D01*
X1868025Y357995D02*
X1868025Y357936D01*
D14*
X1939366Y505384D03*
D15*
X1939440Y505458D01*
X1939440Y584200D01*
X1953036Y663164D02*
X1943100Y673100D01*
X1953036Y663164D02*
X1953036Y597796D01*
X1939440Y584200D01*
D14*
X1939366Y352984D03*
D15*
X1939366Y505384D01*
D14*
X1952219Y492531D03*
D15*
X1952440Y492753D01*
X1952440Y584200D01*
X1978436Y663164D02*
X1968500Y673100D01*
X1978436Y663164D02*
X1978436Y610196D01*
X1952440Y584200D01*
D14*
X1952219Y340131D03*
D15*
X1952219Y492531D01*
D14*
X1965071Y479679D03*
D15*
X1965440Y480048D01*
X1965440Y584200D01*
X2003836Y663164D02*
X1993900Y673100D01*
X2003836Y663164D02*
X2003836Y622596D01*
X1965440Y584200D01*
D14*
X1965071Y327279D03*
D15*
X1965071Y479679D01*
D14*
X1977923Y466827D03*
D15*
X1978440Y467343D01*
X1978440Y584200D01*
X2029236Y663164D02*
X2019300Y673100D01*
X2029236Y663164D02*
X2029236Y634996D01*
X1978440Y584200D01*
D14*
X1977923Y314427D03*
D15*
X1977923Y466827D01*
M02*
