G04 EAGLE Gerber RS-274X export*
G75*
%MOMM*%
%FSLAX34Y34*%
%LPD*%
%INTop Copper*%
%IPPOS*%
%AMOC8*
5,1,8,0,0,1.08239X$1,22.5*%
G01*
G04 Define Apertures*
%ADD10R,0.629100X0.560000*%
%ADD11R,1.508000X1.508000*%
%ADD12C,1.508000*%
%ADD13R,1.530000X1.530000*%
%ADD14C,1.530000*%
%ADD15R,1.397000X0.348000*%
%ADD16C,0.152400*%
%ADD17C,0.756400*%
D10*
X114300Y284246D03*
X114300Y274554D03*
X304800Y284246D03*
X304800Y274554D03*
X901700Y436646D03*
X901700Y426954D03*
X1155700Y284246D03*
X1155700Y274554D03*
X1346200Y284246D03*
X1346200Y274554D03*
X1536700Y284246D03*
X1536700Y274554D03*
X1727200Y284246D03*
X1727200Y274554D03*
X1917700Y284246D03*
X1917700Y274554D03*
X1155700Y436646D03*
X1155700Y426954D03*
X1346200Y436646D03*
X1346200Y426954D03*
X508000Y284246D03*
X508000Y274554D03*
X1536700Y436646D03*
X1536700Y426954D03*
X1727200Y436646D03*
X1727200Y426954D03*
X1917700Y436646D03*
X1917700Y426954D03*
X711200Y284246D03*
X711200Y274554D03*
X901700Y284246D03*
X901700Y274554D03*
X114300Y436646D03*
X114300Y426954D03*
X304800Y436646D03*
X304800Y426954D03*
X508000Y436646D03*
X508000Y426954D03*
X711200Y436646D03*
X711200Y426954D03*
D11*
X412750Y76200D03*
D12*
X412750Y50800D03*
X438150Y76200D03*
X438150Y50800D03*
X463550Y76200D03*
X463550Y50800D03*
X488950Y76200D03*
X488950Y50800D03*
X514350Y76200D03*
X514350Y50800D03*
X539750Y76200D03*
X539750Y50800D03*
X565150Y76200D03*
X565150Y50800D03*
X590550Y76200D03*
X590550Y50800D03*
X615950Y76200D03*
X615950Y50800D03*
X641350Y76200D03*
X641350Y50800D03*
X666750Y76200D03*
X666750Y50800D03*
X692150Y76200D03*
X692150Y50800D03*
D11*
X1404620Y77470D03*
D12*
X1404620Y52070D03*
X1430020Y77470D03*
X1430020Y52070D03*
X1455420Y77470D03*
X1455420Y52070D03*
X1480820Y77470D03*
X1480820Y52070D03*
X1506220Y77470D03*
X1506220Y52070D03*
X1531620Y77470D03*
X1531620Y52070D03*
X1557020Y77470D03*
X1557020Y52070D03*
X1582420Y77470D03*
X1582420Y52070D03*
X1607820Y77470D03*
X1607820Y52070D03*
X1633220Y77470D03*
X1633220Y52070D03*
X1658620Y77470D03*
X1658620Y52070D03*
X1684020Y77470D03*
X1684020Y52070D03*
D13*
X76200Y647700D03*
D14*
X76200Y673100D03*
X101600Y647700D03*
X101600Y673100D03*
X127000Y647700D03*
X127000Y673100D03*
X152400Y647700D03*
X152400Y673100D03*
X177800Y647700D03*
X177800Y673100D03*
X203200Y647700D03*
X203200Y673100D03*
X228600Y647700D03*
X228600Y673100D03*
X254000Y647700D03*
X254000Y673100D03*
X279400Y647700D03*
X279400Y673100D03*
X304800Y647700D03*
X304800Y673100D03*
X330200Y647700D03*
X330200Y673100D03*
X355600Y647700D03*
X355600Y673100D03*
X381000Y647700D03*
X381000Y673100D03*
X406400Y647700D03*
X406400Y673100D03*
X431800Y647700D03*
X431800Y673100D03*
X457200Y647700D03*
X457200Y673100D03*
X482600Y647700D03*
X482600Y673100D03*
X508000Y647700D03*
X508000Y673100D03*
X533400Y647700D03*
X533400Y673100D03*
X558800Y647700D03*
X558800Y673100D03*
X584200Y647700D03*
X584200Y673100D03*
X609600Y647700D03*
X609600Y673100D03*
X635000Y647700D03*
X635000Y673100D03*
X660400Y647700D03*
X660400Y673100D03*
X685800Y647700D03*
X685800Y673100D03*
X711200Y647700D03*
X711200Y673100D03*
X736600Y647700D03*
X736600Y673100D03*
X762000Y647700D03*
X762000Y673100D03*
X787400Y647700D03*
X787400Y673100D03*
X812800Y647700D03*
X812800Y673100D03*
X838200Y647700D03*
X838200Y673100D03*
X863600Y647700D03*
X863600Y673100D03*
X889000Y647700D03*
X889000Y673100D03*
X914400Y647700D03*
X914400Y673100D03*
X939800Y647700D03*
X939800Y673100D03*
X965200Y647700D03*
X965200Y673100D03*
D15*
X115840Y307150D03*
X115840Y313650D03*
X115840Y320150D03*
X115840Y333150D03*
X115840Y326650D03*
X115840Y339650D03*
X115840Y346150D03*
X115840Y352650D03*
X115840Y359150D03*
X115840Y365650D03*
X188960Y307150D03*
X188960Y313650D03*
X188960Y320150D03*
X188960Y326650D03*
X188960Y333150D03*
X188960Y339650D03*
X188960Y346150D03*
X188960Y352650D03*
X188960Y359150D03*
X188960Y365650D03*
X188960Y372150D03*
X188960Y378650D03*
X115840Y378650D03*
X115840Y372150D03*
X306340Y307150D03*
X306340Y313650D03*
X306340Y320150D03*
X306340Y333150D03*
X306340Y326650D03*
X306340Y339650D03*
X306340Y346150D03*
X306340Y352650D03*
X306340Y359150D03*
X306340Y365650D03*
X379460Y307150D03*
X379460Y313650D03*
X379460Y320150D03*
X379460Y326650D03*
X379460Y333150D03*
X379460Y339650D03*
X379460Y346150D03*
X379460Y352650D03*
X379460Y359150D03*
X379460Y365650D03*
X379460Y372150D03*
X379460Y378650D03*
X306340Y378650D03*
X306340Y372150D03*
X509540Y307150D03*
X509540Y313650D03*
X509540Y320150D03*
X509540Y333150D03*
X509540Y326650D03*
X509540Y339650D03*
X509540Y346150D03*
X509540Y352650D03*
X509540Y359150D03*
X509540Y365650D03*
X582660Y307150D03*
X582660Y313650D03*
X582660Y320150D03*
X582660Y326650D03*
X582660Y333150D03*
X582660Y339650D03*
X582660Y346150D03*
X582660Y352650D03*
X582660Y359150D03*
X582660Y365650D03*
X582660Y372150D03*
X582660Y378650D03*
X509540Y378650D03*
X509540Y372150D03*
X712740Y307150D03*
X712740Y313650D03*
X712740Y320150D03*
X712740Y333150D03*
X712740Y326650D03*
X712740Y339650D03*
X712740Y346150D03*
X712740Y352650D03*
X712740Y359150D03*
X712740Y365650D03*
X785860Y307150D03*
X785860Y313650D03*
X785860Y320150D03*
X785860Y326650D03*
X785860Y333150D03*
X785860Y339650D03*
X785860Y346150D03*
X785860Y352650D03*
X785860Y359150D03*
X785860Y365650D03*
X785860Y372150D03*
X785860Y378650D03*
X712740Y378650D03*
X712740Y372150D03*
X903240Y307150D03*
X903240Y313650D03*
X903240Y320150D03*
X903240Y333150D03*
X903240Y326650D03*
X903240Y339650D03*
X903240Y346150D03*
X903240Y352650D03*
X903240Y359150D03*
X903240Y365650D03*
X976360Y307150D03*
X976360Y313650D03*
X976360Y320150D03*
X976360Y326650D03*
X976360Y333150D03*
X976360Y339650D03*
X976360Y346150D03*
X976360Y352650D03*
X976360Y359150D03*
X976360Y365650D03*
X976360Y372150D03*
X976360Y378650D03*
X903240Y378650D03*
X903240Y372150D03*
X115840Y459550D03*
X115840Y466050D03*
X115840Y472550D03*
X115840Y485550D03*
X115840Y479050D03*
X115840Y492050D03*
X115840Y498550D03*
X115840Y505050D03*
X115840Y511550D03*
X115840Y518050D03*
X188960Y459550D03*
X188960Y466050D03*
X188960Y472550D03*
X188960Y479050D03*
X188960Y485550D03*
X188960Y492050D03*
X188960Y498550D03*
X188960Y505050D03*
X188960Y511550D03*
X188960Y518050D03*
X188960Y524550D03*
X188960Y531050D03*
X115840Y531050D03*
X115840Y524550D03*
X306340Y459550D03*
X306340Y466050D03*
X306340Y472550D03*
X306340Y485550D03*
X306340Y479050D03*
X306340Y492050D03*
X306340Y498550D03*
X306340Y505050D03*
X306340Y511550D03*
X306340Y518050D03*
X379460Y459550D03*
X379460Y466050D03*
X379460Y472550D03*
X379460Y479050D03*
X379460Y485550D03*
X379460Y492050D03*
X379460Y498550D03*
X379460Y505050D03*
X379460Y511550D03*
X379460Y518050D03*
X379460Y524550D03*
X379460Y531050D03*
X306340Y531050D03*
X306340Y524550D03*
X509540Y459550D03*
X509540Y466050D03*
X509540Y472550D03*
X509540Y485550D03*
X509540Y479050D03*
X509540Y492050D03*
X509540Y498550D03*
X509540Y505050D03*
X509540Y511550D03*
X509540Y518050D03*
X582660Y459550D03*
X582660Y466050D03*
X582660Y472550D03*
X582660Y479050D03*
X582660Y485550D03*
X582660Y492050D03*
X582660Y498550D03*
X582660Y505050D03*
X582660Y511550D03*
X582660Y518050D03*
X582660Y524550D03*
X582660Y531050D03*
X509540Y531050D03*
X509540Y524550D03*
X712740Y459550D03*
X712740Y466050D03*
X712740Y472550D03*
X712740Y485550D03*
X712740Y479050D03*
X712740Y492050D03*
X712740Y498550D03*
X712740Y505050D03*
X712740Y511550D03*
X712740Y518050D03*
X785860Y459550D03*
X785860Y466050D03*
X785860Y472550D03*
X785860Y479050D03*
X785860Y485550D03*
X785860Y492050D03*
X785860Y498550D03*
X785860Y505050D03*
X785860Y511550D03*
X785860Y518050D03*
X785860Y524550D03*
X785860Y531050D03*
X712740Y531050D03*
X712740Y524550D03*
X903240Y459550D03*
X903240Y466050D03*
X903240Y472550D03*
X903240Y485550D03*
X903240Y479050D03*
X903240Y492050D03*
X903240Y498550D03*
X903240Y505050D03*
X903240Y511550D03*
X903240Y518050D03*
X976360Y459550D03*
X976360Y466050D03*
X976360Y472550D03*
X976360Y479050D03*
X976360Y485550D03*
X976360Y492050D03*
X976360Y498550D03*
X976360Y505050D03*
X976360Y511550D03*
X976360Y518050D03*
X976360Y524550D03*
X976360Y531050D03*
X903240Y531050D03*
X903240Y524550D03*
D13*
X1130300Y647700D03*
D14*
X1130300Y673100D03*
X1155700Y647700D03*
X1155700Y673100D03*
X1181100Y647700D03*
X1181100Y673100D03*
X1206500Y647700D03*
X1206500Y673100D03*
X1231900Y647700D03*
X1231900Y673100D03*
X1257300Y647700D03*
X1257300Y673100D03*
X1282700Y647700D03*
X1282700Y673100D03*
X1308100Y647700D03*
X1308100Y673100D03*
X1333500Y647700D03*
X1333500Y673100D03*
X1358900Y647700D03*
X1358900Y673100D03*
X1384300Y647700D03*
X1384300Y673100D03*
X1409700Y647700D03*
X1409700Y673100D03*
X1435100Y647700D03*
X1435100Y673100D03*
X1460500Y647700D03*
X1460500Y673100D03*
X1485900Y647700D03*
X1485900Y673100D03*
X1511300Y647700D03*
X1511300Y673100D03*
X1536700Y647700D03*
X1536700Y673100D03*
X1562100Y647700D03*
X1562100Y673100D03*
X1587500Y647700D03*
X1587500Y673100D03*
X1612900Y647700D03*
X1612900Y673100D03*
X1638300Y647700D03*
X1638300Y673100D03*
X1663700Y647700D03*
X1663700Y673100D03*
X1689100Y647700D03*
X1689100Y673100D03*
X1714500Y647700D03*
X1714500Y673100D03*
X1739900Y647700D03*
X1739900Y673100D03*
X1765300Y647700D03*
X1765300Y673100D03*
X1790700Y647700D03*
X1790700Y673100D03*
X1816100Y647700D03*
X1816100Y673100D03*
X1841500Y647700D03*
X1841500Y673100D03*
X1866900Y647700D03*
X1866900Y673100D03*
X1892300Y647700D03*
X1892300Y673100D03*
X1917700Y647700D03*
X1917700Y673100D03*
X1943100Y647700D03*
X1943100Y673100D03*
X1968500Y647700D03*
X1968500Y673100D03*
X1993900Y647700D03*
X1993900Y673100D03*
X2019300Y647700D03*
X2019300Y673100D03*
D15*
X1157240Y307150D03*
X1157240Y313650D03*
X1157240Y320150D03*
X1157240Y333150D03*
X1157240Y326650D03*
X1157240Y339650D03*
X1157240Y346150D03*
X1157240Y352650D03*
X1157240Y359150D03*
X1157240Y365650D03*
X1230360Y307150D03*
X1230360Y313650D03*
X1230360Y320150D03*
X1230360Y326650D03*
X1230360Y333150D03*
X1230360Y339650D03*
X1230360Y346150D03*
X1230360Y352650D03*
X1230360Y359150D03*
X1230360Y365650D03*
X1230360Y372150D03*
X1230360Y378650D03*
X1157240Y378650D03*
X1157240Y372150D03*
X1347740Y307150D03*
X1347740Y313650D03*
X1347740Y320150D03*
X1347740Y333150D03*
X1347740Y326650D03*
X1347740Y339650D03*
X1347740Y346150D03*
X1347740Y352650D03*
X1347740Y359150D03*
X1347740Y365650D03*
X1420860Y307150D03*
X1420860Y313650D03*
X1420860Y320150D03*
X1420860Y326650D03*
X1420860Y333150D03*
X1420860Y339650D03*
X1420860Y346150D03*
X1420860Y352650D03*
X1420860Y359150D03*
X1420860Y365650D03*
X1420860Y372150D03*
X1420860Y378650D03*
X1347740Y378650D03*
X1347740Y372150D03*
X1538240Y307150D03*
X1538240Y313650D03*
X1538240Y320150D03*
X1538240Y333150D03*
X1538240Y326650D03*
X1538240Y339650D03*
X1538240Y346150D03*
X1538240Y352650D03*
X1538240Y359150D03*
X1538240Y365650D03*
X1611360Y307150D03*
X1611360Y313650D03*
X1611360Y320150D03*
X1611360Y326650D03*
X1611360Y333150D03*
X1611360Y339650D03*
X1611360Y346150D03*
X1611360Y352650D03*
X1611360Y359150D03*
X1611360Y365650D03*
X1611360Y372150D03*
X1611360Y378650D03*
X1538240Y378650D03*
X1538240Y372150D03*
X1728740Y307150D03*
X1728740Y313650D03*
X1728740Y320150D03*
X1728740Y333150D03*
X1728740Y326650D03*
X1728740Y339650D03*
X1728740Y346150D03*
X1728740Y352650D03*
X1728740Y359150D03*
X1728740Y365650D03*
X1801860Y307150D03*
X1801860Y313650D03*
X1801860Y320150D03*
X1801860Y326650D03*
X1801860Y333150D03*
X1801860Y339650D03*
X1801860Y346150D03*
X1801860Y352650D03*
X1801860Y359150D03*
X1801860Y365650D03*
X1801860Y372150D03*
X1801860Y378650D03*
X1728740Y378650D03*
X1728740Y372150D03*
X1919240Y307150D03*
X1919240Y313650D03*
X1919240Y320150D03*
X1919240Y333150D03*
X1919240Y326650D03*
X1919240Y339650D03*
X1919240Y346150D03*
X1919240Y352650D03*
X1919240Y359150D03*
X1919240Y365650D03*
X1992360Y307150D03*
X1992360Y313650D03*
X1992360Y320150D03*
X1992360Y326650D03*
X1992360Y333150D03*
X1992360Y339650D03*
X1992360Y346150D03*
X1992360Y352650D03*
X1992360Y359150D03*
X1992360Y365650D03*
X1992360Y372150D03*
X1992360Y378650D03*
X1919240Y378650D03*
X1919240Y372150D03*
X1157240Y459550D03*
X1157240Y466050D03*
X1157240Y472550D03*
X1157240Y485550D03*
X1157240Y479050D03*
X1157240Y492050D03*
X1157240Y498550D03*
X1157240Y505050D03*
X1157240Y511550D03*
X1157240Y518050D03*
X1230360Y459550D03*
X1230360Y466050D03*
X1230360Y472550D03*
X1230360Y479050D03*
X1230360Y485550D03*
X1230360Y492050D03*
X1230360Y498550D03*
X1230360Y505050D03*
X1230360Y511550D03*
X1230360Y518050D03*
X1230360Y524550D03*
X1230360Y531050D03*
X1157240Y531050D03*
X1157240Y524550D03*
X1347740Y459550D03*
X1347740Y466050D03*
X1347740Y472550D03*
X1347740Y485550D03*
X1347740Y479050D03*
X1347740Y492050D03*
X1347740Y498550D03*
X1347740Y505050D03*
X1347740Y511550D03*
X1347740Y518050D03*
X1420860Y459550D03*
X1420860Y466050D03*
X1420860Y472550D03*
X1420860Y479050D03*
X1420860Y485550D03*
X1420860Y492050D03*
X1420860Y498550D03*
X1420860Y505050D03*
X1420860Y511550D03*
X1420860Y518050D03*
X1420860Y524550D03*
X1420860Y531050D03*
X1347740Y531050D03*
X1347740Y524550D03*
X1538240Y459550D03*
X1538240Y466050D03*
X1538240Y472550D03*
X1538240Y485550D03*
X1538240Y479050D03*
X1538240Y492050D03*
X1538240Y498550D03*
X1538240Y505050D03*
X1538240Y511550D03*
X1538240Y518050D03*
X1611360Y459550D03*
X1611360Y466050D03*
X1611360Y472550D03*
X1611360Y479050D03*
X1611360Y485550D03*
X1611360Y492050D03*
X1611360Y498550D03*
X1611360Y505050D03*
X1611360Y511550D03*
X1611360Y518050D03*
X1611360Y524550D03*
X1611360Y531050D03*
X1538240Y531050D03*
X1538240Y524550D03*
X1728740Y459550D03*
X1728740Y466050D03*
X1728740Y472550D03*
X1728740Y485550D03*
X1728740Y479050D03*
X1728740Y492050D03*
X1728740Y498550D03*
X1728740Y505050D03*
X1728740Y511550D03*
X1728740Y518050D03*
X1801860Y459550D03*
X1801860Y466050D03*
X1801860Y472550D03*
X1801860Y479050D03*
X1801860Y485550D03*
X1801860Y492050D03*
X1801860Y498550D03*
X1801860Y505050D03*
X1801860Y511550D03*
X1801860Y518050D03*
X1801860Y524550D03*
X1801860Y531050D03*
X1728740Y531050D03*
X1728740Y524550D03*
X1919240Y459550D03*
X1919240Y466050D03*
X1919240Y472550D03*
X1919240Y485550D03*
X1919240Y479050D03*
X1919240Y492050D03*
X1919240Y498550D03*
X1919240Y505050D03*
X1919240Y511550D03*
X1919240Y518050D03*
X1992360Y459550D03*
X1992360Y466050D03*
X1992360Y472550D03*
X1992360Y479050D03*
X1992360Y485550D03*
X1992360Y492050D03*
X1992360Y498550D03*
X1992360Y505050D03*
X1992360Y511550D03*
X1992360Y518050D03*
X1992360Y524550D03*
X1992360Y531050D03*
X1919240Y531050D03*
X1919240Y524550D03*
D16*
X114300Y274554D02*
X114300Y265430D01*
D17*
X114300Y265430D03*
D16*
X508000Y261620D02*
X508000Y274554D01*
D17*
X508000Y261620D03*
D16*
X711200Y264160D02*
X711200Y274554D01*
D17*
X711200Y264160D03*
D16*
X901700Y265430D02*
X901700Y274554D01*
D17*
X901700Y265430D03*
D16*
X304800Y264160D02*
X304800Y274554D01*
D17*
X304800Y264160D03*
D16*
X114300Y417830D02*
X114300Y426954D01*
D17*
X114300Y417830D03*
D16*
X304800Y417830D02*
X304800Y426954D01*
D17*
X304800Y417830D03*
D16*
X508000Y415290D02*
X508000Y426954D01*
D17*
X508000Y415290D03*
D16*
X711200Y417830D02*
X711200Y426954D01*
D17*
X711200Y417830D03*
D16*
X901700Y416560D02*
X901700Y426954D01*
D17*
X901700Y416560D03*
D16*
X976360Y531050D02*
X976360Y538750D01*
X975360Y539750D01*
D17*
X975360Y539750D03*
D16*
X785860Y385080D02*
X785860Y378650D01*
X785860Y385080D02*
X784860Y386080D01*
D17*
X784860Y386080D03*
X976630Y386362D03*
D16*
X976360Y386092D02*
X976360Y378650D01*
X976360Y386092D02*
X976630Y386362D01*
D17*
X580390Y386362D03*
D16*
X582660Y384092D02*
X582660Y378650D01*
X582660Y384092D02*
X580390Y386362D01*
D17*
X377190Y386362D03*
D16*
X379460Y384092D02*
X379460Y378650D01*
X379460Y384092D02*
X377190Y386362D01*
D17*
X186690Y386362D03*
D16*
X188960Y384092D02*
X188960Y378650D01*
X188960Y384092D02*
X186690Y386362D01*
D17*
X783590Y538762D03*
D16*
X785860Y536492D02*
X785860Y531050D01*
X785860Y536492D02*
X783590Y538762D01*
D17*
X183588Y538762D03*
D16*
X188960Y533390D02*
X188960Y531050D01*
X188960Y533390D02*
X183588Y538762D01*
D17*
X582058Y538762D03*
D16*
X582660Y538160D01*
X582660Y531050D01*
D17*
X377588Y538762D03*
D16*
X379460Y536890D02*
X379460Y531050D01*
X379460Y536890D02*
X377588Y538762D01*
X1155700Y426954D02*
X1155700Y414020D01*
D17*
X1155700Y414020D03*
D16*
X1346200Y415290D02*
X1346200Y426954D01*
D17*
X1346200Y415290D03*
D16*
X1536700Y412750D02*
X1536700Y426954D01*
D17*
X1536700Y412750D03*
D16*
X1727200Y415290D02*
X1727200Y426954D01*
D17*
X1727200Y415290D03*
D16*
X1917700Y414020D02*
X1917700Y426954D01*
D17*
X1917700Y414020D03*
D16*
X1917700Y274554D02*
X1917700Y262890D01*
D17*
X1917700Y262890D03*
D16*
X1727200Y261620D02*
X1727200Y274554D01*
D17*
X1727200Y261620D03*
D16*
X1536700Y261620D02*
X1536700Y274554D01*
D17*
X1536700Y261620D03*
D16*
X1346200Y261620D02*
X1346200Y274554D01*
D17*
X1346200Y261620D03*
D16*
X1155700Y260350D02*
X1155700Y274554D01*
D17*
X1155700Y260350D03*
D16*
X1992360Y378650D02*
X1992360Y385810D01*
X1992630Y386080D01*
D17*
X1992630Y386080D03*
D16*
X1801860Y385080D02*
X1801860Y378650D01*
X1801860Y385080D02*
X1800860Y386080D01*
D17*
X1800860Y386080D03*
D16*
X1611360Y385810D02*
X1611360Y378650D01*
X1611360Y385810D02*
X1611630Y386080D01*
D17*
X1611630Y386080D03*
D16*
X1420860Y385810D02*
X1420860Y378650D01*
X1420860Y385810D02*
X1421130Y386080D01*
D17*
X1421130Y386080D03*
D16*
X1230360Y385810D02*
X1230360Y378650D01*
X1230360Y385810D02*
X1230630Y386080D01*
D17*
X1230630Y386080D03*
D16*
X1801860Y531050D02*
X1802130Y531320D01*
X1992360Y531050D02*
X1992360Y538210D01*
X1992630Y538480D01*
D17*
X1992630Y538480D03*
D16*
X1611360Y538436D02*
X1611360Y531050D01*
X1611360Y538436D02*
X1611630Y538706D01*
D17*
X1802130Y538198D03*
D16*
X1802130Y531320D01*
D17*
X1611630Y538904D03*
D16*
X1611630Y538706D01*
D17*
X1421130Y538340D03*
X1229360Y538340D03*
D16*
X1420860Y538070D02*
X1421130Y538340D01*
X1420860Y538070D02*
X1420860Y531050D01*
X1230360Y537340D02*
X1229360Y538340D01*
X1230360Y537340D02*
X1230360Y531050D01*
X138172Y352650D02*
X115840Y352650D01*
D17*
X138488Y505402D03*
D16*
X138136Y505050D02*
X115840Y505050D01*
X138136Y505050D02*
X138488Y505402D01*
D17*
X138636Y352854D03*
D16*
X138376Y352854D02*
X138172Y352650D01*
X138376Y352854D02*
X138636Y352854D01*
X150877Y339650D02*
X115840Y339650D01*
D17*
X151340Y492550D03*
D16*
X150841Y492050D02*
X115840Y492050D01*
X150841Y492050D02*
X151340Y492550D01*
D17*
X151489Y340001D03*
D16*
X151228Y340001D02*
X150877Y339650D01*
X151228Y340001D02*
X151489Y340001D01*
X163582Y326650D02*
X115840Y326650D01*
D17*
X164193Y479697D03*
D16*
X163546Y479050D02*
X115840Y479050D01*
X163546Y479050D02*
X164193Y479697D01*
D17*
X164341Y327149D03*
D16*
X164081Y327149D02*
X163582Y326650D01*
X164081Y327149D02*
X164341Y327149D01*
X176089Y313650D02*
X115840Y313650D01*
D17*
X176669Y466432D03*
D16*
X176472Y466432D02*
X176089Y466050D01*
X176472Y466432D02*
X176669Y466432D01*
X176089Y466050D02*
X115840Y466050D01*
D17*
X176669Y313772D03*
D16*
X176211Y313772D02*
X176089Y313650D01*
X176211Y313772D02*
X176669Y313772D01*
X188960Y320150D02*
X218482Y320150D01*
D17*
X220144Y470448D03*
D16*
X218043Y472550D02*
X188960Y472550D01*
X218043Y472550D02*
X220144Y470448D01*
D17*
X219915Y318975D03*
D16*
X219658Y318975D02*
X218482Y320150D01*
X219658Y318975D02*
X219915Y318975D01*
X231187Y333150D02*
X188960Y333150D01*
D17*
X232997Y483643D03*
D16*
X231089Y485550D02*
X188960Y485550D01*
X231089Y485550D02*
X232997Y483643D01*
D17*
X232767Y331827D03*
D16*
X232510Y331827D02*
X231187Y333150D01*
X232510Y331827D02*
X232767Y331827D01*
X243892Y346150D02*
X188960Y346150D01*
D17*
X245670Y496772D03*
D16*
X243892Y498550D02*
X188960Y498550D01*
X243892Y498550D02*
X245670Y496772D01*
D17*
X245620Y344680D03*
D16*
X245362Y344680D02*
X243892Y346150D01*
X245362Y344680D02*
X245620Y344680D01*
X256597Y359150D02*
X188960Y359150D01*
X188960Y511550D02*
X256597Y511550D01*
X258343Y509803D01*
D17*
X258600Y509803D03*
D16*
X258343Y509803D01*
D17*
X258472Y357532D03*
D16*
X258214Y357532D02*
X256597Y359150D01*
X258214Y357532D02*
X258472Y357532D01*
X306340Y352650D02*
X326132Y352650D01*
X326466Y352984D01*
D17*
X326466Y352984D03*
X326436Y505414D03*
D16*
X326073Y505050D02*
X306340Y505050D01*
X326073Y505050D02*
X326436Y505414D01*
X338837Y339650D02*
X306340Y339650D01*
X338837Y339650D02*
X339319Y340131D01*
D17*
X339319Y340131D03*
X339289Y492561D03*
D16*
X338778Y492050D02*
X306340Y492050D01*
X338778Y492050D02*
X339289Y492561D01*
X351542Y326650D02*
X306340Y326650D01*
X351542Y326650D02*
X352171Y327279D01*
D17*
X352171Y327279D03*
X352141Y479709D03*
D16*
X351483Y479050D02*
X306340Y479050D01*
X351483Y479050D02*
X352141Y479709D01*
X364247Y313650D02*
X306340Y313650D01*
X364247Y313650D02*
X365023Y314427D01*
D17*
X365023Y314427D03*
D16*
X364247Y466050D02*
X306340Y466050D01*
X364247Y466050D02*
X365023Y466827D01*
D17*
X365023Y466827D03*
D16*
X379460Y320150D02*
X411522Y320150D01*
X412826Y318846D01*
D17*
X412826Y318846D03*
D16*
X411522Y472550D02*
X379460Y472550D01*
X411522Y472550D02*
X412826Y471246D01*
D17*
X412826Y471246D03*
D16*
X424227Y333150D02*
X379460Y333150D01*
X424227Y333150D02*
X425679Y331699D01*
D17*
X425679Y331699D03*
D16*
X424227Y485550D02*
X379460Y485550D01*
X424227Y485550D02*
X425679Y484099D01*
D17*
X425752Y484099D03*
D16*
X425679Y484099D01*
X436932Y346150D02*
X379460Y346150D01*
X436932Y346150D02*
X438531Y344551D01*
D17*
X438531Y344551D03*
D16*
X436932Y498550D02*
X379460Y498550D01*
D17*
X438568Y496988D03*
D16*
X438494Y496988D02*
X436932Y498550D01*
X438494Y496988D02*
X438568Y496988D01*
X449637Y359150D02*
X379460Y359150D01*
X449637Y359150D02*
X451383Y357403D01*
D17*
X451383Y357403D03*
D16*
X449637Y511550D02*
X379460Y511550D01*
D17*
X451420Y509840D03*
D16*
X451346Y509840D02*
X449637Y511550D01*
X451346Y509840D02*
X451420Y509840D01*
X509540Y352650D02*
X530602Y352650D01*
D17*
X531066Y352854D03*
D16*
X530806Y352854D02*
X530602Y352650D01*
X530806Y352854D02*
X531066Y352854D01*
D17*
X530803Y505517D03*
D16*
X510007Y505517D01*
X509540Y505050D01*
X509540Y339650D02*
X543307Y339650D01*
D17*
X543919Y340001D03*
D16*
X543658Y340001D02*
X543307Y339650D01*
X543658Y340001D02*
X543919Y340001D01*
D17*
X543759Y492561D03*
D16*
X543248Y492050D02*
X509540Y492050D01*
X543248Y492050D02*
X543759Y492561D01*
X556012Y326650D02*
X509540Y326650D01*
D17*
X556771Y327149D03*
D16*
X556511Y327149D02*
X556012Y326650D01*
X556511Y327149D02*
X556771Y327149D01*
D17*
X556611Y479709D03*
D16*
X555953Y479050D02*
X509540Y479050D01*
X555953Y479050D02*
X556611Y479709D01*
X568717Y313650D02*
X509540Y313650D01*
D17*
X569624Y314296D03*
D16*
X569363Y314296D02*
X568717Y313650D01*
X569363Y314296D02*
X569624Y314296D01*
X568717Y466050D02*
X509540Y466050D01*
X568717Y466050D02*
X569493Y466827D01*
D17*
X569493Y466827D03*
D16*
X582660Y472550D02*
X613452Y472550D01*
X614756Y471246D01*
D17*
X617106Y471246D03*
D16*
X614756Y471246D01*
D17*
X615181Y318233D03*
D16*
X613263Y320150D01*
X582660Y320150D01*
X629060Y485550D02*
X629206Y485696D01*
X629060Y485550D02*
X582660Y485550D01*
D17*
X629242Y485696D03*
D16*
X629206Y485696D01*
D17*
X627848Y331270D03*
D16*
X625968Y333150D01*
X582660Y333150D01*
X582960Y345850D02*
X582660Y346150D01*
D17*
X642076Y498566D03*
D16*
X642060Y498550D01*
X582660Y498550D01*
D17*
X640367Y344457D03*
D16*
X638973Y345850D01*
X582960Y345850D01*
X583233Y358577D02*
X582660Y359150D01*
X582660Y511550D02*
X651567Y511550D01*
D17*
X654929Y511419D03*
D16*
X651698Y511419D02*
X651567Y511550D01*
X651698Y511419D02*
X654929Y511419D01*
D17*
X650522Y358577D03*
D16*
X583233Y358577D01*
X712740Y352650D02*
X733802Y352650D01*
D17*
X734266Y352854D03*
D16*
X734006Y352854D02*
X733802Y352650D01*
X734006Y352854D02*
X734266Y352854D01*
D17*
X734099Y505421D03*
D16*
X733729Y505050D02*
X712740Y505050D01*
X733729Y505050D02*
X734099Y505421D01*
X746507Y339650D02*
X712740Y339650D01*
D17*
X747119Y340001D03*
D16*
X746858Y340001D02*
X746507Y339650D01*
X746858Y340001D02*
X747119Y340001D01*
X746507Y492050D02*
X712740Y492050D01*
X746507Y492050D02*
X746989Y492531D01*
D17*
X746989Y492531D03*
D16*
X759212Y326650D02*
X712740Y326650D01*
D17*
X759971Y327149D03*
D16*
X759711Y327149D02*
X759212Y326650D01*
X759711Y327149D02*
X759971Y327149D01*
X759212Y479050D02*
X712740Y479050D01*
X759212Y479050D02*
X759841Y479679D01*
D17*
X759841Y479679D03*
D16*
X771917Y313650D02*
X712740Y313650D01*
D17*
X772824Y314296D03*
D16*
X772563Y314296D02*
X771917Y313650D01*
X772563Y314296D02*
X772824Y314296D01*
X771917Y466050D02*
X712740Y466050D01*
X771917Y466050D02*
X772693Y466827D01*
D17*
X772693Y466827D03*
D16*
X785860Y320150D02*
X815382Y320150D01*
X816686Y318846D01*
D17*
X816686Y318846D03*
D16*
X816652Y472550D02*
X785860Y472550D01*
X816652Y472550D02*
X817956Y471246D01*
D17*
X817956Y471246D03*
D16*
X828087Y333150D02*
X785860Y333150D01*
X785860Y485550D02*
X829357Y485550D01*
X830809Y484099D01*
D17*
X830809Y484099D03*
D16*
X828087Y333150D02*
X829083Y332155D01*
D17*
X830450Y332155D03*
D16*
X829083Y332155D01*
X840792Y346150D02*
X785860Y346150D01*
X785860Y498550D02*
X842062Y498550D01*
X843661Y496951D01*
D17*
X843661Y496951D03*
D16*
X840792Y346150D02*
X841593Y345349D01*
D17*
X843303Y345349D03*
D16*
X841593Y345349D01*
X853497Y359150D02*
X785860Y359150D01*
X785860Y511550D02*
X854767Y511550D01*
X856513Y509803D01*
D17*
X856513Y509803D03*
D16*
X853497Y359150D02*
X854360Y358287D01*
D17*
X856155Y358287D03*
D16*
X854360Y358287D01*
X903240Y352650D02*
X924302Y352650D01*
X924636Y352984D01*
D17*
X924636Y352984D03*
D16*
X924302Y505050D02*
X903240Y505050D01*
X924302Y505050D02*
X924636Y505384D01*
D17*
X924636Y505384D03*
D16*
X937007Y339650D02*
X903240Y339650D01*
X937007Y339650D02*
X937489Y340131D01*
D17*
X937489Y340131D03*
D16*
X937007Y492050D02*
X903240Y492050D01*
X937007Y492050D02*
X937489Y492531D01*
D17*
X937489Y492531D03*
D16*
X949712Y326650D02*
X903240Y326650D01*
X949712Y326650D02*
X950341Y327279D01*
D17*
X950341Y327279D03*
D16*
X949712Y479050D02*
X903240Y479050D01*
X949712Y479050D02*
X950341Y479679D01*
D17*
X950341Y479679D03*
D16*
X962417Y313650D02*
X903240Y313650D01*
X962417Y313650D02*
X963193Y314427D01*
D17*
X963193Y314427D03*
D16*
X962417Y466050D02*
X903240Y466050D01*
X962417Y466050D02*
X963193Y466827D01*
D17*
X963193Y466827D03*
X132062Y511828D03*
D16*
X131783Y511550D02*
X115840Y511550D01*
X131783Y511550D02*
X132062Y511828D01*
D17*
X132080Y359150D03*
D16*
X115840Y359150D01*
X115840Y346150D02*
X144525Y346150D01*
D17*
X144914Y498976D03*
D16*
X144488Y498550D02*
X115840Y498550D01*
X144488Y498550D02*
X144914Y498976D01*
D17*
X145063Y346428D03*
D16*
X144802Y346428D02*
X144525Y346150D01*
X144802Y346428D02*
X145063Y346428D01*
X157230Y333150D02*
X115840Y333150D01*
D17*
X157767Y486123D03*
D16*
X157193Y485550D02*
X115840Y485550D01*
X157193Y485550D02*
X157767Y486123D01*
D17*
X157915Y333575D03*
D16*
X157655Y333575D02*
X157230Y333150D01*
X157655Y333575D02*
X157915Y333575D01*
X169934Y320150D02*
X115840Y320150D01*
D17*
X170601Y473253D03*
D16*
X169898Y472550D02*
X115840Y472550D01*
X169898Y472550D02*
X170601Y473253D01*
D17*
X170768Y320723D03*
D16*
X170507Y320723D02*
X169934Y320150D01*
X170507Y320723D02*
X170768Y320723D01*
X188960Y313650D02*
X212130Y313650D01*
D17*
X213718Y463965D03*
D16*
X211633Y466050D02*
X188960Y466050D01*
X211633Y466050D02*
X213718Y463965D01*
D17*
X213360Y312677D03*
D16*
X213103Y312677D02*
X212130Y313650D01*
X213103Y312677D02*
X213360Y312677D01*
X224835Y326650D02*
X188960Y326650D01*
D17*
X226571Y476988D03*
D16*
X224509Y479050D02*
X188960Y479050D01*
X224509Y479050D02*
X226571Y476988D01*
D17*
X226341Y325401D03*
D16*
X226084Y325401D02*
X224835Y326650D01*
X226084Y325401D02*
X226341Y325401D01*
X237540Y339650D02*
X188960Y339650D01*
D17*
X239700Y489890D03*
D16*
X237539Y492050D02*
X188960Y492050D01*
X237539Y492050D02*
X239700Y489890D01*
D17*
X239194Y338254D03*
D16*
X238936Y338254D02*
X237540Y339650D01*
X238936Y338254D02*
X239194Y338254D01*
X250244Y352650D02*
X188960Y352650D01*
D17*
X252096Y503198D03*
D16*
X250244Y505050D02*
X188960Y505050D01*
X250244Y505050D02*
X252096Y503198D01*
D17*
X252095Y351057D03*
D16*
X251837Y351057D02*
X250244Y352650D01*
X251837Y351057D02*
X252095Y351057D01*
X306340Y359150D02*
X319780Y359150D01*
X320040Y359410D01*
D17*
X320040Y359410D03*
X320010Y511840D03*
D16*
X319720Y511550D02*
X306340Y511550D01*
X319720Y511550D02*
X320010Y511840D01*
X332485Y346150D02*
X306340Y346150D01*
X332485Y346150D02*
X332892Y346558D01*
D17*
X332892Y346558D03*
X332863Y498987D03*
D16*
X332425Y498550D02*
X306340Y498550D01*
X332425Y498550D02*
X332863Y498987D01*
X345190Y333150D02*
X306340Y333150D01*
X345190Y333150D02*
X345745Y333705D01*
D17*
X345745Y333705D03*
X345715Y486135D03*
D16*
X345130Y485550D02*
X306340Y485550D01*
X345130Y485550D02*
X345715Y486135D01*
X357894Y320150D02*
X306340Y320150D01*
X357894Y320150D02*
X358597Y320853D01*
D17*
X358597Y320853D03*
X358538Y473253D03*
D16*
X357835Y472550D02*
X306340Y472550D01*
X357835Y472550D02*
X358538Y473253D01*
X379460Y313650D02*
X405170Y313650D01*
X406400Y312420D01*
D17*
X406400Y312420D03*
D16*
X405170Y466050D02*
X379460Y466050D01*
X405170Y466050D02*
X406400Y464820D01*
D17*
X406400Y464820D03*
D16*
X417875Y326650D02*
X379460Y326650D01*
X417875Y326650D02*
X419252Y325272D01*
D17*
X419252Y325272D03*
D16*
X417875Y479050D02*
X379460Y479050D01*
X417875Y479050D02*
X419252Y477672D01*
D17*
X419252Y477672D03*
D16*
X430580Y339650D02*
X379460Y339650D01*
X430580Y339650D02*
X432105Y338125D01*
D17*
X432105Y338125D03*
D16*
X430580Y492050D02*
X379460Y492050D01*
D17*
X432142Y490562D03*
D16*
X432068Y490562D02*
X430580Y492050D01*
X432068Y490562D02*
X432142Y490562D01*
X443284Y352650D02*
X379460Y352650D01*
X443284Y352650D02*
X444957Y350977D01*
D17*
X444957Y350977D03*
D16*
X443284Y505050D02*
X379460Y505050D01*
D17*
X444994Y503414D03*
D16*
X444920Y503414D02*
X443284Y505050D01*
X444920Y503414D02*
X444994Y503414D01*
D17*
X524510Y359150D03*
D16*
X509540Y359150D01*
D17*
X524377Y511943D03*
D16*
X523984Y511550D02*
X509540Y511550D01*
X523984Y511550D02*
X524377Y511943D01*
X536955Y346150D02*
X509540Y346150D01*
D17*
X537493Y346428D03*
D16*
X537232Y346428D02*
X536955Y346150D01*
X537232Y346428D02*
X537493Y346428D01*
X536689Y498550D02*
X509540Y498550D01*
X536689Y498550D02*
X537126Y498987D01*
D17*
X537134Y498987D03*
D16*
X537126Y498987D01*
X549660Y333150D02*
X509540Y333150D01*
D17*
X550345Y333575D03*
D16*
X550085Y333575D02*
X549660Y333150D01*
X550085Y333575D02*
X550345Y333575D01*
D17*
X550185Y486135D03*
D16*
X549600Y485550D02*
X509540Y485550D01*
X549600Y485550D02*
X550185Y486135D01*
X562364Y320150D02*
X509540Y320150D01*
D17*
X563198Y320723D03*
D16*
X562937Y320723D02*
X562364Y320150D01*
X562937Y320723D02*
X563198Y320723D01*
D17*
X563008Y473253D03*
D16*
X562305Y472550D02*
X509540Y472550D01*
X562305Y472550D02*
X563008Y473253D01*
D17*
X608204Y312294D03*
D16*
X608370Y466050D02*
X582660Y466050D01*
X608370Y466050D02*
X609600Y464820D01*
D17*
X609600Y464820D03*
D16*
X582660Y313650D02*
X582746Y313564D01*
X606934Y313564D02*
X608204Y312294D01*
X606934Y313564D02*
X582746Y313564D01*
X582894Y326416D02*
X582660Y326650D01*
X582660Y479050D02*
X619805Y479050D01*
X620007Y478847D01*
D17*
X623174Y478847D03*
D16*
X620007Y478847D01*
D17*
X622179Y324087D03*
D16*
X619849Y326416D01*
X582894Y326416D01*
X582660Y492050D02*
X635560Y492050D01*
D17*
X635650Y492140D03*
D16*
X635560Y492050D01*
D17*
X633940Y338030D03*
D16*
X632321Y339650D01*
X582660Y339650D01*
X583034Y352277D02*
X582660Y352650D01*
X582660Y505050D02*
X645214Y505050D01*
D17*
X648503Y504993D03*
D16*
X645272Y504993D01*
X645214Y505050D01*
D17*
X648187Y349489D03*
D16*
X645399Y352277D01*
X583034Y352277D01*
D17*
X727710Y359150D03*
D16*
X712740Y359150D01*
D17*
X727673Y511847D03*
D16*
X727376Y511550D02*
X712740Y511550D01*
X727376Y511550D02*
X727673Y511847D01*
X740155Y346150D02*
X712740Y346150D01*
D17*
X740693Y346428D03*
D16*
X740432Y346428D02*
X740155Y346150D01*
X740432Y346428D02*
X740693Y346428D01*
D17*
X740489Y498958D03*
D16*
X740081Y498550D02*
X712740Y498550D01*
X740081Y498550D02*
X740489Y498958D01*
X752860Y333150D02*
X712740Y333150D01*
D17*
X753545Y333575D03*
D16*
X753285Y333575D02*
X752860Y333150D01*
X753285Y333575D02*
X753545Y333575D01*
X752860Y485550D02*
X712740Y485550D01*
X752860Y485550D02*
X753415Y486105D01*
D17*
X753415Y486105D03*
D16*
X765564Y320150D02*
X712740Y320150D01*
D17*
X766398Y320723D03*
D16*
X766137Y320723D02*
X765564Y320150D01*
X766137Y320723D02*
X766398Y320723D01*
X765564Y472550D02*
X712740Y472550D01*
X765564Y472550D02*
X766267Y473253D01*
D17*
X766267Y473253D03*
D16*
X785860Y313650D02*
X809030Y313650D01*
X810260Y312420D01*
D17*
X810260Y312420D03*
D16*
X810300Y466050D02*
X785860Y466050D01*
X810300Y466050D02*
X811530Y464820D01*
D17*
X811530Y464820D03*
D16*
X821735Y326650D02*
X785860Y326650D01*
X821735Y326650D02*
X823112Y325272D01*
X823005Y479050D02*
X785860Y479050D01*
X823005Y479050D02*
X824382Y477672D01*
D17*
X824382Y477672D03*
X824024Y325272D03*
D16*
X823112Y325272D01*
X834440Y339650D02*
X785860Y339650D01*
X785860Y492050D02*
X835710Y492050D01*
X837235Y490525D01*
D17*
X837235Y490525D03*
D16*
X834440Y339650D02*
X835281Y338809D01*
D17*
X836877Y338809D03*
D16*
X835281Y338809D01*
X847144Y352650D02*
X785860Y352650D01*
X785860Y505050D02*
X848414Y505050D01*
X850087Y503377D01*
D17*
X850087Y503377D03*
D16*
X847144Y352650D02*
X847962Y351832D01*
D17*
X849729Y351832D03*
D16*
X847962Y351832D01*
X903240Y359150D02*
X917950Y359150D01*
X918210Y359410D01*
D17*
X918210Y359410D03*
D16*
X917950Y511550D02*
X903240Y511550D01*
X917950Y511550D02*
X918210Y511810D01*
D17*
X918210Y511810D03*
D16*
X930655Y346150D02*
X903240Y346150D01*
X930655Y346150D02*
X931062Y346558D01*
D17*
X931062Y346558D03*
D16*
X930655Y498550D02*
X903240Y498550D01*
X930655Y498550D02*
X931062Y498958D01*
D17*
X931062Y498958D03*
D16*
X943360Y333150D02*
X903240Y333150D01*
X943360Y333150D02*
X943915Y333705D01*
D17*
X943915Y333705D03*
D16*
X943360Y485550D02*
X903240Y485550D01*
X943360Y485550D02*
X943915Y486105D01*
D17*
X943915Y486105D03*
D16*
X956064Y320150D02*
X903240Y320150D01*
X956064Y320150D02*
X956767Y320853D01*
D17*
X956767Y320853D03*
D16*
X956064Y472550D02*
X903240Y472550D01*
X956064Y472550D02*
X956767Y473253D01*
D17*
X956767Y473253D03*
D16*
X306340Y365650D02*
X300882Y365650D01*
X286258Y351026D01*
X286258Y273812D02*
X344170Y215900D01*
X286258Y273812D02*
X286258Y351026D01*
X344170Y215900D02*
X501650Y215900D01*
X615950Y101600D01*
X615950Y76200D01*
X115840Y518050D02*
X104030Y518050D01*
X86360Y500380D01*
X501576Y179070D02*
X578184Y102462D01*
X578184Y63166D01*
X590550Y50800D01*
X86360Y272858D02*
X86360Y500380D01*
X86360Y272858D02*
X180148Y179070D01*
X501576Y179070D01*
X976360Y365650D02*
X990490Y365650D01*
X990600Y365760D01*
D17*
X990600Y365760D03*
D16*
X797670Y365650D02*
X785860Y365650D01*
X391270Y365650D02*
X379460Y365650D01*
X199500Y365650D02*
X188960Y365650D01*
D17*
X201930Y365218D03*
D16*
X199932Y365218D02*
X199500Y365650D01*
X199932Y365218D02*
X201930Y365218D01*
D17*
X393700Y365218D03*
D16*
X391702Y365218D02*
X391270Y365650D01*
X391702Y365218D02*
X393700Y365218D01*
X582660Y365650D02*
X596790Y365650D01*
X596900Y365760D01*
D17*
X596900Y365760D03*
X800100Y365218D03*
D16*
X798102Y365218D02*
X797670Y365650D01*
X798102Y365218D02*
X800100Y365218D01*
D17*
X201930Y374306D03*
D16*
X199774Y372150D02*
X188960Y372150D01*
X199774Y372150D02*
X201930Y374306D01*
D17*
X393700Y374306D03*
D16*
X391544Y372150D02*
X379460Y372150D01*
X391544Y372150D02*
X393700Y374306D01*
D17*
X596900Y374848D03*
D16*
X594202Y372150D01*
X582660Y372150D01*
D17*
X800100Y374306D03*
D16*
X797944Y372150D02*
X785860Y372150D01*
X797944Y372150D02*
X800100Y374306D01*
D17*
X990600Y374848D03*
D16*
X987902Y372150D01*
X976360Y372150D01*
D17*
X125730Y392430D03*
D16*
X121298Y372150D02*
X115840Y372150D01*
D17*
X892810Y392430D03*
D16*
X892810Y377122D02*
X897782Y372150D01*
X892810Y377122D02*
X892810Y392430D01*
X897782Y372150D02*
X903240Y372150D01*
D17*
X703580Y392430D03*
D16*
X703469Y392319D02*
X703469Y375963D01*
X703469Y392319D02*
X703580Y392430D01*
X707282Y372150D02*
X712740Y372150D01*
X707282Y372150D02*
X703469Y375963D01*
D17*
X501650Y392430D03*
D16*
X500269Y391049D02*
X500269Y375963D01*
X500269Y391049D02*
X501650Y392430D01*
X504082Y372150D02*
X509540Y372150D01*
X504082Y372150D02*
X500269Y375963D01*
D17*
X297180Y392430D03*
D16*
X300882Y372150D02*
X306340Y372150D01*
X300882Y372150D02*
X297069Y375963D01*
X297069Y392319D02*
X297180Y392430D01*
X297069Y392319D02*
X297069Y375963D01*
X125111Y375963D02*
X121298Y372150D01*
X125111Y391811D02*
X125730Y392430D01*
X125111Y391811D02*
X125111Y375963D01*
X115840Y378650D02*
X115840Y392700D01*
X124460Y401320D01*
X903240Y391172D02*
X903240Y378650D01*
X903240Y391172D02*
X893092Y401320D01*
X712740Y397240D02*
X712740Y378650D01*
X712740Y397240D02*
X708660Y401320D01*
D17*
X708660Y401320D03*
D16*
X509540Y393430D02*
X509540Y378650D01*
X509540Y393430D02*
X501650Y401320D01*
X306340Y392160D02*
X306340Y378650D01*
X306340Y392160D02*
X297180Y401320D01*
D17*
X893092Y401518D03*
D16*
X893092Y401320D01*
D17*
X501650Y401518D03*
D16*
X501650Y401320D01*
D17*
X297180Y401518D03*
D16*
X297180Y401320D01*
D17*
X124460Y401518D03*
D16*
X124460Y401320D01*
X188960Y307150D02*
X188960Y292370D01*
X189230Y292100D01*
D17*
X189230Y292100D03*
D16*
X379460Y295640D02*
X379460Y307150D01*
X379460Y295640D02*
X375920Y292100D01*
D17*
X375920Y292100D03*
D16*
X785860Y303260D02*
X785860Y307150D01*
X785860Y303260D02*
X774700Y292100D01*
D17*
X774700Y292100D03*
D16*
X582660Y296910D02*
X582660Y307150D01*
X582660Y296910D02*
X577850Y292100D01*
D17*
X577850Y292100D03*
D16*
X976360Y303260D02*
X976360Y307150D01*
X976360Y303260D02*
X965200Y292100D01*
D17*
X965200Y292100D03*
D16*
X115840Y365650D02*
X109110Y365650D01*
X96520Y353060D01*
X96520Y290061D01*
X190493Y189738D02*
X502412Y189738D01*
X590550Y101600D01*
X590550Y76200D01*
X111787Y259362D02*
X108232Y262917D01*
X120869Y259362D02*
X190493Y189738D01*
X120869Y259362D02*
X111787Y259362D01*
X108232Y278349D02*
X96520Y290061D01*
X108232Y278349D02*
X108232Y262917D01*
D17*
X989330Y517962D03*
D16*
X989242Y518050D02*
X976360Y518050D01*
X989242Y518050D02*
X989330Y517962D01*
X785970Y518160D02*
X785860Y518050D01*
X582770Y518160D02*
X582660Y518050D01*
X379570Y518160D02*
X379460Y518050D01*
D17*
X598056Y518160D03*
D16*
X582770Y518160D01*
X204165Y518050D02*
X188960Y518050D01*
X204165Y518050D02*
X204275Y518160D01*
D17*
X207860Y518160D03*
D16*
X204275Y518160D01*
D17*
X804304Y518160D03*
D16*
X785970Y518160D01*
D17*
X395984Y518160D03*
D16*
X379570Y518160D01*
X976360Y524550D02*
X986830Y524550D01*
X989330Y527050D01*
D17*
X989330Y527050D03*
D16*
X797402Y524550D02*
X785860Y524550D01*
X797402Y524550D02*
X800100Y527248D01*
X594202Y524550D02*
X582660Y524550D01*
X594202Y524550D02*
X596900Y527248D01*
D17*
X598056Y527248D03*
D16*
X596900Y527248D01*
X390294Y524550D02*
X379460Y524550D01*
X390294Y524550D02*
X392992Y527248D01*
X201577Y524550D02*
X188960Y524550D01*
X201577Y524550D02*
X204275Y527248D01*
D17*
X207860Y527248D03*
D16*
X204275Y527248D01*
D17*
X804304Y527248D03*
D16*
X800100Y527248D01*
D17*
X395984Y527248D03*
D16*
X392992Y527248D01*
X124500Y524550D02*
X115840Y524550D01*
D17*
X891540Y544830D03*
D16*
X903240Y524550D02*
X903174Y524484D01*
X894038Y524484D01*
X891540Y526982D01*
X891540Y544830D01*
D17*
X703580Y544830D03*
D16*
X703469Y544719D01*
X712740Y524550D02*
X712674Y524484D01*
X707348Y524484D01*
X703469Y528363D01*
X703469Y544719D01*
D17*
X502920Y544830D03*
D16*
X509540Y524550D02*
X509474Y524484D01*
X504148Y524484D01*
X500269Y528363D01*
X500269Y542627D01*
X502472Y544830D02*
X502920Y544830D01*
X502472Y544830D02*
X500269Y542627D01*
D17*
X297180Y544830D03*
D16*
X297069Y544719D01*
X297069Y528363D01*
X300882Y524550D02*
X306340Y524550D01*
X300882Y524550D02*
X297069Y528363D01*
D17*
X126012Y544830D03*
D16*
X126012Y526062D02*
X124500Y524550D01*
X126012Y526062D02*
X126012Y544830D01*
X115840Y543830D02*
X115840Y531050D01*
X903240Y531050D02*
X903240Y543290D01*
X891540Y554990D01*
D17*
X891540Y554990D03*
D16*
X712740Y545830D02*
X712740Y531050D01*
X712740Y545830D02*
X703580Y554990D01*
D17*
X703580Y554990D03*
D16*
X509540Y548370D02*
X509540Y531050D01*
X509540Y548370D02*
X502920Y554990D01*
D17*
X502920Y554990D03*
D16*
X306340Y545830D02*
X306340Y531050D01*
X306340Y545830D02*
X297180Y554990D01*
D17*
X297180Y554990D03*
X126012Y554990D03*
D16*
X126012Y554002D02*
X115840Y543830D01*
X126012Y554002D02*
X126012Y554990D01*
X188960Y459550D02*
X190500Y458010D01*
X190500Y444500D01*
D17*
X190500Y444500D03*
D16*
X976360Y446770D02*
X976360Y459550D01*
X976360Y446770D02*
X974090Y444500D01*
D17*
X974090Y444500D03*
D16*
X785860Y446770D02*
X785860Y459550D01*
X785860Y446770D02*
X783590Y444500D01*
D17*
X783590Y444500D03*
D16*
X582660Y446770D02*
X582660Y459550D01*
X582660Y446770D02*
X580390Y444500D01*
D17*
X580390Y444500D03*
D16*
X379460Y451850D02*
X379460Y459550D01*
D17*
X371091Y444500D03*
D16*
X372110Y444500D02*
X379460Y451850D01*
X372110Y444500D02*
X371091Y444500D01*
X306340Y518050D02*
X299610Y518050D01*
X283210Y501650D01*
X283210Y259080D01*
X341630Y200660D01*
X502920Y200660D01*
X603250Y100330D01*
X603250Y73660D01*
X615950Y60960D01*
X615950Y50800D01*
X509540Y365650D02*
X504082Y365650D01*
X490728Y352296D01*
X490728Y252222D02*
X641350Y101600D01*
X490728Y252222D02*
X490728Y352296D01*
X641350Y101600D02*
X641350Y76200D01*
X509540Y518050D02*
X502810Y518050D01*
X487680Y502920D01*
X487680Y245110D01*
X628650Y104140D01*
X628650Y63500D01*
X641350Y50800D01*
X707282Y365650D02*
X712740Y365650D01*
X707282Y365650D02*
X665988Y324356D01*
X665988Y76962D01*
X666750Y76200D01*
X897782Y365650D02*
X903240Y365650D01*
X897782Y365650D02*
X884428Y352296D01*
X884428Y243078D01*
X692150Y50800D01*
X887620Y518050D02*
X903240Y518050D01*
X887620Y518050D02*
X881380Y511810D01*
X881380Y265430D01*
X692150Y76200D01*
X703470Y518050D02*
X712740Y518050D01*
X703470Y518050D02*
X656590Y471170D01*
X666750Y62304D02*
X666750Y50800D01*
X656590Y72464D02*
X656590Y471170D01*
X656590Y72464D02*
X666750Y62304D01*
X115840Y285786D02*
X115840Y307150D01*
X115840Y285786D02*
X114300Y284246D01*
X509540Y284246D02*
X509540Y307150D01*
X509540Y284246D02*
X508000Y284246D01*
X712740Y284246D02*
X712740Y307150D01*
X712740Y284246D02*
X711200Y284246D01*
X901700Y284246D02*
X903240Y284246D01*
X306340Y284246D02*
X306340Y307150D01*
X306340Y284246D02*
X304800Y284246D01*
X115840Y436646D02*
X115840Y459550D01*
X115840Y436646D02*
X114300Y436646D01*
X306340Y436646D02*
X306340Y459550D01*
X306340Y436646D02*
X304800Y436646D01*
X509540Y436646D02*
X509540Y459550D01*
X509540Y436646D02*
X508000Y436646D01*
X712740Y436646D02*
X712740Y459550D01*
X712740Y436646D02*
X711200Y436646D01*
X903240Y436646D02*
X903240Y459550D01*
X903240Y436646D02*
X901700Y436646D01*
X712740Y459550D02*
X697420Y459550D01*
X697230Y459740D01*
D17*
X697230Y459740D03*
D16*
X509540Y459550D02*
X495490Y459550D01*
X495300Y459740D01*
D17*
X495300Y459740D03*
D16*
X306340Y459550D02*
X291020Y459550D01*
X290830Y459740D01*
D17*
X290830Y459740D03*
D16*
X115840Y459550D02*
X101790Y459550D01*
X101600Y459740D01*
D17*
X101600Y459740D03*
D16*
X891350Y459550D02*
X903240Y459550D01*
X891350Y459550D02*
X890270Y458470D01*
D17*
X890270Y458470D03*
D16*
X903240Y307150D02*
X903240Y285786D01*
X901700Y284246D01*
D17*
X890496Y306070D03*
D16*
X891576Y307150D02*
X903240Y307150D01*
X891576Y307150D02*
X890496Y306070D01*
D17*
X699996Y307340D03*
D16*
X700186Y307150D02*
X712740Y307150D01*
X700186Y307150D02*
X699996Y307340D01*
D17*
X496796Y307340D03*
D16*
X496986Y307150D02*
X509540Y307150D01*
X496986Y307150D02*
X496796Y307340D01*
D17*
X292326Y307340D03*
D16*
X292516Y307150D02*
X306340Y307150D01*
X292516Y307150D02*
X292326Y307340D01*
D17*
X102842Y306609D03*
D16*
X103383Y307150D02*
X115840Y307150D01*
X103383Y307150D02*
X102842Y306609D01*
X1157240Y438186D02*
X1157240Y459550D01*
X1157240Y438186D02*
X1155700Y436646D01*
X1347740Y438186D02*
X1347740Y459550D01*
X1347740Y438186D02*
X1346200Y436646D01*
X1538240Y438186D02*
X1538240Y459550D01*
X1538240Y438186D02*
X1536700Y436646D01*
X1728740Y438186D02*
X1728740Y459550D01*
X1728740Y438186D02*
X1727200Y436646D01*
X1919240Y438186D02*
X1919240Y459550D01*
X1919240Y438186D02*
X1917700Y436646D01*
X1919240Y307150D02*
X1919240Y285786D01*
X1917700Y284246D01*
X1728740Y285786D02*
X1728740Y307150D01*
X1728740Y285786D02*
X1727200Y284246D01*
X1538240Y285786D02*
X1538240Y307150D01*
X1538240Y285786D02*
X1536700Y284246D01*
X1347740Y285786D02*
X1347740Y307150D01*
X1347740Y285786D02*
X1346200Y284246D01*
X1157240Y307150D02*
X1155700Y305610D01*
X1155700Y284246D01*
X1906460Y307150D02*
X1919240Y307150D01*
X1906460Y307150D02*
X1906270Y307340D01*
D17*
X1906270Y307340D03*
D16*
X1157240Y307150D02*
X1143190Y307150D01*
X1143000Y307340D01*
D17*
X1143000Y307340D03*
D16*
X1333690Y307150D02*
X1347740Y307150D01*
X1333690Y307150D02*
X1333500Y307340D01*
D17*
X1333500Y307340D03*
D16*
X1524190Y307150D02*
X1538240Y307150D01*
X1524190Y307150D02*
X1524000Y307340D01*
D17*
X1524000Y307340D03*
D16*
X1714690Y307150D02*
X1728740Y307150D01*
X1714690Y307150D02*
X1714500Y307340D01*
D17*
X1714500Y307340D03*
D16*
X1906460Y459550D02*
X1919240Y459550D01*
X1906460Y459550D02*
X1906270Y459740D01*
D17*
X1906270Y459740D03*
D16*
X1157240Y459550D02*
X1143190Y459550D01*
X1143000Y459740D01*
D17*
X1143000Y459740D03*
D16*
X1333690Y459550D02*
X1347740Y459550D01*
X1333690Y459550D02*
X1333500Y459740D01*
D17*
X1333500Y459740D03*
D16*
X1524190Y459550D02*
X1538240Y459550D01*
X1524190Y459550D02*
X1524000Y459740D01*
D17*
X1524000Y459740D03*
D16*
X1714690Y459550D02*
X1728740Y459550D01*
X1714690Y459550D02*
X1714500Y459740D01*
D17*
X1714500Y459740D03*
D16*
X1919174Y518116D02*
X1919240Y518050D01*
X1919174Y518116D02*
X1912578Y518116D01*
X1879600Y485138D01*
X1879600Y273050D01*
X1684020Y77470D01*
X1992360Y451850D02*
X1992360Y459550D01*
X1992360Y451850D02*
X1985010Y444500D01*
D17*
X1985010Y444500D03*
D16*
X1801860Y446040D02*
X1801860Y459550D01*
X1801860Y446040D02*
X1803400Y444500D01*
D17*
X1803400Y444500D03*
D16*
X1611360Y446040D02*
X1611360Y459550D01*
X1611360Y446040D02*
X1612900Y444500D01*
D17*
X1612900Y444500D03*
D16*
X1420860Y446040D02*
X1420860Y459550D01*
X1420860Y446040D02*
X1422400Y444500D01*
D17*
X1422400Y444500D03*
D16*
X1230360Y446040D02*
X1230360Y459550D01*
X1230360Y446040D02*
X1231900Y444500D01*
D17*
X1231900Y444500D03*
D16*
X1531510Y518050D02*
X1538240Y518050D01*
X1531510Y518050D02*
X1498600Y485140D01*
X1620520Y64770D02*
X1633220Y52070D01*
X1620520Y64770D02*
X1620520Y80779D01*
X1498600Y202699D02*
X1498600Y485140D01*
X1498600Y202699D02*
X1620520Y80779D01*
X1722010Y518050D02*
X1728740Y518050D01*
X1722010Y518050D02*
X1675130Y471170D01*
X1675130Y144780D01*
X1658620Y128270D01*
X1658620Y77470D01*
X1157240Y518050D02*
X1157174Y518116D01*
X1151848Y518116D01*
X1115060Y481328D01*
X1115060Y242570D01*
X1570054Y63500D02*
X1581484Y52070D01*
X1582420Y52070D01*
X1570054Y82985D02*
X1519689Y133350D01*
X1570054Y82985D02*
X1570054Y63500D01*
X1224280Y133350D02*
X1115060Y242570D01*
X1224280Y133350D02*
X1519689Y133350D01*
D17*
X1907540Y544830D03*
D16*
X1907429Y544719D01*
X1907429Y530903D01*
X1913782Y524550D02*
X1919240Y524550D01*
X1913782Y524550D02*
X1907429Y530903D01*
D17*
X1714500Y544972D03*
D16*
X1714500Y533332D01*
X1723282Y524550D02*
X1728740Y524550D01*
X1723282Y524550D02*
X1714500Y533332D01*
D17*
X1524000Y544972D03*
D16*
X1538240Y524550D02*
X1538174Y524484D01*
X1532848Y524484D01*
X1524000Y533332D01*
X1524000Y544972D01*
D17*
X1333500Y544972D03*
D16*
X1347740Y524550D02*
X1347674Y524484D01*
X1339808Y524484D01*
X1333500Y530792D01*
X1333500Y544972D01*
D17*
X1146810Y544972D03*
D16*
X1157240Y524550D02*
X1157174Y524484D01*
X1151848Y524484D01*
X1146810Y529522D01*
X1146810Y544972D01*
D17*
X1907540Y553918D03*
D16*
X1919240Y542480D02*
X1919240Y531050D01*
X1919240Y542480D02*
X1907802Y553918D01*
X1907540Y553918D01*
D17*
X1714500Y554060D03*
D16*
X1714500Y553554D01*
X1728740Y539314D02*
X1728740Y531050D01*
X1728740Y539314D02*
X1714500Y553554D01*
X1538240Y539940D02*
X1525532Y552648D01*
X1538240Y539940D02*
X1538240Y531050D01*
D17*
X1524000Y554060D03*
D16*
X1525412Y552648D01*
X1525532Y552648D01*
D17*
X1333500Y554060D03*
D16*
X1333500Y553554D01*
X1347740Y539314D02*
X1347740Y531050D01*
X1347740Y539314D02*
X1333500Y553554D01*
X1157240Y553648D02*
X1157240Y531050D01*
X1157240Y553648D02*
X1156970Y553918D01*
D17*
X1156970Y553918D03*
D16*
X1992360Y524550D02*
X2002830Y524550D01*
X2006600Y528320D01*
D17*
X2006600Y528320D03*
D16*
X1812330Y524550D02*
X1801860Y524550D01*
X1812330Y524550D02*
X1816100Y528320D01*
D17*
X1816100Y528320D03*
D16*
X1621830Y524550D02*
X1611360Y524550D01*
X1621830Y524550D02*
X1625600Y528320D01*
D17*
X1625600Y528320D03*
D16*
X1431330Y524550D02*
X1420860Y524550D01*
X1431330Y524550D02*
X1435100Y528320D01*
D17*
X1435100Y528320D03*
D16*
X1240830Y524550D02*
X1230360Y524550D01*
X1240830Y524550D02*
X1244600Y528320D01*
D17*
X1244600Y528320D03*
D16*
X1992360Y518050D02*
X2006490Y518050D01*
X2006600Y518160D01*
D17*
X2006600Y518160D03*
D16*
X1801970Y518160D02*
X1801860Y518050D01*
X1801970Y518160D02*
X1816100Y518160D01*
D17*
X1816100Y518160D03*
D16*
X1611470Y518160D02*
X1611360Y518050D01*
X1611470Y518160D02*
X1625600Y518160D01*
D17*
X1625600Y518160D03*
D16*
X1420970Y518160D02*
X1420860Y518050D01*
X1420970Y518160D02*
X1435100Y518160D01*
D17*
X1435100Y518160D03*
D16*
X1230470Y518160D02*
X1230360Y518050D01*
X1230470Y518160D02*
X1244600Y518160D01*
D17*
X1244600Y518160D03*
D16*
X1912512Y365650D02*
X1919240Y365650D01*
X1912512Y365650D02*
X1892300Y345438D01*
X1892300Y260350D01*
X1684020Y52070D01*
X1992360Y303260D02*
X1992360Y307150D01*
X1992360Y303260D02*
X1981200Y292100D01*
D17*
X1981200Y292100D03*
D16*
X1803400Y305610D02*
X1801860Y307150D01*
X1803400Y305610D02*
X1803400Y292100D01*
D17*
X1803400Y292100D03*
D16*
X1612900Y305610D02*
X1611360Y307150D01*
X1612900Y305610D02*
X1612900Y292100D01*
D17*
X1612900Y292100D03*
D16*
X1422400Y305610D02*
X1420860Y307150D01*
X1422400Y305610D02*
X1422400Y292100D01*
D17*
X1422400Y292100D03*
D16*
X1230360Y292370D02*
X1230360Y307150D01*
X1230360Y292370D02*
X1230630Y292100D01*
D17*
X1230630Y292100D03*
D16*
X1728674Y365716D02*
X1728740Y365650D01*
X1728674Y365716D02*
X1723348Y365716D01*
X1687830Y330198D01*
X1687830Y98559D01*
X1668446Y60700D02*
X1659816Y52070D01*
X1658620Y52070D01*
X1668446Y60700D02*
X1668446Y79175D01*
X1687830Y98559D01*
X1538240Y365650D02*
X1531510Y365650D01*
X1513840Y347980D01*
X1513840Y196850D01*
X1633220Y77470D01*
X1157240Y365650D02*
X1157174Y365716D01*
X1151848Y365716D01*
X1130300Y344168D01*
X1523492Y136398D02*
X1582420Y77470D01*
X1130300Y231641D02*
X1130300Y344168D01*
X1130300Y231641D02*
X1225543Y136398D01*
X1523492Y136398D01*
X1347740Y365650D02*
X1347674Y365716D01*
X1342348Y365716D01*
X1306830Y330198D01*
X1306830Y162560D01*
X1326896Y142494D01*
X1542796Y142494D01*
X1607820Y77470D01*
X1919240Y378650D02*
X1919240Y390080D01*
X1909270Y400050D01*
X1908810Y400050D01*
D17*
X1908810Y400050D03*
D16*
X1157240Y387080D02*
X1157240Y378650D01*
X1157240Y387080D02*
X1144270Y400050D01*
D17*
X1144270Y400050D03*
X1333500Y401320D03*
D16*
X1333500Y400814D01*
X1347740Y386574D01*
X1347740Y378650D01*
D17*
X1524000Y401320D03*
D16*
X1524000Y400814D01*
X1538240Y386574D02*
X1538240Y378650D01*
X1538240Y386574D02*
X1524000Y400814D01*
D17*
X1717040Y401320D03*
D16*
X1717040Y400814D01*
X1728740Y389114D01*
X1728740Y378650D01*
X1913782Y372150D02*
X1919240Y372150D01*
X1913782Y372150D02*
X1908810Y377122D01*
D17*
X1908810Y390962D03*
D16*
X1908810Y377122D01*
D17*
X1717040Y392232D03*
D16*
X1728740Y372150D02*
X1728674Y372084D01*
X1723348Y372084D01*
X1717040Y378392D01*
X1717040Y392232D01*
D17*
X1524000Y392232D03*
D16*
X1524000Y380932D01*
X1532782Y372150D02*
X1538240Y372150D01*
X1532782Y372150D02*
X1524000Y380932D01*
D17*
X1333500Y392232D03*
D16*
X1333500Y380932D01*
X1342282Y372150D02*
X1347740Y372150D01*
X1342282Y372150D02*
X1333500Y380932D01*
D17*
X1144270Y390962D03*
D16*
X1144270Y379662D01*
X1151782Y372150D02*
X1157240Y372150D01*
X1151782Y372150D02*
X1144270Y379662D01*
X1992360Y365650D02*
X2005220Y365650D01*
X2005330Y365760D01*
D17*
X2005330Y365760D03*
D16*
X1801970Y365760D02*
X1801860Y365650D01*
X1801970Y365760D02*
X1816100Y365760D01*
D17*
X1816100Y365760D03*
D16*
X1611470Y365760D02*
X1611360Y365650D01*
X1611470Y365760D02*
X1625600Y365760D01*
D17*
X1625600Y365760D03*
D16*
X1420970Y365760D02*
X1420860Y365650D01*
X1420970Y365760D02*
X1435100Y365760D01*
D17*
X1435100Y365760D03*
D16*
X1230470Y365760D02*
X1230360Y365650D01*
X1230470Y365760D02*
X1244600Y365760D01*
D17*
X1244600Y365760D03*
X2005330Y374848D03*
D16*
X2002632Y372150D02*
X1992360Y372150D01*
X2002632Y372150D02*
X2005330Y374848D01*
X1813402Y372150D02*
X1801860Y372150D01*
X1813402Y372150D02*
X1816100Y374848D01*
D17*
X1816100Y374848D03*
D16*
X1622902Y372150D02*
X1611360Y372150D01*
X1622902Y372150D02*
X1625600Y374848D01*
D17*
X1625600Y374848D03*
D16*
X1432402Y372150D02*
X1420860Y372150D01*
X1432402Y372150D02*
X1435100Y374848D01*
D17*
X1435100Y374848D03*
D16*
X1241902Y372150D02*
X1230360Y372150D01*
X1241902Y372150D02*
X1244600Y374848D01*
D17*
X1244600Y374848D03*
D16*
X1170680Y511550D02*
X1157240Y511550D01*
X1170680Y511550D02*
X1170940Y511810D01*
D17*
X1170940Y511810D03*
D16*
X1170680Y359150D02*
X1157240Y359150D01*
X1170680Y359150D02*
X1170940Y359410D01*
D17*
X1170940Y359410D03*
D16*
X1183385Y498550D02*
X1157240Y498550D01*
X1183385Y498550D02*
X1183792Y498958D01*
D17*
X1183792Y498958D03*
D16*
X1183385Y346150D02*
X1157240Y346150D01*
X1183385Y346150D02*
X1183792Y346558D01*
D17*
X1183792Y346558D03*
D16*
X1196090Y485550D02*
X1157240Y485550D01*
X1196090Y485550D02*
X1196645Y486105D01*
D17*
X1196645Y486105D03*
D16*
X1196090Y333150D02*
X1157240Y333150D01*
X1196090Y333150D02*
X1196645Y333705D01*
D17*
X1196645Y333705D03*
D16*
X1208794Y472550D02*
X1157240Y472550D01*
X1208794Y472550D02*
X1209497Y473253D01*
D17*
X1209497Y473253D03*
D16*
X1208794Y320150D02*
X1157240Y320150D01*
X1208794Y320150D02*
X1209497Y320853D01*
D17*
X1209497Y320853D03*
D16*
X1230360Y466050D02*
X1250910Y466050D01*
X1250950Y466090D01*
D17*
X1250950Y466090D03*
D16*
X1230360Y313650D02*
X1230602Y313408D01*
D17*
X1247379Y309837D03*
D16*
X1243809Y313408D02*
X1230602Y313408D01*
X1243809Y313408D02*
X1247379Y309837D01*
X1263695Y479050D02*
X1230360Y479050D01*
X1263695Y479050D02*
X1263802Y478942D01*
D17*
X1263802Y478942D03*
X1260726Y322196D03*
D16*
X1256272Y326650D02*
X1230360Y326650D01*
X1256272Y326650D02*
X1260726Y322196D01*
X1276400Y492050D02*
X1230360Y492050D01*
X1276400Y492050D02*
X1276655Y491795D01*
D17*
X1276655Y491795D03*
X1273578Y335048D03*
D16*
X1268977Y339650D02*
X1230360Y339650D01*
X1268977Y339650D02*
X1273578Y335048D01*
X1289104Y505050D02*
X1230360Y505050D01*
X1289104Y505050D02*
X1289507Y504647D01*
D17*
X1289507Y504647D03*
X1285522Y348810D03*
D16*
X1281682Y352650D02*
X1230360Y352650D01*
X1281682Y352650D02*
X1285522Y348810D01*
X1347740Y511550D02*
X1361180Y511550D01*
X1361440Y511810D01*
D17*
X1361440Y511810D03*
D16*
X1361180Y359150D02*
X1347740Y359150D01*
X1361180Y359150D02*
X1361440Y359410D01*
D17*
X1361440Y359410D03*
D16*
X1373885Y498550D02*
X1347740Y498550D01*
X1373885Y498550D02*
X1374292Y498958D01*
D17*
X1374292Y498958D03*
D16*
X1373885Y346150D02*
X1347740Y346150D01*
X1373885Y346150D02*
X1374292Y346558D01*
D17*
X1374292Y346558D03*
D16*
X1386590Y485550D02*
X1347740Y485550D01*
X1386590Y485550D02*
X1387145Y486105D01*
D17*
X1387145Y486105D03*
D16*
X1386590Y333150D02*
X1347740Y333150D01*
X1386590Y333150D02*
X1387145Y333705D01*
D17*
X1387145Y333705D03*
D16*
X1399294Y472550D02*
X1347740Y472550D01*
X1399294Y472550D02*
X1399997Y473253D01*
D17*
X1399997Y473253D03*
D16*
X1399294Y320150D02*
X1347740Y320150D01*
X1399294Y320150D02*
X1399997Y320853D01*
D17*
X1399997Y320853D03*
D16*
X1420860Y466050D02*
X1441410Y466050D01*
X1441450Y466090D01*
D17*
X1441450Y466090D03*
D16*
X1440220Y313650D02*
X1420860Y313650D01*
D17*
X1441450Y313408D03*
D16*
X1440462Y313408D02*
X1440220Y313650D01*
X1440462Y313408D02*
X1441450Y313408D01*
X1454195Y479050D02*
X1420860Y479050D01*
X1454195Y479050D02*
X1454302Y478942D01*
D17*
X1454302Y478942D03*
D16*
X1452925Y326650D02*
X1420860Y326650D01*
D17*
X1454797Y325767D03*
D16*
X1453808Y325767D02*
X1452925Y326650D01*
X1453808Y325767D02*
X1454797Y325767D01*
X1466900Y492050D02*
X1420860Y492050D01*
X1466900Y492050D02*
X1467155Y491795D01*
D17*
X1467155Y491795D03*
D16*
X1465630Y339650D02*
X1420860Y339650D01*
D17*
X1467649Y338619D03*
D16*
X1466661Y338619D02*
X1465630Y339650D01*
X1466661Y338619D02*
X1467649Y338619D01*
X1479604Y505050D02*
X1420860Y505050D01*
X1479604Y505050D02*
X1480007Y504647D01*
D17*
X1480007Y504647D03*
D16*
X1478334Y352650D02*
X1420860Y352650D01*
D17*
X1480502Y351472D03*
D16*
X1479513Y351472D02*
X1478334Y352650D01*
X1479513Y351472D02*
X1480502Y351472D01*
X1538240Y511550D02*
X1551680Y511550D01*
X1551940Y511810D01*
D17*
X1551940Y511810D03*
D16*
X1551680Y359150D02*
X1538240Y359150D01*
X1551680Y359150D02*
X1551940Y359410D01*
D17*
X1551940Y359410D03*
D16*
X1564385Y498550D02*
X1538240Y498550D01*
X1564385Y498550D02*
X1564792Y498958D01*
D17*
X1564792Y498958D03*
D16*
X1564385Y346150D02*
X1538240Y346150D01*
X1564385Y346150D02*
X1564792Y346558D01*
D17*
X1564792Y346558D03*
D16*
X1577090Y485550D02*
X1538240Y485550D01*
X1577090Y485550D02*
X1577645Y486105D01*
D17*
X1577645Y486105D03*
D16*
X1577090Y333150D02*
X1538240Y333150D01*
X1577090Y333150D02*
X1577645Y333705D01*
D17*
X1577645Y333705D03*
D16*
X1589794Y472550D02*
X1538240Y472550D01*
X1589794Y472550D02*
X1590497Y473253D01*
D17*
X1590497Y473253D03*
D16*
X1589794Y320150D02*
X1538240Y320150D01*
X1589794Y320150D02*
X1590497Y320853D01*
D17*
X1590497Y320853D03*
D16*
X1611360Y466050D02*
X1630720Y466050D01*
D17*
X1631950Y465808D03*
D16*
X1630962Y465808D02*
X1630720Y466050D01*
X1630962Y465808D02*
X1631950Y465808D01*
D17*
X1628379Y309837D03*
D16*
X1624567Y313650D02*
X1611360Y313650D01*
X1624567Y313650D02*
X1628379Y309837D01*
X1643425Y479050D02*
X1611360Y479050D01*
D17*
X1645297Y478167D03*
D16*
X1644308Y478167D02*
X1643425Y479050D01*
X1644308Y478167D02*
X1645297Y478167D01*
D17*
X1641726Y322196D03*
D16*
X1637272Y326650D02*
X1611360Y326650D01*
X1637272Y326650D02*
X1641726Y322196D01*
X1656130Y492050D02*
X1611360Y492050D01*
D17*
X1658149Y491019D03*
D16*
X1657161Y491019D02*
X1656130Y492050D01*
X1657161Y491019D02*
X1658149Y491019D01*
D17*
X1654578Y335048D03*
D16*
X1649977Y339650D02*
X1611360Y339650D01*
X1649977Y339650D02*
X1654578Y335048D01*
X1668834Y505050D02*
X1611360Y505050D01*
D17*
X1671002Y503872D03*
D16*
X1670013Y503872D02*
X1668834Y505050D01*
X1670013Y503872D02*
X1671002Y503872D01*
D17*
X1666522Y348810D03*
D16*
X1662682Y352650D02*
X1611360Y352650D01*
X1662682Y352650D02*
X1666522Y348810D01*
X1728740Y511550D02*
X1742180Y511550D01*
X1742440Y511810D01*
D17*
X1742440Y511810D03*
D16*
X1742180Y359150D02*
X1728740Y359150D01*
X1742180Y359150D02*
X1742440Y359410D01*
D17*
X1742440Y359410D03*
D16*
X1754885Y498550D02*
X1728740Y498550D01*
X1754885Y498550D02*
X1755292Y498958D01*
D17*
X1755292Y498958D03*
D16*
X1754885Y346150D02*
X1728740Y346150D01*
X1754885Y346150D02*
X1755292Y346558D01*
D17*
X1755292Y346558D03*
D16*
X1767590Y485550D02*
X1728740Y485550D01*
X1767590Y485550D02*
X1768145Y486105D01*
D17*
X1768145Y486105D03*
D16*
X1767590Y333150D02*
X1728740Y333150D01*
X1767590Y333150D02*
X1768145Y333705D01*
D17*
X1768145Y333705D03*
D16*
X1780294Y472550D02*
X1728740Y472550D01*
X1780294Y472550D02*
X1780997Y473253D01*
D17*
X1780997Y473253D03*
D16*
X1780294Y320150D02*
X1728740Y320150D01*
X1780294Y320150D02*
X1780997Y320853D01*
D17*
X1780997Y320853D03*
D16*
X1801860Y466050D02*
X1823680Y466050D01*
X1823720Y466090D01*
D17*
X1823720Y466090D03*
D16*
X1821220Y313650D02*
X1801860Y313650D01*
D17*
X1822450Y313408D03*
D16*
X1821462Y313408D02*
X1821220Y313650D01*
X1821462Y313408D02*
X1822450Y313408D01*
X1836465Y479050D02*
X1801860Y479050D01*
X1836465Y479050D02*
X1836572Y478942D01*
D17*
X1836572Y478942D03*
D16*
X1833925Y326650D02*
X1801860Y326650D01*
D17*
X1835894Y325805D03*
D16*
X1834770Y325805D02*
X1833925Y326650D01*
X1834770Y325805D02*
X1835894Y325805D01*
X1849170Y492050D02*
X1801860Y492050D01*
X1849170Y492050D02*
X1849425Y491795D01*
D17*
X1849425Y491795D03*
D16*
X1846630Y339650D02*
X1801860Y339650D01*
D17*
X1848747Y338657D03*
D16*
X1847622Y338657D02*
X1846630Y339650D01*
X1847622Y338657D02*
X1848747Y338657D01*
X1861874Y505050D02*
X1801860Y505050D01*
X1861874Y505050D02*
X1862277Y504647D01*
D17*
X1862277Y504647D03*
D16*
X1859334Y352650D02*
X1801860Y352650D01*
D17*
X1861599Y351510D03*
D16*
X1860475Y351510D02*
X1859334Y352650D01*
X1860475Y351510D02*
X1861599Y351510D01*
X1919240Y511550D02*
X1932680Y511550D01*
X1932940Y511810D01*
D17*
X1932940Y511810D03*
D16*
X1932680Y359150D02*
X1919240Y359150D01*
X1932680Y359150D02*
X1932940Y359410D01*
D17*
X1932940Y359410D03*
D16*
X1945385Y498550D02*
X1919240Y498550D01*
X1945385Y498550D02*
X1945792Y498958D01*
D17*
X1945792Y498958D03*
D16*
X1945385Y346150D02*
X1919240Y346150D01*
X1945385Y346150D02*
X1945792Y346558D01*
D17*
X1945792Y346558D03*
D16*
X1958090Y485550D02*
X1919240Y485550D01*
X1958090Y485550D02*
X1958645Y486105D01*
D17*
X1958645Y486105D03*
D16*
X1958090Y333150D02*
X1919240Y333150D01*
X1958090Y333150D02*
X1958645Y333705D01*
D17*
X1958645Y333705D03*
D16*
X1970794Y472550D02*
X1919240Y472550D01*
X1970794Y472550D02*
X1971497Y473253D01*
D17*
X1971497Y473253D03*
D16*
X1970794Y320150D02*
X1919240Y320150D01*
X1970794Y320150D02*
X1971497Y320853D01*
D17*
X1971497Y320853D03*
D16*
X1177032Y505050D02*
X1157240Y505050D01*
X1177032Y505050D02*
X1177366Y505384D01*
D17*
X1177366Y505384D03*
D16*
X1177032Y352650D02*
X1157240Y352650D01*
X1177032Y352650D02*
X1177366Y352984D01*
D17*
X1177366Y352984D03*
D16*
X1189737Y492050D02*
X1157240Y492050D01*
X1189737Y492050D02*
X1190219Y492531D01*
D17*
X1190219Y492531D03*
D16*
X1189737Y339650D02*
X1157240Y339650D01*
X1189737Y339650D02*
X1190219Y340131D01*
D17*
X1190219Y340131D03*
D16*
X1202442Y479050D02*
X1157240Y479050D01*
X1202442Y479050D02*
X1203071Y479679D01*
D17*
X1203071Y479679D03*
D16*
X1202442Y326650D02*
X1157240Y326650D01*
X1202442Y326650D02*
X1203071Y327279D01*
D17*
X1203071Y327279D03*
D16*
X1215147Y466050D02*
X1157240Y466050D01*
X1215147Y466050D02*
X1215923Y466827D01*
D17*
X1215923Y466827D03*
D16*
X1215147Y313650D02*
X1157240Y313650D01*
X1215147Y313650D02*
X1215923Y314427D01*
D17*
X1215923Y314427D03*
D16*
X1230360Y472550D02*
X1257342Y472550D01*
X1257376Y472516D01*
D17*
X1257376Y472516D03*
X1254300Y315770D03*
D16*
X1249919Y320150D02*
X1230360Y320150D01*
X1249919Y320150D02*
X1254300Y315770D01*
X1270047Y485550D02*
X1230360Y485550D01*
X1270047Y485550D02*
X1270229Y485369D01*
D17*
X1270229Y485369D03*
X1267152Y328622D03*
D16*
X1262624Y333150D02*
X1230360Y333150D01*
X1262624Y333150D02*
X1267152Y328622D01*
X1282752Y498550D02*
X1230360Y498550D01*
X1282752Y498550D02*
X1283081Y498221D01*
D17*
X1283081Y498221D03*
X1280005Y341475D03*
D16*
X1275329Y346150D02*
X1230360Y346150D01*
X1275329Y346150D02*
X1280005Y341475D01*
X1295457Y511550D02*
X1230360Y511550D01*
X1295457Y511550D02*
X1295933Y511073D01*
D17*
X1295933Y511073D03*
X1285522Y357898D03*
D16*
X1284270Y359150D02*
X1230360Y359150D01*
X1284270Y359150D02*
X1285522Y357898D01*
X1347740Y505050D02*
X1367532Y505050D01*
X1367866Y505384D01*
D17*
X1367866Y505384D03*
D16*
X1367532Y352650D02*
X1347740Y352650D01*
X1367532Y352650D02*
X1367866Y352984D01*
D17*
X1367866Y352984D03*
D16*
X1380237Y492050D02*
X1347740Y492050D01*
X1380237Y492050D02*
X1380719Y492531D01*
D17*
X1380719Y492531D03*
D16*
X1380237Y339650D02*
X1347740Y339650D01*
X1380237Y339650D02*
X1380719Y340131D01*
D17*
X1380719Y340131D03*
D16*
X1392942Y479050D02*
X1347740Y479050D01*
X1392942Y479050D02*
X1393571Y479679D01*
D17*
X1393571Y479679D03*
D16*
X1392942Y326650D02*
X1347740Y326650D01*
X1392942Y326650D02*
X1393571Y327279D01*
D17*
X1393571Y327279D03*
D16*
X1405647Y466050D02*
X1347740Y466050D01*
X1405647Y466050D02*
X1406423Y466827D01*
D17*
X1406423Y466827D03*
D16*
X1405647Y313650D02*
X1347740Y313650D01*
X1405647Y313650D02*
X1406423Y314427D01*
D17*
X1406423Y314427D03*
D16*
X1420860Y472550D02*
X1447842Y472550D01*
X1447876Y472516D01*
D17*
X1447876Y472516D03*
D16*
X1446572Y320150D02*
X1420860Y320150D01*
D17*
X1448370Y319340D03*
D16*
X1447382Y319340D02*
X1446572Y320150D01*
X1447382Y319340D02*
X1448370Y319340D01*
X1460547Y485550D02*
X1420860Y485550D01*
X1460547Y485550D02*
X1460729Y485369D01*
D17*
X1460729Y485369D03*
D16*
X1459277Y333150D02*
X1420860Y333150D01*
D17*
X1461223Y332193D03*
D16*
X1460234Y332193D02*
X1459277Y333150D01*
X1460234Y332193D02*
X1461223Y332193D01*
X1473252Y498550D02*
X1420860Y498550D01*
X1473252Y498550D02*
X1473581Y498221D01*
D17*
X1473581Y498221D03*
D16*
X1471982Y346150D02*
X1420860Y346150D01*
D17*
X1474075Y345045D03*
D16*
X1473087Y345045D02*
X1471982Y346150D01*
X1473087Y345045D02*
X1474075Y345045D01*
X1485957Y511550D02*
X1420860Y511550D01*
X1485957Y511550D02*
X1486433Y511073D01*
D17*
X1486433Y511073D03*
D16*
X1484687Y359150D02*
X1420860Y359150D01*
D17*
X1486928Y357898D03*
D16*
X1485939Y357898D02*
X1484687Y359150D01*
X1485939Y357898D02*
X1486928Y357898D01*
X1538240Y505050D02*
X1558032Y505050D01*
X1558366Y505384D01*
D17*
X1558366Y505384D03*
D16*
X1558032Y352650D02*
X1538240Y352650D01*
X1558032Y352650D02*
X1558366Y352984D01*
D17*
X1558366Y352984D03*
D16*
X1570737Y492050D02*
X1538240Y492050D01*
X1570737Y492050D02*
X1571219Y492531D01*
D17*
X1571219Y492531D03*
D16*
X1570737Y339650D02*
X1538240Y339650D01*
X1570737Y339650D02*
X1571219Y340131D01*
D17*
X1571219Y340131D03*
D16*
X1583442Y479050D02*
X1538240Y479050D01*
X1583442Y479050D02*
X1584071Y479679D01*
D17*
X1584071Y479679D03*
D16*
X1583442Y326650D02*
X1538240Y326650D01*
X1583442Y326650D02*
X1584071Y327279D01*
D17*
X1584071Y327279D03*
D16*
X1596147Y466050D02*
X1538240Y466050D01*
X1596147Y466050D02*
X1596923Y466827D01*
D17*
X1596923Y466827D03*
D16*
X1596147Y313650D02*
X1538240Y313650D01*
X1596147Y313650D02*
X1596923Y314427D01*
D17*
X1596923Y314427D03*
D16*
X1611360Y472550D02*
X1637072Y472550D01*
D17*
X1638870Y471740D03*
D16*
X1637882Y471740D02*
X1637072Y472550D01*
X1637882Y471740D02*
X1638870Y471740D01*
D17*
X1635300Y315770D03*
D16*
X1630919Y320150D02*
X1611360Y320150D01*
X1630919Y320150D02*
X1635300Y315770D01*
X1649777Y485550D02*
X1611360Y485550D01*
D17*
X1651723Y484593D03*
D16*
X1650734Y484593D02*
X1649777Y485550D01*
X1650734Y484593D02*
X1651723Y484593D01*
D17*
X1648152Y328622D03*
D16*
X1643624Y333150D02*
X1611360Y333150D01*
X1643624Y333150D02*
X1648152Y328622D01*
X1662482Y498550D02*
X1611360Y498550D01*
D17*
X1664575Y497445D03*
D16*
X1663587Y497445D02*
X1662482Y498550D01*
X1663587Y497445D02*
X1664575Y497445D01*
D17*
X1661005Y341475D03*
D16*
X1656329Y346150D02*
X1611360Y346150D01*
X1656329Y346150D02*
X1661005Y341475D01*
X1675187Y511550D02*
X1611360Y511550D01*
D17*
X1677428Y510298D03*
D16*
X1676439Y510298D02*
X1675187Y511550D01*
X1676439Y510298D02*
X1677428Y510298D01*
D17*
X1666522Y357898D03*
D16*
X1665270Y359150D02*
X1611360Y359150D01*
X1665270Y359150D02*
X1666522Y357898D01*
X1728740Y505050D02*
X1748532Y505050D01*
X1748866Y505384D01*
D17*
X1748866Y505384D03*
D16*
X1748532Y352650D02*
X1728740Y352650D01*
X1748532Y352650D02*
X1748866Y352984D01*
D17*
X1748866Y352984D03*
D16*
X1761237Y492050D02*
X1728740Y492050D01*
X1761237Y492050D02*
X1761719Y492531D01*
D17*
X1761719Y492531D03*
D16*
X1761237Y339650D02*
X1728740Y339650D01*
X1761237Y339650D02*
X1761719Y340131D01*
D17*
X1761719Y340131D03*
D16*
X1773942Y479050D02*
X1728740Y479050D01*
X1773942Y479050D02*
X1774571Y479679D01*
D17*
X1774571Y479679D03*
D16*
X1773942Y326650D02*
X1728740Y326650D01*
X1773942Y326650D02*
X1774571Y327279D01*
D17*
X1774571Y327279D03*
D16*
X1786647Y466050D02*
X1728740Y466050D01*
X1786647Y466050D02*
X1787423Y466827D01*
D17*
X1787423Y466827D03*
D16*
X1786647Y313650D02*
X1728740Y313650D01*
X1786647Y313650D02*
X1787423Y314427D01*
D17*
X1787423Y314427D03*
D16*
X1801860Y472550D02*
X1830112Y472550D01*
X1830146Y472516D01*
D17*
X1830146Y472516D03*
D16*
X1827572Y320150D02*
X1801860Y320150D01*
X1827572Y320150D02*
X1828382Y319340D01*
D17*
X1829506Y319340D03*
D16*
X1828382Y319340D01*
X1842817Y485550D02*
X1801860Y485550D01*
X1842817Y485550D02*
X1842999Y485369D01*
D17*
X1842999Y485369D03*
D16*
X1840277Y333150D02*
X1801860Y333150D01*
D17*
X1842320Y332231D03*
D16*
X1841196Y332231D02*
X1840277Y333150D01*
X1841196Y332231D02*
X1842320Y332231D01*
X1855522Y498550D02*
X1801860Y498550D01*
X1855522Y498550D02*
X1855851Y498221D01*
D17*
X1855851Y498221D03*
D16*
X1852982Y346150D02*
X1801860Y346150D01*
D17*
X1855173Y345083D03*
D16*
X1854049Y345083D02*
X1852982Y346150D01*
X1854049Y345083D02*
X1855173Y345083D01*
X1868227Y511550D02*
X1801860Y511550D01*
X1868227Y511550D02*
X1868703Y511073D01*
D17*
X1868703Y511073D03*
D16*
X1865687Y359150D02*
X1801860Y359150D01*
D17*
X1868025Y357936D03*
D16*
X1866901Y357936D02*
X1865687Y359150D01*
X1866901Y357936D02*
X1868025Y357936D01*
X1919240Y505050D02*
X1939032Y505050D01*
X1939366Y505384D01*
D17*
X1939366Y505384D03*
D16*
X1939032Y352650D02*
X1919240Y352650D01*
X1939032Y352650D02*
X1939366Y352984D01*
D17*
X1939366Y352984D03*
D16*
X1951737Y492050D02*
X1919240Y492050D01*
X1951737Y492050D02*
X1952219Y492531D01*
D17*
X1952219Y492531D03*
D16*
X1951737Y339650D02*
X1919240Y339650D01*
X1951737Y339650D02*
X1952219Y340131D01*
D17*
X1952219Y340131D03*
D16*
X1964442Y479050D02*
X1919240Y479050D01*
X1964442Y479050D02*
X1965071Y479679D01*
D17*
X1965071Y479679D03*
D16*
X1964442Y326650D02*
X1919240Y326650D01*
X1964442Y326650D02*
X1965071Y327279D01*
D17*
X1965071Y327279D03*
D16*
X1977147Y466050D02*
X1919240Y466050D01*
X1977147Y466050D02*
X1977923Y466827D01*
D17*
X1977923Y466827D03*
D16*
X1977147Y313650D02*
X1919240Y313650D01*
X1977147Y313650D02*
X1977923Y314427D01*
D17*
X1977923Y314427D03*
D16*
X1294130Y162560D02*
X1294130Y469898D01*
X1594786Y65104D02*
X1607820Y52070D01*
X1317244Y139446D02*
X1294130Y162560D01*
X1317244Y139446D02*
X1538993Y139446D01*
X1594786Y83653D01*
X1594786Y65104D01*
X1347740Y518050D02*
X1347674Y518116D01*
X1342348Y518116D01*
X1294130Y469898D01*
M02*
