G04 EAGLE Gerber RS-274X export*
G75*
%MOMM*%
%FSLAX34Y34*%
%LPD*%
%INSilkscreen Top*%
%IPPOS*%
%AMOC8*
5,1,8,0,0,1.08239X$1,22.5*%
G01*
G04 Define Apertures*
%ADD10C,0.152400*%
%ADD11C,0.127000*%
%ADD12C,0.200000*%
G36*
X422608Y25400D02*
X418917Y25400D01*
X418917Y35268D01*
X422180Y35268D01*
X422789Y35249D01*
X423363Y35190D01*
X423900Y35092D01*
X424401Y34954D01*
X424867Y34777D01*
X425297Y34561D01*
X425692Y34306D01*
X426050Y34011D01*
X426369Y33680D01*
X426646Y33316D01*
X426880Y32919D01*
X427072Y32489D01*
X427221Y32025D01*
X427327Y31529D01*
X427391Y30999D01*
X427412Y30436D01*
X427403Y30060D01*
X427375Y29696D01*
X427329Y29344D01*
X427263Y29004D01*
X427180Y28676D01*
X427077Y28360D01*
X426956Y28056D01*
X426817Y27764D01*
X426660Y27486D01*
X426488Y27225D01*
X426300Y26980D01*
X426097Y26753D01*
X425879Y26542D01*
X425644Y26347D01*
X425394Y26170D01*
X425129Y26009D01*
X424851Y25867D01*
X424562Y25743D01*
X424262Y25638D01*
X423952Y25552D01*
X423632Y25486D01*
X423301Y25438D01*
X422960Y25410D01*
X422608Y25400D01*
G37*
%LPC*%
G36*
X422454Y26472D02*
X422721Y26479D01*
X422980Y26501D01*
X423231Y26539D01*
X423473Y26591D01*
X423708Y26658D01*
X423934Y26739D01*
X424152Y26836D01*
X424362Y26948D01*
X424562Y27073D01*
X424750Y27212D01*
X424926Y27364D01*
X425090Y27529D01*
X425242Y27707D01*
X425382Y27899D01*
X425510Y28103D01*
X425626Y28321D01*
X425730Y28550D01*
X425819Y28789D01*
X425895Y29038D01*
X425957Y29298D01*
X426005Y29567D01*
X426040Y29847D01*
X426061Y30136D01*
X426067Y30436D01*
X426052Y30881D01*
X426005Y31299D01*
X425926Y31689D01*
X425816Y32053D01*
X425675Y32389D01*
X425502Y32698D01*
X425298Y32979D01*
X425062Y33234D01*
X424797Y33459D01*
X424504Y33655D01*
X424182Y33821D01*
X423832Y33956D01*
X423455Y34061D01*
X423049Y34137D01*
X422615Y34182D01*
X422152Y34197D01*
X420254Y34197D01*
X420254Y26472D01*
X422454Y26472D01*
G37*
%LPD*%
G36*
X409764Y25400D02*
X408573Y25400D01*
X408573Y35268D01*
X410128Y35268D01*
X415465Y26808D01*
X415402Y27991D01*
X415381Y28797D01*
X415381Y35268D01*
X416585Y35268D01*
X416585Y25400D01*
X414974Y25400D01*
X409693Y33805D01*
X409729Y33125D01*
X409764Y31956D01*
X409764Y25400D01*
G37*
G36*
X401934Y25260D02*
X401554Y25270D01*
X401187Y25298D01*
X400833Y25347D01*
X400493Y25414D01*
X400166Y25501D01*
X399853Y25607D01*
X399552Y25732D01*
X399266Y25876D01*
X398994Y26039D01*
X398738Y26218D01*
X398500Y26415D01*
X398277Y26628D01*
X398071Y26859D01*
X397882Y27106D01*
X397709Y27370D01*
X397553Y27652D01*
X397415Y27948D01*
X397294Y28257D01*
X397193Y28579D01*
X397109Y28913D01*
X397045Y29261D01*
X396998Y29621D01*
X396971Y29994D01*
X396961Y30380D01*
X396982Y30963D01*
X397042Y31513D01*
X397143Y32029D01*
X397284Y32511D01*
X397465Y32959D01*
X397686Y33372D01*
X397948Y33753D01*
X398250Y34099D01*
X398589Y34407D01*
X398960Y34675D01*
X399363Y34901D01*
X399800Y35086D01*
X400269Y35230D01*
X400770Y35333D01*
X401304Y35395D01*
X401871Y35415D01*
X402271Y35407D01*
X402652Y35381D01*
X403014Y35338D01*
X403356Y35277D01*
X403679Y35199D01*
X403983Y35104D01*
X404267Y34992D01*
X404532Y34862D01*
X404781Y34713D01*
X405014Y34544D01*
X405233Y34354D01*
X405438Y34142D01*
X405627Y33911D01*
X405802Y33658D01*
X405963Y33384D01*
X406108Y33090D01*
X404834Y32712D01*
X404604Y33104D01*
X404474Y33278D01*
X404334Y33439D01*
X404184Y33585D01*
X404024Y33717D01*
X403854Y33834D01*
X403675Y33938D01*
X403484Y34028D01*
X403283Y34106D01*
X403070Y34172D01*
X402845Y34227D01*
X402610Y34269D01*
X402363Y34299D01*
X402105Y34317D01*
X401836Y34323D01*
X401421Y34307D01*
X401032Y34258D01*
X400668Y34178D01*
X400328Y34065D01*
X400014Y33919D01*
X399726Y33742D01*
X399462Y33532D01*
X399224Y33290D01*
X399012Y33018D01*
X398828Y32720D01*
X398673Y32396D01*
X398546Y32046D01*
X398447Y31669D01*
X398377Y31265D01*
X398334Y30836D01*
X398320Y30380D01*
X398335Y29924D01*
X398380Y29494D01*
X398455Y29088D01*
X398560Y28707D01*
X398695Y28350D01*
X398860Y28018D01*
X399055Y27710D01*
X399280Y27428D01*
X399531Y27174D01*
X399805Y26954D01*
X400103Y26768D01*
X400423Y26616D01*
X400766Y26498D01*
X401133Y26413D01*
X401522Y26362D01*
X401934Y26346D01*
X402409Y26364D01*
X402868Y26419D01*
X403311Y26511D01*
X403738Y26640D01*
X404136Y26800D01*
X404495Y26986D01*
X404814Y27199D01*
X405093Y27438D01*
X405093Y29217D01*
X402144Y29217D01*
X402144Y30338D01*
X406325Y30338D01*
X406325Y26934D01*
X405911Y26557D01*
X405453Y26226D01*
X404950Y25939D01*
X404403Y25698D01*
X404115Y25595D01*
X403822Y25506D01*
X403522Y25431D01*
X403217Y25369D01*
X402905Y25322D01*
X402587Y25287D01*
X402264Y25267D01*
X401934Y25260D01*
G37*
G36*
X565012Y25260D02*
X564646Y25270D01*
X564292Y25299D01*
X563950Y25347D01*
X563621Y25415D01*
X563305Y25502D01*
X563001Y25609D01*
X562710Y25734D01*
X562432Y25880D01*
X562167Y26043D01*
X561919Y26223D01*
X561688Y26419D01*
X561472Y26633D01*
X561273Y26862D01*
X561089Y27109D01*
X560923Y27372D01*
X560772Y27652D01*
X560638Y27946D01*
X560522Y28254D01*
X560424Y28575D01*
X560344Y28910D01*
X560281Y29257D01*
X560237Y29618D01*
X560210Y29992D01*
X560201Y30380D01*
X560221Y30954D01*
X560281Y31496D01*
X560380Y32006D01*
X560520Y32484D01*
X560699Y32931D01*
X560918Y33345D01*
X561177Y33727D01*
X561476Y34078D01*
X561810Y34391D01*
X562174Y34663D01*
X562569Y34893D01*
X562995Y35081D01*
X563452Y35227D01*
X563939Y35332D01*
X564457Y35395D01*
X565005Y35415D01*
X565391Y35406D01*
X565761Y35377D01*
X566114Y35329D01*
X566452Y35261D01*
X566773Y35175D01*
X567078Y35069D01*
X567366Y34944D01*
X567639Y34799D01*
X567895Y34636D01*
X568133Y34454D01*
X568353Y34253D01*
X568556Y34034D01*
X568742Y33796D01*
X568910Y33540D01*
X569061Y33265D01*
X569194Y32971D01*
X567926Y32551D01*
X567834Y32760D01*
X567728Y32956D01*
X567610Y33140D01*
X567479Y33311D01*
X567334Y33469D01*
X567177Y33615D01*
X567006Y33747D01*
X566823Y33868D01*
X566629Y33974D01*
X566425Y34067D01*
X566213Y34145D01*
X565992Y34209D01*
X565762Y34259D01*
X565524Y34294D01*
X565276Y34316D01*
X565019Y34323D01*
X564621Y34306D01*
X564246Y34257D01*
X563893Y34175D01*
X563563Y34059D01*
X563255Y33911D01*
X562971Y33730D01*
X562709Y33516D01*
X562470Y33269D01*
X562257Y32993D01*
X562072Y32693D01*
X561915Y32368D01*
X561787Y32019D01*
X561688Y31646D01*
X561617Y31248D01*
X561574Y30826D01*
X561560Y30380D01*
X561574Y29937D01*
X561619Y29517D01*
X561693Y29119D01*
X561797Y28743D01*
X561930Y28390D01*
X562093Y28059D01*
X562286Y27749D01*
X562509Y27463D01*
X562756Y27204D01*
X563025Y26980D01*
X563314Y26790D01*
X563625Y26635D01*
X563956Y26515D01*
X564308Y26428D01*
X564682Y26377D01*
X565076Y26360D01*
X565331Y26368D01*
X565578Y26392D01*
X565817Y26432D01*
X566048Y26488D01*
X566271Y26560D01*
X566486Y26648D01*
X566692Y26752D01*
X566891Y26873D01*
X567082Y27009D01*
X567265Y27161D01*
X567439Y27329D01*
X567606Y27514D01*
X567915Y27931D01*
X568192Y28412D01*
X569285Y27865D01*
X569125Y27556D01*
X568949Y27266D01*
X568758Y26995D01*
X568552Y26743D01*
X568330Y26510D01*
X568093Y26296D01*
X567840Y26101D01*
X567572Y25925D01*
X567291Y25769D01*
X566999Y25634D01*
X566695Y25520D01*
X566381Y25426D01*
X566055Y25354D01*
X565719Y25302D01*
X565371Y25270D01*
X565012Y25260D01*
G37*
G36*
X575356Y25260D02*
X574990Y25270D01*
X574636Y25299D01*
X574294Y25347D01*
X573965Y25415D01*
X573649Y25502D01*
X573345Y25609D01*
X573054Y25734D01*
X572775Y25880D01*
X572511Y26043D01*
X572263Y26223D01*
X572031Y26419D01*
X571816Y26633D01*
X571616Y26862D01*
X571433Y27109D01*
X571266Y27372D01*
X571115Y27652D01*
X570982Y27946D01*
X570866Y28254D01*
X570768Y28575D01*
X570687Y28910D01*
X570625Y29257D01*
X570580Y29618D01*
X570554Y29992D01*
X570545Y30380D01*
X570565Y30954D01*
X570624Y31496D01*
X570724Y32006D01*
X570863Y32484D01*
X571043Y32931D01*
X571262Y33345D01*
X571521Y33727D01*
X571819Y34078D01*
X572153Y34391D01*
X572518Y34663D01*
X572913Y34893D01*
X573339Y35081D01*
X573796Y35227D01*
X574283Y35332D01*
X574801Y35395D01*
X575349Y35415D01*
X575735Y35406D01*
X576105Y35377D01*
X576458Y35329D01*
X576796Y35261D01*
X577117Y35175D01*
X577421Y35069D01*
X577710Y34944D01*
X577983Y34799D01*
X578238Y34636D01*
X578476Y34454D01*
X578697Y34253D01*
X578900Y34034D01*
X579086Y33796D01*
X579254Y33540D01*
X579404Y33265D01*
X579538Y32971D01*
X578270Y32551D01*
X578178Y32760D01*
X578072Y32956D01*
X577954Y33140D01*
X577822Y33311D01*
X577678Y33469D01*
X577521Y33615D01*
X577350Y33747D01*
X577167Y33868D01*
X576972Y33974D01*
X576769Y34067D01*
X576557Y34145D01*
X576336Y34209D01*
X576106Y34259D01*
X575867Y34294D01*
X575620Y34316D01*
X575363Y34323D01*
X574965Y34306D01*
X574589Y34257D01*
X574237Y34175D01*
X573906Y34059D01*
X573599Y33911D01*
X573315Y33730D01*
X573053Y33516D01*
X572814Y33269D01*
X572600Y32993D01*
X572416Y32693D01*
X572259Y32368D01*
X572131Y32019D01*
X572031Y31646D01*
X571960Y31248D01*
X571918Y30826D01*
X571903Y30380D01*
X571918Y29937D01*
X571963Y29517D01*
X572037Y29119D01*
X572141Y28743D01*
X572274Y28390D01*
X572437Y28059D01*
X572630Y27749D01*
X572852Y27463D01*
X573100Y27204D01*
X573369Y26980D01*
X573658Y26790D01*
X573969Y26635D01*
X574300Y26515D01*
X574652Y26428D01*
X575025Y26377D01*
X575419Y26360D01*
X575674Y26368D01*
X575921Y26392D01*
X576161Y26432D01*
X576391Y26488D01*
X576614Y26560D01*
X576829Y26648D01*
X577036Y26752D01*
X577235Y26873D01*
X577426Y27009D01*
X577609Y27161D01*
X577783Y27329D01*
X577950Y27514D01*
X578259Y27931D01*
X578536Y28412D01*
X579629Y27865D01*
X579469Y27556D01*
X579293Y27266D01*
X579102Y26995D01*
X578896Y26743D01*
X578674Y26510D01*
X578437Y26296D01*
X578184Y26101D01*
X577916Y25925D01*
X577635Y25769D01*
X577342Y25634D01*
X577039Y25520D01*
X576725Y25426D01*
X576399Y25354D01*
X576063Y25302D01*
X575715Y25270D01*
X575356Y25260D01*
G37*
G36*
X555387Y25400D02*
X554000Y25400D01*
X549973Y35268D01*
X551381Y35268D01*
X554112Y28321D01*
X554701Y26577D01*
X555289Y28321D01*
X558006Y35268D01*
X559414Y35268D01*
X555387Y25400D01*
G37*
G36*
X686743Y25400D02*
X683052Y25400D01*
X683052Y35268D01*
X686315Y35268D01*
X686924Y35249D01*
X687498Y35190D01*
X688035Y35092D01*
X688536Y34954D01*
X689002Y34777D01*
X689432Y34561D01*
X689827Y34306D01*
X690185Y34011D01*
X690504Y33680D01*
X690781Y33316D01*
X691015Y32919D01*
X691207Y32489D01*
X691356Y32025D01*
X691462Y31529D01*
X691526Y30999D01*
X691547Y30436D01*
X691538Y30060D01*
X691510Y29696D01*
X691464Y29344D01*
X691398Y29004D01*
X691315Y28676D01*
X691212Y28360D01*
X691091Y28056D01*
X690952Y27764D01*
X690795Y27486D01*
X690623Y27225D01*
X690435Y26980D01*
X690232Y26753D01*
X690014Y26542D01*
X689779Y26347D01*
X689529Y26170D01*
X689264Y26009D01*
X688986Y25867D01*
X688697Y25743D01*
X688397Y25638D01*
X688087Y25552D01*
X687767Y25486D01*
X687436Y25438D01*
X687095Y25410D01*
X686743Y25400D01*
G37*
%LPC*%
G36*
X686589Y26472D02*
X686856Y26479D01*
X687115Y26501D01*
X687366Y26539D01*
X687608Y26591D01*
X687843Y26658D01*
X688069Y26739D01*
X688287Y26836D01*
X688497Y26948D01*
X688697Y27073D01*
X688885Y27212D01*
X689061Y27364D01*
X689225Y27529D01*
X689377Y27707D01*
X689517Y27899D01*
X689645Y28103D01*
X689761Y28321D01*
X689865Y28550D01*
X689954Y28789D01*
X690030Y29038D01*
X690092Y29298D01*
X690140Y29567D01*
X690175Y29847D01*
X690196Y30136D01*
X690202Y30436D01*
X690187Y30881D01*
X690140Y31299D01*
X690061Y31689D01*
X689951Y32053D01*
X689810Y32389D01*
X689637Y32698D01*
X689433Y32979D01*
X689197Y33234D01*
X688932Y33459D01*
X688639Y33655D01*
X688317Y33821D01*
X687967Y33956D01*
X687590Y34061D01*
X687184Y34137D01*
X686750Y34182D01*
X686287Y34197D01*
X684389Y34197D01*
X684389Y26472D01*
X686589Y26472D01*
G37*
%LPD*%
G36*
X712149Y25400D02*
X710958Y25400D01*
X710958Y35268D01*
X712513Y35268D01*
X717850Y26808D01*
X717787Y27991D01*
X717766Y28797D01*
X717766Y35268D01*
X718970Y35268D01*
X718970Y25400D01*
X717359Y25400D01*
X712078Y33805D01*
X712114Y33125D01*
X712149Y31956D01*
X712149Y25400D01*
G37*
G36*
X698420Y25400D02*
X697230Y25400D01*
X697230Y27634D01*
X692579Y27634D01*
X692579Y28615D01*
X697097Y35268D01*
X698420Y35268D01*
X698420Y28629D01*
X699807Y28629D01*
X699807Y27634D01*
X698420Y27634D01*
X698420Y25400D01*
G37*
%LPC*%
G36*
X697230Y28629D02*
X697230Y33847D01*
X697034Y33475D01*
X696760Y33013D01*
X694232Y29287D01*
X693854Y28769D01*
X693742Y28629D01*
X697230Y28629D01*
G37*
%LPD*%
G36*
X709170Y25400D02*
X701395Y25400D01*
X701395Y35268D01*
X708882Y35268D01*
X708882Y34176D01*
X702733Y34176D01*
X702733Y31010D01*
X708462Y31010D01*
X708462Y29931D01*
X702733Y29931D01*
X702733Y26493D01*
X709170Y26493D01*
X709170Y25400D01*
G37*
G36*
X681183Y25400D02*
X674999Y25400D01*
X674999Y26472D01*
X677513Y26472D01*
X677513Y34064D01*
X675286Y32474D01*
X675286Y33664D01*
X677618Y35268D01*
X678781Y35268D01*
X678781Y26472D01*
X681183Y26472D01*
X681183Y25400D01*
G37*
G36*
X669951Y25260D02*
X669645Y25270D01*
X669356Y25300D01*
X669082Y25351D01*
X668824Y25422D01*
X668583Y25513D01*
X668357Y25624D01*
X668147Y25756D01*
X667953Y25908D01*
X667775Y26080D01*
X667613Y26272D01*
X667466Y26485D01*
X667336Y26718D01*
X667222Y26971D01*
X667123Y27244D01*
X667041Y27538D01*
X666974Y27851D01*
X668284Y28068D01*
X668367Y27685D01*
X668489Y27345D01*
X668650Y27051D01*
X668851Y26801D01*
X669086Y26602D01*
X669348Y26459D01*
X669490Y26410D01*
X669639Y26374D01*
X669795Y26353D01*
X669958Y26346D01*
X670135Y26353D01*
X670303Y26377D01*
X670461Y26416D01*
X670609Y26471D01*
X670748Y26541D01*
X670877Y26627D01*
X670996Y26729D01*
X671106Y26846D01*
X671205Y26979D01*
X671290Y27126D01*
X671362Y27287D01*
X671422Y27463D01*
X671467Y27654D01*
X671500Y27859D01*
X671520Y28079D01*
X671527Y28314D01*
X671527Y34176D01*
X669629Y34176D01*
X669629Y35268D01*
X672857Y35268D01*
X672857Y28342D01*
X672845Y27992D01*
X672809Y27662D01*
X672748Y27351D01*
X672663Y27059D01*
X672554Y26786D01*
X672420Y26533D01*
X672262Y26298D01*
X672080Y26083D01*
X671877Y25890D01*
X671655Y25723D01*
X671416Y25581D01*
X671159Y25466D01*
X670884Y25376D01*
X670591Y25311D01*
X670280Y25273D01*
X669951Y25260D01*
G37*
G36*
X562283Y92710D02*
X558592Y92710D01*
X558592Y102578D01*
X561855Y102578D01*
X562464Y102559D01*
X563038Y102500D01*
X563575Y102402D01*
X564076Y102264D01*
X564542Y102087D01*
X564972Y101871D01*
X565367Y101616D01*
X565725Y101321D01*
X566044Y100990D01*
X566321Y100626D01*
X566555Y100229D01*
X566747Y99799D01*
X566896Y99335D01*
X567002Y98839D01*
X567066Y98309D01*
X567087Y97746D01*
X567078Y97370D01*
X567050Y97006D01*
X567004Y96654D01*
X566938Y96314D01*
X566855Y95986D01*
X566752Y95670D01*
X566631Y95366D01*
X566492Y95074D01*
X566335Y94796D01*
X566163Y94535D01*
X565975Y94290D01*
X565772Y94063D01*
X565554Y93852D01*
X565319Y93657D01*
X565069Y93480D01*
X564804Y93319D01*
X564526Y93177D01*
X564237Y93053D01*
X563937Y92948D01*
X563627Y92862D01*
X563307Y92796D01*
X562976Y92748D01*
X562635Y92720D01*
X562283Y92710D01*
G37*
%LPC*%
G36*
X562129Y93782D02*
X562396Y93789D01*
X562655Y93811D01*
X562906Y93849D01*
X563148Y93901D01*
X563383Y93968D01*
X563609Y94049D01*
X563827Y94146D01*
X564037Y94258D01*
X564237Y94383D01*
X564425Y94522D01*
X564601Y94674D01*
X564765Y94839D01*
X564917Y95017D01*
X565057Y95209D01*
X565185Y95413D01*
X565301Y95631D01*
X565405Y95860D01*
X565494Y96099D01*
X565570Y96348D01*
X565632Y96608D01*
X565680Y96877D01*
X565715Y97157D01*
X565736Y97446D01*
X565742Y97746D01*
X565727Y98191D01*
X565680Y98609D01*
X565601Y98999D01*
X565491Y99363D01*
X565350Y99699D01*
X565177Y100008D01*
X564973Y100289D01*
X564737Y100544D01*
X564472Y100769D01*
X564179Y100965D01*
X563857Y101131D01*
X563507Y101266D01*
X563130Y101371D01*
X562724Y101447D01*
X562290Y101492D01*
X561827Y101507D01*
X559929Y101507D01*
X559929Y93782D01*
X562129Y93782D01*
G37*
%LPD*%
G36*
X587015Y92570D02*
X586635Y92580D01*
X586268Y92608D01*
X585915Y92657D01*
X585574Y92724D01*
X585247Y92811D01*
X584934Y92917D01*
X584634Y93042D01*
X584347Y93186D01*
X584075Y93349D01*
X583820Y93528D01*
X583581Y93725D01*
X583358Y93938D01*
X583153Y94169D01*
X582963Y94416D01*
X582791Y94680D01*
X582634Y94962D01*
X582496Y95258D01*
X582376Y95567D01*
X582274Y95889D01*
X582191Y96223D01*
X582126Y96571D01*
X582080Y96931D01*
X582052Y97304D01*
X582043Y97690D01*
X582063Y98273D01*
X582123Y98823D01*
X582224Y99339D01*
X582365Y99821D01*
X582546Y100269D01*
X582768Y100682D01*
X583029Y101063D01*
X583331Y101409D01*
X583670Y101717D01*
X584041Y101985D01*
X584445Y102211D01*
X584881Y102396D01*
X585350Y102540D01*
X585851Y102643D01*
X586386Y102705D01*
X586952Y102725D01*
X587352Y102717D01*
X587733Y102691D01*
X588095Y102648D01*
X588437Y102587D01*
X588760Y102509D01*
X589064Y102414D01*
X589348Y102302D01*
X589614Y102172D01*
X589862Y102023D01*
X590096Y101854D01*
X590315Y101664D01*
X590519Y101452D01*
X590709Y101221D01*
X590884Y100968D01*
X591044Y100694D01*
X591190Y100400D01*
X589915Y100022D01*
X589685Y100414D01*
X589555Y100588D01*
X589415Y100749D01*
X589265Y100895D01*
X589105Y101027D01*
X588936Y101144D01*
X588756Y101248D01*
X588565Y101338D01*
X588364Y101416D01*
X588151Y101482D01*
X587927Y101537D01*
X587691Y101579D01*
X587445Y101609D01*
X587187Y101627D01*
X586917Y101633D01*
X586503Y101617D01*
X586113Y101568D01*
X585749Y101488D01*
X585410Y101375D01*
X585096Y101229D01*
X584807Y101052D01*
X584543Y100842D01*
X584305Y100600D01*
X584093Y100328D01*
X583910Y100030D01*
X583754Y99706D01*
X583627Y99356D01*
X583528Y98979D01*
X583458Y98575D01*
X583415Y98146D01*
X583401Y97690D01*
X583416Y97234D01*
X583461Y96804D01*
X583536Y96398D01*
X583641Y96017D01*
X583776Y95660D01*
X583941Y95328D01*
X584136Y95020D01*
X584361Y94738D01*
X584612Y94484D01*
X584887Y94264D01*
X585184Y94078D01*
X585504Y93926D01*
X585848Y93808D01*
X586214Y93723D01*
X586603Y93672D01*
X587015Y93656D01*
X587490Y93674D01*
X587949Y93729D01*
X588392Y93821D01*
X588819Y93950D01*
X589217Y94110D01*
X589576Y94296D01*
X589895Y94509D01*
X590174Y94748D01*
X590174Y96527D01*
X587225Y96527D01*
X587225Y97648D01*
X591407Y97648D01*
X591407Y94244D01*
X590992Y93867D01*
X590534Y93536D01*
X590031Y93249D01*
X589484Y93008D01*
X589197Y92905D01*
X588903Y92816D01*
X588603Y92741D01*
X588298Y92679D01*
X587986Y92632D01*
X587669Y92597D01*
X587345Y92577D01*
X587015Y92570D01*
G37*
G36*
X572623Y92570D02*
X572184Y92580D01*
X571768Y92609D01*
X571377Y92658D01*
X571009Y92727D01*
X570664Y92815D01*
X570344Y92923D01*
X570047Y93050D01*
X569774Y93197D01*
X569524Y93363D01*
X569299Y93549D01*
X569096Y93755D01*
X568918Y93980D01*
X568763Y94225D01*
X568632Y94490D01*
X568525Y94774D01*
X568441Y95077D01*
X569737Y95336D01*
X569801Y95121D01*
X569881Y94921D01*
X569976Y94736D01*
X570087Y94565D01*
X570214Y94409D01*
X570357Y94268D01*
X570515Y94142D01*
X570690Y94030D01*
X570880Y93933D01*
X571087Y93848D01*
X571310Y93776D01*
X571549Y93718D01*
X571805Y93672D01*
X572078Y93640D01*
X572366Y93620D01*
X572672Y93613D01*
X572986Y93620D01*
X573282Y93641D01*
X573560Y93676D01*
X573819Y93725D01*
X574060Y93787D01*
X574282Y93864D01*
X574486Y93954D01*
X574671Y94058D01*
X574836Y94176D01*
X574979Y94307D01*
X575100Y94450D01*
X575199Y94607D01*
X575276Y94777D01*
X575331Y94960D01*
X575364Y95156D01*
X575375Y95364D01*
X575361Y95595D01*
X575320Y95802D01*
X575251Y95987D01*
X575154Y96149D01*
X575033Y96293D01*
X574889Y96424D01*
X574723Y96542D01*
X574535Y96646D01*
X574097Y96826D01*
X573582Y96975D01*
X572356Y97262D01*
X571807Y97392D01*
X571328Y97522D01*
X570919Y97651D01*
X570581Y97781D01*
X570294Y97914D01*
X570039Y98055D01*
X569816Y98203D01*
X569625Y98359D01*
X569460Y98525D01*
X569316Y98704D01*
X569192Y98898D01*
X569089Y99104D01*
X569008Y99326D01*
X568950Y99563D01*
X568915Y99816D01*
X568904Y100085D01*
X568919Y100393D01*
X568964Y100682D01*
X569040Y100954D01*
X569146Y101207D01*
X569283Y101443D01*
X569449Y101660D01*
X569646Y101858D01*
X569874Y102039D01*
X570129Y102200D01*
X570411Y102339D01*
X570719Y102457D01*
X571053Y102554D01*
X571413Y102629D01*
X571799Y102683D01*
X572212Y102715D01*
X572651Y102725D01*
X573058Y102717D01*
X573442Y102693D01*
X573800Y102653D01*
X574134Y102597D01*
X574443Y102524D01*
X574727Y102436D01*
X574986Y102331D01*
X575221Y102211D01*
X575435Y102071D01*
X575632Y101908D01*
X575813Y101723D01*
X575977Y101515D01*
X576125Y101284D01*
X576256Y101031D01*
X576370Y100755D01*
X576468Y100456D01*
X575151Y100225D01*
X575091Y100414D01*
X575018Y100590D01*
X574933Y100753D01*
X574836Y100902D01*
X574726Y101037D01*
X574605Y101159D01*
X574471Y101268D01*
X574325Y101363D01*
X574165Y101446D01*
X573991Y101518D01*
X573802Y101579D01*
X573598Y101628D01*
X573147Y101695D01*
X572637Y101717D01*
X572349Y101711D01*
X572080Y101692D01*
X571828Y101662D01*
X571593Y101619D01*
X571376Y101564D01*
X571176Y101496D01*
X570994Y101417D01*
X570830Y101325D01*
X570684Y101221D01*
X570557Y101104D01*
X570450Y100976D01*
X570362Y100836D01*
X570294Y100684D01*
X570245Y100520D01*
X570216Y100343D01*
X570206Y100155D01*
X570221Y99937D01*
X570267Y99739D01*
X570342Y99561D01*
X570448Y99402D01*
X570582Y99259D01*
X570743Y99127D01*
X570931Y99007D01*
X571145Y98898D01*
X571429Y98789D01*
X571826Y98668D01*
X572336Y98535D01*
X572959Y98390D01*
X573866Y98176D01*
X574308Y98057D01*
X574731Y97917D01*
X575131Y97754D01*
X575505Y97564D01*
X575842Y97338D01*
X576132Y97066D01*
X576257Y96913D01*
X576369Y96746D01*
X576466Y96566D01*
X576548Y96373D01*
X576614Y96165D01*
X576661Y95939D01*
X576689Y95695D01*
X576699Y95434D01*
X576682Y95103D01*
X576632Y94790D01*
X576549Y94497D01*
X576432Y94223D01*
X576282Y93968D01*
X576098Y93733D01*
X575881Y93516D01*
X575631Y93319D01*
X575350Y93144D01*
X575042Y92991D01*
X574707Y92863D01*
X574345Y92757D01*
X573955Y92675D01*
X573538Y92617D01*
X573094Y92582D01*
X572623Y92570D01*
G37*
G36*
X556723Y92710D02*
X550539Y92710D01*
X550539Y93782D01*
X553053Y93782D01*
X553053Y101374D01*
X550826Y99784D01*
X550826Y100974D01*
X553158Y102578D01*
X554321Y102578D01*
X554321Y93782D01*
X556723Y93782D01*
X556723Y92710D01*
G37*
G36*
X545491Y92570D02*
X545185Y92580D01*
X544896Y92610D01*
X544622Y92661D01*
X544364Y92732D01*
X544123Y92823D01*
X543897Y92934D01*
X543687Y93066D01*
X543493Y93218D01*
X543315Y93390D01*
X543153Y93582D01*
X543006Y93795D01*
X542876Y94028D01*
X542762Y94281D01*
X542663Y94554D01*
X542581Y94848D01*
X542514Y95161D01*
X543824Y95378D01*
X543907Y94995D01*
X544029Y94655D01*
X544190Y94361D01*
X544391Y94111D01*
X544626Y93912D01*
X544888Y93769D01*
X545030Y93720D01*
X545179Y93684D01*
X545335Y93663D01*
X545498Y93656D01*
X545675Y93663D01*
X545843Y93687D01*
X546001Y93726D01*
X546149Y93781D01*
X546288Y93851D01*
X546417Y93937D01*
X546536Y94039D01*
X546646Y94156D01*
X546745Y94289D01*
X546830Y94436D01*
X546902Y94597D01*
X546962Y94773D01*
X547007Y94964D01*
X547040Y95169D01*
X547060Y95389D01*
X547067Y95624D01*
X547067Y101486D01*
X545169Y101486D01*
X545169Y102578D01*
X548397Y102578D01*
X548397Y95652D01*
X548385Y95302D01*
X548349Y94972D01*
X548288Y94661D01*
X548203Y94369D01*
X548094Y94096D01*
X547960Y93843D01*
X547802Y93608D01*
X547620Y93393D01*
X547417Y93200D01*
X547195Y93033D01*
X546956Y92891D01*
X546699Y92776D01*
X546424Y92686D01*
X546131Y92621D01*
X545820Y92583D01*
X545491Y92570D01*
G37*
G36*
X580014Y92710D02*
X578676Y92710D01*
X578676Y102578D01*
X580014Y102578D01*
X580014Y92710D01*
G37*
G36*
X481189Y92710D02*
X479852Y92710D01*
X479852Y102578D01*
X484495Y102578D01*
X484900Y102567D01*
X485281Y102532D01*
X485638Y102473D01*
X485972Y102392D01*
X486282Y102287D01*
X486568Y102159D01*
X486830Y102007D01*
X487069Y101832D01*
X487282Y101637D01*
X487466Y101423D01*
X487622Y101191D01*
X487749Y100940D01*
X487848Y100672D01*
X487919Y100385D01*
X487962Y100079D01*
X487976Y99756D01*
X487966Y99486D01*
X487936Y99228D01*
X487886Y98980D01*
X487816Y98744D01*
X487726Y98518D01*
X487616Y98303D01*
X487485Y98100D01*
X487335Y97907D01*
X487167Y97728D01*
X486984Y97567D01*
X486786Y97423D01*
X486697Y97370D01*
X486573Y97296D01*
X486344Y97186D01*
X486100Y97094D01*
X485841Y97019D01*
X485567Y96961D01*
X486759Y95152D01*
X488368Y92710D01*
X486827Y92710D01*
X484264Y96807D01*
X481189Y96807D01*
X481189Y92710D01*
G37*
%LPC*%
G36*
X484418Y97865D02*
X484675Y97873D01*
X484917Y97896D01*
X485144Y97934D01*
X485356Y97988D01*
X485553Y98058D01*
X485735Y98143D01*
X485902Y98243D01*
X486053Y98359D01*
X486189Y98488D01*
X486306Y98630D01*
X486406Y98785D01*
X486487Y98951D01*
X486550Y99130D01*
X486595Y99322D01*
X486622Y99526D01*
X486631Y99742D01*
X486622Y99951D01*
X486595Y100147D01*
X486549Y100330D01*
X486485Y100501D01*
X486403Y100659D01*
X486302Y100804D01*
X486184Y100936D01*
X486046Y101055D01*
X485892Y101161D01*
X485722Y101253D01*
X485535Y101330D01*
X485333Y101394D01*
X485114Y101443D01*
X484880Y101479D01*
X484629Y101500D01*
X484362Y101507D01*
X481189Y101507D01*
X481189Y97865D01*
X484418Y97865D01*
G37*
%LPD*%
G36*
X508275Y92570D02*
X507895Y92580D01*
X507528Y92608D01*
X507175Y92657D01*
X506834Y92724D01*
X506507Y92811D01*
X506194Y92917D01*
X505894Y93042D01*
X505607Y93186D01*
X505335Y93349D01*
X505080Y93528D01*
X504841Y93725D01*
X504618Y93938D01*
X504413Y94169D01*
X504223Y94416D01*
X504051Y94680D01*
X503894Y94962D01*
X503756Y95258D01*
X503636Y95567D01*
X503534Y95889D01*
X503451Y96223D01*
X503386Y96571D01*
X503340Y96931D01*
X503312Y97304D01*
X503303Y97690D01*
X503323Y98273D01*
X503383Y98823D01*
X503484Y99339D01*
X503625Y99821D01*
X503806Y100269D01*
X504028Y100682D01*
X504289Y101063D01*
X504591Y101409D01*
X504930Y101717D01*
X505301Y101985D01*
X505705Y102211D01*
X506141Y102396D01*
X506610Y102540D01*
X507111Y102643D01*
X507646Y102705D01*
X508212Y102725D01*
X508612Y102717D01*
X508993Y102691D01*
X509355Y102648D01*
X509697Y102587D01*
X510020Y102509D01*
X510324Y102414D01*
X510608Y102302D01*
X510874Y102172D01*
X511122Y102023D01*
X511356Y101854D01*
X511575Y101664D01*
X511779Y101452D01*
X511969Y101221D01*
X512144Y100968D01*
X512304Y100694D01*
X512450Y100400D01*
X511175Y100022D01*
X510945Y100414D01*
X510815Y100588D01*
X510675Y100749D01*
X510525Y100895D01*
X510365Y101027D01*
X510196Y101144D01*
X510016Y101248D01*
X509825Y101338D01*
X509624Y101416D01*
X509411Y101482D01*
X509187Y101537D01*
X508951Y101579D01*
X508705Y101609D01*
X508447Y101627D01*
X508177Y101633D01*
X507763Y101617D01*
X507373Y101568D01*
X507009Y101488D01*
X506670Y101375D01*
X506356Y101229D01*
X506067Y101052D01*
X505803Y100842D01*
X505565Y100600D01*
X505353Y100328D01*
X505170Y100030D01*
X505014Y99706D01*
X504887Y99356D01*
X504788Y98979D01*
X504718Y98575D01*
X504675Y98146D01*
X504661Y97690D01*
X504676Y97234D01*
X504721Y96804D01*
X504796Y96398D01*
X504901Y96017D01*
X505036Y95660D01*
X505201Y95328D01*
X505396Y95020D01*
X505621Y94738D01*
X505872Y94484D01*
X506147Y94264D01*
X506444Y94078D01*
X506764Y93926D01*
X507108Y93808D01*
X507474Y93723D01*
X507863Y93672D01*
X508275Y93656D01*
X508750Y93674D01*
X509209Y93729D01*
X509652Y93821D01*
X510079Y93950D01*
X510477Y94110D01*
X510836Y94296D01*
X511155Y94509D01*
X511434Y94748D01*
X511434Y96527D01*
X508485Y96527D01*
X508485Y97648D01*
X512667Y97648D01*
X512667Y94244D01*
X512252Y93867D01*
X511794Y93536D01*
X511291Y93249D01*
X510744Y93008D01*
X510457Y92905D01*
X510163Y92816D01*
X509863Y92741D01*
X509558Y92679D01*
X509246Y92632D01*
X508929Y92597D01*
X508605Y92577D01*
X508275Y92570D01*
G37*
G36*
X493883Y92570D02*
X493444Y92580D01*
X493028Y92609D01*
X492637Y92658D01*
X492269Y92727D01*
X491924Y92815D01*
X491604Y92923D01*
X491307Y93050D01*
X491034Y93197D01*
X490784Y93363D01*
X490559Y93549D01*
X490356Y93755D01*
X490178Y93980D01*
X490023Y94225D01*
X489892Y94490D01*
X489785Y94774D01*
X489701Y95077D01*
X490997Y95336D01*
X491061Y95121D01*
X491141Y94921D01*
X491236Y94736D01*
X491347Y94565D01*
X491474Y94409D01*
X491617Y94268D01*
X491775Y94142D01*
X491950Y94030D01*
X492140Y93933D01*
X492347Y93848D01*
X492570Y93776D01*
X492809Y93718D01*
X493065Y93672D01*
X493338Y93640D01*
X493626Y93620D01*
X493932Y93613D01*
X494246Y93620D01*
X494542Y93641D01*
X494820Y93676D01*
X495079Y93725D01*
X495320Y93787D01*
X495542Y93864D01*
X495746Y93954D01*
X495931Y94058D01*
X496096Y94176D01*
X496239Y94307D01*
X496360Y94450D01*
X496459Y94607D01*
X496536Y94777D01*
X496591Y94960D01*
X496624Y95156D01*
X496635Y95364D01*
X496621Y95595D01*
X496580Y95802D01*
X496511Y95987D01*
X496414Y96149D01*
X496293Y96293D01*
X496149Y96424D01*
X495983Y96542D01*
X495795Y96646D01*
X495357Y96826D01*
X494842Y96975D01*
X493616Y97262D01*
X493067Y97392D01*
X492588Y97522D01*
X492179Y97651D01*
X491841Y97781D01*
X491554Y97914D01*
X491299Y98055D01*
X491076Y98203D01*
X490885Y98359D01*
X490720Y98525D01*
X490576Y98704D01*
X490452Y98898D01*
X490349Y99104D01*
X490268Y99326D01*
X490210Y99563D01*
X490175Y99816D01*
X490164Y100085D01*
X490179Y100393D01*
X490224Y100682D01*
X490300Y100954D01*
X490406Y101207D01*
X490543Y101443D01*
X490709Y101660D01*
X490906Y101858D01*
X491134Y102039D01*
X491389Y102200D01*
X491671Y102339D01*
X491979Y102457D01*
X492313Y102554D01*
X492673Y102629D01*
X493059Y102683D01*
X493472Y102715D01*
X493911Y102725D01*
X494318Y102717D01*
X494702Y102693D01*
X495060Y102653D01*
X495394Y102597D01*
X495703Y102524D01*
X495987Y102436D01*
X496246Y102331D01*
X496481Y102211D01*
X496695Y102071D01*
X496892Y101908D01*
X497073Y101723D01*
X497237Y101515D01*
X497385Y101284D01*
X497516Y101031D01*
X497630Y100755D01*
X497728Y100456D01*
X496411Y100225D01*
X496351Y100414D01*
X496278Y100590D01*
X496193Y100753D01*
X496096Y100902D01*
X495986Y101037D01*
X495865Y101159D01*
X495731Y101268D01*
X495585Y101363D01*
X495425Y101446D01*
X495251Y101518D01*
X495062Y101579D01*
X494858Y101628D01*
X494407Y101695D01*
X493897Y101717D01*
X493609Y101711D01*
X493340Y101692D01*
X493088Y101662D01*
X492853Y101619D01*
X492636Y101564D01*
X492436Y101496D01*
X492254Y101417D01*
X492090Y101325D01*
X491944Y101221D01*
X491817Y101104D01*
X491710Y100976D01*
X491622Y100836D01*
X491554Y100684D01*
X491505Y100520D01*
X491476Y100343D01*
X491466Y100155D01*
X491481Y99937D01*
X491527Y99739D01*
X491602Y99561D01*
X491708Y99402D01*
X491842Y99259D01*
X492003Y99127D01*
X492191Y99007D01*
X492405Y98898D01*
X492689Y98789D01*
X493086Y98668D01*
X493596Y98535D01*
X494219Y98390D01*
X495126Y98176D01*
X495568Y98057D01*
X495991Y97917D01*
X496391Y97754D01*
X496765Y97564D01*
X497102Y97338D01*
X497392Y97066D01*
X497517Y96913D01*
X497629Y96746D01*
X497726Y96566D01*
X497808Y96373D01*
X497874Y96165D01*
X497921Y95939D01*
X497949Y95695D01*
X497959Y95434D01*
X497942Y95103D01*
X497892Y94790D01*
X497809Y94497D01*
X497692Y94223D01*
X497542Y93968D01*
X497358Y93733D01*
X497141Y93516D01*
X496891Y93319D01*
X496610Y93144D01*
X496302Y92991D01*
X495967Y92863D01*
X495605Y92757D01*
X495215Y92675D01*
X494798Y92617D01*
X494354Y92582D01*
X493883Y92570D01*
G37*
G36*
X477983Y92710D02*
X471799Y92710D01*
X471799Y93782D01*
X474313Y93782D01*
X474313Y101374D01*
X472086Y99784D01*
X472086Y100974D01*
X474418Y102578D01*
X475581Y102578D01*
X475581Y93782D01*
X477983Y93782D01*
X477983Y92710D01*
G37*
G36*
X466751Y92570D02*
X466445Y92580D01*
X466156Y92610D01*
X465882Y92661D01*
X465624Y92732D01*
X465383Y92823D01*
X465157Y92934D01*
X464947Y93066D01*
X464753Y93218D01*
X464575Y93390D01*
X464413Y93582D01*
X464266Y93795D01*
X464136Y94028D01*
X464022Y94281D01*
X463923Y94554D01*
X463841Y94848D01*
X463774Y95161D01*
X465084Y95378D01*
X465167Y94995D01*
X465289Y94655D01*
X465450Y94361D01*
X465651Y94111D01*
X465886Y93912D01*
X466148Y93769D01*
X466290Y93720D01*
X466439Y93684D01*
X466595Y93663D01*
X466758Y93656D01*
X466935Y93663D01*
X467103Y93687D01*
X467261Y93726D01*
X467409Y93781D01*
X467548Y93851D01*
X467677Y93937D01*
X467796Y94039D01*
X467906Y94156D01*
X468005Y94289D01*
X468090Y94436D01*
X468162Y94597D01*
X468222Y94773D01*
X468267Y94964D01*
X468300Y95169D01*
X468320Y95389D01*
X468327Y95624D01*
X468327Y101486D01*
X466429Y101486D01*
X466429Y102578D01*
X469657Y102578D01*
X469657Y95652D01*
X469645Y95302D01*
X469609Y94972D01*
X469548Y94661D01*
X469463Y94369D01*
X469354Y94096D01*
X469220Y93843D01*
X469062Y93608D01*
X468880Y93393D01*
X468677Y93200D01*
X468455Y93033D01*
X468216Y92891D01*
X467959Y92776D01*
X467684Y92686D01*
X467391Y92621D01*
X467080Y92583D01*
X466751Y92570D01*
G37*
G36*
X501274Y92710D02*
X499936Y92710D01*
X499936Y102578D01*
X501274Y102578D01*
X501274Y92710D01*
G37*
G36*
X683119Y92710D02*
X681782Y92710D01*
X681782Y102578D01*
X686425Y102578D01*
X686830Y102567D01*
X687211Y102532D01*
X687568Y102473D01*
X687902Y102392D01*
X688212Y102287D01*
X688498Y102159D01*
X688760Y102007D01*
X688999Y101832D01*
X689212Y101637D01*
X689396Y101423D01*
X689552Y101191D01*
X689679Y100940D01*
X689778Y100672D01*
X689849Y100385D01*
X689892Y100079D01*
X689906Y99756D01*
X689896Y99486D01*
X689866Y99228D01*
X689816Y98980D01*
X689746Y98744D01*
X689656Y98518D01*
X689546Y98303D01*
X689415Y98100D01*
X689265Y97907D01*
X689097Y97728D01*
X688914Y97567D01*
X688716Y97423D01*
X688627Y97370D01*
X688503Y97296D01*
X688274Y97186D01*
X688030Y97094D01*
X687771Y97019D01*
X687497Y96961D01*
X688689Y95152D01*
X690298Y92710D01*
X688757Y92710D01*
X686194Y96807D01*
X683119Y96807D01*
X683119Y92710D01*
G37*
%LPC*%
G36*
X686348Y97865D02*
X686605Y97873D01*
X686847Y97896D01*
X687074Y97934D01*
X687286Y97988D01*
X687483Y98058D01*
X687665Y98143D01*
X687832Y98243D01*
X687983Y98359D01*
X688119Y98488D01*
X688236Y98630D01*
X688336Y98785D01*
X688417Y98951D01*
X688480Y99130D01*
X688525Y99322D01*
X688552Y99526D01*
X688561Y99742D01*
X688552Y99951D01*
X688525Y100147D01*
X688479Y100330D01*
X688415Y100501D01*
X688333Y100659D01*
X688232Y100804D01*
X688114Y100936D01*
X687976Y101055D01*
X687822Y101161D01*
X687652Y101253D01*
X687465Y101330D01*
X687263Y101394D01*
X687044Y101443D01*
X686810Y101479D01*
X686559Y101500D01*
X686292Y101507D01*
X683119Y101507D01*
X683119Y97865D01*
X686348Y97865D01*
G37*
%LPD*%
G36*
X710879Y92710D02*
X709688Y92710D01*
X709688Y102578D01*
X711243Y102578D01*
X716580Y94118D01*
X716517Y95301D01*
X716496Y96107D01*
X716496Y102578D01*
X717700Y102578D01*
X717700Y92710D01*
X716089Y92710D01*
X710808Y101115D01*
X710844Y100435D01*
X710879Y99266D01*
X710879Y92710D01*
G37*
G36*
X697150Y92710D02*
X695960Y92710D01*
X695960Y94944D01*
X691309Y94944D01*
X691309Y95925D01*
X695827Y102578D01*
X697150Y102578D01*
X697150Y95939D01*
X698537Y95939D01*
X698537Y94944D01*
X697150Y94944D01*
X697150Y92710D01*
G37*
%LPC*%
G36*
X695960Y95939D02*
X695960Y101157D01*
X695764Y100785D01*
X695490Y100323D01*
X692962Y96597D01*
X692584Y96079D01*
X692472Y95939D01*
X695960Y95939D01*
G37*
%LPD*%
G36*
X707900Y92710D02*
X700125Y92710D01*
X700125Y102578D01*
X707612Y102578D01*
X707612Y101486D01*
X701463Y101486D01*
X701463Y98320D01*
X707192Y98320D01*
X707192Y97241D01*
X701463Y97241D01*
X701463Y93803D01*
X707900Y93803D01*
X707900Y92710D01*
G37*
G36*
X679913Y92710D02*
X673729Y92710D01*
X673729Y93782D01*
X676243Y93782D01*
X676243Y101374D01*
X674016Y99784D01*
X674016Y100974D01*
X676348Y102578D01*
X677511Y102578D01*
X677511Y93782D01*
X679913Y93782D01*
X679913Y92710D01*
G37*
G36*
X668681Y92570D02*
X668375Y92580D01*
X668086Y92610D01*
X667812Y92661D01*
X667554Y92732D01*
X667313Y92823D01*
X667087Y92934D01*
X666877Y93066D01*
X666683Y93218D01*
X666505Y93390D01*
X666343Y93582D01*
X666196Y93795D01*
X666066Y94028D01*
X665952Y94281D01*
X665853Y94554D01*
X665771Y94848D01*
X665704Y95161D01*
X667014Y95378D01*
X667097Y94995D01*
X667219Y94655D01*
X667380Y94361D01*
X667581Y94111D01*
X667816Y93912D01*
X668078Y93769D01*
X668220Y93720D01*
X668369Y93684D01*
X668525Y93663D01*
X668688Y93656D01*
X668865Y93663D01*
X669033Y93687D01*
X669191Y93726D01*
X669339Y93781D01*
X669478Y93851D01*
X669607Y93937D01*
X669726Y94039D01*
X669836Y94156D01*
X669935Y94289D01*
X670020Y94436D01*
X670092Y94597D01*
X670152Y94773D01*
X670197Y94964D01*
X670230Y95169D01*
X670250Y95389D01*
X670257Y95624D01*
X670257Y101486D01*
X668359Y101486D01*
X668359Y102578D01*
X671587Y102578D01*
X671587Y95652D01*
X671575Y95302D01*
X671539Y94972D01*
X671478Y94661D01*
X671393Y94369D01*
X671284Y94096D01*
X671150Y93843D01*
X670992Y93608D01*
X670810Y93393D01*
X670607Y93200D01*
X670385Y93033D01*
X670146Y92891D01*
X669889Y92776D01*
X669614Y92686D01*
X669321Y92621D01*
X669010Y92583D01*
X668681Y92570D01*
G37*
G36*
X1413208Y25400D02*
X1409517Y25400D01*
X1409517Y35268D01*
X1412780Y35268D01*
X1413389Y35249D01*
X1413963Y35190D01*
X1414500Y35092D01*
X1415001Y34954D01*
X1415467Y34777D01*
X1415897Y34561D01*
X1416292Y34306D01*
X1416650Y34011D01*
X1416969Y33680D01*
X1417246Y33316D01*
X1417480Y32919D01*
X1417672Y32489D01*
X1417821Y32025D01*
X1417927Y31529D01*
X1417991Y30999D01*
X1418012Y30436D01*
X1418003Y30060D01*
X1417975Y29696D01*
X1417929Y29344D01*
X1417863Y29004D01*
X1417780Y28676D01*
X1417677Y28360D01*
X1417556Y28056D01*
X1417417Y27764D01*
X1417260Y27486D01*
X1417088Y27225D01*
X1416900Y26980D01*
X1416697Y26753D01*
X1416479Y26542D01*
X1416244Y26347D01*
X1415994Y26170D01*
X1415729Y26009D01*
X1415451Y25867D01*
X1415162Y25743D01*
X1414862Y25638D01*
X1414552Y25552D01*
X1414232Y25486D01*
X1413901Y25438D01*
X1413560Y25410D01*
X1413208Y25400D01*
G37*
%LPC*%
G36*
X1413054Y26472D02*
X1413321Y26479D01*
X1413580Y26501D01*
X1413831Y26539D01*
X1414073Y26591D01*
X1414308Y26658D01*
X1414534Y26739D01*
X1414752Y26836D01*
X1414962Y26948D01*
X1415162Y27073D01*
X1415350Y27212D01*
X1415526Y27364D01*
X1415690Y27529D01*
X1415842Y27707D01*
X1415982Y27899D01*
X1416110Y28103D01*
X1416226Y28321D01*
X1416330Y28550D01*
X1416419Y28789D01*
X1416495Y29038D01*
X1416557Y29298D01*
X1416605Y29567D01*
X1416640Y29847D01*
X1416661Y30136D01*
X1416667Y30436D01*
X1416652Y30881D01*
X1416605Y31299D01*
X1416526Y31689D01*
X1416416Y32053D01*
X1416275Y32389D01*
X1416102Y32698D01*
X1415898Y32979D01*
X1415662Y33234D01*
X1415397Y33459D01*
X1415104Y33655D01*
X1414782Y33821D01*
X1414432Y33956D01*
X1414055Y34061D01*
X1413649Y34137D01*
X1413215Y34182D01*
X1412752Y34197D01*
X1410854Y34197D01*
X1410854Y26472D01*
X1413054Y26472D01*
G37*
%LPD*%
G36*
X1400364Y25400D02*
X1399173Y25400D01*
X1399173Y35268D01*
X1400728Y35268D01*
X1406065Y26808D01*
X1406002Y27991D01*
X1405981Y28797D01*
X1405981Y35268D01*
X1407185Y35268D01*
X1407185Y25400D01*
X1405574Y25400D01*
X1400293Y33805D01*
X1400329Y33125D01*
X1400364Y31956D01*
X1400364Y25400D01*
G37*
G36*
X1392534Y25260D02*
X1392154Y25270D01*
X1391787Y25298D01*
X1391433Y25347D01*
X1391093Y25414D01*
X1390766Y25501D01*
X1390453Y25607D01*
X1390152Y25732D01*
X1389866Y25876D01*
X1389594Y26039D01*
X1389338Y26218D01*
X1389100Y26415D01*
X1388877Y26628D01*
X1388671Y26859D01*
X1388482Y27106D01*
X1388309Y27370D01*
X1388153Y27652D01*
X1388015Y27948D01*
X1387894Y28257D01*
X1387793Y28579D01*
X1387709Y28913D01*
X1387645Y29261D01*
X1387598Y29621D01*
X1387571Y29994D01*
X1387561Y30380D01*
X1387582Y30963D01*
X1387642Y31513D01*
X1387743Y32029D01*
X1387884Y32511D01*
X1388065Y32959D01*
X1388286Y33372D01*
X1388548Y33753D01*
X1388850Y34099D01*
X1389189Y34407D01*
X1389560Y34675D01*
X1389963Y34901D01*
X1390400Y35086D01*
X1390869Y35230D01*
X1391370Y35333D01*
X1391904Y35395D01*
X1392471Y35415D01*
X1392871Y35407D01*
X1393252Y35381D01*
X1393614Y35338D01*
X1393956Y35277D01*
X1394279Y35199D01*
X1394583Y35104D01*
X1394867Y34992D01*
X1395132Y34862D01*
X1395381Y34713D01*
X1395614Y34544D01*
X1395833Y34354D01*
X1396038Y34142D01*
X1396227Y33911D01*
X1396402Y33658D01*
X1396563Y33384D01*
X1396708Y33090D01*
X1395434Y32712D01*
X1395204Y33104D01*
X1395074Y33278D01*
X1394934Y33439D01*
X1394784Y33585D01*
X1394624Y33717D01*
X1394454Y33834D01*
X1394275Y33938D01*
X1394084Y34028D01*
X1393883Y34106D01*
X1393670Y34172D01*
X1393445Y34227D01*
X1393210Y34269D01*
X1392963Y34299D01*
X1392705Y34317D01*
X1392436Y34323D01*
X1392021Y34307D01*
X1391632Y34258D01*
X1391268Y34178D01*
X1390928Y34065D01*
X1390614Y33919D01*
X1390326Y33742D01*
X1390062Y33532D01*
X1389824Y33290D01*
X1389612Y33018D01*
X1389428Y32720D01*
X1389273Y32396D01*
X1389146Y32046D01*
X1389047Y31669D01*
X1388977Y31265D01*
X1388934Y30836D01*
X1388920Y30380D01*
X1388935Y29924D01*
X1388980Y29494D01*
X1389055Y29088D01*
X1389160Y28707D01*
X1389295Y28350D01*
X1389460Y28018D01*
X1389655Y27710D01*
X1389880Y27428D01*
X1390131Y27174D01*
X1390405Y26954D01*
X1390703Y26768D01*
X1391023Y26616D01*
X1391366Y26498D01*
X1391733Y26413D01*
X1392122Y26362D01*
X1392534Y26346D01*
X1393009Y26364D01*
X1393468Y26419D01*
X1393911Y26511D01*
X1394338Y26640D01*
X1394736Y26800D01*
X1395095Y26986D01*
X1395414Y27199D01*
X1395693Y27438D01*
X1395693Y29217D01*
X1392744Y29217D01*
X1392744Y30338D01*
X1396925Y30338D01*
X1396925Y26934D01*
X1396511Y26557D01*
X1396053Y26226D01*
X1395550Y25939D01*
X1395003Y25698D01*
X1394715Y25595D01*
X1394422Y25506D01*
X1394122Y25431D01*
X1393817Y25369D01*
X1393505Y25322D01*
X1393187Y25287D01*
X1392864Y25267D01*
X1392534Y25260D01*
G37*
G36*
X1555612Y25260D02*
X1555246Y25270D01*
X1554892Y25299D01*
X1554550Y25347D01*
X1554221Y25415D01*
X1553905Y25502D01*
X1553601Y25609D01*
X1553310Y25734D01*
X1553032Y25880D01*
X1552767Y26043D01*
X1552519Y26223D01*
X1552288Y26419D01*
X1552072Y26633D01*
X1551873Y26862D01*
X1551689Y27109D01*
X1551523Y27372D01*
X1551372Y27652D01*
X1551238Y27946D01*
X1551122Y28254D01*
X1551024Y28575D01*
X1550944Y28910D01*
X1550881Y29257D01*
X1550837Y29618D01*
X1550810Y29992D01*
X1550801Y30380D01*
X1550821Y30954D01*
X1550881Y31496D01*
X1550980Y32006D01*
X1551120Y32484D01*
X1551299Y32931D01*
X1551518Y33345D01*
X1551777Y33727D01*
X1552076Y34078D01*
X1552410Y34391D01*
X1552774Y34663D01*
X1553169Y34893D01*
X1553595Y35081D01*
X1554052Y35227D01*
X1554539Y35332D01*
X1555057Y35395D01*
X1555605Y35415D01*
X1555991Y35406D01*
X1556361Y35377D01*
X1556714Y35329D01*
X1557052Y35261D01*
X1557373Y35175D01*
X1557678Y35069D01*
X1557966Y34944D01*
X1558239Y34799D01*
X1558495Y34636D01*
X1558733Y34454D01*
X1558953Y34253D01*
X1559156Y34034D01*
X1559342Y33796D01*
X1559510Y33540D01*
X1559661Y33265D01*
X1559794Y32971D01*
X1558526Y32551D01*
X1558434Y32760D01*
X1558328Y32956D01*
X1558210Y33140D01*
X1558079Y33311D01*
X1557934Y33469D01*
X1557777Y33615D01*
X1557606Y33747D01*
X1557423Y33868D01*
X1557229Y33974D01*
X1557025Y34067D01*
X1556813Y34145D01*
X1556592Y34209D01*
X1556362Y34259D01*
X1556124Y34294D01*
X1555876Y34316D01*
X1555619Y34323D01*
X1555221Y34306D01*
X1554846Y34257D01*
X1554493Y34175D01*
X1554163Y34059D01*
X1553855Y33911D01*
X1553571Y33730D01*
X1553309Y33516D01*
X1553070Y33269D01*
X1552857Y32993D01*
X1552672Y32693D01*
X1552515Y32368D01*
X1552387Y32019D01*
X1552288Y31646D01*
X1552217Y31248D01*
X1552174Y30826D01*
X1552160Y30380D01*
X1552174Y29937D01*
X1552219Y29517D01*
X1552293Y29119D01*
X1552397Y28743D01*
X1552530Y28390D01*
X1552693Y28059D01*
X1552886Y27749D01*
X1553109Y27463D01*
X1553356Y27204D01*
X1553625Y26980D01*
X1553914Y26790D01*
X1554225Y26635D01*
X1554556Y26515D01*
X1554908Y26428D01*
X1555282Y26377D01*
X1555676Y26360D01*
X1555931Y26368D01*
X1556178Y26392D01*
X1556417Y26432D01*
X1556648Y26488D01*
X1556871Y26560D01*
X1557086Y26648D01*
X1557292Y26752D01*
X1557491Y26873D01*
X1557682Y27009D01*
X1557865Y27161D01*
X1558039Y27329D01*
X1558206Y27514D01*
X1558515Y27931D01*
X1558792Y28412D01*
X1559885Y27865D01*
X1559725Y27556D01*
X1559549Y27266D01*
X1559358Y26995D01*
X1559152Y26743D01*
X1558930Y26510D01*
X1558693Y26296D01*
X1558440Y26101D01*
X1558172Y25925D01*
X1557891Y25769D01*
X1557599Y25634D01*
X1557295Y25520D01*
X1556981Y25426D01*
X1556655Y25354D01*
X1556319Y25302D01*
X1555971Y25270D01*
X1555612Y25260D01*
G37*
G36*
X1565956Y25260D02*
X1565590Y25270D01*
X1565236Y25299D01*
X1564894Y25347D01*
X1564565Y25415D01*
X1564249Y25502D01*
X1563945Y25609D01*
X1563654Y25734D01*
X1563375Y25880D01*
X1563111Y26043D01*
X1562863Y26223D01*
X1562631Y26419D01*
X1562416Y26633D01*
X1562216Y26862D01*
X1562033Y27109D01*
X1561866Y27372D01*
X1561715Y27652D01*
X1561582Y27946D01*
X1561466Y28254D01*
X1561368Y28575D01*
X1561287Y28910D01*
X1561225Y29257D01*
X1561180Y29618D01*
X1561154Y29992D01*
X1561145Y30380D01*
X1561165Y30954D01*
X1561224Y31496D01*
X1561324Y32006D01*
X1561463Y32484D01*
X1561643Y32931D01*
X1561862Y33345D01*
X1562121Y33727D01*
X1562419Y34078D01*
X1562753Y34391D01*
X1563118Y34663D01*
X1563513Y34893D01*
X1563939Y35081D01*
X1564396Y35227D01*
X1564883Y35332D01*
X1565401Y35395D01*
X1565949Y35415D01*
X1566335Y35406D01*
X1566705Y35377D01*
X1567058Y35329D01*
X1567396Y35261D01*
X1567717Y35175D01*
X1568021Y35069D01*
X1568310Y34944D01*
X1568583Y34799D01*
X1568838Y34636D01*
X1569076Y34454D01*
X1569297Y34253D01*
X1569500Y34034D01*
X1569686Y33796D01*
X1569854Y33540D01*
X1570004Y33265D01*
X1570138Y32971D01*
X1568870Y32551D01*
X1568778Y32760D01*
X1568672Y32956D01*
X1568554Y33140D01*
X1568422Y33311D01*
X1568278Y33469D01*
X1568121Y33615D01*
X1567950Y33747D01*
X1567767Y33868D01*
X1567572Y33974D01*
X1567369Y34067D01*
X1567157Y34145D01*
X1566936Y34209D01*
X1566706Y34259D01*
X1566467Y34294D01*
X1566220Y34316D01*
X1565963Y34323D01*
X1565565Y34306D01*
X1565189Y34257D01*
X1564837Y34175D01*
X1564506Y34059D01*
X1564199Y33911D01*
X1563915Y33730D01*
X1563653Y33516D01*
X1563414Y33269D01*
X1563200Y32993D01*
X1563016Y32693D01*
X1562859Y32368D01*
X1562731Y32019D01*
X1562631Y31646D01*
X1562560Y31248D01*
X1562518Y30826D01*
X1562503Y30380D01*
X1562518Y29937D01*
X1562563Y29517D01*
X1562637Y29119D01*
X1562741Y28743D01*
X1562874Y28390D01*
X1563037Y28059D01*
X1563230Y27749D01*
X1563452Y27463D01*
X1563700Y27204D01*
X1563969Y26980D01*
X1564258Y26790D01*
X1564569Y26635D01*
X1564900Y26515D01*
X1565252Y26428D01*
X1565625Y26377D01*
X1566019Y26360D01*
X1566274Y26368D01*
X1566521Y26392D01*
X1566761Y26432D01*
X1566991Y26488D01*
X1567214Y26560D01*
X1567429Y26648D01*
X1567636Y26752D01*
X1567835Y26873D01*
X1568026Y27009D01*
X1568209Y27161D01*
X1568383Y27329D01*
X1568550Y27514D01*
X1568859Y27931D01*
X1569136Y28412D01*
X1570229Y27865D01*
X1570069Y27556D01*
X1569893Y27266D01*
X1569702Y26995D01*
X1569496Y26743D01*
X1569274Y26510D01*
X1569037Y26296D01*
X1568784Y26101D01*
X1568516Y25925D01*
X1568235Y25769D01*
X1567942Y25634D01*
X1567639Y25520D01*
X1567325Y25426D01*
X1566999Y25354D01*
X1566663Y25302D01*
X1566315Y25270D01*
X1565956Y25260D01*
G37*
G36*
X1545987Y25400D02*
X1544600Y25400D01*
X1540573Y35268D01*
X1541981Y35268D01*
X1544712Y28321D01*
X1545301Y26577D01*
X1545889Y28321D01*
X1548606Y35268D01*
X1550014Y35268D01*
X1545987Y25400D01*
G37*
G36*
X1677343Y25400D02*
X1673652Y25400D01*
X1673652Y35268D01*
X1676915Y35268D01*
X1677524Y35249D01*
X1678098Y35190D01*
X1678635Y35092D01*
X1679136Y34954D01*
X1679602Y34777D01*
X1680032Y34561D01*
X1680427Y34306D01*
X1680785Y34011D01*
X1681104Y33680D01*
X1681381Y33316D01*
X1681615Y32919D01*
X1681807Y32489D01*
X1681956Y32025D01*
X1682062Y31529D01*
X1682126Y30999D01*
X1682147Y30436D01*
X1682138Y30060D01*
X1682110Y29696D01*
X1682064Y29344D01*
X1681998Y29004D01*
X1681915Y28676D01*
X1681812Y28360D01*
X1681691Y28056D01*
X1681552Y27764D01*
X1681395Y27486D01*
X1681223Y27225D01*
X1681035Y26980D01*
X1680832Y26753D01*
X1680614Y26542D01*
X1680379Y26347D01*
X1680129Y26170D01*
X1679864Y26009D01*
X1679586Y25867D01*
X1679297Y25743D01*
X1678997Y25638D01*
X1678687Y25552D01*
X1678367Y25486D01*
X1678036Y25438D01*
X1677695Y25410D01*
X1677343Y25400D01*
G37*
%LPC*%
G36*
X1677189Y26472D02*
X1677456Y26479D01*
X1677715Y26501D01*
X1677966Y26539D01*
X1678208Y26591D01*
X1678443Y26658D01*
X1678669Y26739D01*
X1678887Y26836D01*
X1679097Y26948D01*
X1679297Y27073D01*
X1679485Y27212D01*
X1679661Y27364D01*
X1679825Y27529D01*
X1679977Y27707D01*
X1680117Y27899D01*
X1680245Y28103D01*
X1680361Y28321D01*
X1680465Y28550D01*
X1680554Y28789D01*
X1680630Y29038D01*
X1680692Y29298D01*
X1680740Y29567D01*
X1680775Y29847D01*
X1680796Y30136D01*
X1680802Y30436D01*
X1680787Y30881D01*
X1680740Y31299D01*
X1680661Y31689D01*
X1680551Y32053D01*
X1680410Y32389D01*
X1680237Y32698D01*
X1680033Y32979D01*
X1679797Y33234D01*
X1679532Y33459D01*
X1679239Y33655D01*
X1678917Y33821D01*
X1678567Y33956D01*
X1678190Y34061D01*
X1677784Y34137D01*
X1677350Y34182D01*
X1676887Y34197D01*
X1674989Y34197D01*
X1674989Y26472D01*
X1677189Y26472D01*
G37*
%LPD*%
G36*
X1702749Y25400D02*
X1701558Y25400D01*
X1701558Y35268D01*
X1703113Y35268D01*
X1708450Y26808D01*
X1708387Y27991D01*
X1708366Y28797D01*
X1708366Y35268D01*
X1709570Y35268D01*
X1709570Y25400D01*
X1707959Y25400D01*
X1702678Y33805D01*
X1702714Y33125D01*
X1702749Y31956D01*
X1702749Y25400D01*
G37*
G36*
X1689020Y25400D02*
X1687830Y25400D01*
X1687830Y27634D01*
X1683179Y27634D01*
X1683179Y28615D01*
X1687697Y35268D01*
X1689020Y35268D01*
X1689020Y28629D01*
X1690407Y28629D01*
X1690407Y27634D01*
X1689020Y27634D01*
X1689020Y25400D01*
G37*
%LPC*%
G36*
X1687830Y28629D02*
X1687830Y33847D01*
X1687634Y33475D01*
X1687360Y33013D01*
X1684832Y29287D01*
X1684454Y28769D01*
X1684342Y28629D01*
X1687830Y28629D01*
G37*
%LPD*%
G36*
X1699770Y25400D02*
X1691995Y25400D01*
X1691995Y35268D01*
X1699482Y35268D01*
X1699482Y34176D01*
X1693333Y34176D01*
X1693333Y31010D01*
X1699062Y31010D01*
X1699062Y29931D01*
X1693333Y29931D01*
X1693333Y26493D01*
X1699770Y26493D01*
X1699770Y25400D01*
G37*
G36*
X1671762Y25400D02*
X1665228Y25400D01*
X1665228Y26289D01*
X1665416Y26687D01*
X1665624Y27061D01*
X1665852Y27410D01*
X1666100Y27736D01*
X1666628Y28333D01*
X1667182Y28870D01*
X1667746Y29360D01*
X1668306Y29812D01*
X1668835Y30247D01*
X1669311Y30681D01*
X1669524Y30901D01*
X1669716Y31126D01*
X1669887Y31356D01*
X1670036Y31591D01*
X1670157Y31837D01*
X1670243Y32099D01*
X1670295Y32377D01*
X1670312Y32670D01*
X1670305Y32867D01*
X1670283Y33053D01*
X1670245Y33228D01*
X1670193Y33391D01*
X1670126Y33543D01*
X1670044Y33684D01*
X1669948Y33813D01*
X1669836Y33931D01*
X1669711Y34036D01*
X1669575Y34127D01*
X1669427Y34204D01*
X1669267Y34267D01*
X1669096Y34316D01*
X1668913Y34351D01*
X1668718Y34372D01*
X1668512Y34379D01*
X1668315Y34372D01*
X1668127Y34351D01*
X1667948Y34317D01*
X1667778Y34269D01*
X1667616Y34208D01*
X1667464Y34133D01*
X1667185Y33941D01*
X1667061Y33826D01*
X1666951Y33700D01*
X1666854Y33563D01*
X1666771Y33415D01*
X1666701Y33256D01*
X1666645Y33086D01*
X1666602Y32904D01*
X1666572Y32712D01*
X1665284Y32831D01*
X1665330Y33119D01*
X1665399Y33393D01*
X1665491Y33651D01*
X1665605Y33894D01*
X1665742Y34122D01*
X1665902Y34335D01*
X1666084Y34532D01*
X1666289Y34715D01*
X1666513Y34879D01*
X1666752Y35021D01*
X1667007Y35142D01*
X1667277Y35240D01*
X1667563Y35317D01*
X1667864Y35372D01*
X1668180Y35404D01*
X1668512Y35415D01*
X1668875Y35404D01*
X1669215Y35371D01*
X1669534Y35316D01*
X1669832Y35239D01*
X1670108Y35140D01*
X1670362Y35019D01*
X1670595Y34877D01*
X1670806Y34712D01*
X1670994Y34526D01*
X1671157Y34323D01*
X1671295Y34100D01*
X1671408Y33860D01*
X1671495Y33601D01*
X1671558Y33323D01*
X1671596Y33027D01*
X1671608Y32712D01*
X1671592Y32425D01*
X1671542Y32139D01*
X1671460Y31854D01*
X1671345Y31570D01*
X1671198Y31287D01*
X1671019Y31003D01*
X1670808Y30719D01*
X1670565Y30436D01*
X1670246Y30113D01*
X1669810Y29713D01*
X1669255Y29234D01*
X1668582Y28678D01*
X1667859Y28052D01*
X1667559Y27763D01*
X1667301Y27491D01*
X1667079Y27229D01*
X1666891Y26971D01*
X1666736Y26719D01*
X1666614Y26472D01*
X1671762Y26472D01*
X1671762Y25400D01*
G37*
G36*
X1660551Y25260D02*
X1660245Y25270D01*
X1659956Y25300D01*
X1659682Y25351D01*
X1659424Y25422D01*
X1659183Y25513D01*
X1658957Y25624D01*
X1658747Y25756D01*
X1658553Y25908D01*
X1658375Y26080D01*
X1658213Y26272D01*
X1658066Y26485D01*
X1657936Y26718D01*
X1657822Y26971D01*
X1657723Y27244D01*
X1657641Y27538D01*
X1657574Y27851D01*
X1658884Y28068D01*
X1658967Y27685D01*
X1659089Y27345D01*
X1659250Y27051D01*
X1659451Y26801D01*
X1659686Y26602D01*
X1659948Y26459D01*
X1660090Y26410D01*
X1660239Y26374D01*
X1660395Y26353D01*
X1660558Y26346D01*
X1660735Y26353D01*
X1660903Y26377D01*
X1661061Y26416D01*
X1661209Y26471D01*
X1661348Y26541D01*
X1661477Y26627D01*
X1661596Y26729D01*
X1661706Y26846D01*
X1661805Y26979D01*
X1661890Y27126D01*
X1661962Y27287D01*
X1662022Y27463D01*
X1662067Y27654D01*
X1662100Y27859D01*
X1662120Y28079D01*
X1662127Y28314D01*
X1662127Y34176D01*
X1660229Y34176D01*
X1660229Y35268D01*
X1663457Y35268D01*
X1663457Y28342D01*
X1663445Y27992D01*
X1663409Y27662D01*
X1663348Y27351D01*
X1663263Y27059D01*
X1663154Y26786D01*
X1663020Y26533D01*
X1662862Y26298D01*
X1662680Y26083D01*
X1662477Y25890D01*
X1662255Y25723D01*
X1662016Y25581D01*
X1661759Y25466D01*
X1661484Y25376D01*
X1661191Y25311D01*
X1660880Y25273D01*
X1660551Y25260D01*
G37*
G36*
X1552883Y92710D02*
X1549192Y92710D01*
X1549192Y102578D01*
X1552455Y102578D01*
X1553064Y102559D01*
X1553638Y102500D01*
X1554175Y102402D01*
X1554676Y102264D01*
X1555142Y102087D01*
X1555572Y101871D01*
X1555967Y101616D01*
X1556325Y101321D01*
X1556644Y100990D01*
X1556921Y100626D01*
X1557155Y100229D01*
X1557347Y99799D01*
X1557496Y99335D01*
X1557602Y98839D01*
X1557666Y98309D01*
X1557687Y97746D01*
X1557678Y97370D01*
X1557650Y97006D01*
X1557604Y96654D01*
X1557538Y96314D01*
X1557455Y95986D01*
X1557352Y95670D01*
X1557231Y95366D01*
X1557092Y95074D01*
X1556935Y94796D01*
X1556763Y94535D01*
X1556575Y94290D01*
X1556372Y94063D01*
X1556154Y93852D01*
X1555919Y93657D01*
X1555669Y93480D01*
X1555404Y93319D01*
X1555126Y93177D01*
X1554837Y93053D01*
X1554537Y92948D01*
X1554227Y92862D01*
X1553907Y92796D01*
X1553576Y92748D01*
X1553235Y92720D01*
X1552883Y92710D01*
G37*
%LPC*%
G36*
X1552729Y93782D02*
X1552996Y93789D01*
X1553255Y93811D01*
X1553506Y93849D01*
X1553748Y93901D01*
X1553983Y93968D01*
X1554209Y94049D01*
X1554427Y94146D01*
X1554637Y94258D01*
X1554837Y94383D01*
X1555025Y94522D01*
X1555201Y94674D01*
X1555365Y94839D01*
X1555517Y95017D01*
X1555657Y95209D01*
X1555785Y95413D01*
X1555901Y95631D01*
X1556005Y95860D01*
X1556094Y96099D01*
X1556170Y96348D01*
X1556232Y96608D01*
X1556280Y96877D01*
X1556315Y97157D01*
X1556336Y97446D01*
X1556342Y97746D01*
X1556327Y98191D01*
X1556280Y98609D01*
X1556201Y98999D01*
X1556091Y99363D01*
X1555950Y99699D01*
X1555777Y100008D01*
X1555573Y100289D01*
X1555337Y100544D01*
X1555072Y100769D01*
X1554779Y100965D01*
X1554457Y101131D01*
X1554107Y101266D01*
X1553730Y101371D01*
X1553324Y101447D01*
X1552890Y101492D01*
X1552427Y101507D01*
X1550529Y101507D01*
X1550529Y93782D01*
X1552729Y93782D01*
G37*
%LPD*%
G36*
X1577615Y92570D02*
X1577235Y92580D01*
X1576868Y92608D01*
X1576515Y92657D01*
X1576174Y92724D01*
X1575847Y92811D01*
X1575534Y92917D01*
X1575234Y93042D01*
X1574947Y93186D01*
X1574675Y93349D01*
X1574420Y93528D01*
X1574181Y93725D01*
X1573958Y93938D01*
X1573753Y94169D01*
X1573563Y94416D01*
X1573391Y94680D01*
X1573234Y94962D01*
X1573096Y95258D01*
X1572976Y95567D01*
X1572874Y95889D01*
X1572791Y96223D01*
X1572726Y96571D01*
X1572680Y96931D01*
X1572652Y97304D01*
X1572643Y97690D01*
X1572663Y98273D01*
X1572723Y98823D01*
X1572824Y99339D01*
X1572965Y99821D01*
X1573146Y100269D01*
X1573368Y100682D01*
X1573629Y101063D01*
X1573931Y101409D01*
X1574270Y101717D01*
X1574641Y101985D01*
X1575045Y102211D01*
X1575481Y102396D01*
X1575950Y102540D01*
X1576451Y102643D01*
X1576986Y102705D01*
X1577552Y102725D01*
X1577952Y102717D01*
X1578333Y102691D01*
X1578695Y102648D01*
X1579037Y102587D01*
X1579360Y102509D01*
X1579664Y102414D01*
X1579948Y102302D01*
X1580214Y102172D01*
X1580462Y102023D01*
X1580696Y101854D01*
X1580915Y101664D01*
X1581119Y101452D01*
X1581309Y101221D01*
X1581484Y100968D01*
X1581644Y100694D01*
X1581790Y100400D01*
X1580515Y100022D01*
X1580285Y100414D01*
X1580155Y100588D01*
X1580015Y100749D01*
X1579865Y100895D01*
X1579705Y101027D01*
X1579536Y101144D01*
X1579356Y101248D01*
X1579165Y101338D01*
X1578964Y101416D01*
X1578751Y101482D01*
X1578527Y101537D01*
X1578291Y101579D01*
X1578045Y101609D01*
X1577787Y101627D01*
X1577517Y101633D01*
X1577103Y101617D01*
X1576713Y101568D01*
X1576349Y101488D01*
X1576010Y101375D01*
X1575696Y101229D01*
X1575407Y101052D01*
X1575143Y100842D01*
X1574905Y100600D01*
X1574693Y100328D01*
X1574510Y100030D01*
X1574354Y99706D01*
X1574227Y99356D01*
X1574128Y98979D01*
X1574058Y98575D01*
X1574015Y98146D01*
X1574001Y97690D01*
X1574016Y97234D01*
X1574061Y96804D01*
X1574136Y96398D01*
X1574241Y96017D01*
X1574376Y95660D01*
X1574541Y95328D01*
X1574736Y95020D01*
X1574961Y94738D01*
X1575212Y94484D01*
X1575487Y94264D01*
X1575784Y94078D01*
X1576104Y93926D01*
X1576448Y93808D01*
X1576814Y93723D01*
X1577203Y93672D01*
X1577615Y93656D01*
X1578090Y93674D01*
X1578549Y93729D01*
X1578992Y93821D01*
X1579419Y93950D01*
X1579817Y94110D01*
X1580176Y94296D01*
X1580495Y94509D01*
X1580774Y94748D01*
X1580774Y96527D01*
X1577825Y96527D01*
X1577825Y97648D01*
X1582007Y97648D01*
X1582007Y94244D01*
X1581592Y93867D01*
X1581134Y93536D01*
X1580631Y93249D01*
X1580084Y93008D01*
X1579797Y92905D01*
X1579503Y92816D01*
X1579203Y92741D01*
X1578898Y92679D01*
X1578586Y92632D01*
X1578269Y92597D01*
X1577945Y92577D01*
X1577615Y92570D01*
G37*
G36*
X1563223Y92570D02*
X1562784Y92580D01*
X1562368Y92609D01*
X1561977Y92658D01*
X1561609Y92727D01*
X1561264Y92815D01*
X1560944Y92923D01*
X1560647Y93050D01*
X1560374Y93197D01*
X1560124Y93363D01*
X1559899Y93549D01*
X1559696Y93755D01*
X1559518Y93980D01*
X1559363Y94225D01*
X1559232Y94490D01*
X1559125Y94774D01*
X1559041Y95077D01*
X1560337Y95336D01*
X1560401Y95121D01*
X1560481Y94921D01*
X1560576Y94736D01*
X1560687Y94565D01*
X1560814Y94409D01*
X1560957Y94268D01*
X1561115Y94142D01*
X1561290Y94030D01*
X1561480Y93933D01*
X1561687Y93848D01*
X1561910Y93776D01*
X1562149Y93718D01*
X1562405Y93672D01*
X1562678Y93640D01*
X1562966Y93620D01*
X1563272Y93613D01*
X1563586Y93620D01*
X1563882Y93641D01*
X1564160Y93676D01*
X1564419Y93725D01*
X1564660Y93787D01*
X1564882Y93864D01*
X1565086Y93954D01*
X1565271Y94058D01*
X1565436Y94176D01*
X1565579Y94307D01*
X1565700Y94450D01*
X1565799Y94607D01*
X1565876Y94777D01*
X1565931Y94960D01*
X1565964Y95156D01*
X1565975Y95364D01*
X1565961Y95595D01*
X1565920Y95802D01*
X1565851Y95987D01*
X1565754Y96149D01*
X1565633Y96293D01*
X1565489Y96424D01*
X1565323Y96542D01*
X1565135Y96646D01*
X1564697Y96826D01*
X1564182Y96975D01*
X1562956Y97262D01*
X1562407Y97392D01*
X1561928Y97522D01*
X1561519Y97651D01*
X1561181Y97781D01*
X1560894Y97914D01*
X1560639Y98055D01*
X1560416Y98203D01*
X1560225Y98359D01*
X1560060Y98525D01*
X1559916Y98704D01*
X1559792Y98898D01*
X1559689Y99104D01*
X1559608Y99326D01*
X1559550Y99563D01*
X1559515Y99816D01*
X1559504Y100085D01*
X1559519Y100393D01*
X1559564Y100682D01*
X1559640Y100954D01*
X1559746Y101207D01*
X1559883Y101443D01*
X1560049Y101660D01*
X1560246Y101858D01*
X1560474Y102039D01*
X1560729Y102200D01*
X1561011Y102339D01*
X1561319Y102457D01*
X1561653Y102554D01*
X1562013Y102629D01*
X1562399Y102683D01*
X1562812Y102715D01*
X1563251Y102725D01*
X1563658Y102717D01*
X1564042Y102693D01*
X1564400Y102653D01*
X1564734Y102597D01*
X1565043Y102524D01*
X1565327Y102436D01*
X1565586Y102331D01*
X1565821Y102211D01*
X1566035Y102071D01*
X1566232Y101908D01*
X1566413Y101723D01*
X1566577Y101515D01*
X1566725Y101284D01*
X1566856Y101031D01*
X1566970Y100755D01*
X1567068Y100456D01*
X1565751Y100225D01*
X1565691Y100414D01*
X1565618Y100590D01*
X1565533Y100753D01*
X1565436Y100902D01*
X1565326Y101037D01*
X1565205Y101159D01*
X1565071Y101268D01*
X1564925Y101363D01*
X1564765Y101446D01*
X1564591Y101518D01*
X1564402Y101579D01*
X1564198Y101628D01*
X1563747Y101695D01*
X1563237Y101717D01*
X1562949Y101711D01*
X1562680Y101692D01*
X1562428Y101662D01*
X1562193Y101619D01*
X1561976Y101564D01*
X1561776Y101496D01*
X1561594Y101417D01*
X1561430Y101325D01*
X1561284Y101221D01*
X1561157Y101104D01*
X1561050Y100976D01*
X1560962Y100836D01*
X1560894Y100684D01*
X1560845Y100520D01*
X1560816Y100343D01*
X1560806Y100155D01*
X1560821Y99937D01*
X1560867Y99739D01*
X1560942Y99561D01*
X1561048Y99402D01*
X1561182Y99259D01*
X1561343Y99127D01*
X1561531Y99007D01*
X1561745Y98898D01*
X1562029Y98789D01*
X1562426Y98668D01*
X1562936Y98535D01*
X1563559Y98390D01*
X1564466Y98176D01*
X1564908Y98057D01*
X1565331Y97917D01*
X1565731Y97754D01*
X1566105Y97564D01*
X1566442Y97338D01*
X1566732Y97066D01*
X1566857Y96913D01*
X1566969Y96746D01*
X1567066Y96566D01*
X1567148Y96373D01*
X1567214Y96165D01*
X1567261Y95939D01*
X1567289Y95695D01*
X1567299Y95434D01*
X1567282Y95103D01*
X1567232Y94790D01*
X1567149Y94497D01*
X1567032Y94223D01*
X1566882Y93968D01*
X1566698Y93733D01*
X1566481Y93516D01*
X1566231Y93319D01*
X1565950Y93144D01*
X1565642Y92991D01*
X1565307Y92863D01*
X1564945Y92757D01*
X1564555Y92675D01*
X1564138Y92617D01*
X1563694Y92582D01*
X1563223Y92570D01*
G37*
G36*
X1547302Y92710D02*
X1540768Y92710D01*
X1540768Y93599D01*
X1540956Y93997D01*
X1541164Y94371D01*
X1541392Y94720D01*
X1541640Y95046D01*
X1542168Y95643D01*
X1542722Y96180D01*
X1543286Y96670D01*
X1543846Y97122D01*
X1544375Y97557D01*
X1544851Y97991D01*
X1545064Y98211D01*
X1545256Y98436D01*
X1545427Y98666D01*
X1545576Y98901D01*
X1545697Y99147D01*
X1545783Y99409D01*
X1545835Y99687D01*
X1545852Y99980D01*
X1545845Y100177D01*
X1545823Y100363D01*
X1545785Y100538D01*
X1545733Y100701D01*
X1545666Y100853D01*
X1545584Y100994D01*
X1545488Y101123D01*
X1545376Y101241D01*
X1545251Y101346D01*
X1545115Y101437D01*
X1544967Y101514D01*
X1544807Y101577D01*
X1544636Y101626D01*
X1544453Y101661D01*
X1544258Y101682D01*
X1544052Y101689D01*
X1543855Y101682D01*
X1543667Y101661D01*
X1543488Y101627D01*
X1543318Y101579D01*
X1543156Y101518D01*
X1543004Y101443D01*
X1542725Y101251D01*
X1542601Y101136D01*
X1542491Y101010D01*
X1542394Y100873D01*
X1542311Y100725D01*
X1542241Y100566D01*
X1542185Y100396D01*
X1542142Y100214D01*
X1542112Y100022D01*
X1540824Y100141D01*
X1540870Y100429D01*
X1540939Y100703D01*
X1541031Y100961D01*
X1541145Y101204D01*
X1541282Y101432D01*
X1541442Y101645D01*
X1541624Y101842D01*
X1541829Y102025D01*
X1542053Y102189D01*
X1542292Y102331D01*
X1542547Y102452D01*
X1542817Y102550D01*
X1543103Y102627D01*
X1543404Y102682D01*
X1543720Y102714D01*
X1544052Y102725D01*
X1544415Y102714D01*
X1544755Y102681D01*
X1545074Y102626D01*
X1545372Y102549D01*
X1545648Y102450D01*
X1545902Y102329D01*
X1546135Y102187D01*
X1546346Y102022D01*
X1546534Y101836D01*
X1546697Y101633D01*
X1546835Y101410D01*
X1546948Y101170D01*
X1547035Y100911D01*
X1547098Y100633D01*
X1547136Y100337D01*
X1547148Y100022D01*
X1547132Y99735D01*
X1547082Y99449D01*
X1547000Y99164D01*
X1546885Y98880D01*
X1546738Y98597D01*
X1546559Y98313D01*
X1546348Y98029D01*
X1546105Y97746D01*
X1545786Y97423D01*
X1545350Y97023D01*
X1544795Y96544D01*
X1544122Y95988D01*
X1543399Y95362D01*
X1543099Y95073D01*
X1542841Y94801D01*
X1542619Y94539D01*
X1542431Y94281D01*
X1542276Y94029D01*
X1542154Y93782D01*
X1547302Y93782D01*
X1547302Y92710D01*
G37*
G36*
X1536091Y92570D02*
X1535785Y92580D01*
X1535496Y92610D01*
X1535222Y92661D01*
X1534964Y92732D01*
X1534723Y92823D01*
X1534497Y92934D01*
X1534287Y93066D01*
X1534093Y93218D01*
X1533915Y93390D01*
X1533753Y93582D01*
X1533606Y93795D01*
X1533476Y94028D01*
X1533362Y94281D01*
X1533263Y94554D01*
X1533181Y94848D01*
X1533114Y95161D01*
X1534424Y95378D01*
X1534507Y94995D01*
X1534629Y94655D01*
X1534790Y94361D01*
X1534991Y94111D01*
X1535226Y93912D01*
X1535488Y93769D01*
X1535630Y93720D01*
X1535779Y93684D01*
X1535935Y93663D01*
X1536098Y93656D01*
X1536275Y93663D01*
X1536443Y93687D01*
X1536601Y93726D01*
X1536749Y93781D01*
X1536888Y93851D01*
X1537017Y93937D01*
X1537136Y94039D01*
X1537246Y94156D01*
X1537345Y94289D01*
X1537430Y94436D01*
X1537502Y94597D01*
X1537562Y94773D01*
X1537607Y94964D01*
X1537640Y95169D01*
X1537660Y95389D01*
X1537667Y95624D01*
X1537667Y101486D01*
X1535769Y101486D01*
X1535769Y102578D01*
X1538997Y102578D01*
X1538997Y95652D01*
X1538985Y95302D01*
X1538949Y94972D01*
X1538888Y94661D01*
X1538803Y94369D01*
X1538694Y94096D01*
X1538560Y93843D01*
X1538402Y93608D01*
X1538220Y93393D01*
X1538017Y93200D01*
X1537795Y93033D01*
X1537556Y92891D01*
X1537299Y92776D01*
X1537024Y92686D01*
X1536731Y92621D01*
X1536420Y92583D01*
X1536091Y92570D01*
G37*
G36*
X1570614Y92710D02*
X1569276Y92710D01*
X1569276Y102578D01*
X1570614Y102578D01*
X1570614Y92710D01*
G37*
G36*
X1471789Y92710D02*
X1470452Y92710D01*
X1470452Y102578D01*
X1475095Y102578D01*
X1475500Y102567D01*
X1475881Y102532D01*
X1476238Y102473D01*
X1476572Y102392D01*
X1476882Y102287D01*
X1477168Y102159D01*
X1477430Y102007D01*
X1477669Y101832D01*
X1477882Y101637D01*
X1478066Y101423D01*
X1478222Y101191D01*
X1478349Y100940D01*
X1478448Y100672D01*
X1478519Y100385D01*
X1478562Y100079D01*
X1478576Y99756D01*
X1478566Y99486D01*
X1478536Y99228D01*
X1478486Y98980D01*
X1478416Y98744D01*
X1478326Y98518D01*
X1478216Y98303D01*
X1478085Y98100D01*
X1477935Y97907D01*
X1477767Y97728D01*
X1477584Y97567D01*
X1477386Y97423D01*
X1477297Y97370D01*
X1477173Y97296D01*
X1476944Y97186D01*
X1476700Y97094D01*
X1476441Y97019D01*
X1476167Y96961D01*
X1477359Y95152D01*
X1478968Y92710D01*
X1477427Y92710D01*
X1474864Y96807D01*
X1471789Y96807D01*
X1471789Y92710D01*
G37*
%LPC*%
G36*
X1475018Y97865D02*
X1475275Y97873D01*
X1475517Y97896D01*
X1475744Y97934D01*
X1475956Y97988D01*
X1476153Y98058D01*
X1476335Y98143D01*
X1476502Y98243D01*
X1476653Y98359D01*
X1476789Y98488D01*
X1476906Y98630D01*
X1477006Y98785D01*
X1477087Y98951D01*
X1477150Y99130D01*
X1477195Y99322D01*
X1477222Y99526D01*
X1477231Y99742D01*
X1477222Y99951D01*
X1477195Y100147D01*
X1477149Y100330D01*
X1477085Y100501D01*
X1477003Y100659D01*
X1476902Y100804D01*
X1476784Y100936D01*
X1476646Y101055D01*
X1476492Y101161D01*
X1476322Y101253D01*
X1476135Y101330D01*
X1475933Y101394D01*
X1475714Y101443D01*
X1475480Y101479D01*
X1475229Y101500D01*
X1474962Y101507D01*
X1471789Y101507D01*
X1471789Y97865D01*
X1475018Y97865D01*
G37*
%LPD*%
G36*
X1498875Y92570D02*
X1498495Y92580D01*
X1498128Y92608D01*
X1497775Y92657D01*
X1497434Y92724D01*
X1497107Y92811D01*
X1496794Y92917D01*
X1496494Y93042D01*
X1496207Y93186D01*
X1495935Y93349D01*
X1495680Y93528D01*
X1495441Y93725D01*
X1495218Y93938D01*
X1495013Y94169D01*
X1494823Y94416D01*
X1494651Y94680D01*
X1494494Y94962D01*
X1494356Y95258D01*
X1494236Y95567D01*
X1494134Y95889D01*
X1494051Y96223D01*
X1493986Y96571D01*
X1493940Y96931D01*
X1493912Y97304D01*
X1493903Y97690D01*
X1493923Y98273D01*
X1493983Y98823D01*
X1494084Y99339D01*
X1494225Y99821D01*
X1494406Y100269D01*
X1494628Y100682D01*
X1494889Y101063D01*
X1495191Y101409D01*
X1495530Y101717D01*
X1495901Y101985D01*
X1496305Y102211D01*
X1496741Y102396D01*
X1497210Y102540D01*
X1497711Y102643D01*
X1498246Y102705D01*
X1498812Y102725D01*
X1499212Y102717D01*
X1499593Y102691D01*
X1499955Y102648D01*
X1500297Y102587D01*
X1500620Y102509D01*
X1500924Y102414D01*
X1501208Y102302D01*
X1501474Y102172D01*
X1501722Y102023D01*
X1501956Y101854D01*
X1502175Y101664D01*
X1502379Y101452D01*
X1502569Y101221D01*
X1502744Y100968D01*
X1502904Y100694D01*
X1503050Y100400D01*
X1501775Y100022D01*
X1501545Y100414D01*
X1501415Y100588D01*
X1501275Y100749D01*
X1501125Y100895D01*
X1500965Y101027D01*
X1500796Y101144D01*
X1500616Y101248D01*
X1500425Y101338D01*
X1500224Y101416D01*
X1500011Y101482D01*
X1499787Y101537D01*
X1499551Y101579D01*
X1499305Y101609D01*
X1499047Y101627D01*
X1498777Y101633D01*
X1498363Y101617D01*
X1497973Y101568D01*
X1497609Y101488D01*
X1497270Y101375D01*
X1496956Y101229D01*
X1496667Y101052D01*
X1496403Y100842D01*
X1496165Y100600D01*
X1495953Y100328D01*
X1495770Y100030D01*
X1495614Y99706D01*
X1495487Y99356D01*
X1495388Y98979D01*
X1495318Y98575D01*
X1495275Y98146D01*
X1495261Y97690D01*
X1495276Y97234D01*
X1495321Y96804D01*
X1495396Y96398D01*
X1495501Y96017D01*
X1495636Y95660D01*
X1495801Y95328D01*
X1495996Y95020D01*
X1496221Y94738D01*
X1496472Y94484D01*
X1496747Y94264D01*
X1497044Y94078D01*
X1497364Y93926D01*
X1497708Y93808D01*
X1498074Y93723D01*
X1498463Y93672D01*
X1498875Y93656D01*
X1499350Y93674D01*
X1499809Y93729D01*
X1500252Y93821D01*
X1500679Y93950D01*
X1501077Y94110D01*
X1501436Y94296D01*
X1501755Y94509D01*
X1502034Y94748D01*
X1502034Y96527D01*
X1499085Y96527D01*
X1499085Y97648D01*
X1503267Y97648D01*
X1503267Y94244D01*
X1502852Y93867D01*
X1502394Y93536D01*
X1501891Y93249D01*
X1501344Y93008D01*
X1501057Y92905D01*
X1500763Y92816D01*
X1500463Y92741D01*
X1500158Y92679D01*
X1499846Y92632D01*
X1499529Y92597D01*
X1499205Y92577D01*
X1498875Y92570D01*
G37*
G36*
X1484483Y92570D02*
X1484044Y92580D01*
X1483628Y92609D01*
X1483237Y92658D01*
X1482869Y92727D01*
X1482524Y92815D01*
X1482204Y92923D01*
X1481907Y93050D01*
X1481634Y93197D01*
X1481384Y93363D01*
X1481159Y93549D01*
X1480956Y93755D01*
X1480778Y93980D01*
X1480623Y94225D01*
X1480492Y94490D01*
X1480385Y94774D01*
X1480301Y95077D01*
X1481597Y95336D01*
X1481661Y95121D01*
X1481741Y94921D01*
X1481836Y94736D01*
X1481947Y94565D01*
X1482074Y94409D01*
X1482217Y94268D01*
X1482375Y94142D01*
X1482550Y94030D01*
X1482740Y93933D01*
X1482947Y93848D01*
X1483170Y93776D01*
X1483409Y93718D01*
X1483665Y93672D01*
X1483938Y93640D01*
X1484226Y93620D01*
X1484532Y93613D01*
X1484846Y93620D01*
X1485142Y93641D01*
X1485420Y93676D01*
X1485679Y93725D01*
X1485920Y93787D01*
X1486142Y93864D01*
X1486346Y93954D01*
X1486531Y94058D01*
X1486696Y94176D01*
X1486839Y94307D01*
X1486960Y94450D01*
X1487059Y94607D01*
X1487136Y94777D01*
X1487191Y94960D01*
X1487224Y95156D01*
X1487235Y95364D01*
X1487221Y95595D01*
X1487180Y95802D01*
X1487111Y95987D01*
X1487014Y96149D01*
X1486893Y96293D01*
X1486749Y96424D01*
X1486583Y96542D01*
X1486395Y96646D01*
X1485957Y96826D01*
X1485442Y96975D01*
X1484216Y97262D01*
X1483667Y97392D01*
X1483188Y97522D01*
X1482779Y97651D01*
X1482441Y97781D01*
X1482154Y97914D01*
X1481899Y98055D01*
X1481676Y98203D01*
X1481485Y98359D01*
X1481320Y98525D01*
X1481176Y98704D01*
X1481052Y98898D01*
X1480949Y99104D01*
X1480868Y99326D01*
X1480810Y99563D01*
X1480775Y99816D01*
X1480764Y100085D01*
X1480779Y100393D01*
X1480824Y100682D01*
X1480900Y100954D01*
X1481006Y101207D01*
X1481143Y101443D01*
X1481309Y101660D01*
X1481506Y101858D01*
X1481734Y102039D01*
X1481989Y102200D01*
X1482271Y102339D01*
X1482579Y102457D01*
X1482913Y102554D01*
X1483273Y102629D01*
X1483659Y102683D01*
X1484072Y102715D01*
X1484511Y102725D01*
X1484918Y102717D01*
X1485302Y102693D01*
X1485660Y102653D01*
X1485994Y102597D01*
X1486303Y102524D01*
X1486587Y102436D01*
X1486846Y102331D01*
X1487081Y102211D01*
X1487295Y102071D01*
X1487492Y101908D01*
X1487673Y101723D01*
X1487837Y101515D01*
X1487985Y101284D01*
X1488116Y101031D01*
X1488230Y100755D01*
X1488328Y100456D01*
X1487011Y100225D01*
X1486951Y100414D01*
X1486878Y100590D01*
X1486793Y100753D01*
X1486696Y100902D01*
X1486586Y101037D01*
X1486465Y101159D01*
X1486331Y101268D01*
X1486185Y101363D01*
X1486025Y101446D01*
X1485851Y101518D01*
X1485662Y101579D01*
X1485458Y101628D01*
X1485007Y101695D01*
X1484497Y101717D01*
X1484209Y101711D01*
X1483940Y101692D01*
X1483688Y101662D01*
X1483453Y101619D01*
X1483236Y101564D01*
X1483036Y101496D01*
X1482854Y101417D01*
X1482690Y101325D01*
X1482544Y101221D01*
X1482417Y101104D01*
X1482310Y100976D01*
X1482222Y100836D01*
X1482154Y100684D01*
X1482105Y100520D01*
X1482076Y100343D01*
X1482066Y100155D01*
X1482081Y99937D01*
X1482127Y99739D01*
X1482202Y99561D01*
X1482308Y99402D01*
X1482442Y99259D01*
X1482603Y99127D01*
X1482791Y99007D01*
X1483005Y98898D01*
X1483289Y98789D01*
X1483686Y98668D01*
X1484196Y98535D01*
X1484819Y98390D01*
X1485726Y98176D01*
X1486168Y98057D01*
X1486591Y97917D01*
X1486991Y97754D01*
X1487365Y97564D01*
X1487702Y97338D01*
X1487992Y97066D01*
X1488117Y96913D01*
X1488229Y96746D01*
X1488326Y96566D01*
X1488408Y96373D01*
X1488474Y96165D01*
X1488521Y95939D01*
X1488549Y95695D01*
X1488559Y95434D01*
X1488542Y95103D01*
X1488492Y94790D01*
X1488409Y94497D01*
X1488292Y94223D01*
X1488142Y93968D01*
X1487958Y93733D01*
X1487741Y93516D01*
X1487491Y93319D01*
X1487210Y93144D01*
X1486902Y92991D01*
X1486567Y92863D01*
X1486205Y92757D01*
X1485815Y92675D01*
X1485398Y92617D01*
X1484954Y92582D01*
X1484483Y92570D01*
G37*
G36*
X1468562Y92710D02*
X1462028Y92710D01*
X1462028Y93599D01*
X1462216Y93997D01*
X1462424Y94371D01*
X1462652Y94720D01*
X1462900Y95046D01*
X1463428Y95643D01*
X1463982Y96180D01*
X1464546Y96670D01*
X1465106Y97122D01*
X1465635Y97557D01*
X1466111Y97991D01*
X1466324Y98211D01*
X1466516Y98436D01*
X1466687Y98666D01*
X1466836Y98901D01*
X1466957Y99147D01*
X1467043Y99409D01*
X1467095Y99687D01*
X1467112Y99980D01*
X1467105Y100177D01*
X1467083Y100363D01*
X1467045Y100538D01*
X1466993Y100701D01*
X1466926Y100853D01*
X1466844Y100994D01*
X1466748Y101123D01*
X1466636Y101241D01*
X1466511Y101346D01*
X1466375Y101437D01*
X1466227Y101514D01*
X1466067Y101577D01*
X1465896Y101626D01*
X1465713Y101661D01*
X1465518Y101682D01*
X1465312Y101689D01*
X1465115Y101682D01*
X1464927Y101661D01*
X1464748Y101627D01*
X1464578Y101579D01*
X1464416Y101518D01*
X1464264Y101443D01*
X1463985Y101251D01*
X1463861Y101136D01*
X1463751Y101010D01*
X1463654Y100873D01*
X1463571Y100725D01*
X1463501Y100566D01*
X1463445Y100396D01*
X1463402Y100214D01*
X1463372Y100022D01*
X1462084Y100141D01*
X1462130Y100429D01*
X1462199Y100703D01*
X1462291Y100961D01*
X1462405Y101204D01*
X1462542Y101432D01*
X1462702Y101645D01*
X1462884Y101842D01*
X1463089Y102025D01*
X1463313Y102189D01*
X1463552Y102331D01*
X1463807Y102452D01*
X1464077Y102550D01*
X1464363Y102627D01*
X1464664Y102682D01*
X1464980Y102714D01*
X1465312Y102725D01*
X1465675Y102714D01*
X1466015Y102681D01*
X1466334Y102626D01*
X1466632Y102549D01*
X1466908Y102450D01*
X1467162Y102329D01*
X1467395Y102187D01*
X1467606Y102022D01*
X1467794Y101836D01*
X1467957Y101633D01*
X1468095Y101410D01*
X1468208Y101170D01*
X1468295Y100911D01*
X1468358Y100633D01*
X1468396Y100337D01*
X1468408Y100022D01*
X1468392Y99735D01*
X1468342Y99449D01*
X1468260Y99164D01*
X1468145Y98880D01*
X1467998Y98597D01*
X1467819Y98313D01*
X1467608Y98029D01*
X1467365Y97746D01*
X1467046Y97423D01*
X1466610Y97023D01*
X1466055Y96544D01*
X1465382Y95988D01*
X1464659Y95362D01*
X1464359Y95073D01*
X1464101Y94801D01*
X1463879Y94539D01*
X1463691Y94281D01*
X1463536Y94029D01*
X1463414Y93782D01*
X1468562Y93782D01*
X1468562Y92710D01*
G37*
G36*
X1457351Y92570D02*
X1457045Y92580D01*
X1456756Y92610D01*
X1456482Y92661D01*
X1456224Y92732D01*
X1455983Y92823D01*
X1455757Y92934D01*
X1455547Y93066D01*
X1455353Y93218D01*
X1455175Y93390D01*
X1455013Y93582D01*
X1454866Y93795D01*
X1454736Y94028D01*
X1454622Y94281D01*
X1454523Y94554D01*
X1454441Y94848D01*
X1454374Y95161D01*
X1455684Y95378D01*
X1455767Y94995D01*
X1455889Y94655D01*
X1456050Y94361D01*
X1456251Y94111D01*
X1456486Y93912D01*
X1456748Y93769D01*
X1456890Y93720D01*
X1457039Y93684D01*
X1457195Y93663D01*
X1457358Y93656D01*
X1457535Y93663D01*
X1457703Y93687D01*
X1457861Y93726D01*
X1458009Y93781D01*
X1458148Y93851D01*
X1458277Y93937D01*
X1458396Y94039D01*
X1458506Y94156D01*
X1458605Y94289D01*
X1458690Y94436D01*
X1458762Y94597D01*
X1458822Y94773D01*
X1458867Y94964D01*
X1458900Y95169D01*
X1458920Y95389D01*
X1458927Y95624D01*
X1458927Y101486D01*
X1457029Y101486D01*
X1457029Y102578D01*
X1460257Y102578D01*
X1460257Y95652D01*
X1460245Y95302D01*
X1460209Y94972D01*
X1460148Y94661D01*
X1460063Y94369D01*
X1459954Y94096D01*
X1459820Y93843D01*
X1459662Y93608D01*
X1459480Y93393D01*
X1459277Y93200D01*
X1459055Y93033D01*
X1458816Y92891D01*
X1458559Y92776D01*
X1458284Y92686D01*
X1457991Y92621D01*
X1457680Y92583D01*
X1457351Y92570D01*
G37*
G36*
X1491874Y92710D02*
X1490536Y92710D01*
X1490536Y102578D01*
X1491874Y102578D01*
X1491874Y92710D01*
G37*
G36*
X1673719Y92710D02*
X1672382Y92710D01*
X1672382Y102578D01*
X1677025Y102578D01*
X1677430Y102567D01*
X1677811Y102532D01*
X1678168Y102473D01*
X1678502Y102392D01*
X1678812Y102287D01*
X1679098Y102159D01*
X1679360Y102007D01*
X1679599Y101832D01*
X1679812Y101637D01*
X1679996Y101423D01*
X1680152Y101191D01*
X1680279Y100940D01*
X1680378Y100672D01*
X1680449Y100385D01*
X1680492Y100079D01*
X1680506Y99756D01*
X1680496Y99486D01*
X1680466Y99228D01*
X1680416Y98980D01*
X1680346Y98744D01*
X1680256Y98518D01*
X1680146Y98303D01*
X1680015Y98100D01*
X1679865Y97907D01*
X1679697Y97728D01*
X1679514Y97567D01*
X1679316Y97423D01*
X1679227Y97370D01*
X1679103Y97296D01*
X1678874Y97186D01*
X1678630Y97094D01*
X1678371Y97019D01*
X1678097Y96961D01*
X1679289Y95152D01*
X1680898Y92710D01*
X1679357Y92710D01*
X1676794Y96807D01*
X1673719Y96807D01*
X1673719Y92710D01*
G37*
%LPC*%
G36*
X1676948Y97865D02*
X1677205Y97873D01*
X1677447Y97896D01*
X1677674Y97934D01*
X1677886Y97988D01*
X1678083Y98058D01*
X1678265Y98143D01*
X1678432Y98243D01*
X1678583Y98359D01*
X1678719Y98488D01*
X1678836Y98630D01*
X1678936Y98785D01*
X1679017Y98951D01*
X1679080Y99130D01*
X1679125Y99322D01*
X1679152Y99526D01*
X1679161Y99742D01*
X1679152Y99951D01*
X1679125Y100147D01*
X1679079Y100330D01*
X1679015Y100501D01*
X1678933Y100659D01*
X1678832Y100804D01*
X1678714Y100936D01*
X1678576Y101055D01*
X1678422Y101161D01*
X1678252Y101253D01*
X1678065Y101330D01*
X1677863Y101394D01*
X1677644Y101443D01*
X1677410Y101479D01*
X1677159Y101500D01*
X1676892Y101507D01*
X1673719Y101507D01*
X1673719Y97865D01*
X1676948Y97865D01*
G37*
%LPD*%
G36*
X1701479Y92710D02*
X1700288Y92710D01*
X1700288Y102578D01*
X1701843Y102578D01*
X1707180Y94118D01*
X1707117Y95301D01*
X1707096Y96107D01*
X1707096Y102578D01*
X1708300Y102578D01*
X1708300Y92710D01*
X1706689Y92710D01*
X1701408Y101115D01*
X1701444Y100435D01*
X1701479Y99266D01*
X1701479Y92710D01*
G37*
G36*
X1687750Y92710D02*
X1686560Y92710D01*
X1686560Y94944D01*
X1681909Y94944D01*
X1681909Y95925D01*
X1686427Y102578D01*
X1687750Y102578D01*
X1687750Y95939D01*
X1689137Y95939D01*
X1689137Y94944D01*
X1687750Y94944D01*
X1687750Y92710D01*
G37*
%LPC*%
G36*
X1686560Y95939D02*
X1686560Y101157D01*
X1686364Y100785D01*
X1686090Y100323D01*
X1683562Y96597D01*
X1683184Y96079D01*
X1683072Y95939D01*
X1686560Y95939D01*
G37*
%LPD*%
G36*
X1698500Y92710D02*
X1690725Y92710D01*
X1690725Y102578D01*
X1698212Y102578D01*
X1698212Y101486D01*
X1692063Y101486D01*
X1692063Y98320D01*
X1697792Y98320D01*
X1697792Y97241D01*
X1692063Y97241D01*
X1692063Y93803D01*
X1698500Y93803D01*
X1698500Y92710D01*
G37*
G36*
X1670492Y92710D02*
X1663958Y92710D01*
X1663958Y93599D01*
X1664146Y93997D01*
X1664354Y94371D01*
X1664582Y94720D01*
X1664830Y95046D01*
X1665358Y95643D01*
X1665912Y96180D01*
X1666476Y96670D01*
X1667036Y97122D01*
X1667565Y97557D01*
X1668041Y97991D01*
X1668254Y98211D01*
X1668446Y98436D01*
X1668617Y98666D01*
X1668766Y98901D01*
X1668887Y99147D01*
X1668973Y99409D01*
X1669025Y99687D01*
X1669042Y99980D01*
X1669035Y100177D01*
X1669013Y100363D01*
X1668975Y100538D01*
X1668923Y100701D01*
X1668856Y100853D01*
X1668774Y100994D01*
X1668678Y101123D01*
X1668566Y101241D01*
X1668441Y101346D01*
X1668305Y101437D01*
X1668157Y101514D01*
X1667997Y101577D01*
X1667826Y101626D01*
X1667643Y101661D01*
X1667448Y101682D01*
X1667242Y101689D01*
X1667045Y101682D01*
X1666857Y101661D01*
X1666678Y101627D01*
X1666508Y101579D01*
X1666346Y101518D01*
X1666194Y101443D01*
X1665915Y101251D01*
X1665791Y101136D01*
X1665681Y101010D01*
X1665584Y100873D01*
X1665501Y100725D01*
X1665431Y100566D01*
X1665375Y100396D01*
X1665332Y100214D01*
X1665302Y100022D01*
X1664014Y100141D01*
X1664060Y100429D01*
X1664129Y100703D01*
X1664221Y100961D01*
X1664335Y101204D01*
X1664472Y101432D01*
X1664632Y101645D01*
X1664814Y101842D01*
X1665019Y102025D01*
X1665243Y102189D01*
X1665482Y102331D01*
X1665737Y102452D01*
X1666007Y102550D01*
X1666293Y102627D01*
X1666594Y102682D01*
X1666910Y102714D01*
X1667242Y102725D01*
X1667605Y102714D01*
X1667945Y102681D01*
X1668264Y102626D01*
X1668562Y102549D01*
X1668838Y102450D01*
X1669092Y102329D01*
X1669325Y102187D01*
X1669536Y102022D01*
X1669724Y101836D01*
X1669887Y101633D01*
X1670025Y101410D01*
X1670138Y101170D01*
X1670225Y100911D01*
X1670288Y100633D01*
X1670326Y100337D01*
X1670338Y100022D01*
X1670322Y99735D01*
X1670272Y99449D01*
X1670190Y99164D01*
X1670075Y98880D01*
X1669928Y98597D01*
X1669749Y98313D01*
X1669538Y98029D01*
X1669295Y97746D01*
X1668976Y97423D01*
X1668540Y97023D01*
X1667985Y96544D01*
X1667312Y95988D01*
X1666589Y95362D01*
X1666289Y95073D01*
X1666031Y94801D01*
X1665809Y94539D01*
X1665621Y94281D01*
X1665466Y94029D01*
X1665344Y93782D01*
X1670492Y93782D01*
X1670492Y92710D01*
G37*
G36*
X1659281Y92570D02*
X1658975Y92580D01*
X1658686Y92610D01*
X1658412Y92661D01*
X1658154Y92732D01*
X1657913Y92823D01*
X1657687Y92934D01*
X1657477Y93066D01*
X1657283Y93218D01*
X1657105Y93390D01*
X1656943Y93582D01*
X1656796Y93795D01*
X1656666Y94028D01*
X1656552Y94281D01*
X1656453Y94554D01*
X1656371Y94848D01*
X1656304Y95161D01*
X1657614Y95378D01*
X1657697Y94995D01*
X1657819Y94655D01*
X1657980Y94361D01*
X1658181Y94111D01*
X1658416Y93912D01*
X1658678Y93769D01*
X1658820Y93720D01*
X1658969Y93684D01*
X1659125Y93663D01*
X1659288Y93656D01*
X1659465Y93663D01*
X1659633Y93687D01*
X1659791Y93726D01*
X1659939Y93781D01*
X1660078Y93851D01*
X1660207Y93937D01*
X1660326Y94039D01*
X1660436Y94156D01*
X1660535Y94289D01*
X1660620Y94436D01*
X1660692Y94597D01*
X1660752Y94773D01*
X1660797Y94964D01*
X1660830Y95169D01*
X1660850Y95389D01*
X1660857Y95624D01*
X1660857Y101486D01*
X1658959Y101486D01*
X1658959Y102578D01*
X1662187Y102578D01*
X1662187Y95652D01*
X1662175Y95302D01*
X1662139Y94972D01*
X1662078Y94661D01*
X1661993Y94369D01*
X1661884Y94096D01*
X1661750Y93843D01*
X1661592Y93608D01*
X1661410Y93393D01*
X1661207Y93200D01*
X1660985Y93033D01*
X1660746Y92891D01*
X1660489Y92776D01*
X1660214Y92686D01*
X1659921Y92621D01*
X1659610Y92583D01*
X1659281Y92570D01*
G37*
G36*
X398206Y101600D02*
X394506Y101600D01*
X403904Y114434D01*
X395225Y126303D01*
X398925Y126303D01*
X405797Y116608D01*
X412477Y126303D01*
X416176Y126303D01*
X407726Y114556D01*
X416895Y101600D01*
X413196Y101600D01*
X405780Y112400D01*
X398206Y101600D01*
G37*
G36*
X435801Y101600D02*
X419443Y101600D01*
X419443Y103827D01*
X419673Y104332D01*
X419915Y104822D01*
X420169Y105297D01*
X420436Y105757D01*
X420715Y106202D01*
X421006Y106632D01*
X421310Y107047D01*
X421626Y107447D01*
X422279Y108213D01*
X422948Y108942D01*
X423633Y109633D01*
X424335Y110287D01*
X425748Y111512D01*
X427149Y112645D01*
X427829Y113189D01*
X428475Y113732D01*
X429087Y114276D01*
X429665Y114819D01*
X430199Y115369D01*
X430679Y115933D01*
X431106Y116509D01*
X431479Y117099D01*
X431642Y117402D01*
X431782Y117714D01*
X431901Y118037D01*
X431999Y118370D01*
X432074Y118712D01*
X432129Y119064D01*
X432161Y119427D01*
X432172Y119799D01*
X432153Y120293D01*
X432097Y120758D01*
X432004Y121196D01*
X431874Y121604D01*
X431706Y121985D01*
X431501Y122336D01*
X431259Y122660D01*
X430980Y122954D01*
X430667Y123217D01*
X430325Y123445D01*
X429955Y123638D01*
X429555Y123796D01*
X429126Y123919D01*
X428669Y124006D01*
X428182Y124059D01*
X427666Y124076D01*
X427173Y124059D01*
X426702Y124008D01*
X426254Y123922D01*
X425827Y123803D01*
X425423Y123648D01*
X425041Y123460D01*
X424681Y123238D01*
X424344Y122981D01*
X424034Y122693D01*
X423758Y122377D01*
X423516Y122034D01*
X423307Y121664D01*
X423132Y121265D01*
X422991Y120839D01*
X422883Y120385D01*
X422810Y119904D01*
X419584Y120202D01*
X419635Y120567D01*
X419700Y120924D01*
X419779Y121270D01*
X419872Y121608D01*
X419980Y121936D01*
X420102Y122254D01*
X420238Y122563D01*
X420388Y122862D01*
X420552Y123152D01*
X420731Y123433D01*
X420923Y123704D01*
X421130Y123966D01*
X421351Y124218D01*
X421587Y124461D01*
X422099Y124918D01*
X422375Y125130D01*
X422660Y125329D01*
X422955Y125514D01*
X423259Y125685D01*
X423573Y125843D01*
X423897Y125986D01*
X424231Y126117D01*
X424574Y126233D01*
X424926Y126336D01*
X425289Y126425D01*
X425661Y126500D01*
X426043Y126562D01*
X426434Y126610D01*
X426835Y126644D01*
X427246Y126664D01*
X427666Y126671D01*
X428126Y126664D01*
X428573Y126644D01*
X429006Y126609D01*
X429425Y126561D01*
X429831Y126499D01*
X430224Y126423D01*
X430603Y126334D01*
X430969Y126231D01*
X431321Y126114D01*
X431659Y125983D01*
X431985Y125838D01*
X432296Y125680D01*
X432594Y125508D01*
X432879Y125322D01*
X433150Y125123D01*
X433408Y124909D01*
X433651Y124683D01*
X433878Y124446D01*
X434090Y124196D01*
X434286Y123936D01*
X434466Y123663D01*
X434631Y123379D01*
X434780Y123084D01*
X434913Y122777D01*
X435031Y122458D01*
X435133Y122128D01*
X435219Y121786D01*
X435290Y121433D01*
X435345Y121068D01*
X435384Y120691D01*
X435407Y120303D01*
X435415Y119904D01*
X435405Y119545D01*
X435374Y119186D01*
X435323Y118828D01*
X435251Y118471D01*
X435158Y118114D01*
X435045Y117757D01*
X434912Y117401D01*
X434758Y117046D01*
X434583Y116691D01*
X434389Y116336D01*
X434175Y115981D01*
X433940Y115626D01*
X433412Y114916D01*
X432803Y114206D01*
X432442Y113826D01*
X432006Y113398D01*
X430914Y112396D01*
X429526Y111198D01*
X427841Y109805D01*
X426885Y109001D01*
X426031Y108238D01*
X425281Y107516D01*
X424633Y106833D01*
X424078Y106178D01*
X423607Y105534D01*
X423403Y105216D01*
X423219Y104902D01*
X423057Y104591D01*
X422915Y104282D01*
X435801Y104282D01*
X435801Y101600D01*
G37*
G36*
X1426401Y101600D02*
X1410043Y101600D01*
X1410043Y103827D01*
X1410273Y104332D01*
X1410515Y104822D01*
X1410769Y105297D01*
X1411036Y105757D01*
X1411315Y106202D01*
X1411606Y106632D01*
X1411910Y107047D01*
X1412226Y107447D01*
X1412879Y108213D01*
X1413548Y108942D01*
X1414233Y109633D01*
X1414935Y110287D01*
X1416348Y111512D01*
X1417749Y112645D01*
X1418429Y113189D01*
X1419075Y113732D01*
X1419687Y114276D01*
X1420265Y114819D01*
X1420799Y115369D01*
X1421279Y115933D01*
X1421706Y116509D01*
X1422079Y117099D01*
X1422242Y117402D01*
X1422382Y117714D01*
X1422501Y118037D01*
X1422599Y118370D01*
X1422674Y118712D01*
X1422729Y119064D01*
X1422761Y119427D01*
X1422772Y119799D01*
X1422753Y120293D01*
X1422697Y120758D01*
X1422604Y121196D01*
X1422474Y121604D01*
X1422306Y121985D01*
X1422101Y122336D01*
X1421859Y122660D01*
X1421580Y122954D01*
X1421267Y123217D01*
X1420925Y123445D01*
X1420555Y123638D01*
X1420155Y123796D01*
X1419726Y123919D01*
X1419269Y124006D01*
X1418782Y124059D01*
X1418266Y124076D01*
X1417773Y124059D01*
X1417302Y124008D01*
X1416854Y123922D01*
X1416427Y123803D01*
X1416023Y123648D01*
X1415641Y123460D01*
X1415281Y123238D01*
X1414944Y122981D01*
X1414634Y122693D01*
X1414358Y122377D01*
X1414116Y122034D01*
X1413907Y121664D01*
X1413732Y121265D01*
X1413591Y120839D01*
X1413483Y120385D01*
X1413410Y119904D01*
X1410184Y120202D01*
X1410235Y120567D01*
X1410300Y120924D01*
X1410379Y121270D01*
X1410472Y121608D01*
X1410580Y121936D01*
X1410702Y122254D01*
X1410838Y122563D01*
X1410988Y122862D01*
X1411152Y123152D01*
X1411331Y123433D01*
X1411523Y123704D01*
X1411730Y123966D01*
X1411951Y124218D01*
X1412187Y124461D01*
X1412699Y124918D01*
X1412975Y125130D01*
X1413260Y125329D01*
X1413555Y125514D01*
X1413859Y125685D01*
X1414173Y125843D01*
X1414497Y125986D01*
X1414831Y126117D01*
X1415174Y126233D01*
X1415526Y126336D01*
X1415889Y126425D01*
X1416261Y126500D01*
X1416643Y126562D01*
X1417034Y126610D01*
X1417435Y126644D01*
X1417846Y126664D01*
X1418266Y126671D01*
X1418726Y126664D01*
X1419173Y126644D01*
X1419606Y126609D01*
X1420025Y126561D01*
X1420431Y126499D01*
X1420824Y126423D01*
X1421203Y126334D01*
X1421569Y126231D01*
X1421921Y126114D01*
X1422259Y125983D01*
X1422585Y125838D01*
X1422896Y125680D01*
X1423194Y125508D01*
X1423479Y125322D01*
X1423750Y125123D01*
X1424008Y124909D01*
X1424251Y124683D01*
X1424478Y124446D01*
X1424690Y124196D01*
X1424886Y123936D01*
X1425066Y123663D01*
X1425231Y123379D01*
X1425380Y123084D01*
X1425513Y122777D01*
X1425631Y122458D01*
X1425733Y122128D01*
X1425819Y121786D01*
X1425890Y121433D01*
X1425945Y121068D01*
X1425984Y120691D01*
X1426007Y120303D01*
X1426015Y119904D01*
X1426005Y119545D01*
X1425974Y119186D01*
X1425923Y118828D01*
X1425851Y118471D01*
X1425758Y118114D01*
X1425645Y117757D01*
X1425512Y117401D01*
X1425358Y117046D01*
X1425183Y116691D01*
X1424989Y116336D01*
X1424775Y115981D01*
X1424540Y115626D01*
X1424012Y114916D01*
X1423403Y114206D01*
X1423042Y113826D01*
X1422606Y113398D01*
X1421514Y112396D01*
X1420126Y111198D01*
X1418441Y109805D01*
X1417485Y109001D01*
X1416631Y108238D01*
X1415881Y107516D01*
X1415233Y106833D01*
X1414678Y106178D01*
X1414207Y105534D01*
X1414003Y105216D01*
X1413819Y104902D01*
X1413657Y104591D01*
X1413515Y104282D01*
X1426401Y104282D01*
X1426401Y101600D01*
G37*
G36*
X1397923Y101600D02*
X1394591Y101600D01*
X1394591Y111839D01*
X1385089Y126303D01*
X1388771Y126303D01*
X1396292Y114539D01*
X1403778Y126303D01*
X1407460Y126303D01*
X1397923Y111839D01*
X1397923Y101600D01*
G37*
G36*
X65219Y618300D02*
X57485Y618300D01*
X57485Y619640D01*
X60629Y619640D01*
X60629Y629134D01*
X57844Y627146D01*
X57844Y628635D01*
X60761Y630641D01*
X62215Y630641D01*
X62215Y619640D01*
X65219Y619640D01*
X65219Y618300D01*
G37*
G36*
X51153Y618125D02*
X50771Y618138D01*
X50409Y618175D01*
X50066Y618239D01*
X49744Y618327D01*
X49442Y618441D01*
X49159Y618581D01*
X48897Y618745D01*
X48654Y618935D01*
X48432Y619150D01*
X48229Y619391D01*
X48046Y619657D01*
X47883Y619948D01*
X47740Y620264D01*
X47617Y620606D01*
X47514Y620973D01*
X47430Y621365D01*
X49068Y621637D01*
X49114Y621390D01*
X49172Y621157D01*
X49242Y620938D01*
X49324Y620733D01*
X49419Y620542D01*
X49526Y620364D01*
X49646Y620201D01*
X49778Y620052D01*
X49920Y619918D01*
X50071Y619803D01*
X50231Y619705D01*
X50399Y619625D01*
X50577Y619562D01*
X50763Y619518D01*
X50958Y619491D01*
X51161Y619482D01*
X51383Y619492D01*
X51593Y619522D01*
X51790Y619570D01*
X51976Y619639D01*
X52149Y619727D01*
X52311Y619835D01*
X52460Y619962D01*
X52598Y620109D01*
X52721Y620274D01*
X52828Y620458D01*
X52918Y620660D01*
X52992Y620880D01*
X53049Y621119D01*
X53090Y621376D01*
X53115Y621650D01*
X53123Y621944D01*
X53123Y629274D01*
X50750Y629274D01*
X50750Y630641D01*
X54787Y630641D01*
X54787Y621979D01*
X54772Y621542D01*
X54727Y621129D01*
X54651Y620740D01*
X54544Y620375D01*
X54408Y620034D01*
X54241Y619716D01*
X54043Y619423D01*
X53815Y619154D01*
X53561Y618913D01*
X53284Y618704D01*
X52985Y618527D01*
X52664Y618382D01*
X52319Y618270D01*
X51953Y618189D01*
X51564Y618141D01*
X51153Y618125D01*
G37*
G36*
X1119293Y618300D02*
X1111121Y618300D01*
X1111121Y619412D01*
X1111357Y619910D01*
X1111617Y620377D01*
X1111902Y620814D01*
X1112211Y621221D01*
X1112537Y621604D01*
X1112871Y621968D01*
X1113214Y622313D01*
X1113565Y622640D01*
X1114271Y623252D01*
X1114970Y623818D01*
X1115633Y624361D01*
X1116227Y624904D01*
X1116494Y625179D01*
X1116734Y625460D01*
X1116947Y625748D01*
X1117134Y626043D01*
X1117285Y626350D01*
X1117393Y626678D01*
X1117458Y627025D01*
X1117480Y627391D01*
X1117470Y627638D01*
X1117442Y627871D01*
X1117396Y628089D01*
X1117331Y628293D01*
X1117247Y628483D01*
X1117145Y628659D01*
X1117024Y628821D01*
X1116884Y628968D01*
X1116728Y629099D01*
X1116557Y629213D01*
X1116372Y629309D01*
X1116172Y629388D01*
X1115958Y629450D01*
X1115730Y629493D01*
X1115486Y629520D01*
X1115229Y629528D01*
X1114982Y629520D01*
X1114747Y629494D01*
X1114523Y629451D01*
X1114310Y629392D01*
X1114108Y629315D01*
X1113917Y629221D01*
X1113738Y629109D01*
X1113569Y628981D01*
X1113414Y628837D01*
X1113276Y628680D01*
X1113155Y628508D01*
X1113051Y628323D01*
X1112964Y628124D01*
X1112893Y627911D01*
X1112839Y627684D01*
X1112803Y627444D01*
X1111191Y627593D01*
X1111249Y627953D01*
X1111335Y628295D01*
X1111450Y628618D01*
X1111593Y628922D01*
X1111764Y629207D01*
X1111964Y629473D01*
X1112192Y629720D01*
X1112448Y629949D01*
X1112728Y630154D01*
X1113027Y630332D01*
X1113346Y630483D01*
X1113684Y630606D01*
X1114041Y630702D01*
X1114418Y630770D01*
X1114813Y630811D01*
X1115229Y630825D01*
X1115682Y630811D01*
X1116108Y630770D01*
X1116506Y630701D01*
X1116879Y630605D01*
X1117224Y630481D01*
X1117542Y630330D01*
X1117833Y630151D01*
X1118097Y629944D01*
X1118332Y629713D01*
X1118536Y629458D01*
X1118708Y629180D01*
X1118849Y628879D01*
X1118959Y628555D01*
X1119037Y628208D01*
X1119084Y627837D01*
X1119100Y627444D01*
X1119079Y627085D01*
X1119018Y626728D01*
X1118915Y626372D01*
X1118771Y626016D01*
X1118587Y625662D01*
X1118363Y625307D01*
X1118099Y624952D01*
X1117795Y624597D01*
X1117397Y624194D01*
X1116851Y623693D01*
X1116158Y623095D01*
X1115316Y622399D01*
X1114838Y621997D01*
X1114412Y621616D01*
X1114037Y621255D01*
X1113713Y620914D01*
X1113436Y620587D01*
X1113201Y620265D01*
X1113007Y619950D01*
X1112855Y619640D01*
X1119293Y619640D01*
X1119293Y618300D01*
G37*
G36*
X1105253Y618125D02*
X1104871Y618138D01*
X1104509Y618175D01*
X1104166Y618239D01*
X1103844Y618327D01*
X1103542Y618441D01*
X1103259Y618581D01*
X1102997Y618745D01*
X1102754Y618935D01*
X1102532Y619150D01*
X1102329Y619391D01*
X1102146Y619657D01*
X1101983Y619948D01*
X1101840Y620264D01*
X1101717Y620606D01*
X1101614Y620973D01*
X1101530Y621365D01*
X1103168Y621637D01*
X1103214Y621390D01*
X1103272Y621157D01*
X1103342Y620938D01*
X1103424Y620733D01*
X1103519Y620542D01*
X1103626Y620364D01*
X1103746Y620201D01*
X1103878Y620052D01*
X1104020Y619918D01*
X1104171Y619803D01*
X1104331Y619705D01*
X1104499Y619625D01*
X1104677Y619562D01*
X1104863Y619518D01*
X1105058Y619491D01*
X1105261Y619482D01*
X1105483Y619492D01*
X1105693Y619522D01*
X1105890Y619570D01*
X1106076Y619639D01*
X1106249Y619727D01*
X1106411Y619835D01*
X1106560Y619962D01*
X1106698Y620109D01*
X1106821Y620274D01*
X1106928Y620458D01*
X1107018Y620660D01*
X1107092Y620880D01*
X1107149Y621119D01*
X1107190Y621376D01*
X1107215Y621650D01*
X1107223Y621944D01*
X1107223Y629274D01*
X1104850Y629274D01*
X1104850Y630641D01*
X1108887Y630641D01*
X1108887Y621979D01*
X1108872Y621542D01*
X1108827Y621129D01*
X1108751Y620740D01*
X1108644Y620375D01*
X1108508Y620034D01*
X1108341Y619716D01*
X1108143Y619423D01*
X1107915Y619154D01*
X1107661Y618913D01*
X1107384Y618704D01*
X1107085Y618527D01*
X1106764Y618382D01*
X1106419Y618270D01*
X1106053Y618189D01*
X1105664Y618141D01*
X1105253Y618125D01*
G37*
D10*
X393700Y88900D02*
X393700Y38100D01*
X711200Y38100D01*
X711200Y88900D01*
X393700Y88900D01*
X1384300Y88900D02*
X1384300Y38100D01*
X1701800Y38100D01*
X1701800Y88900D01*
X1384300Y88900D01*
D11*
X120586Y273900D02*
X120586Y284900D01*
X108014Y284900D02*
X108014Y273900D01*
X311086Y273900D02*
X311086Y284900D01*
X298514Y284900D02*
X298514Y273900D01*
X907986Y426300D02*
X907986Y437300D01*
X895414Y437300D02*
X895414Y426300D01*
X1161986Y284900D02*
X1161986Y273900D01*
X1149414Y273900D02*
X1149414Y284900D01*
X1352486Y284900D02*
X1352486Y273900D01*
X1339914Y273900D02*
X1339914Y284900D01*
X1542986Y284900D02*
X1542986Y273900D01*
X1530414Y273900D02*
X1530414Y284900D01*
X1733486Y284900D02*
X1733486Y273900D01*
X1720914Y273900D02*
X1720914Y284900D01*
X1923986Y284900D02*
X1923986Y273900D01*
X1911414Y273900D02*
X1911414Y284900D01*
X1161986Y426300D02*
X1161986Y437300D01*
X1149414Y437300D02*
X1149414Y426300D01*
X1352486Y426300D02*
X1352486Y437300D01*
X1339914Y437300D02*
X1339914Y426300D01*
X514286Y284900D02*
X514286Y273900D01*
X501714Y273900D02*
X501714Y284900D01*
X1542986Y426300D02*
X1542986Y437300D01*
X1530414Y437300D02*
X1530414Y426300D01*
X1733486Y426300D02*
X1733486Y437300D01*
X1720914Y437300D02*
X1720914Y426300D01*
X1923986Y426300D02*
X1923986Y437300D01*
X1911414Y437300D02*
X1911414Y426300D01*
X717486Y284900D02*
X717486Y273900D01*
X704914Y273900D02*
X704914Y284900D01*
X907986Y284900D02*
X907986Y273900D01*
X895414Y273900D02*
X895414Y284900D01*
X120586Y426300D02*
X120586Y437300D01*
X108014Y437300D02*
X108014Y426300D01*
X311086Y426300D02*
X311086Y437300D01*
X298514Y437300D02*
X298514Y426300D01*
X514286Y426300D02*
X514286Y437300D01*
X501714Y437300D02*
X501714Y426300D01*
X717486Y426300D02*
X717486Y437300D01*
X704914Y437300D02*
X704914Y426300D01*
D12*
X44450Y682000D02*
X44450Y770900D01*
X996950Y770900D02*
X996950Y682000D01*
X996950Y770900D02*
X44450Y770900D01*
X975550Y682000D02*
X996950Y682000D01*
X65850Y682000D02*
X44450Y682000D01*
X36950Y647700D02*
X36952Y647763D01*
X36958Y647825D01*
X36968Y647887D01*
X36981Y647949D01*
X36999Y648009D01*
X37020Y648068D01*
X37045Y648126D01*
X37074Y648182D01*
X37106Y648236D01*
X37141Y648288D01*
X37179Y648337D01*
X37221Y648385D01*
X37265Y648429D01*
X37313Y648471D01*
X37362Y648509D01*
X37414Y648544D01*
X37468Y648576D01*
X37524Y648605D01*
X37582Y648630D01*
X37641Y648651D01*
X37701Y648669D01*
X37763Y648682D01*
X37825Y648692D01*
X37887Y648698D01*
X37950Y648700D01*
X38013Y648698D01*
X38075Y648692D01*
X38137Y648682D01*
X38199Y648669D01*
X38259Y648651D01*
X38318Y648630D01*
X38376Y648605D01*
X38432Y648576D01*
X38486Y648544D01*
X38538Y648509D01*
X38587Y648471D01*
X38635Y648429D01*
X38679Y648385D01*
X38721Y648337D01*
X38759Y648288D01*
X38794Y648236D01*
X38826Y648182D01*
X38855Y648126D01*
X38880Y648068D01*
X38901Y648009D01*
X38919Y647949D01*
X38932Y647887D01*
X38942Y647825D01*
X38948Y647763D01*
X38950Y647700D01*
X38948Y647637D01*
X38942Y647575D01*
X38932Y647513D01*
X38919Y647451D01*
X38901Y647391D01*
X38880Y647332D01*
X38855Y647274D01*
X38826Y647218D01*
X38794Y647164D01*
X38759Y647112D01*
X38721Y647063D01*
X38679Y647015D01*
X38635Y646971D01*
X38587Y646929D01*
X38538Y646891D01*
X38486Y646856D01*
X38432Y646824D01*
X38376Y646795D01*
X38318Y646770D01*
X38259Y646749D01*
X38199Y646731D01*
X38137Y646718D01*
X38075Y646708D01*
X38013Y646702D01*
X37950Y646700D01*
X37887Y646702D01*
X37825Y646708D01*
X37763Y646718D01*
X37701Y646731D01*
X37641Y646749D01*
X37582Y646770D01*
X37524Y646795D01*
X37468Y646824D01*
X37414Y646856D01*
X37362Y646891D01*
X37313Y646929D01*
X37265Y646971D01*
X37221Y647015D01*
X37179Y647063D01*
X37141Y647112D01*
X37106Y647164D01*
X37074Y647218D01*
X37045Y647274D01*
X37020Y647332D01*
X36999Y647391D01*
X36981Y647451D01*
X36968Y647513D01*
X36958Y647575D01*
X36952Y647637D01*
X36950Y647700D01*
D11*
X144721Y297815D02*
X144721Y294061D01*
X144720Y294061D02*
X144718Y293996D01*
X144712Y293932D01*
X144702Y293868D01*
X144689Y293804D01*
X144671Y293742D01*
X144650Y293681D01*
X144626Y293621D01*
X144597Y293563D01*
X144565Y293506D01*
X144530Y293452D01*
X144492Y293400D01*
X144450Y293350D01*
X144406Y293303D01*
X144359Y293259D01*
X144309Y293217D01*
X144257Y293179D01*
X144203Y293144D01*
X144146Y293112D01*
X144088Y293083D01*
X144028Y293059D01*
X143967Y293038D01*
X143905Y293020D01*
X143841Y293007D01*
X143777Y292997D01*
X143713Y292991D01*
X143648Y292989D01*
X143112Y292989D01*
X147669Y296743D02*
X149009Y297815D01*
X149009Y292989D01*
X147669Y292989D02*
X150350Y292989D01*
X153338Y292989D02*
X153338Y297815D01*
X154678Y297815D01*
X154748Y297813D01*
X154818Y297808D01*
X154888Y297798D01*
X154957Y297786D01*
X155025Y297769D01*
X155092Y297749D01*
X155159Y297726D01*
X155223Y297699D01*
X155287Y297669D01*
X155349Y297635D01*
X155408Y297599D01*
X155466Y297559D01*
X155522Y297516D01*
X155575Y297471D01*
X155626Y297422D01*
X155675Y297371D01*
X155720Y297318D01*
X155763Y297262D01*
X155803Y297204D01*
X155839Y297145D01*
X155873Y297083D01*
X155903Y297019D01*
X155930Y296955D01*
X155953Y296888D01*
X155973Y296821D01*
X155990Y296753D01*
X156002Y296684D01*
X156012Y296614D01*
X156017Y296544D01*
X156019Y296474D01*
X156019Y294330D01*
X156017Y294260D01*
X156012Y294190D01*
X156002Y294120D01*
X155990Y294051D01*
X155973Y293983D01*
X155953Y293916D01*
X155930Y293849D01*
X155903Y293785D01*
X155873Y293721D01*
X155839Y293659D01*
X155803Y293600D01*
X155763Y293542D01*
X155720Y293486D01*
X155675Y293433D01*
X155626Y293382D01*
X155575Y293333D01*
X155522Y293288D01*
X155466Y293245D01*
X155408Y293205D01*
X155348Y293169D01*
X155287Y293135D01*
X155223Y293105D01*
X155159Y293078D01*
X155092Y293055D01*
X155025Y293035D01*
X154957Y293018D01*
X154888Y293006D01*
X154818Y292996D01*
X154748Y292991D01*
X154678Y292989D01*
X153338Y292989D01*
X159007Y295402D02*
X159009Y295522D01*
X159014Y295642D01*
X159023Y295762D01*
X159036Y295882D01*
X159052Y296001D01*
X159072Y296120D01*
X159096Y296238D01*
X159123Y296355D01*
X159153Y296471D01*
X159187Y296586D01*
X159225Y296701D01*
X159266Y296814D01*
X159310Y296925D01*
X159358Y297036D01*
X159409Y297145D01*
X159410Y297145D02*
X159431Y297202D01*
X159457Y297258D01*
X159485Y297313D01*
X159517Y297365D01*
X159553Y297416D01*
X159591Y297464D01*
X159632Y297510D01*
X159676Y297553D01*
X159722Y297593D01*
X159771Y297630D01*
X159823Y297664D01*
X159876Y297695D01*
X159931Y297723D01*
X159987Y297747D01*
X160045Y297768D01*
X160104Y297785D01*
X160164Y297798D01*
X160225Y297807D01*
X160287Y297813D01*
X160348Y297815D01*
X160409Y297813D01*
X160471Y297807D01*
X160532Y297798D01*
X160592Y297785D01*
X160651Y297768D01*
X160709Y297747D01*
X160765Y297723D01*
X160820Y297695D01*
X160873Y297664D01*
X160925Y297630D01*
X160974Y297593D01*
X161020Y297553D01*
X161064Y297510D01*
X161105Y297464D01*
X161143Y297416D01*
X161179Y297365D01*
X161211Y297313D01*
X161239Y297258D01*
X161265Y297202D01*
X161286Y297145D01*
X161337Y297036D01*
X161385Y296925D01*
X161429Y296814D01*
X161470Y296701D01*
X161508Y296586D01*
X161542Y296471D01*
X161572Y296355D01*
X161599Y296238D01*
X161623Y296120D01*
X161643Y296001D01*
X161659Y295882D01*
X161672Y295762D01*
X161681Y295642D01*
X161686Y295522D01*
X161688Y295402D01*
X159007Y295402D02*
X159009Y295282D01*
X159014Y295162D01*
X159023Y295042D01*
X159036Y294922D01*
X159052Y294803D01*
X159072Y294684D01*
X159096Y294566D01*
X159123Y294449D01*
X159153Y294333D01*
X159187Y294218D01*
X159225Y294103D01*
X159266Y293990D01*
X159310Y293879D01*
X159358Y293768D01*
X159409Y293659D01*
X159410Y293659D02*
X159431Y293602D01*
X159457Y293546D01*
X159485Y293491D01*
X159517Y293439D01*
X159553Y293388D01*
X159591Y293340D01*
X159632Y293294D01*
X159676Y293251D01*
X159722Y293211D01*
X159771Y293174D01*
X159823Y293140D01*
X159876Y293109D01*
X159931Y293081D01*
X159987Y293057D01*
X160045Y293036D01*
X160104Y293019D01*
X160164Y293006D01*
X160225Y292997D01*
X160287Y292991D01*
X160348Y292989D01*
X161286Y293659D02*
X161337Y293768D01*
X161385Y293879D01*
X161429Y293990D01*
X161470Y294103D01*
X161508Y294218D01*
X161542Y294333D01*
X161572Y294449D01*
X161599Y294566D01*
X161623Y294684D01*
X161643Y294803D01*
X161659Y294922D01*
X161672Y295042D01*
X161681Y295162D01*
X161686Y295282D01*
X161688Y295402D01*
X161286Y293659D02*
X161265Y293602D01*
X161239Y293546D01*
X161211Y293491D01*
X161179Y293439D01*
X161143Y293388D01*
X161105Y293340D01*
X161064Y293294D01*
X161020Y293251D01*
X160973Y293211D01*
X160925Y293174D01*
X160873Y293140D01*
X160820Y293109D01*
X160765Y293081D01*
X160709Y293057D01*
X160651Y293036D01*
X160592Y293019D01*
X160532Y293006D01*
X160471Y292997D01*
X160409Y292991D01*
X160348Y292989D01*
X159275Y294061D02*
X161420Y296743D01*
X335221Y297815D02*
X335221Y294061D01*
X335220Y294061D02*
X335218Y293996D01*
X335212Y293932D01*
X335202Y293868D01*
X335189Y293804D01*
X335171Y293742D01*
X335150Y293681D01*
X335126Y293621D01*
X335097Y293563D01*
X335065Y293506D01*
X335030Y293452D01*
X334992Y293400D01*
X334950Y293350D01*
X334906Y293303D01*
X334859Y293259D01*
X334809Y293217D01*
X334757Y293179D01*
X334703Y293144D01*
X334646Y293112D01*
X334588Y293083D01*
X334528Y293059D01*
X334467Y293038D01*
X334405Y293020D01*
X334341Y293007D01*
X334277Y292997D01*
X334213Y292991D01*
X334148Y292989D01*
X333612Y292989D01*
X338169Y296743D02*
X339509Y297815D01*
X339509Y292989D01*
X338169Y292989D02*
X340850Y292989D01*
X343838Y292989D02*
X343838Y297815D01*
X345178Y297815D01*
X345248Y297813D01*
X345318Y297808D01*
X345388Y297798D01*
X345457Y297786D01*
X345525Y297769D01*
X345592Y297749D01*
X345659Y297726D01*
X345723Y297699D01*
X345787Y297669D01*
X345849Y297635D01*
X345908Y297599D01*
X345966Y297559D01*
X346022Y297516D01*
X346075Y297471D01*
X346126Y297422D01*
X346175Y297371D01*
X346220Y297318D01*
X346263Y297262D01*
X346303Y297204D01*
X346339Y297145D01*
X346373Y297083D01*
X346403Y297019D01*
X346430Y296955D01*
X346453Y296888D01*
X346473Y296821D01*
X346490Y296753D01*
X346502Y296684D01*
X346512Y296614D01*
X346517Y296544D01*
X346519Y296474D01*
X346519Y294330D01*
X346517Y294260D01*
X346512Y294190D01*
X346502Y294120D01*
X346490Y294051D01*
X346473Y293983D01*
X346453Y293916D01*
X346430Y293849D01*
X346403Y293785D01*
X346373Y293721D01*
X346339Y293659D01*
X346303Y293600D01*
X346263Y293542D01*
X346220Y293486D01*
X346175Y293433D01*
X346126Y293382D01*
X346075Y293333D01*
X346022Y293288D01*
X345966Y293245D01*
X345908Y293205D01*
X345848Y293169D01*
X345787Y293135D01*
X345723Y293105D01*
X345659Y293078D01*
X345592Y293055D01*
X345525Y293035D01*
X345457Y293018D01*
X345388Y293006D01*
X345318Y292996D01*
X345248Y292991D01*
X345178Y292989D01*
X343838Y292989D01*
X349507Y296743D02*
X350848Y297815D01*
X350848Y292989D01*
X352188Y292989D02*
X349507Y292989D01*
X538421Y294061D02*
X538421Y297815D01*
X538420Y294061D02*
X538418Y293996D01*
X538412Y293932D01*
X538402Y293868D01*
X538389Y293804D01*
X538371Y293742D01*
X538350Y293681D01*
X538326Y293621D01*
X538297Y293563D01*
X538265Y293506D01*
X538230Y293452D01*
X538192Y293400D01*
X538150Y293350D01*
X538106Y293303D01*
X538059Y293259D01*
X538009Y293217D01*
X537957Y293179D01*
X537903Y293144D01*
X537846Y293112D01*
X537788Y293083D01*
X537728Y293059D01*
X537667Y293038D01*
X537605Y293020D01*
X537541Y293007D01*
X537477Y292997D01*
X537413Y292991D01*
X537348Y292989D01*
X536812Y292989D01*
X541369Y296743D02*
X542709Y297815D01*
X542709Y292989D01*
X541369Y292989D02*
X544050Y292989D01*
X547038Y292989D02*
X547038Y297815D01*
X548378Y297815D01*
X548448Y297813D01*
X548518Y297808D01*
X548588Y297798D01*
X548657Y297786D01*
X548725Y297769D01*
X548792Y297749D01*
X548859Y297726D01*
X548923Y297699D01*
X548987Y297669D01*
X549049Y297635D01*
X549108Y297599D01*
X549166Y297559D01*
X549222Y297516D01*
X549275Y297471D01*
X549326Y297422D01*
X549375Y297371D01*
X549420Y297318D01*
X549463Y297262D01*
X549503Y297204D01*
X549539Y297145D01*
X549573Y297083D01*
X549603Y297019D01*
X549630Y296955D01*
X549653Y296888D01*
X549673Y296821D01*
X549690Y296753D01*
X549702Y296684D01*
X549712Y296614D01*
X549717Y296544D01*
X549719Y296474D01*
X549719Y294330D01*
X549717Y294260D01*
X549712Y294190D01*
X549702Y294120D01*
X549690Y294051D01*
X549673Y293983D01*
X549653Y293916D01*
X549630Y293849D01*
X549603Y293785D01*
X549573Y293721D01*
X549539Y293659D01*
X549503Y293600D01*
X549463Y293542D01*
X549420Y293486D01*
X549375Y293433D01*
X549326Y293382D01*
X549275Y293333D01*
X549222Y293288D01*
X549166Y293245D01*
X549108Y293205D01*
X549048Y293169D01*
X548987Y293135D01*
X548923Y293105D01*
X548859Y293078D01*
X548792Y293055D01*
X548725Y293035D01*
X548657Y293018D01*
X548588Y293006D01*
X548518Y292996D01*
X548448Y292991D01*
X548378Y292989D01*
X547038Y292989D01*
X554182Y297815D02*
X554250Y297813D01*
X554317Y297807D01*
X554384Y297798D01*
X554451Y297785D01*
X554516Y297768D01*
X554581Y297747D01*
X554644Y297723D01*
X554706Y297695D01*
X554766Y297664D01*
X554824Y297630D01*
X554880Y297592D01*
X554935Y297552D01*
X554986Y297508D01*
X555035Y297461D01*
X555082Y297412D01*
X555126Y297361D01*
X555166Y297306D01*
X555204Y297250D01*
X555238Y297192D01*
X555269Y297132D01*
X555297Y297070D01*
X555321Y297007D01*
X555342Y296942D01*
X555359Y296877D01*
X555372Y296810D01*
X555381Y296743D01*
X555387Y296676D01*
X555389Y296608D01*
X554182Y297815D02*
X554104Y297813D01*
X554026Y297807D01*
X553949Y297797D01*
X553872Y297784D01*
X553796Y297766D01*
X553721Y297745D01*
X553647Y297720D01*
X553575Y297691D01*
X553504Y297659D01*
X553435Y297623D01*
X553367Y297584D01*
X553302Y297541D01*
X553239Y297495D01*
X553178Y297446D01*
X553120Y297394D01*
X553065Y297339D01*
X553012Y297282D01*
X552963Y297222D01*
X552916Y297159D01*
X552873Y297095D01*
X552833Y297028D01*
X552796Y296959D01*
X552763Y296888D01*
X552733Y296816D01*
X552707Y296743D01*
X554986Y295670D02*
X555035Y295719D01*
X555082Y295771D01*
X555125Y295826D01*
X555166Y295883D01*
X555204Y295942D01*
X555238Y296003D01*
X555269Y296066D01*
X555297Y296130D01*
X555321Y296196D01*
X555341Y296262D01*
X555358Y296330D01*
X555371Y296399D01*
X555380Y296468D01*
X555386Y296538D01*
X555388Y296608D01*
X554986Y295670D02*
X552707Y292989D01*
X555388Y292989D01*
X741621Y294061D02*
X741621Y297815D01*
X741620Y294061D02*
X741618Y293996D01*
X741612Y293932D01*
X741602Y293868D01*
X741589Y293804D01*
X741571Y293742D01*
X741550Y293681D01*
X741526Y293621D01*
X741497Y293563D01*
X741465Y293506D01*
X741430Y293452D01*
X741392Y293400D01*
X741350Y293350D01*
X741306Y293303D01*
X741259Y293259D01*
X741209Y293217D01*
X741157Y293179D01*
X741103Y293144D01*
X741046Y293112D01*
X740988Y293083D01*
X740928Y293059D01*
X740867Y293038D01*
X740805Y293020D01*
X740741Y293007D01*
X740677Y292997D01*
X740613Y292991D01*
X740548Y292989D01*
X740012Y292989D01*
X744569Y296743D02*
X745909Y297815D01*
X745909Y292989D01*
X744569Y292989D02*
X747250Y292989D01*
X750238Y292989D02*
X750238Y297815D01*
X751578Y297815D01*
X751648Y297813D01*
X751718Y297808D01*
X751788Y297798D01*
X751857Y297786D01*
X751925Y297769D01*
X751992Y297749D01*
X752059Y297726D01*
X752123Y297699D01*
X752187Y297669D01*
X752249Y297635D01*
X752308Y297599D01*
X752366Y297559D01*
X752422Y297516D01*
X752475Y297471D01*
X752526Y297422D01*
X752575Y297371D01*
X752620Y297318D01*
X752663Y297262D01*
X752703Y297204D01*
X752739Y297145D01*
X752773Y297083D01*
X752803Y297019D01*
X752830Y296955D01*
X752853Y296888D01*
X752873Y296821D01*
X752890Y296753D01*
X752902Y296684D01*
X752912Y296614D01*
X752917Y296544D01*
X752919Y296474D01*
X752919Y294330D01*
X752917Y294260D01*
X752912Y294190D01*
X752902Y294120D01*
X752890Y294051D01*
X752873Y293983D01*
X752853Y293916D01*
X752830Y293849D01*
X752803Y293785D01*
X752773Y293721D01*
X752739Y293659D01*
X752703Y293600D01*
X752663Y293542D01*
X752620Y293486D01*
X752575Y293433D01*
X752526Y293382D01*
X752475Y293333D01*
X752422Y293288D01*
X752366Y293245D01*
X752308Y293205D01*
X752248Y293169D01*
X752187Y293135D01*
X752123Y293105D01*
X752059Y293078D01*
X751992Y293055D01*
X751925Y293035D01*
X751857Y293018D01*
X751788Y293006D01*
X751718Y292996D01*
X751648Y292991D01*
X751578Y292989D01*
X750238Y292989D01*
X755907Y292989D02*
X757248Y292989D01*
X757319Y292991D01*
X757391Y292997D01*
X757461Y293006D01*
X757531Y293019D01*
X757601Y293036D01*
X757669Y293057D01*
X757736Y293081D01*
X757802Y293109D01*
X757866Y293140D01*
X757929Y293175D01*
X757989Y293213D01*
X758048Y293254D01*
X758104Y293298D01*
X758158Y293345D01*
X758209Y293394D01*
X758257Y293447D01*
X758303Y293502D01*
X758345Y293559D01*
X758385Y293619D01*
X758421Y293680D01*
X758454Y293744D01*
X758483Y293809D01*
X758509Y293875D01*
X758532Y293943D01*
X758551Y294012D01*
X758566Y294082D01*
X758577Y294152D01*
X758585Y294223D01*
X758589Y294294D01*
X758589Y294366D01*
X758585Y294437D01*
X758577Y294508D01*
X758566Y294578D01*
X758551Y294648D01*
X758532Y294717D01*
X758509Y294785D01*
X758483Y294851D01*
X758454Y294916D01*
X758421Y294980D01*
X758385Y295041D01*
X758345Y295101D01*
X758303Y295158D01*
X758257Y295213D01*
X758209Y295266D01*
X758158Y295315D01*
X758104Y295362D01*
X758048Y295406D01*
X757989Y295447D01*
X757929Y295485D01*
X757866Y295520D01*
X757802Y295551D01*
X757736Y295579D01*
X757669Y295603D01*
X757601Y295624D01*
X757531Y295641D01*
X757461Y295654D01*
X757391Y295663D01*
X757319Y295669D01*
X757248Y295671D01*
X757516Y297815D02*
X755907Y297815D01*
X757516Y297815D02*
X757581Y297813D01*
X757645Y297807D01*
X757709Y297797D01*
X757773Y297784D01*
X757835Y297766D01*
X757896Y297745D01*
X757956Y297721D01*
X758014Y297692D01*
X758071Y297660D01*
X758125Y297625D01*
X758177Y297587D01*
X758227Y297545D01*
X758274Y297501D01*
X758318Y297454D01*
X758360Y297404D01*
X758398Y297352D01*
X758433Y297298D01*
X758465Y297241D01*
X758494Y297183D01*
X758518Y297123D01*
X758539Y297062D01*
X758557Y297000D01*
X758570Y296936D01*
X758580Y296872D01*
X758586Y296808D01*
X758588Y296743D01*
X758586Y296678D01*
X758580Y296614D01*
X758570Y296550D01*
X758557Y296486D01*
X758539Y296424D01*
X758518Y296363D01*
X758494Y296303D01*
X758465Y296245D01*
X758433Y296188D01*
X758398Y296134D01*
X758360Y296082D01*
X758318Y296032D01*
X758274Y295985D01*
X758227Y295941D01*
X758177Y295899D01*
X758125Y295861D01*
X758071Y295826D01*
X758014Y295794D01*
X757956Y295765D01*
X757896Y295741D01*
X757835Y295720D01*
X757773Y295702D01*
X757709Y295689D01*
X757645Y295679D01*
X757581Y295673D01*
X757516Y295671D01*
X757516Y295670D02*
X756443Y295670D01*
X932121Y294061D02*
X932121Y297815D01*
X932120Y294061D02*
X932118Y293996D01*
X932112Y293932D01*
X932102Y293868D01*
X932089Y293804D01*
X932071Y293742D01*
X932050Y293681D01*
X932026Y293621D01*
X931997Y293563D01*
X931965Y293506D01*
X931930Y293452D01*
X931892Y293400D01*
X931850Y293350D01*
X931806Y293303D01*
X931759Y293259D01*
X931709Y293217D01*
X931657Y293179D01*
X931603Y293144D01*
X931546Y293112D01*
X931488Y293083D01*
X931428Y293059D01*
X931367Y293038D01*
X931305Y293020D01*
X931241Y293007D01*
X931177Y292997D01*
X931113Y292991D01*
X931048Y292989D01*
X930512Y292989D01*
X935069Y296743D02*
X936409Y297815D01*
X936409Y292989D01*
X935069Y292989D02*
X937750Y292989D01*
X940738Y292989D02*
X940738Y297815D01*
X942078Y297815D01*
X942148Y297813D01*
X942218Y297808D01*
X942288Y297798D01*
X942357Y297786D01*
X942425Y297769D01*
X942492Y297749D01*
X942559Y297726D01*
X942623Y297699D01*
X942687Y297669D01*
X942749Y297635D01*
X942808Y297599D01*
X942866Y297559D01*
X942922Y297516D01*
X942975Y297471D01*
X943026Y297422D01*
X943075Y297371D01*
X943120Y297318D01*
X943163Y297262D01*
X943203Y297204D01*
X943239Y297145D01*
X943273Y297083D01*
X943303Y297019D01*
X943330Y296955D01*
X943353Y296888D01*
X943373Y296821D01*
X943390Y296753D01*
X943402Y296684D01*
X943412Y296614D01*
X943417Y296544D01*
X943419Y296474D01*
X943419Y294330D01*
X943417Y294260D01*
X943412Y294190D01*
X943402Y294120D01*
X943390Y294051D01*
X943373Y293983D01*
X943353Y293916D01*
X943330Y293849D01*
X943303Y293785D01*
X943273Y293721D01*
X943239Y293659D01*
X943203Y293600D01*
X943163Y293542D01*
X943120Y293486D01*
X943075Y293433D01*
X943026Y293382D01*
X942975Y293333D01*
X942922Y293288D01*
X942866Y293245D01*
X942808Y293205D01*
X942748Y293169D01*
X942687Y293135D01*
X942623Y293105D01*
X942559Y293078D01*
X942492Y293055D01*
X942425Y293035D01*
X942357Y293018D01*
X942288Y293006D01*
X942218Y292996D01*
X942148Y292991D01*
X942078Y292989D01*
X940738Y292989D01*
X946407Y294061D02*
X947479Y297815D01*
X946407Y294061D02*
X949088Y294061D01*
X948284Y295134D02*
X948284Y292989D01*
X144812Y446461D02*
X144812Y450215D01*
X144812Y446461D02*
X144810Y446396D01*
X144804Y446332D01*
X144794Y446268D01*
X144781Y446204D01*
X144763Y446142D01*
X144742Y446081D01*
X144718Y446021D01*
X144689Y445963D01*
X144657Y445906D01*
X144622Y445852D01*
X144584Y445800D01*
X144542Y445750D01*
X144498Y445703D01*
X144451Y445659D01*
X144401Y445617D01*
X144349Y445579D01*
X144295Y445544D01*
X144238Y445512D01*
X144180Y445483D01*
X144120Y445459D01*
X144059Y445438D01*
X143997Y445420D01*
X143933Y445407D01*
X143869Y445397D01*
X143805Y445391D01*
X143740Y445389D01*
X143203Y445389D01*
X147760Y449143D02*
X149100Y450215D01*
X149100Y445389D01*
X147760Y445389D02*
X150441Y445389D01*
X153493Y445389D02*
X153493Y450215D01*
X154833Y450215D01*
X154904Y450213D01*
X154976Y450207D01*
X155046Y450198D01*
X155116Y450185D01*
X155186Y450168D01*
X155254Y450147D01*
X155321Y450123D01*
X155387Y450095D01*
X155451Y450064D01*
X155514Y450029D01*
X155574Y449991D01*
X155633Y449950D01*
X155689Y449906D01*
X155743Y449859D01*
X155794Y449810D01*
X155842Y449757D01*
X155888Y449702D01*
X155930Y449645D01*
X155970Y449585D01*
X156006Y449524D01*
X156039Y449460D01*
X156068Y449395D01*
X156094Y449329D01*
X156117Y449261D01*
X156136Y449192D01*
X156151Y449122D01*
X156162Y449052D01*
X156170Y448981D01*
X156174Y448910D01*
X156174Y448838D01*
X156170Y448767D01*
X156162Y448696D01*
X156151Y448626D01*
X156136Y448556D01*
X156117Y448487D01*
X156094Y448419D01*
X156068Y448353D01*
X156039Y448288D01*
X156006Y448224D01*
X155970Y448163D01*
X155930Y448103D01*
X155888Y448046D01*
X155842Y447991D01*
X155794Y447938D01*
X155743Y447889D01*
X155689Y447842D01*
X155633Y447798D01*
X155574Y447757D01*
X155514Y447719D01*
X155451Y447684D01*
X155387Y447653D01*
X155321Y447625D01*
X155254Y447601D01*
X155186Y447580D01*
X155116Y447563D01*
X155046Y447550D01*
X154976Y447541D01*
X154904Y447535D01*
X154833Y447533D01*
X154833Y447534D02*
X153493Y447534D01*
X155102Y447534D02*
X156174Y445389D01*
X158916Y447802D02*
X158918Y447922D01*
X158923Y448042D01*
X158932Y448162D01*
X158945Y448282D01*
X158961Y448401D01*
X158981Y448520D01*
X159005Y448638D01*
X159032Y448755D01*
X159062Y448871D01*
X159096Y448986D01*
X159134Y449101D01*
X159175Y449214D01*
X159219Y449325D01*
X159267Y449436D01*
X159318Y449545D01*
X159339Y449602D01*
X159365Y449658D01*
X159393Y449713D01*
X159425Y449765D01*
X159461Y449816D01*
X159499Y449864D01*
X159540Y449910D01*
X159584Y449953D01*
X159630Y449993D01*
X159679Y450030D01*
X159731Y450064D01*
X159784Y450095D01*
X159839Y450123D01*
X159895Y450147D01*
X159953Y450168D01*
X160012Y450185D01*
X160072Y450198D01*
X160133Y450207D01*
X160195Y450213D01*
X160256Y450215D01*
X160317Y450213D01*
X160379Y450207D01*
X160440Y450198D01*
X160500Y450185D01*
X160559Y450168D01*
X160617Y450147D01*
X160673Y450123D01*
X160728Y450095D01*
X160781Y450064D01*
X160833Y450030D01*
X160882Y449993D01*
X160928Y449953D01*
X160972Y449910D01*
X161013Y449864D01*
X161051Y449816D01*
X161087Y449765D01*
X161119Y449713D01*
X161147Y449658D01*
X161173Y449602D01*
X161194Y449545D01*
X161195Y449545D02*
X161246Y449436D01*
X161294Y449325D01*
X161338Y449214D01*
X161379Y449101D01*
X161417Y448986D01*
X161451Y448871D01*
X161481Y448755D01*
X161508Y448638D01*
X161532Y448520D01*
X161552Y448401D01*
X161568Y448282D01*
X161581Y448162D01*
X161590Y448042D01*
X161595Y447922D01*
X161597Y447802D01*
X158916Y447802D02*
X158918Y447682D01*
X158923Y447562D01*
X158932Y447442D01*
X158945Y447322D01*
X158961Y447203D01*
X158981Y447084D01*
X159005Y446966D01*
X159032Y446849D01*
X159062Y446733D01*
X159096Y446618D01*
X159134Y446503D01*
X159175Y446390D01*
X159219Y446279D01*
X159267Y446168D01*
X159318Y446059D01*
X159339Y446002D01*
X159365Y445946D01*
X159393Y445891D01*
X159425Y445839D01*
X159461Y445788D01*
X159499Y445740D01*
X159540Y445694D01*
X159584Y445651D01*
X159630Y445611D01*
X159679Y445574D01*
X159731Y445540D01*
X159784Y445509D01*
X159839Y445481D01*
X159895Y445457D01*
X159953Y445436D01*
X160012Y445419D01*
X160072Y445406D01*
X160133Y445397D01*
X160195Y445391D01*
X160256Y445389D01*
X161194Y446059D02*
X161245Y446168D01*
X161293Y446279D01*
X161337Y446390D01*
X161378Y446503D01*
X161416Y446618D01*
X161450Y446733D01*
X161480Y446849D01*
X161507Y446966D01*
X161531Y447084D01*
X161551Y447203D01*
X161567Y447322D01*
X161580Y447442D01*
X161589Y447562D01*
X161594Y447682D01*
X161596Y447802D01*
X161194Y446059D02*
X161173Y446002D01*
X161147Y445946D01*
X161119Y445891D01*
X161087Y445839D01*
X161051Y445788D01*
X161013Y445740D01*
X160972Y445694D01*
X160928Y445651D01*
X160881Y445611D01*
X160833Y445574D01*
X160781Y445540D01*
X160728Y445509D01*
X160673Y445481D01*
X160617Y445457D01*
X160559Y445436D01*
X160500Y445419D01*
X160440Y445406D01*
X160379Y445397D01*
X160317Y445391D01*
X160256Y445389D01*
X159184Y446461D02*
X161329Y449143D01*
X335312Y450215D02*
X335312Y446461D01*
X335310Y446396D01*
X335304Y446332D01*
X335294Y446268D01*
X335281Y446204D01*
X335263Y446142D01*
X335242Y446081D01*
X335218Y446021D01*
X335189Y445963D01*
X335157Y445906D01*
X335122Y445852D01*
X335084Y445800D01*
X335042Y445750D01*
X334998Y445703D01*
X334951Y445659D01*
X334901Y445617D01*
X334849Y445579D01*
X334795Y445544D01*
X334738Y445512D01*
X334680Y445483D01*
X334620Y445459D01*
X334559Y445438D01*
X334497Y445420D01*
X334433Y445407D01*
X334369Y445397D01*
X334305Y445391D01*
X334240Y445389D01*
X333703Y445389D01*
X338260Y449143D02*
X339600Y450215D01*
X339600Y445389D01*
X338260Y445389D02*
X340941Y445389D01*
X343993Y445389D02*
X343993Y450215D01*
X345333Y450215D01*
X345404Y450213D01*
X345476Y450207D01*
X345546Y450198D01*
X345616Y450185D01*
X345686Y450168D01*
X345754Y450147D01*
X345821Y450123D01*
X345887Y450095D01*
X345951Y450064D01*
X346014Y450029D01*
X346074Y449991D01*
X346133Y449950D01*
X346189Y449906D01*
X346243Y449859D01*
X346294Y449810D01*
X346342Y449757D01*
X346388Y449702D01*
X346430Y449645D01*
X346470Y449585D01*
X346506Y449524D01*
X346539Y449460D01*
X346568Y449395D01*
X346594Y449329D01*
X346617Y449261D01*
X346636Y449192D01*
X346651Y449122D01*
X346662Y449052D01*
X346670Y448981D01*
X346674Y448910D01*
X346674Y448838D01*
X346670Y448767D01*
X346662Y448696D01*
X346651Y448626D01*
X346636Y448556D01*
X346617Y448487D01*
X346594Y448419D01*
X346568Y448353D01*
X346539Y448288D01*
X346506Y448224D01*
X346470Y448163D01*
X346430Y448103D01*
X346388Y448046D01*
X346342Y447991D01*
X346294Y447938D01*
X346243Y447889D01*
X346189Y447842D01*
X346133Y447798D01*
X346074Y447757D01*
X346014Y447719D01*
X345951Y447684D01*
X345887Y447653D01*
X345821Y447625D01*
X345754Y447601D01*
X345686Y447580D01*
X345616Y447563D01*
X345546Y447550D01*
X345476Y447541D01*
X345404Y447535D01*
X345333Y447533D01*
X345333Y447534D02*
X343993Y447534D01*
X345602Y447534D02*
X346674Y445389D01*
X349416Y449143D02*
X350756Y450215D01*
X350756Y445389D01*
X349416Y445389D02*
X352097Y445389D01*
X538512Y446461D02*
X538512Y450215D01*
X538512Y446461D02*
X538510Y446396D01*
X538504Y446332D01*
X538494Y446268D01*
X538481Y446204D01*
X538463Y446142D01*
X538442Y446081D01*
X538418Y446021D01*
X538389Y445963D01*
X538357Y445906D01*
X538322Y445852D01*
X538284Y445800D01*
X538242Y445750D01*
X538198Y445703D01*
X538151Y445659D01*
X538101Y445617D01*
X538049Y445579D01*
X537995Y445544D01*
X537938Y445512D01*
X537880Y445483D01*
X537820Y445459D01*
X537759Y445438D01*
X537697Y445420D01*
X537633Y445407D01*
X537569Y445397D01*
X537505Y445391D01*
X537440Y445389D01*
X536903Y445389D01*
X541460Y449143D02*
X542800Y450215D01*
X542800Y445389D01*
X541460Y445389D02*
X544141Y445389D01*
X547193Y445389D02*
X547193Y450215D01*
X548533Y450215D01*
X548604Y450213D01*
X548676Y450207D01*
X548746Y450198D01*
X548816Y450185D01*
X548886Y450168D01*
X548954Y450147D01*
X549021Y450123D01*
X549087Y450095D01*
X549151Y450064D01*
X549214Y450029D01*
X549274Y449991D01*
X549333Y449950D01*
X549389Y449906D01*
X549443Y449859D01*
X549494Y449810D01*
X549542Y449757D01*
X549588Y449702D01*
X549630Y449645D01*
X549670Y449585D01*
X549706Y449524D01*
X549739Y449460D01*
X549768Y449395D01*
X549794Y449329D01*
X549817Y449261D01*
X549836Y449192D01*
X549851Y449122D01*
X549862Y449052D01*
X549870Y448981D01*
X549874Y448910D01*
X549874Y448838D01*
X549870Y448767D01*
X549862Y448696D01*
X549851Y448626D01*
X549836Y448556D01*
X549817Y448487D01*
X549794Y448419D01*
X549768Y448353D01*
X549739Y448288D01*
X549706Y448224D01*
X549670Y448163D01*
X549630Y448103D01*
X549588Y448046D01*
X549542Y447991D01*
X549494Y447938D01*
X549443Y447889D01*
X549389Y447842D01*
X549333Y447798D01*
X549274Y447757D01*
X549214Y447719D01*
X549151Y447684D01*
X549087Y447653D01*
X549021Y447625D01*
X548954Y447601D01*
X548886Y447580D01*
X548816Y447563D01*
X548746Y447550D01*
X548676Y447541D01*
X548604Y447535D01*
X548533Y447533D01*
X548533Y447534D02*
X547193Y447534D01*
X548802Y447534D02*
X549874Y445389D01*
X554090Y450215D02*
X554158Y450213D01*
X554225Y450207D01*
X554292Y450198D01*
X554359Y450185D01*
X554424Y450168D01*
X554489Y450147D01*
X554552Y450123D01*
X554614Y450095D01*
X554674Y450064D01*
X554732Y450030D01*
X554788Y449992D01*
X554843Y449952D01*
X554894Y449908D01*
X554943Y449861D01*
X554990Y449812D01*
X555034Y449761D01*
X555074Y449706D01*
X555112Y449650D01*
X555146Y449592D01*
X555177Y449532D01*
X555205Y449470D01*
X555229Y449407D01*
X555250Y449342D01*
X555267Y449277D01*
X555280Y449210D01*
X555289Y449143D01*
X555295Y449076D01*
X555297Y449008D01*
X554090Y450215D02*
X554012Y450213D01*
X553934Y450207D01*
X553857Y450197D01*
X553780Y450184D01*
X553704Y450166D01*
X553629Y450145D01*
X553555Y450120D01*
X553483Y450091D01*
X553412Y450059D01*
X553343Y450023D01*
X553275Y449984D01*
X553210Y449941D01*
X553147Y449895D01*
X553086Y449846D01*
X553028Y449794D01*
X552973Y449739D01*
X552920Y449682D01*
X552871Y449622D01*
X552824Y449559D01*
X552781Y449495D01*
X552741Y449428D01*
X552704Y449359D01*
X552671Y449288D01*
X552641Y449216D01*
X552615Y449143D01*
X554895Y448070D02*
X554944Y448119D01*
X554991Y448171D01*
X555034Y448226D01*
X555075Y448283D01*
X555113Y448342D01*
X555147Y448403D01*
X555178Y448466D01*
X555206Y448530D01*
X555230Y448596D01*
X555250Y448662D01*
X555267Y448730D01*
X555280Y448799D01*
X555289Y448868D01*
X555295Y448938D01*
X555297Y449008D01*
X554894Y448070D02*
X552616Y445389D01*
X555297Y445389D01*
X741712Y446461D02*
X741712Y450215D01*
X741712Y446461D02*
X741710Y446396D01*
X741704Y446332D01*
X741694Y446268D01*
X741681Y446204D01*
X741663Y446142D01*
X741642Y446081D01*
X741618Y446021D01*
X741589Y445963D01*
X741557Y445906D01*
X741522Y445852D01*
X741484Y445800D01*
X741442Y445750D01*
X741398Y445703D01*
X741351Y445659D01*
X741301Y445617D01*
X741249Y445579D01*
X741195Y445544D01*
X741138Y445512D01*
X741080Y445483D01*
X741020Y445459D01*
X740959Y445438D01*
X740897Y445420D01*
X740833Y445407D01*
X740769Y445397D01*
X740705Y445391D01*
X740640Y445389D01*
X740103Y445389D01*
X744660Y449143D02*
X746000Y450215D01*
X746000Y445389D01*
X744660Y445389D02*
X747341Y445389D01*
X750393Y445389D02*
X750393Y450215D01*
X751733Y450215D01*
X751804Y450213D01*
X751876Y450207D01*
X751946Y450198D01*
X752016Y450185D01*
X752086Y450168D01*
X752154Y450147D01*
X752221Y450123D01*
X752287Y450095D01*
X752351Y450064D01*
X752414Y450029D01*
X752474Y449991D01*
X752533Y449950D01*
X752589Y449906D01*
X752643Y449859D01*
X752694Y449810D01*
X752742Y449757D01*
X752788Y449702D01*
X752830Y449645D01*
X752870Y449585D01*
X752906Y449524D01*
X752939Y449460D01*
X752968Y449395D01*
X752994Y449329D01*
X753017Y449261D01*
X753036Y449192D01*
X753051Y449122D01*
X753062Y449052D01*
X753070Y448981D01*
X753074Y448910D01*
X753074Y448838D01*
X753070Y448767D01*
X753062Y448696D01*
X753051Y448626D01*
X753036Y448556D01*
X753017Y448487D01*
X752994Y448419D01*
X752968Y448353D01*
X752939Y448288D01*
X752906Y448224D01*
X752870Y448163D01*
X752830Y448103D01*
X752788Y448046D01*
X752742Y447991D01*
X752694Y447938D01*
X752643Y447889D01*
X752589Y447842D01*
X752533Y447798D01*
X752474Y447757D01*
X752414Y447719D01*
X752351Y447684D01*
X752287Y447653D01*
X752221Y447625D01*
X752154Y447601D01*
X752086Y447580D01*
X752016Y447563D01*
X751946Y447550D01*
X751876Y447541D01*
X751804Y447535D01*
X751733Y447533D01*
X751733Y447534D02*
X750393Y447534D01*
X752002Y447534D02*
X753074Y445389D01*
X755816Y445389D02*
X757156Y445389D01*
X757227Y445391D01*
X757299Y445397D01*
X757369Y445406D01*
X757439Y445419D01*
X757509Y445436D01*
X757577Y445457D01*
X757644Y445481D01*
X757710Y445509D01*
X757774Y445540D01*
X757837Y445575D01*
X757897Y445613D01*
X757956Y445654D01*
X758012Y445698D01*
X758066Y445745D01*
X758117Y445794D01*
X758165Y445847D01*
X758211Y445902D01*
X758253Y445959D01*
X758293Y446019D01*
X758329Y446080D01*
X758362Y446144D01*
X758391Y446209D01*
X758417Y446275D01*
X758440Y446343D01*
X758459Y446412D01*
X758474Y446482D01*
X758485Y446552D01*
X758493Y446623D01*
X758497Y446694D01*
X758497Y446766D01*
X758493Y446837D01*
X758485Y446908D01*
X758474Y446978D01*
X758459Y447048D01*
X758440Y447117D01*
X758417Y447185D01*
X758391Y447251D01*
X758362Y447316D01*
X758329Y447380D01*
X758293Y447441D01*
X758253Y447501D01*
X758211Y447558D01*
X758165Y447613D01*
X758117Y447666D01*
X758066Y447715D01*
X758012Y447762D01*
X757956Y447806D01*
X757897Y447847D01*
X757837Y447885D01*
X757774Y447920D01*
X757710Y447951D01*
X757644Y447979D01*
X757577Y448003D01*
X757509Y448024D01*
X757439Y448041D01*
X757369Y448054D01*
X757299Y448063D01*
X757227Y448069D01*
X757156Y448071D01*
X757424Y450215D02*
X755816Y450215D01*
X757424Y450215D02*
X757489Y450213D01*
X757553Y450207D01*
X757617Y450197D01*
X757681Y450184D01*
X757743Y450166D01*
X757804Y450145D01*
X757864Y450121D01*
X757922Y450092D01*
X757979Y450060D01*
X758033Y450025D01*
X758085Y449987D01*
X758135Y449945D01*
X758182Y449901D01*
X758226Y449854D01*
X758268Y449804D01*
X758306Y449752D01*
X758341Y449698D01*
X758373Y449641D01*
X758402Y449583D01*
X758426Y449523D01*
X758447Y449462D01*
X758465Y449400D01*
X758478Y449336D01*
X758488Y449272D01*
X758494Y449208D01*
X758496Y449143D01*
X758494Y449078D01*
X758488Y449014D01*
X758478Y448950D01*
X758465Y448886D01*
X758447Y448824D01*
X758426Y448763D01*
X758402Y448703D01*
X758373Y448645D01*
X758341Y448588D01*
X758306Y448534D01*
X758268Y448482D01*
X758226Y448432D01*
X758182Y448385D01*
X758135Y448341D01*
X758085Y448299D01*
X758033Y448261D01*
X757979Y448226D01*
X757922Y448194D01*
X757864Y448165D01*
X757804Y448141D01*
X757743Y448120D01*
X757681Y448102D01*
X757617Y448089D01*
X757553Y448079D01*
X757489Y448073D01*
X757424Y448071D01*
X757424Y448070D02*
X756352Y448070D01*
X932212Y446461D02*
X932212Y450215D01*
X932212Y446461D02*
X932210Y446396D01*
X932204Y446332D01*
X932194Y446268D01*
X932181Y446204D01*
X932163Y446142D01*
X932142Y446081D01*
X932118Y446021D01*
X932089Y445963D01*
X932057Y445906D01*
X932022Y445852D01*
X931984Y445800D01*
X931942Y445750D01*
X931898Y445703D01*
X931851Y445659D01*
X931801Y445617D01*
X931749Y445579D01*
X931695Y445544D01*
X931638Y445512D01*
X931580Y445483D01*
X931520Y445459D01*
X931459Y445438D01*
X931397Y445420D01*
X931333Y445407D01*
X931269Y445397D01*
X931205Y445391D01*
X931140Y445389D01*
X930603Y445389D01*
X935160Y449143D02*
X936500Y450215D01*
X936500Y445389D01*
X935160Y445389D02*
X937841Y445389D01*
X940893Y445389D02*
X940893Y450215D01*
X942233Y450215D01*
X942304Y450213D01*
X942376Y450207D01*
X942446Y450198D01*
X942516Y450185D01*
X942586Y450168D01*
X942654Y450147D01*
X942721Y450123D01*
X942787Y450095D01*
X942851Y450064D01*
X942914Y450029D01*
X942974Y449991D01*
X943033Y449950D01*
X943089Y449906D01*
X943143Y449859D01*
X943194Y449810D01*
X943242Y449757D01*
X943288Y449702D01*
X943330Y449645D01*
X943370Y449585D01*
X943406Y449524D01*
X943439Y449460D01*
X943468Y449395D01*
X943494Y449329D01*
X943517Y449261D01*
X943536Y449192D01*
X943551Y449122D01*
X943562Y449052D01*
X943570Y448981D01*
X943574Y448910D01*
X943574Y448838D01*
X943570Y448767D01*
X943562Y448696D01*
X943551Y448626D01*
X943536Y448556D01*
X943517Y448487D01*
X943494Y448419D01*
X943468Y448353D01*
X943439Y448288D01*
X943406Y448224D01*
X943370Y448163D01*
X943330Y448103D01*
X943288Y448046D01*
X943242Y447991D01*
X943194Y447938D01*
X943143Y447889D01*
X943089Y447842D01*
X943033Y447798D01*
X942974Y447757D01*
X942914Y447719D01*
X942851Y447684D01*
X942787Y447653D01*
X942721Y447625D01*
X942654Y447601D01*
X942586Y447580D01*
X942516Y447563D01*
X942446Y447550D01*
X942376Y447541D01*
X942304Y447535D01*
X942233Y447533D01*
X942233Y447534D02*
X940893Y447534D01*
X942502Y447534D02*
X943574Y445389D01*
X946316Y446461D02*
X947388Y450215D01*
X946316Y446461D02*
X948997Y446461D01*
X948192Y445389D02*
X948192Y447534D01*
D12*
X1098550Y682000D02*
X1098550Y770900D01*
X2051050Y770900D02*
X2051050Y682000D01*
X2051050Y770900D02*
X1098550Y770900D01*
X2029650Y682000D02*
X2051050Y682000D01*
X1119950Y682000D02*
X1098550Y682000D01*
X1091050Y647700D02*
X1091052Y647763D01*
X1091058Y647825D01*
X1091068Y647887D01*
X1091081Y647949D01*
X1091099Y648009D01*
X1091120Y648068D01*
X1091145Y648126D01*
X1091174Y648182D01*
X1091206Y648236D01*
X1091241Y648288D01*
X1091279Y648337D01*
X1091321Y648385D01*
X1091365Y648429D01*
X1091413Y648471D01*
X1091462Y648509D01*
X1091514Y648544D01*
X1091568Y648576D01*
X1091624Y648605D01*
X1091682Y648630D01*
X1091741Y648651D01*
X1091801Y648669D01*
X1091863Y648682D01*
X1091925Y648692D01*
X1091987Y648698D01*
X1092050Y648700D01*
X1092113Y648698D01*
X1092175Y648692D01*
X1092237Y648682D01*
X1092299Y648669D01*
X1092359Y648651D01*
X1092418Y648630D01*
X1092476Y648605D01*
X1092532Y648576D01*
X1092586Y648544D01*
X1092638Y648509D01*
X1092687Y648471D01*
X1092735Y648429D01*
X1092779Y648385D01*
X1092821Y648337D01*
X1092859Y648288D01*
X1092894Y648236D01*
X1092926Y648182D01*
X1092955Y648126D01*
X1092980Y648068D01*
X1093001Y648009D01*
X1093019Y647949D01*
X1093032Y647887D01*
X1093042Y647825D01*
X1093048Y647763D01*
X1093050Y647700D01*
X1093048Y647637D01*
X1093042Y647575D01*
X1093032Y647513D01*
X1093019Y647451D01*
X1093001Y647391D01*
X1092980Y647332D01*
X1092955Y647274D01*
X1092926Y647218D01*
X1092894Y647164D01*
X1092859Y647112D01*
X1092821Y647063D01*
X1092779Y647015D01*
X1092735Y646971D01*
X1092687Y646929D01*
X1092638Y646891D01*
X1092586Y646856D01*
X1092532Y646824D01*
X1092476Y646795D01*
X1092418Y646770D01*
X1092359Y646749D01*
X1092299Y646731D01*
X1092237Y646718D01*
X1092175Y646708D01*
X1092113Y646702D01*
X1092050Y646700D01*
X1091987Y646702D01*
X1091925Y646708D01*
X1091863Y646718D01*
X1091801Y646731D01*
X1091741Y646749D01*
X1091682Y646770D01*
X1091624Y646795D01*
X1091568Y646824D01*
X1091514Y646856D01*
X1091462Y646891D01*
X1091413Y646929D01*
X1091365Y646971D01*
X1091321Y647015D01*
X1091279Y647063D01*
X1091241Y647112D01*
X1091206Y647164D01*
X1091174Y647218D01*
X1091145Y647274D01*
X1091120Y647332D01*
X1091099Y647391D01*
X1091081Y647451D01*
X1091068Y647513D01*
X1091058Y647575D01*
X1091052Y647637D01*
X1091050Y647700D01*
D11*
X1186121Y297815D02*
X1186121Y294061D01*
X1186120Y294061D02*
X1186118Y293996D01*
X1186112Y293932D01*
X1186102Y293868D01*
X1186089Y293804D01*
X1186071Y293742D01*
X1186050Y293681D01*
X1186026Y293621D01*
X1185997Y293563D01*
X1185965Y293506D01*
X1185930Y293452D01*
X1185892Y293400D01*
X1185850Y293350D01*
X1185806Y293303D01*
X1185759Y293259D01*
X1185709Y293217D01*
X1185657Y293179D01*
X1185603Y293144D01*
X1185546Y293112D01*
X1185488Y293083D01*
X1185428Y293059D01*
X1185367Y293038D01*
X1185305Y293020D01*
X1185241Y293007D01*
X1185177Y292997D01*
X1185113Y292991D01*
X1185048Y292989D01*
X1184512Y292989D01*
X1190543Y297815D02*
X1190611Y297813D01*
X1190678Y297807D01*
X1190745Y297798D01*
X1190812Y297785D01*
X1190877Y297768D01*
X1190942Y297747D01*
X1191005Y297723D01*
X1191067Y297695D01*
X1191127Y297664D01*
X1191185Y297630D01*
X1191241Y297592D01*
X1191296Y297552D01*
X1191347Y297508D01*
X1191396Y297461D01*
X1191443Y297412D01*
X1191487Y297361D01*
X1191527Y297306D01*
X1191565Y297250D01*
X1191599Y297192D01*
X1191630Y297132D01*
X1191658Y297070D01*
X1191682Y297007D01*
X1191703Y296942D01*
X1191720Y296877D01*
X1191733Y296810D01*
X1191742Y296743D01*
X1191748Y296676D01*
X1191750Y296608D01*
X1190543Y297815D02*
X1190465Y297813D01*
X1190387Y297807D01*
X1190310Y297797D01*
X1190233Y297784D01*
X1190157Y297766D01*
X1190082Y297745D01*
X1190008Y297720D01*
X1189936Y297691D01*
X1189865Y297659D01*
X1189796Y297623D01*
X1189728Y297584D01*
X1189663Y297541D01*
X1189600Y297495D01*
X1189539Y297446D01*
X1189481Y297394D01*
X1189426Y297339D01*
X1189373Y297282D01*
X1189324Y297222D01*
X1189277Y297159D01*
X1189234Y297095D01*
X1189194Y297028D01*
X1189157Y296959D01*
X1189124Y296888D01*
X1189094Y296816D01*
X1189068Y296743D01*
X1191348Y295670D02*
X1191397Y295719D01*
X1191444Y295771D01*
X1191487Y295826D01*
X1191528Y295883D01*
X1191566Y295942D01*
X1191600Y296003D01*
X1191631Y296066D01*
X1191659Y296130D01*
X1191683Y296196D01*
X1191703Y296262D01*
X1191720Y296330D01*
X1191733Y296399D01*
X1191742Y296468D01*
X1191748Y296538D01*
X1191750Y296608D01*
X1191347Y295670D02*
X1189069Y292989D01*
X1191750Y292989D01*
X1194738Y292989D02*
X1194738Y297815D01*
X1196078Y297815D01*
X1196148Y297813D01*
X1196218Y297808D01*
X1196288Y297798D01*
X1196357Y297786D01*
X1196425Y297769D01*
X1196492Y297749D01*
X1196559Y297726D01*
X1196623Y297699D01*
X1196687Y297669D01*
X1196749Y297635D01*
X1196808Y297599D01*
X1196866Y297559D01*
X1196922Y297516D01*
X1196975Y297471D01*
X1197026Y297422D01*
X1197075Y297371D01*
X1197120Y297318D01*
X1197163Y297262D01*
X1197203Y297204D01*
X1197239Y297145D01*
X1197273Y297083D01*
X1197303Y297019D01*
X1197330Y296955D01*
X1197353Y296888D01*
X1197373Y296821D01*
X1197390Y296753D01*
X1197402Y296684D01*
X1197412Y296614D01*
X1197417Y296544D01*
X1197419Y296474D01*
X1197419Y294330D01*
X1197417Y294260D01*
X1197412Y294190D01*
X1197402Y294120D01*
X1197390Y294051D01*
X1197373Y293983D01*
X1197353Y293916D01*
X1197330Y293849D01*
X1197303Y293785D01*
X1197273Y293721D01*
X1197239Y293659D01*
X1197203Y293600D01*
X1197163Y293542D01*
X1197120Y293486D01*
X1197075Y293433D01*
X1197026Y293382D01*
X1196975Y293333D01*
X1196922Y293288D01*
X1196866Y293245D01*
X1196808Y293205D01*
X1196748Y293169D01*
X1196687Y293135D01*
X1196623Y293105D01*
X1196559Y293078D01*
X1196492Y293055D01*
X1196425Y293035D01*
X1196357Y293018D01*
X1196288Y293006D01*
X1196218Y292996D01*
X1196148Y292991D01*
X1196078Y292989D01*
X1194738Y292989D01*
X1200407Y295402D02*
X1200409Y295522D01*
X1200414Y295642D01*
X1200423Y295762D01*
X1200436Y295882D01*
X1200452Y296001D01*
X1200472Y296120D01*
X1200496Y296238D01*
X1200523Y296355D01*
X1200553Y296471D01*
X1200587Y296586D01*
X1200625Y296701D01*
X1200666Y296814D01*
X1200710Y296925D01*
X1200758Y297036D01*
X1200809Y297145D01*
X1200810Y297145D02*
X1200831Y297202D01*
X1200857Y297258D01*
X1200885Y297313D01*
X1200917Y297365D01*
X1200953Y297416D01*
X1200991Y297464D01*
X1201032Y297510D01*
X1201076Y297553D01*
X1201122Y297593D01*
X1201171Y297630D01*
X1201223Y297664D01*
X1201276Y297695D01*
X1201331Y297723D01*
X1201387Y297747D01*
X1201445Y297768D01*
X1201504Y297785D01*
X1201564Y297798D01*
X1201625Y297807D01*
X1201687Y297813D01*
X1201748Y297815D01*
X1201809Y297813D01*
X1201871Y297807D01*
X1201932Y297798D01*
X1201992Y297785D01*
X1202051Y297768D01*
X1202109Y297747D01*
X1202165Y297723D01*
X1202220Y297695D01*
X1202273Y297664D01*
X1202325Y297630D01*
X1202374Y297593D01*
X1202420Y297553D01*
X1202464Y297510D01*
X1202505Y297464D01*
X1202543Y297416D01*
X1202579Y297365D01*
X1202611Y297313D01*
X1202639Y297258D01*
X1202665Y297202D01*
X1202686Y297145D01*
X1202737Y297036D01*
X1202785Y296925D01*
X1202829Y296814D01*
X1202870Y296701D01*
X1202908Y296586D01*
X1202942Y296471D01*
X1202972Y296355D01*
X1202999Y296238D01*
X1203023Y296120D01*
X1203043Y296001D01*
X1203059Y295882D01*
X1203072Y295762D01*
X1203081Y295642D01*
X1203086Y295522D01*
X1203088Y295402D01*
X1200407Y295402D02*
X1200409Y295282D01*
X1200414Y295162D01*
X1200423Y295042D01*
X1200436Y294922D01*
X1200452Y294803D01*
X1200472Y294684D01*
X1200496Y294566D01*
X1200523Y294449D01*
X1200553Y294333D01*
X1200587Y294218D01*
X1200625Y294103D01*
X1200666Y293990D01*
X1200710Y293879D01*
X1200758Y293768D01*
X1200809Y293659D01*
X1200810Y293659D02*
X1200831Y293602D01*
X1200857Y293546D01*
X1200885Y293491D01*
X1200917Y293439D01*
X1200953Y293388D01*
X1200991Y293340D01*
X1201032Y293294D01*
X1201076Y293251D01*
X1201122Y293211D01*
X1201171Y293174D01*
X1201223Y293140D01*
X1201276Y293109D01*
X1201331Y293081D01*
X1201387Y293057D01*
X1201445Y293036D01*
X1201504Y293019D01*
X1201564Y293006D01*
X1201625Y292997D01*
X1201687Y292991D01*
X1201748Y292989D01*
X1202686Y293659D02*
X1202737Y293768D01*
X1202785Y293879D01*
X1202829Y293990D01*
X1202870Y294103D01*
X1202908Y294218D01*
X1202942Y294333D01*
X1202972Y294449D01*
X1202999Y294566D01*
X1203023Y294684D01*
X1203043Y294803D01*
X1203059Y294922D01*
X1203072Y295042D01*
X1203081Y295162D01*
X1203086Y295282D01*
X1203088Y295402D01*
X1202686Y293659D02*
X1202665Y293602D01*
X1202639Y293546D01*
X1202611Y293491D01*
X1202579Y293439D01*
X1202543Y293388D01*
X1202505Y293340D01*
X1202464Y293294D01*
X1202420Y293251D01*
X1202373Y293211D01*
X1202325Y293174D01*
X1202273Y293140D01*
X1202220Y293109D01*
X1202165Y293081D01*
X1202109Y293057D01*
X1202051Y293036D01*
X1201992Y293019D01*
X1201932Y293006D01*
X1201871Y292997D01*
X1201809Y292991D01*
X1201748Y292989D01*
X1200675Y294061D02*
X1202820Y296743D01*
X1376621Y297815D02*
X1376621Y294061D01*
X1376620Y294061D02*
X1376618Y293996D01*
X1376612Y293932D01*
X1376602Y293868D01*
X1376589Y293804D01*
X1376571Y293742D01*
X1376550Y293681D01*
X1376526Y293621D01*
X1376497Y293563D01*
X1376465Y293506D01*
X1376430Y293452D01*
X1376392Y293400D01*
X1376350Y293350D01*
X1376306Y293303D01*
X1376259Y293259D01*
X1376209Y293217D01*
X1376157Y293179D01*
X1376103Y293144D01*
X1376046Y293112D01*
X1375988Y293083D01*
X1375928Y293059D01*
X1375867Y293038D01*
X1375805Y293020D01*
X1375741Y293007D01*
X1375677Y292997D01*
X1375613Y292991D01*
X1375548Y292989D01*
X1375012Y292989D01*
X1381043Y297815D02*
X1381111Y297813D01*
X1381178Y297807D01*
X1381245Y297798D01*
X1381312Y297785D01*
X1381377Y297768D01*
X1381442Y297747D01*
X1381505Y297723D01*
X1381567Y297695D01*
X1381627Y297664D01*
X1381685Y297630D01*
X1381741Y297592D01*
X1381796Y297552D01*
X1381847Y297508D01*
X1381896Y297461D01*
X1381943Y297412D01*
X1381987Y297361D01*
X1382027Y297306D01*
X1382065Y297250D01*
X1382099Y297192D01*
X1382130Y297132D01*
X1382158Y297070D01*
X1382182Y297007D01*
X1382203Y296942D01*
X1382220Y296877D01*
X1382233Y296810D01*
X1382242Y296743D01*
X1382248Y296676D01*
X1382250Y296608D01*
X1381043Y297815D02*
X1380965Y297813D01*
X1380887Y297807D01*
X1380810Y297797D01*
X1380733Y297784D01*
X1380657Y297766D01*
X1380582Y297745D01*
X1380508Y297720D01*
X1380436Y297691D01*
X1380365Y297659D01*
X1380296Y297623D01*
X1380228Y297584D01*
X1380163Y297541D01*
X1380100Y297495D01*
X1380039Y297446D01*
X1379981Y297394D01*
X1379926Y297339D01*
X1379873Y297282D01*
X1379824Y297222D01*
X1379777Y297159D01*
X1379734Y297095D01*
X1379694Y297028D01*
X1379657Y296959D01*
X1379624Y296888D01*
X1379594Y296816D01*
X1379568Y296743D01*
X1381848Y295670D02*
X1381897Y295719D01*
X1381944Y295771D01*
X1381987Y295826D01*
X1382028Y295883D01*
X1382066Y295942D01*
X1382100Y296003D01*
X1382131Y296066D01*
X1382159Y296130D01*
X1382183Y296196D01*
X1382203Y296262D01*
X1382220Y296330D01*
X1382233Y296399D01*
X1382242Y296468D01*
X1382248Y296538D01*
X1382250Y296608D01*
X1381847Y295670D02*
X1379569Y292989D01*
X1382250Y292989D01*
X1385238Y292989D02*
X1385238Y297815D01*
X1386578Y297815D01*
X1386648Y297813D01*
X1386718Y297808D01*
X1386788Y297798D01*
X1386857Y297786D01*
X1386925Y297769D01*
X1386992Y297749D01*
X1387059Y297726D01*
X1387123Y297699D01*
X1387187Y297669D01*
X1387249Y297635D01*
X1387308Y297599D01*
X1387366Y297559D01*
X1387422Y297516D01*
X1387475Y297471D01*
X1387526Y297422D01*
X1387575Y297371D01*
X1387620Y297318D01*
X1387663Y297262D01*
X1387703Y297204D01*
X1387739Y297145D01*
X1387773Y297083D01*
X1387803Y297019D01*
X1387830Y296955D01*
X1387853Y296888D01*
X1387873Y296821D01*
X1387890Y296753D01*
X1387902Y296684D01*
X1387912Y296614D01*
X1387917Y296544D01*
X1387919Y296474D01*
X1387919Y294330D01*
X1387917Y294260D01*
X1387912Y294190D01*
X1387902Y294120D01*
X1387890Y294051D01*
X1387873Y293983D01*
X1387853Y293916D01*
X1387830Y293849D01*
X1387803Y293785D01*
X1387773Y293721D01*
X1387739Y293659D01*
X1387703Y293600D01*
X1387663Y293542D01*
X1387620Y293486D01*
X1387575Y293433D01*
X1387526Y293382D01*
X1387475Y293333D01*
X1387422Y293288D01*
X1387366Y293245D01*
X1387308Y293205D01*
X1387248Y293169D01*
X1387187Y293135D01*
X1387123Y293105D01*
X1387059Y293078D01*
X1386992Y293055D01*
X1386925Y293035D01*
X1386857Y293018D01*
X1386788Y293006D01*
X1386718Y292996D01*
X1386648Y292991D01*
X1386578Y292989D01*
X1385238Y292989D01*
X1390907Y296743D02*
X1392248Y297815D01*
X1392248Y292989D01*
X1393588Y292989D02*
X1390907Y292989D01*
X1567121Y294061D02*
X1567121Y297815D01*
X1567120Y294061D02*
X1567118Y293996D01*
X1567112Y293932D01*
X1567102Y293868D01*
X1567089Y293804D01*
X1567071Y293742D01*
X1567050Y293681D01*
X1567026Y293621D01*
X1566997Y293563D01*
X1566965Y293506D01*
X1566930Y293452D01*
X1566892Y293400D01*
X1566850Y293350D01*
X1566806Y293303D01*
X1566759Y293259D01*
X1566709Y293217D01*
X1566657Y293179D01*
X1566603Y293144D01*
X1566546Y293112D01*
X1566488Y293083D01*
X1566428Y293059D01*
X1566367Y293038D01*
X1566305Y293020D01*
X1566241Y293007D01*
X1566177Y292997D01*
X1566113Y292991D01*
X1566048Y292989D01*
X1565512Y292989D01*
X1571543Y297815D02*
X1571611Y297813D01*
X1571678Y297807D01*
X1571745Y297798D01*
X1571812Y297785D01*
X1571877Y297768D01*
X1571942Y297747D01*
X1572005Y297723D01*
X1572067Y297695D01*
X1572127Y297664D01*
X1572185Y297630D01*
X1572241Y297592D01*
X1572296Y297552D01*
X1572347Y297508D01*
X1572396Y297461D01*
X1572443Y297412D01*
X1572487Y297361D01*
X1572527Y297306D01*
X1572565Y297250D01*
X1572599Y297192D01*
X1572630Y297132D01*
X1572658Y297070D01*
X1572682Y297007D01*
X1572703Y296942D01*
X1572720Y296877D01*
X1572733Y296810D01*
X1572742Y296743D01*
X1572748Y296676D01*
X1572750Y296608D01*
X1571543Y297815D02*
X1571465Y297813D01*
X1571387Y297807D01*
X1571310Y297797D01*
X1571233Y297784D01*
X1571157Y297766D01*
X1571082Y297745D01*
X1571008Y297720D01*
X1570936Y297691D01*
X1570865Y297659D01*
X1570796Y297623D01*
X1570728Y297584D01*
X1570663Y297541D01*
X1570600Y297495D01*
X1570539Y297446D01*
X1570481Y297394D01*
X1570426Y297339D01*
X1570373Y297282D01*
X1570324Y297222D01*
X1570277Y297159D01*
X1570234Y297095D01*
X1570194Y297028D01*
X1570157Y296959D01*
X1570124Y296888D01*
X1570094Y296816D01*
X1570068Y296743D01*
X1572348Y295670D02*
X1572397Y295719D01*
X1572444Y295771D01*
X1572487Y295826D01*
X1572528Y295883D01*
X1572566Y295942D01*
X1572600Y296003D01*
X1572631Y296066D01*
X1572659Y296130D01*
X1572683Y296196D01*
X1572703Y296262D01*
X1572720Y296330D01*
X1572733Y296399D01*
X1572742Y296468D01*
X1572748Y296538D01*
X1572750Y296608D01*
X1572347Y295670D02*
X1570069Y292989D01*
X1572750Y292989D01*
X1575738Y292989D02*
X1575738Y297815D01*
X1577078Y297815D01*
X1577148Y297813D01*
X1577218Y297808D01*
X1577288Y297798D01*
X1577357Y297786D01*
X1577425Y297769D01*
X1577492Y297749D01*
X1577559Y297726D01*
X1577623Y297699D01*
X1577687Y297669D01*
X1577749Y297635D01*
X1577808Y297599D01*
X1577866Y297559D01*
X1577922Y297516D01*
X1577975Y297471D01*
X1578026Y297422D01*
X1578075Y297371D01*
X1578120Y297318D01*
X1578163Y297262D01*
X1578203Y297204D01*
X1578239Y297145D01*
X1578273Y297083D01*
X1578303Y297019D01*
X1578330Y296955D01*
X1578353Y296888D01*
X1578373Y296821D01*
X1578390Y296753D01*
X1578402Y296684D01*
X1578412Y296614D01*
X1578417Y296544D01*
X1578419Y296474D01*
X1578419Y294330D01*
X1578417Y294260D01*
X1578412Y294190D01*
X1578402Y294120D01*
X1578390Y294051D01*
X1578373Y293983D01*
X1578353Y293916D01*
X1578330Y293849D01*
X1578303Y293785D01*
X1578273Y293721D01*
X1578239Y293659D01*
X1578203Y293600D01*
X1578163Y293542D01*
X1578120Y293486D01*
X1578075Y293433D01*
X1578026Y293382D01*
X1577975Y293333D01*
X1577922Y293288D01*
X1577866Y293245D01*
X1577808Y293205D01*
X1577748Y293169D01*
X1577687Y293135D01*
X1577623Y293105D01*
X1577559Y293078D01*
X1577492Y293055D01*
X1577425Y293035D01*
X1577357Y293018D01*
X1577288Y293006D01*
X1577218Y292996D01*
X1577148Y292991D01*
X1577078Y292989D01*
X1575738Y292989D01*
X1582882Y297815D02*
X1582950Y297813D01*
X1583017Y297807D01*
X1583084Y297798D01*
X1583151Y297785D01*
X1583216Y297768D01*
X1583281Y297747D01*
X1583344Y297723D01*
X1583406Y297695D01*
X1583466Y297664D01*
X1583524Y297630D01*
X1583580Y297592D01*
X1583635Y297552D01*
X1583686Y297508D01*
X1583735Y297461D01*
X1583782Y297412D01*
X1583826Y297361D01*
X1583866Y297306D01*
X1583904Y297250D01*
X1583938Y297192D01*
X1583969Y297132D01*
X1583997Y297070D01*
X1584021Y297007D01*
X1584042Y296942D01*
X1584059Y296877D01*
X1584072Y296810D01*
X1584081Y296743D01*
X1584087Y296676D01*
X1584089Y296608D01*
X1582882Y297815D02*
X1582804Y297813D01*
X1582726Y297807D01*
X1582649Y297797D01*
X1582572Y297784D01*
X1582496Y297766D01*
X1582421Y297745D01*
X1582347Y297720D01*
X1582275Y297691D01*
X1582204Y297659D01*
X1582135Y297623D01*
X1582067Y297584D01*
X1582002Y297541D01*
X1581939Y297495D01*
X1581878Y297446D01*
X1581820Y297394D01*
X1581765Y297339D01*
X1581712Y297282D01*
X1581663Y297222D01*
X1581616Y297159D01*
X1581573Y297095D01*
X1581533Y297028D01*
X1581496Y296959D01*
X1581463Y296888D01*
X1581433Y296816D01*
X1581407Y296743D01*
X1583686Y295670D02*
X1583735Y295719D01*
X1583782Y295771D01*
X1583825Y295826D01*
X1583866Y295883D01*
X1583904Y295942D01*
X1583938Y296003D01*
X1583969Y296066D01*
X1583997Y296130D01*
X1584021Y296196D01*
X1584041Y296262D01*
X1584058Y296330D01*
X1584071Y296399D01*
X1584080Y296468D01*
X1584086Y296538D01*
X1584088Y296608D01*
X1583686Y295670D02*
X1581407Y292989D01*
X1584088Y292989D01*
X1757621Y294061D02*
X1757621Y297815D01*
X1757620Y294061D02*
X1757618Y293996D01*
X1757612Y293932D01*
X1757602Y293868D01*
X1757589Y293804D01*
X1757571Y293742D01*
X1757550Y293681D01*
X1757526Y293621D01*
X1757497Y293563D01*
X1757465Y293506D01*
X1757430Y293452D01*
X1757392Y293400D01*
X1757350Y293350D01*
X1757306Y293303D01*
X1757259Y293259D01*
X1757209Y293217D01*
X1757157Y293179D01*
X1757103Y293144D01*
X1757046Y293112D01*
X1756988Y293083D01*
X1756928Y293059D01*
X1756867Y293038D01*
X1756805Y293020D01*
X1756741Y293007D01*
X1756677Y292997D01*
X1756613Y292991D01*
X1756548Y292989D01*
X1756012Y292989D01*
X1762043Y297815D02*
X1762111Y297813D01*
X1762178Y297807D01*
X1762245Y297798D01*
X1762312Y297785D01*
X1762377Y297768D01*
X1762442Y297747D01*
X1762505Y297723D01*
X1762567Y297695D01*
X1762627Y297664D01*
X1762685Y297630D01*
X1762741Y297592D01*
X1762796Y297552D01*
X1762847Y297508D01*
X1762896Y297461D01*
X1762943Y297412D01*
X1762987Y297361D01*
X1763027Y297306D01*
X1763065Y297250D01*
X1763099Y297192D01*
X1763130Y297132D01*
X1763158Y297070D01*
X1763182Y297007D01*
X1763203Y296942D01*
X1763220Y296877D01*
X1763233Y296810D01*
X1763242Y296743D01*
X1763248Y296676D01*
X1763250Y296608D01*
X1762043Y297815D02*
X1761965Y297813D01*
X1761887Y297807D01*
X1761810Y297797D01*
X1761733Y297784D01*
X1761657Y297766D01*
X1761582Y297745D01*
X1761508Y297720D01*
X1761436Y297691D01*
X1761365Y297659D01*
X1761296Y297623D01*
X1761228Y297584D01*
X1761163Y297541D01*
X1761100Y297495D01*
X1761039Y297446D01*
X1760981Y297394D01*
X1760926Y297339D01*
X1760873Y297282D01*
X1760824Y297222D01*
X1760777Y297159D01*
X1760734Y297095D01*
X1760694Y297028D01*
X1760657Y296959D01*
X1760624Y296888D01*
X1760594Y296816D01*
X1760568Y296743D01*
X1762848Y295670D02*
X1762897Y295719D01*
X1762944Y295771D01*
X1762987Y295826D01*
X1763028Y295883D01*
X1763066Y295942D01*
X1763100Y296003D01*
X1763131Y296066D01*
X1763159Y296130D01*
X1763183Y296196D01*
X1763203Y296262D01*
X1763220Y296330D01*
X1763233Y296399D01*
X1763242Y296468D01*
X1763248Y296538D01*
X1763250Y296608D01*
X1762847Y295670D02*
X1760569Y292989D01*
X1763250Y292989D01*
X1766238Y292989D02*
X1766238Y297815D01*
X1767578Y297815D01*
X1767648Y297813D01*
X1767718Y297808D01*
X1767788Y297798D01*
X1767857Y297786D01*
X1767925Y297769D01*
X1767992Y297749D01*
X1768059Y297726D01*
X1768123Y297699D01*
X1768187Y297669D01*
X1768249Y297635D01*
X1768308Y297599D01*
X1768366Y297559D01*
X1768422Y297516D01*
X1768475Y297471D01*
X1768526Y297422D01*
X1768575Y297371D01*
X1768620Y297318D01*
X1768663Y297262D01*
X1768703Y297204D01*
X1768739Y297145D01*
X1768773Y297083D01*
X1768803Y297019D01*
X1768830Y296955D01*
X1768853Y296888D01*
X1768873Y296821D01*
X1768890Y296753D01*
X1768902Y296684D01*
X1768912Y296614D01*
X1768917Y296544D01*
X1768919Y296474D01*
X1768919Y294330D01*
X1768917Y294260D01*
X1768912Y294190D01*
X1768902Y294120D01*
X1768890Y294051D01*
X1768873Y293983D01*
X1768853Y293916D01*
X1768830Y293849D01*
X1768803Y293785D01*
X1768773Y293721D01*
X1768739Y293659D01*
X1768703Y293600D01*
X1768663Y293542D01*
X1768620Y293486D01*
X1768575Y293433D01*
X1768526Y293382D01*
X1768475Y293333D01*
X1768422Y293288D01*
X1768366Y293245D01*
X1768308Y293205D01*
X1768248Y293169D01*
X1768187Y293135D01*
X1768123Y293105D01*
X1768059Y293078D01*
X1767992Y293055D01*
X1767925Y293035D01*
X1767857Y293018D01*
X1767788Y293006D01*
X1767718Y292996D01*
X1767648Y292991D01*
X1767578Y292989D01*
X1766238Y292989D01*
X1771907Y292989D02*
X1773248Y292989D01*
X1773319Y292991D01*
X1773391Y292997D01*
X1773461Y293006D01*
X1773531Y293019D01*
X1773601Y293036D01*
X1773669Y293057D01*
X1773736Y293081D01*
X1773802Y293109D01*
X1773866Y293140D01*
X1773929Y293175D01*
X1773989Y293213D01*
X1774048Y293254D01*
X1774104Y293298D01*
X1774158Y293345D01*
X1774209Y293394D01*
X1774257Y293447D01*
X1774303Y293502D01*
X1774345Y293559D01*
X1774385Y293619D01*
X1774421Y293680D01*
X1774454Y293744D01*
X1774483Y293809D01*
X1774509Y293875D01*
X1774532Y293943D01*
X1774551Y294012D01*
X1774566Y294082D01*
X1774577Y294152D01*
X1774585Y294223D01*
X1774589Y294294D01*
X1774589Y294366D01*
X1774585Y294437D01*
X1774577Y294508D01*
X1774566Y294578D01*
X1774551Y294648D01*
X1774532Y294717D01*
X1774509Y294785D01*
X1774483Y294851D01*
X1774454Y294916D01*
X1774421Y294980D01*
X1774385Y295041D01*
X1774345Y295101D01*
X1774303Y295158D01*
X1774257Y295213D01*
X1774209Y295266D01*
X1774158Y295315D01*
X1774104Y295362D01*
X1774048Y295406D01*
X1773989Y295447D01*
X1773929Y295485D01*
X1773866Y295520D01*
X1773802Y295551D01*
X1773736Y295579D01*
X1773669Y295603D01*
X1773601Y295624D01*
X1773531Y295641D01*
X1773461Y295654D01*
X1773391Y295663D01*
X1773319Y295669D01*
X1773248Y295671D01*
X1773516Y297815D02*
X1771907Y297815D01*
X1773516Y297815D02*
X1773581Y297813D01*
X1773645Y297807D01*
X1773709Y297797D01*
X1773773Y297784D01*
X1773835Y297766D01*
X1773896Y297745D01*
X1773956Y297721D01*
X1774014Y297692D01*
X1774071Y297660D01*
X1774125Y297625D01*
X1774177Y297587D01*
X1774227Y297545D01*
X1774274Y297501D01*
X1774318Y297454D01*
X1774360Y297404D01*
X1774398Y297352D01*
X1774433Y297298D01*
X1774465Y297241D01*
X1774494Y297183D01*
X1774518Y297123D01*
X1774539Y297062D01*
X1774557Y297000D01*
X1774570Y296936D01*
X1774580Y296872D01*
X1774586Y296808D01*
X1774588Y296743D01*
X1774586Y296678D01*
X1774580Y296614D01*
X1774570Y296550D01*
X1774557Y296486D01*
X1774539Y296424D01*
X1774518Y296363D01*
X1774494Y296303D01*
X1774465Y296245D01*
X1774433Y296188D01*
X1774398Y296134D01*
X1774360Y296082D01*
X1774318Y296032D01*
X1774274Y295985D01*
X1774227Y295941D01*
X1774177Y295899D01*
X1774125Y295861D01*
X1774071Y295826D01*
X1774014Y295794D01*
X1773956Y295765D01*
X1773896Y295741D01*
X1773835Y295720D01*
X1773773Y295702D01*
X1773709Y295689D01*
X1773645Y295679D01*
X1773581Y295673D01*
X1773516Y295671D01*
X1773516Y295670D02*
X1772443Y295670D01*
X1948121Y294061D02*
X1948121Y297815D01*
X1948120Y294061D02*
X1948118Y293996D01*
X1948112Y293932D01*
X1948102Y293868D01*
X1948089Y293804D01*
X1948071Y293742D01*
X1948050Y293681D01*
X1948026Y293621D01*
X1947997Y293563D01*
X1947965Y293506D01*
X1947930Y293452D01*
X1947892Y293400D01*
X1947850Y293350D01*
X1947806Y293303D01*
X1947759Y293259D01*
X1947709Y293217D01*
X1947657Y293179D01*
X1947603Y293144D01*
X1947546Y293112D01*
X1947488Y293083D01*
X1947428Y293059D01*
X1947367Y293038D01*
X1947305Y293020D01*
X1947241Y293007D01*
X1947177Y292997D01*
X1947113Y292991D01*
X1947048Y292989D01*
X1946512Y292989D01*
X1952543Y297815D02*
X1952611Y297813D01*
X1952678Y297807D01*
X1952745Y297798D01*
X1952812Y297785D01*
X1952877Y297768D01*
X1952942Y297747D01*
X1953005Y297723D01*
X1953067Y297695D01*
X1953127Y297664D01*
X1953185Y297630D01*
X1953241Y297592D01*
X1953296Y297552D01*
X1953347Y297508D01*
X1953396Y297461D01*
X1953443Y297412D01*
X1953487Y297361D01*
X1953527Y297306D01*
X1953565Y297250D01*
X1953599Y297192D01*
X1953630Y297132D01*
X1953658Y297070D01*
X1953682Y297007D01*
X1953703Y296942D01*
X1953720Y296877D01*
X1953733Y296810D01*
X1953742Y296743D01*
X1953748Y296676D01*
X1953750Y296608D01*
X1952543Y297815D02*
X1952465Y297813D01*
X1952387Y297807D01*
X1952310Y297797D01*
X1952233Y297784D01*
X1952157Y297766D01*
X1952082Y297745D01*
X1952008Y297720D01*
X1951936Y297691D01*
X1951865Y297659D01*
X1951796Y297623D01*
X1951728Y297584D01*
X1951663Y297541D01*
X1951600Y297495D01*
X1951539Y297446D01*
X1951481Y297394D01*
X1951426Y297339D01*
X1951373Y297282D01*
X1951324Y297222D01*
X1951277Y297159D01*
X1951234Y297095D01*
X1951194Y297028D01*
X1951157Y296959D01*
X1951124Y296888D01*
X1951094Y296816D01*
X1951068Y296743D01*
X1953348Y295670D02*
X1953397Y295719D01*
X1953444Y295771D01*
X1953487Y295826D01*
X1953528Y295883D01*
X1953566Y295942D01*
X1953600Y296003D01*
X1953631Y296066D01*
X1953659Y296130D01*
X1953683Y296196D01*
X1953703Y296262D01*
X1953720Y296330D01*
X1953733Y296399D01*
X1953742Y296468D01*
X1953748Y296538D01*
X1953750Y296608D01*
X1953347Y295670D02*
X1951069Y292989D01*
X1953750Y292989D01*
X1956738Y292989D02*
X1956738Y297815D01*
X1958078Y297815D01*
X1958148Y297813D01*
X1958218Y297808D01*
X1958288Y297798D01*
X1958357Y297786D01*
X1958425Y297769D01*
X1958492Y297749D01*
X1958559Y297726D01*
X1958623Y297699D01*
X1958687Y297669D01*
X1958749Y297635D01*
X1958808Y297599D01*
X1958866Y297559D01*
X1958922Y297516D01*
X1958975Y297471D01*
X1959026Y297422D01*
X1959075Y297371D01*
X1959120Y297318D01*
X1959163Y297262D01*
X1959203Y297204D01*
X1959239Y297145D01*
X1959273Y297083D01*
X1959303Y297019D01*
X1959330Y296955D01*
X1959353Y296888D01*
X1959373Y296821D01*
X1959390Y296753D01*
X1959402Y296684D01*
X1959412Y296614D01*
X1959417Y296544D01*
X1959419Y296474D01*
X1959419Y294330D01*
X1959417Y294260D01*
X1959412Y294190D01*
X1959402Y294120D01*
X1959390Y294051D01*
X1959373Y293983D01*
X1959353Y293916D01*
X1959330Y293849D01*
X1959303Y293785D01*
X1959273Y293721D01*
X1959239Y293659D01*
X1959203Y293600D01*
X1959163Y293542D01*
X1959120Y293486D01*
X1959075Y293433D01*
X1959026Y293382D01*
X1958975Y293333D01*
X1958922Y293288D01*
X1958866Y293245D01*
X1958808Y293205D01*
X1958748Y293169D01*
X1958687Y293135D01*
X1958623Y293105D01*
X1958559Y293078D01*
X1958492Y293055D01*
X1958425Y293035D01*
X1958357Y293018D01*
X1958288Y293006D01*
X1958218Y292996D01*
X1958148Y292991D01*
X1958078Y292989D01*
X1956738Y292989D01*
X1962407Y294061D02*
X1963479Y297815D01*
X1962407Y294061D02*
X1965088Y294061D01*
X1964284Y295134D02*
X1964284Y292989D01*
X1186212Y446461D02*
X1186212Y450215D01*
X1186212Y446461D02*
X1186210Y446396D01*
X1186204Y446332D01*
X1186194Y446268D01*
X1186181Y446204D01*
X1186163Y446142D01*
X1186142Y446081D01*
X1186118Y446021D01*
X1186089Y445963D01*
X1186057Y445906D01*
X1186022Y445852D01*
X1185984Y445800D01*
X1185942Y445750D01*
X1185898Y445703D01*
X1185851Y445659D01*
X1185801Y445617D01*
X1185749Y445579D01*
X1185695Y445544D01*
X1185638Y445512D01*
X1185580Y445483D01*
X1185520Y445459D01*
X1185459Y445438D01*
X1185397Y445420D01*
X1185333Y445407D01*
X1185269Y445397D01*
X1185205Y445391D01*
X1185140Y445389D01*
X1184603Y445389D01*
X1190635Y450215D02*
X1190703Y450213D01*
X1190770Y450207D01*
X1190837Y450198D01*
X1190904Y450185D01*
X1190969Y450168D01*
X1191034Y450147D01*
X1191097Y450123D01*
X1191159Y450095D01*
X1191219Y450064D01*
X1191277Y450030D01*
X1191333Y449992D01*
X1191388Y449952D01*
X1191439Y449908D01*
X1191488Y449861D01*
X1191535Y449812D01*
X1191579Y449761D01*
X1191619Y449706D01*
X1191657Y449650D01*
X1191691Y449592D01*
X1191722Y449532D01*
X1191750Y449470D01*
X1191774Y449407D01*
X1191795Y449342D01*
X1191812Y449277D01*
X1191825Y449210D01*
X1191834Y449143D01*
X1191840Y449076D01*
X1191842Y449008D01*
X1190635Y450215D02*
X1190557Y450213D01*
X1190479Y450207D01*
X1190402Y450197D01*
X1190325Y450184D01*
X1190249Y450166D01*
X1190174Y450145D01*
X1190100Y450120D01*
X1190028Y450091D01*
X1189957Y450059D01*
X1189888Y450023D01*
X1189820Y449984D01*
X1189755Y449941D01*
X1189692Y449895D01*
X1189631Y449846D01*
X1189573Y449794D01*
X1189518Y449739D01*
X1189465Y449682D01*
X1189416Y449622D01*
X1189369Y449559D01*
X1189326Y449495D01*
X1189286Y449428D01*
X1189249Y449359D01*
X1189216Y449288D01*
X1189186Y449216D01*
X1189160Y449143D01*
X1191439Y448070D02*
X1191488Y448119D01*
X1191535Y448171D01*
X1191578Y448226D01*
X1191619Y448283D01*
X1191657Y448342D01*
X1191691Y448403D01*
X1191722Y448466D01*
X1191750Y448530D01*
X1191774Y448596D01*
X1191794Y448662D01*
X1191811Y448730D01*
X1191824Y448799D01*
X1191833Y448868D01*
X1191839Y448938D01*
X1191841Y449008D01*
X1191439Y448070D02*
X1189160Y445389D01*
X1191841Y445389D01*
X1194893Y445389D02*
X1194893Y450215D01*
X1196233Y450215D01*
X1196304Y450213D01*
X1196376Y450207D01*
X1196446Y450198D01*
X1196516Y450185D01*
X1196586Y450168D01*
X1196654Y450147D01*
X1196721Y450123D01*
X1196787Y450095D01*
X1196851Y450064D01*
X1196914Y450029D01*
X1196974Y449991D01*
X1197033Y449950D01*
X1197089Y449906D01*
X1197143Y449859D01*
X1197194Y449810D01*
X1197242Y449757D01*
X1197288Y449702D01*
X1197330Y449645D01*
X1197370Y449585D01*
X1197406Y449524D01*
X1197439Y449460D01*
X1197468Y449395D01*
X1197494Y449329D01*
X1197517Y449261D01*
X1197536Y449192D01*
X1197551Y449122D01*
X1197562Y449052D01*
X1197570Y448981D01*
X1197574Y448910D01*
X1197574Y448838D01*
X1197570Y448767D01*
X1197562Y448696D01*
X1197551Y448626D01*
X1197536Y448556D01*
X1197517Y448487D01*
X1197494Y448419D01*
X1197468Y448353D01*
X1197439Y448288D01*
X1197406Y448224D01*
X1197370Y448163D01*
X1197330Y448103D01*
X1197288Y448046D01*
X1197242Y447991D01*
X1197194Y447938D01*
X1197143Y447889D01*
X1197089Y447842D01*
X1197033Y447798D01*
X1196974Y447757D01*
X1196914Y447719D01*
X1196851Y447684D01*
X1196787Y447653D01*
X1196721Y447625D01*
X1196654Y447601D01*
X1196586Y447580D01*
X1196516Y447563D01*
X1196446Y447550D01*
X1196376Y447541D01*
X1196304Y447535D01*
X1196233Y447533D01*
X1196233Y447534D02*
X1194893Y447534D01*
X1196502Y447534D02*
X1197574Y445389D01*
X1200316Y447802D02*
X1200318Y447922D01*
X1200323Y448042D01*
X1200332Y448162D01*
X1200345Y448282D01*
X1200361Y448401D01*
X1200381Y448520D01*
X1200405Y448638D01*
X1200432Y448755D01*
X1200462Y448871D01*
X1200496Y448986D01*
X1200534Y449101D01*
X1200575Y449214D01*
X1200619Y449325D01*
X1200667Y449436D01*
X1200718Y449545D01*
X1200739Y449602D01*
X1200765Y449658D01*
X1200793Y449713D01*
X1200825Y449765D01*
X1200861Y449816D01*
X1200899Y449864D01*
X1200940Y449910D01*
X1200984Y449953D01*
X1201030Y449993D01*
X1201079Y450030D01*
X1201131Y450064D01*
X1201184Y450095D01*
X1201239Y450123D01*
X1201295Y450147D01*
X1201353Y450168D01*
X1201412Y450185D01*
X1201472Y450198D01*
X1201533Y450207D01*
X1201595Y450213D01*
X1201656Y450215D01*
X1201717Y450213D01*
X1201779Y450207D01*
X1201840Y450198D01*
X1201900Y450185D01*
X1201959Y450168D01*
X1202017Y450147D01*
X1202073Y450123D01*
X1202128Y450095D01*
X1202181Y450064D01*
X1202233Y450030D01*
X1202282Y449993D01*
X1202328Y449953D01*
X1202372Y449910D01*
X1202413Y449864D01*
X1202451Y449816D01*
X1202487Y449765D01*
X1202519Y449713D01*
X1202547Y449658D01*
X1202573Y449602D01*
X1202594Y449545D01*
X1202595Y449545D02*
X1202646Y449436D01*
X1202694Y449325D01*
X1202738Y449214D01*
X1202779Y449101D01*
X1202817Y448986D01*
X1202851Y448871D01*
X1202881Y448755D01*
X1202908Y448638D01*
X1202932Y448520D01*
X1202952Y448401D01*
X1202968Y448282D01*
X1202981Y448162D01*
X1202990Y448042D01*
X1202995Y447922D01*
X1202997Y447802D01*
X1200316Y447802D02*
X1200318Y447682D01*
X1200323Y447562D01*
X1200332Y447442D01*
X1200345Y447322D01*
X1200361Y447203D01*
X1200381Y447084D01*
X1200405Y446966D01*
X1200432Y446849D01*
X1200462Y446733D01*
X1200496Y446618D01*
X1200534Y446503D01*
X1200575Y446390D01*
X1200619Y446279D01*
X1200667Y446168D01*
X1200718Y446059D01*
X1200739Y446002D01*
X1200765Y445946D01*
X1200793Y445891D01*
X1200825Y445839D01*
X1200861Y445788D01*
X1200899Y445740D01*
X1200940Y445694D01*
X1200984Y445651D01*
X1201030Y445611D01*
X1201079Y445574D01*
X1201131Y445540D01*
X1201184Y445509D01*
X1201239Y445481D01*
X1201295Y445457D01*
X1201353Y445436D01*
X1201412Y445419D01*
X1201472Y445406D01*
X1201533Y445397D01*
X1201595Y445391D01*
X1201656Y445389D01*
X1202594Y446059D02*
X1202645Y446168D01*
X1202693Y446279D01*
X1202737Y446390D01*
X1202778Y446503D01*
X1202816Y446618D01*
X1202850Y446733D01*
X1202880Y446849D01*
X1202907Y446966D01*
X1202931Y447084D01*
X1202951Y447203D01*
X1202967Y447322D01*
X1202980Y447442D01*
X1202989Y447562D01*
X1202994Y447682D01*
X1202996Y447802D01*
X1202594Y446059D02*
X1202573Y446002D01*
X1202547Y445946D01*
X1202519Y445891D01*
X1202487Y445839D01*
X1202451Y445788D01*
X1202413Y445740D01*
X1202372Y445694D01*
X1202328Y445651D01*
X1202281Y445611D01*
X1202233Y445574D01*
X1202181Y445540D01*
X1202128Y445509D01*
X1202073Y445481D01*
X1202017Y445457D01*
X1201959Y445436D01*
X1201900Y445419D01*
X1201840Y445406D01*
X1201779Y445397D01*
X1201717Y445391D01*
X1201656Y445389D01*
X1200584Y446461D02*
X1202729Y449143D01*
X1376712Y450215D02*
X1376712Y446461D01*
X1376710Y446396D01*
X1376704Y446332D01*
X1376694Y446268D01*
X1376681Y446204D01*
X1376663Y446142D01*
X1376642Y446081D01*
X1376618Y446021D01*
X1376589Y445963D01*
X1376557Y445906D01*
X1376522Y445852D01*
X1376484Y445800D01*
X1376442Y445750D01*
X1376398Y445703D01*
X1376351Y445659D01*
X1376301Y445617D01*
X1376249Y445579D01*
X1376195Y445544D01*
X1376138Y445512D01*
X1376080Y445483D01*
X1376020Y445459D01*
X1375959Y445438D01*
X1375897Y445420D01*
X1375833Y445407D01*
X1375769Y445397D01*
X1375705Y445391D01*
X1375640Y445389D01*
X1375103Y445389D01*
X1381135Y450215D02*
X1381203Y450213D01*
X1381270Y450207D01*
X1381337Y450198D01*
X1381404Y450185D01*
X1381469Y450168D01*
X1381534Y450147D01*
X1381597Y450123D01*
X1381659Y450095D01*
X1381719Y450064D01*
X1381777Y450030D01*
X1381833Y449992D01*
X1381888Y449952D01*
X1381939Y449908D01*
X1381988Y449861D01*
X1382035Y449812D01*
X1382079Y449761D01*
X1382119Y449706D01*
X1382157Y449650D01*
X1382191Y449592D01*
X1382222Y449532D01*
X1382250Y449470D01*
X1382274Y449407D01*
X1382295Y449342D01*
X1382312Y449277D01*
X1382325Y449210D01*
X1382334Y449143D01*
X1382340Y449076D01*
X1382342Y449008D01*
X1381135Y450215D02*
X1381057Y450213D01*
X1380979Y450207D01*
X1380902Y450197D01*
X1380825Y450184D01*
X1380749Y450166D01*
X1380674Y450145D01*
X1380600Y450120D01*
X1380528Y450091D01*
X1380457Y450059D01*
X1380388Y450023D01*
X1380320Y449984D01*
X1380255Y449941D01*
X1380192Y449895D01*
X1380131Y449846D01*
X1380073Y449794D01*
X1380018Y449739D01*
X1379965Y449682D01*
X1379916Y449622D01*
X1379869Y449559D01*
X1379826Y449495D01*
X1379786Y449428D01*
X1379749Y449359D01*
X1379716Y449288D01*
X1379686Y449216D01*
X1379660Y449143D01*
X1381939Y448070D02*
X1381988Y448119D01*
X1382035Y448171D01*
X1382078Y448226D01*
X1382119Y448283D01*
X1382157Y448342D01*
X1382191Y448403D01*
X1382222Y448466D01*
X1382250Y448530D01*
X1382274Y448596D01*
X1382294Y448662D01*
X1382311Y448730D01*
X1382324Y448799D01*
X1382333Y448868D01*
X1382339Y448938D01*
X1382341Y449008D01*
X1381939Y448070D02*
X1379660Y445389D01*
X1382341Y445389D01*
X1385393Y445389D02*
X1385393Y450215D01*
X1386733Y450215D01*
X1386804Y450213D01*
X1386876Y450207D01*
X1386946Y450198D01*
X1387016Y450185D01*
X1387086Y450168D01*
X1387154Y450147D01*
X1387221Y450123D01*
X1387287Y450095D01*
X1387351Y450064D01*
X1387414Y450029D01*
X1387474Y449991D01*
X1387533Y449950D01*
X1387589Y449906D01*
X1387643Y449859D01*
X1387694Y449810D01*
X1387742Y449757D01*
X1387788Y449702D01*
X1387830Y449645D01*
X1387870Y449585D01*
X1387906Y449524D01*
X1387939Y449460D01*
X1387968Y449395D01*
X1387994Y449329D01*
X1388017Y449261D01*
X1388036Y449192D01*
X1388051Y449122D01*
X1388062Y449052D01*
X1388070Y448981D01*
X1388074Y448910D01*
X1388074Y448838D01*
X1388070Y448767D01*
X1388062Y448696D01*
X1388051Y448626D01*
X1388036Y448556D01*
X1388017Y448487D01*
X1387994Y448419D01*
X1387968Y448353D01*
X1387939Y448288D01*
X1387906Y448224D01*
X1387870Y448163D01*
X1387830Y448103D01*
X1387788Y448046D01*
X1387742Y447991D01*
X1387694Y447938D01*
X1387643Y447889D01*
X1387589Y447842D01*
X1387533Y447798D01*
X1387474Y447757D01*
X1387414Y447719D01*
X1387351Y447684D01*
X1387287Y447653D01*
X1387221Y447625D01*
X1387154Y447601D01*
X1387086Y447580D01*
X1387016Y447563D01*
X1386946Y447550D01*
X1386876Y447541D01*
X1386804Y447535D01*
X1386733Y447533D01*
X1386733Y447534D02*
X1385393Y447534D01*
X1387002Y447534D02*
X1388074Y445389D01*
X1390816Y449143D02*
X1392156Y450215D01*
X1392156Y445389D01*
X1390816Y445389D02*
X1393497Y445389D01*
X1567212Y446461D02*
X1567212Y450215D01*
X1567212Y446461D02*
X1567210Y446396D01*
X1567204Y446332D01*
X1567194Y446268D01*
X1567181Y446204D01*
X1567163Y446142D01*
X1567142Y446081D01*
X1567118Y446021D01*
X1567089Y445963D01*
X1567057Y445906D01*
X1567022Y445852D01*
X1566984Y445800D01*
X1566942Y445750D01*
X1566898Y445703D01*
X1566851Y445659D01*
X1566801Y445617D01*
X1566749Y445579D01*
X1566695Y445544D01*
X1566638Y445512D01*
X1566580Y445483D01*
X1566520Y445459D01*
X1566459Y445438D01*
X1566397Y445420D01*
X1566333Y445407D01*
X1566269Y445397D01*
X1566205Y445391D01*
X1566140Y445389D01*
X1565603Y445389D01*
X1571635Y450215D02*
X1571703Y450213D01*
X1571770Y450207D01*
X1571837Y450198D01*
X1571904Y450185D01*
X1571969Y450168D01*
X1572034Y450147D01*
X1572097Y450123D01*
X1572159Y450095D01*
X1572219Y450064D01*
X1572277Y450030D01*
X1572333Y449992D01*
X1572388Y449952D01*
X1572439Y449908D01*
X1572488Y449861D01*
X1572535Y449812D01*
X1572579Y449761D01*
X1572619Y449706D01*
X1572657Y449650D01*
X1572691Y449592D01*
X1572722Y449532D01*
X1572750Y449470D01*
X1572774Y449407D01*
X1572795Y449342D01*
X1572812Y449277D01*
X1572825Y449210D01*
X1572834Y449143D01*
X1572840Y449076D01*
X1572842Y449008D01*
X1571635Y450215D02*
X1571557Y450213D01*
X1571479Y450207D01*
X1571402Y450197D01*
X1571325Y450184D01*
X1571249Y450166D01*
X1571174Y450145D01*
X1571100Y450120D01*
X1571028Y450091D01*
X1570957Y450059D01*
X1570888Y450023D01*
X1570820Y449984D01*
X1570755Y449941D01*
X1570692Y449895D01*
X1570631Y449846D01*
X1570573Y449794D01*
X1570518Y449739D01*
X1570465Y449682D01*
X1570416Y449622D01*
X1570369Y449559D01*
X1570326Y449495D01*
X1570286Y449428D01*
X1570249Y449359D01*
X1570216Y449288D01*
X1570186Y449216D01*
X1570160Y449143D01*
X1572439Y448070D02*
X1572488Y448119D01*
X1572535Y448171D01*
X1572578Y448226D01*
X1572619Y448283D01*
X1572657Y448342D01*
X1572691Y448403D01*
X1572722Y448466D01*
X1572750Y448530D01*
X1572774Y448596D01*
X1572794Y448662D01*
X1572811Y448730D01*
X1572824Y448799D01*
X1572833Y448868D01*
X1572839Y448938D01*
X1572841Y449008D01*
X1572439Y448070D02*
X1570160Y445389D01*
X1572841Y445389D01*
X1575893Y445389D02*
X1575893Y450215D01*
X1577233Y450215D01*
X1577304Y450213D01*
X1577376Y450207D01*
X1577446Y450198D01*
X1577516Y450185D01*
X1577586Y450168D01*
X1577654Y450147D01*
X1577721Y450123D01*
X1577787Y450095D01*
X1577851Y450064D01*
X1577914Y450029D01*
X1577974Y449991D01*
X1578033Y449950D01*
X1578089Y449906D01*
X1578143Y449859D01*
X1578194Y449810D01*
X1578242Y449757D01*
X1578288Y449702D01*
X1578330Y449645D01*
X1578370Y449585D01*
X1578406Y449524D01*
X1578439Y449460D01*
X1578468Y449395D01*
X1578494Y449329D01*
X1578517Y449261D01*
X1578536Y449192D01*
X1578551Y449122D01*
X1578562Y449052D01*
X1578570Y448981D01*
X1578574Y448910D01*
X1578574Y448838D01*
X1578570Y448767D01*
X1578562Y448696D01*
X1578551Y448626D01*
X1578536Y448556D01*
X1578517Y448487D01*
X1578494Y448419D01*
X1578468Y448353D01*
X1578439Y448288D01*
X1578406Y448224D01*
X1578370Y448163D01*
X1578330Y448103D01*
X1578288Y448046D01*
X1578242Y447991D01*
X1578194Y447938D01*
X1578143Y447889D01*
X1578089Y447842D01*
X1578033Y447798D01*
X1577974Y447757D01*
X1577914Y447719D01*
X1577851Y447684D01*
X1577787Y447653D01*
X1577721Y447625D01*
X1577654Y447601D01*
X1577586Y447580D01*
X1577516Y447563D01*
X1577446Y447550D01*
X1577376Y447541D01*
X1577304Y447535D01*
X1577233Y447533D01*
X1577233Y447534D02*
X1575893Y447534D01*
X1577502Y447534D02*
X1578574Y445389D01*
X1582790Y450215D02*
X1582858Y450213D01*
X1582925Y450207D01*
X1582992Y450198D01*
X1583059Y450185D01*
X1583124Y450168D01*
X1583189Y450147D01*
X1583252Y450123D01*
X1583314Y450095D01*
X1583374Y450064D01*
X1583432Y450030D01*
X1583488Y449992D01*
X1583543Y449952D01*
X1583594Y449908D01*
X1583643Y449861D01*
X1583690Y449812D01*
X1583734Y449761D01*
X1583774Y449706D01*
X1583812Y449650D01*
X1583846Y449592D01*
X1583877Y449532D01*
X1583905Y449470D01*
X1583929Y449407D01*
X1583950Y449342D01*
X1583967Y449277D01*
X1583980Y449210D01*
X1583989Y449143D01*
X1583995Y449076D01*
X1583997Y449008D01*
X1582790Y450215D02*
X1582712Y450213D01*
X1582634Y450207D01*
X1582557Y450197D01*
X1582480Y450184D01*
X1582404Y450166D01*
X1582329Y450145D01*
X1582255Y450120D01*
X1582183Y450091D01*
X1582112Y450059D01*
X1582043Y450023D01*
X1581975Y449984D01*
X1581910Y449941D01*
X1581847Y449895D01*
X1581786Y449846D01*
X1581728Y449794D01*
X1581673Y449739D01*
X1581620Y449682D01*
X1581571Y449622D01*
X1581524Y449559D01*
X1581481Y449495D01*
X1581441Y449428D01*
X1581404Y449359D01*
X1581371Y449288D01*
X1581341Y449216D01*
X1581315Y449143D01*
X1583595Y448070D02*
X1583644Y448119D01*
X1583691Y448171D01*
X1583734Y448226D01*
X1583775Y448283D01*
X1583813Y448342D01*
X1583847Y448403D01*
X1583878Y448466D01*
X1583906Y448530D01*
X1583930Y448596D01*
X1583950Y448662D01*
X1583967Y448730D01*
X1583980Y448799D01*
X1583989Y448868D01*
X1583995Y448938D01*
X1583997Y449008D01*
X1583594Y448070D02*
X1581316Y445389D01*
X1583997Y445389D01*
X1757712Y446461D02*
X1757712Y450215D01*
X1757712Y446461D02*
X1757710Y446396D01*
X1757704Y446332D01*
X1757694Y446268D01*
X1757681Y446204D01*
X1757663Y446142D01*
X1757642Y446081D01*
X1757618Y446021D01*
X1757589Y445963D01*
X1757557Y445906D01*
X1757522Y445852D01*
X1757484Y445800D01*
X1757442Y445750D01*
X1757398Y445703D01*
X1757351Y445659D01*
X1757301Y445617D01*
X1757249Y445579D01*
X1757195Y445544D01*
X1757138Y445512D01*
X1757080Y445483D01*
X1757020Y445459D01*
X1756959Y445438D01*
X1756897Y445420D01*
X1756833Y445407D01*
X1756769Y445397D01*
X1756705Y445391D01*
X1756640Y445389D01*
X1756103Y445389D01*
X1762135Y450215D02*
X1762203Y450213D01*
X1762270Y450207D01*
X1762337Y450198D01*
X1762404Y450185D01*
X1762469Y450168D01*
X1762534Y450147D01*
X1762597Y450123D01*
X1762659Y450095D01*
X1762719Y450064D01*
X1762777Y450030D01*
X1762833Y449992D01*
X1762888Y449952D01*
X1762939Y449908D01*
X1762988Y449861D01*
X1763035Y449812D01*
X1763079Y449761D01*
X1763119Y449706D01*
X1763157Y449650D01*
X1763191Y449592D01*
X1763222Y449532D01*
X1763250Y449470D01*
X1763274Y449407D01*
X1763295Y449342D01*
X1763312Y449277D01*
X1763325Y449210D01*
X1763334Y449143D01*
X1763340Y449076D01*
X1763342Y449008D01*
X1762135Y450215D02*
X1762057Y450213D01*
X1761979Y450207D01*
X1761902Y450197D01*
X1761825Y450184D01*
X1761749Y450166D01*
X1761674Y450145D01*
X1761600Y450120D01*
X1761528Y450091D01*
X1761457Y450059D01*
X1761388Y450023D01*
X1761320Y449984D01*
X1761255Y449941D01*
X1761192Y449895D01*
X1761131Y449846D01*
X1761073Y449794D01*
X1761018Y449739D01*
X1760965Y449682D01*
X1760916Y449622D01*
X1760869Y449559D01*
X1760826Y449495D01*
X1760786Y449428D01*
X1760749Y449359D01*
X1760716Y449288D01*
X1760686Y449216D01*
X1760660Y449143D01*
X1762939Y448070D02*
X1762988Y448119D01*
X1763035Y448171D01*
X1763078Y448226D01*
X1763119Y448283D01*
X1763157Y448342D01*
X1763191Y448403D01*
X1763222Y448466D01*
X1763250Y448530D01*
X1763274Y448596D01*
X1763294Y448662D01*
X1763311Y448730D01*
X1763324Y448799D01*
X1763333Y448868D01*
X1763339Y448938D01*
X1763341Y449008D01*
X1762939Y448070D02*
X1760660Y445389D01*
X1763341Y445389D01*
X1766393Y445389D02*
X1766393Y450215D01*
X1767733Y450215D01*
X1767804Y450213D01*
X1767876Y450207D01*
X1767946Y450198D01*
X1768016Y450185D01*
X1768086Y450168D01*
X1768154Y450147D01*
X1768221Y450123D01*
X1768287Y450095D01*
X1768351Y450064D01*
X1768414Y450029D01*
X1768474Y449991D01*
X1768533Y449950D01*
X1768589Y449906D01*
X1768643Y449859D01*
X1768694Y449810D01*
X1768742Y449757D01*
X1768788Y449702D01*
X1768830Y449645D01*
X1768870Y449585D01*
X1768906Y449524D01*
X1768939Y449460D01*
X1768968Y449395D01*
X1768994Y449329D01*
X1769017Y449261D01*
X1769036Y449192D01*
X1769051Y449122D01*
X1769062Y449052D01*
X1769070Y448981D01*
X1769074Y448910D01*
X1769074Y448838D01*
X1769070Y448767D01*
X1769062Y448696D01*
X1769051Y448626D01*
X1769036Y448556D01*
X1769017Y448487D01*
X1768994Y448419D01*
X1768968Y448353D01*
X1768939Y448288D01*
X1768906Y448224D01*
X1768870Y448163D01*
X1768830Y448103D01*
X1768788Y448046D01*
X1768742Y447991D01*
X1768694Y447938D01*
X1768643Y447889D01*
X1768589Y447842D01*
X1768533Y447798D01*
X1768474Y447757D01*
X1768414Y447719D01*
X1768351Y447684D01*
X1768287Y447653D01*
X1768221Y447625D01*
X1768154Y447601D01*
X1768086Y447580D01*
X1768016Y447563D01*
X1767946Y447550D01*
X1767876Y447541D01*
X1767804Y447535D01*
X1767733Y447533D01*
X1767733Y447534D02*
X1766393Y447534D01*
X1768002Y447534D02*
X1769074Y445389D01*
X1771816Y445389D02*
X1773156Y445389D01*
X1773227Y445391D01*
X1773299Y445397D01*
X1773369Y445406D01*
X1773439Y445419D01*
X1773509Y445436D01*
X1773577Y445457D01*
X1773644Y445481D01*
X1773710Y445509D01*
X1773774Y445540D01*
X1773837Y445575D01*
X1773897Y445613D01*
X1773956Y445654D01*
X1774012Y445698D01*
X1774066Y445745D01*
X1774117Y445794D01*
X1774165Y445847D01*
X1774211Y445902D01*
X1774253Y445959D01*
X1774293Y446019D01*
X1774329Y446080D01*
X1774362Y446144D01*
X1774391Y446209D01*
X1774417Y446275D01*
X1774440Y446343D01*
X1774459Y446412D01*
X1774474Y446482D01*
X1774485Y446552D01*
X1774493Y446623D01*
X1774497Y446694D01*
X1774497Y446766D01*
X1774493Y446837D01*
X1774485Y446908D01*
X1774474Y446978D01*
X1774459Y447048D01*
X1774440Y447117D01*
X1774417Y447185D01*
X1774391Y447251D01*
X1774362Y447316D01*
X1774329Y447380D01*
X1774293Y447441D01*
X1774253Y447501D01*
X1774211Y447558D01*
X1774165Y447613D01*
X1774117Y447666D01*
X1774066Y447715D01*
X1774012Y447762D01*
X1773956Y447806D01*
X1773897Y447847D01*
X1773837Y447885D01*
X1773774Y447920D01*
X1773710Y447951D01*
X1773644Y447979D01*
X1773577Y448003D01*
X1773509Y448024D01*
X1773439Y448041D01*
X1773369Y448054D01*
X1773299Y448063D01*
X1773227Y448069D01*
X1773156Y448071D01*
X1773424Y450215D02*
X1771816Y450215D01*
X1773424Y450215D02*
X1773489Y450213D01*
X1773553Y450207D01*
X1773617Y450197D01*
X1773681Y450184D01*
X1773743Y450166D01*
X1773804Y450145D01*
X1773864Y450121D01*
X1773922Y450092D01*
X1773979Y450060D01*
X1774033Y450025D01*
X1774085Y449987D01*
X1774135Y449945D01*
X1774182Y449901D01*
X1774226Y449854D01*
X1774268Y449804D01*
X1774306Y449752D01*
X1774341Y449698D01*
X1774373Y449641D01*
X1774402Y449583D01*
X1774426Y449523D01*
X1774447Y449462D01*
X1774465Y449400D01*
X1774478Y449336D01*
X1774488Y449272D01*
X1774494Y449208D01*
X1774496Y449143D01*
X1774494Y449078D01*
X1774488Y449014D01*
X1774478Y448950D01*
X1774465Y448886D01*
X1774447Y448824D01*
X1774426Y448763D01*
X1774402Y448703D01*
X1774373Y448645D01*
X1774341Y448588D01*
X1774306Y448534D01*
X1774268Y448482D01*
X1774226Y448432D01*
X1774182Y448385D01*
X1774135Y448341D01*
X1774085Y448299D01*
X1774033Y448261D01*
X1773979Y448226D01*
X1773922Y448194D01*
X1773864Y448165D01*
X1773804Y448141D01*
X1773743Y448120D01*
X1773681Y448102D01*
X1773617Y448089D01*
X1773553Y448079D01*
X1773489Y448073D01*
X1773424Y448071D01*
X1773424Y448070D02*
X1772352Y448070D01*
X1948212Y446461D02*
X1948212Y450215D01*
X1948212Y446461D02*
X1948210Y446396D01*
X1948204Y446332D01*
X1948194Y446268D01*
X1948181Y446204D01*
X1948163Y446142D01*
X1948142Y446081D01*
X1948118Y446021D01*
X1948089Y445963D01*
X1948057Y445906D01*
X1948022Y445852D01*
X1947984Y445800D01*
X1947942Y445750D01*
X1947898Y445703D01*
X1947851Y445659D01*
X1947801Y445617D01*
X1947749Y445579D01*
X1947695Y445544D01*
X1947638Y445512D01*
X1947580Y445483D01*
X1947520Y445459D01*
X1947459Y445438D01*
X1947397Y445420D01*
X1947333Y445407D01*
X1947269Y445397D01*
X1947205Y445391D01*
X1947140Y445389D01*
X1946603Y445389D01*
X1952635Y450215D02*
X1952703Y450213D01*
X1952770Y450207D01*
X1952837Y450198D01*
X1952904Y450185D01*
X1952969Y450168D01*
X1953034Y450147D01*
X1953097Y450123D01*
X1953159Y450095D01*
X1953219Y450064D01*
X1953277Y450030D01*
X1953333Y449992D01*
X1953388Y449952D01*
X1953439Y449908D01*
X1953488Y449861D01*
X1953535Y449812D01*
X1953579Y449761D01*
X1953619Y449706D01*
X1953657Y449650D01*
X1953691Y449592D01*
X1953722Y449532D01*
X1953750Y449470D01*
X1953774Y449407D01*
X1953795Y449342D01*
X1953812Y449277D01*
X1953825Y449210D01*
X1953834Y449143D01*
X1953840Y449076D01*
X1953842Y449008D01*
X1952635Y450215D02*
X1952557Y450213D01*
X1952479Y450207D01*
X1952402Y450197D01*
X1952325Y450184D01*
X1952249Y450166D01*
X1952174Y450145D01*
X1952100Y450120D01*
X1952028Y450091D01*
X1951957Y450059D01*
X1951888Y450023D01*
X1951820Y449984D01*
X1951755Y449941D01*
X1951692Y449895D01*
X1951631Y449846D01*
X1951573Y449794D01*
X1951518Y449739D01*
X1951465Y449682D01*
X1951416Y449622D01*
X1951369Y449559D01*
X1951326Y449495D01*
X1951286Y449428D01*
X1951249Y449359D01*
X1951216Y449288D01*
X1951186Y449216D01*
X1951160Y449143D01*
X1953439Y448070D02*
X1953488Y448119D01*
X1953535Y448171D01*
X1953578Y448226D01*
X1953619Y448283D01*
X1953657Y448342D01*
X1953691Y448403D01*
X1953722Y448466D01*
X1953750Y448530D01*
X1953774Y448596D01*
X1953794Y448662D01*
X1953811Y448730D01*
X1953824Y448799D01*
X1953833Y448868D01*
X1953839Y448938D01*
X1953841Y449008D01*
X1953439Y448070D02*
X1951160Y445389D01*
X1953841Y445389D01*
X1956893Y445389D02*
X1956893Y450215D01*
X1958233Y450215D01*
X1958304Y450213D01*
X1958376Y450207D01*
X1958446Y450198D01*
X1958516Y450185D01*
X1958586Y450168D01*
X1958654Y450147D01*
X1958721Y450123D01*
X1958787Y450095D01*
X1958851Y450064D01*
X1958914Y450029D01*
X1958974Y449991D01*
X1959033Y449950D01*
X1959089Y449906D01*
X1959143Y449859D01*
X1959194Y449810D01*
X1959242Y449757D01*
X1959288Y449702D01*
X1959330Y449645D01*
X1959370Y449585D01*
X1959406Y449524D01*
X1959439Y449460D01*
X1959468Y449395D01*
X1959494Y449329D01*
X1959517Y449261D01*
X1959536Y449192D01*
X1959551Y449122D01*
X1959562Y449052D01*
X1959570Y448981D01*
X1959574Y448910D01*
X1959574Y448838D01*
X1959570Y448767D01*
X1959562Y448696D01*
X1959551Y448626D01*
X1959536Y448556D01*
X1959517Y448487D01*
X1959494Y448419D01*
X1959468Y448353D01*
X1959439Y448288D01*
X1959406Y448224D01*
X1959370Y448163D01*
X1959330Y448103D01*
X1959288Y448046D01*
X1959242Y447991D01*
X1959194Y447938D01*
X1959143Y447889D01*
X1959089Y447842D01*
X1959033Y447798D01*
X1958974Y447757D01*
X1958914Y447719D01*
X1958851Y447684D01*
X1958787Y447653D01*
X1958721Y447625D01*
X1958654Y447601D01*
X1958586Y447580D01*
X1958516Y447563D01*
X1958446Y447550D01*
X1958376Y447541D01*
X1958304Y447535D01*
X1958233Y447533D01*
X1958233Y447534D02*
X1956893Y447534D01*
X1958502Y447534D02*
X1959574Y445389D01*
X1962316Y446461D02*
X1963388Y450215D01*
X1962316Y446461D02*
X1964997Y446461D01*
X1964192Y445389D02*
X1964192Y447534D01*
M02*
