G04 EAGLE Gerber RS-274X export*
G75*
%MOMM*%
%FSLAX34Y34*%
%LPD*%
%INSoldermask Top*%
%IPPOS*%
%AMOC8*
5,1,8,0,0,1.08239X$1,22.5*%
G01*
G04 Define Apertures*
%ADD10C,4.203200*%
%ADD11R,0.832300X0.763200*%
%ADD12R,1.711200X1.711200*%
%ADD13C,1.711200*%
%ADD14R,1.733200X1.733200*%
%ADD15C,1.733200*%
%ADD16R,1.600200X0.551200*%
%ADD17C,0.959600*%
D10*
X50800Y571500D03*
X2044700Y571500D03*
X189230Y63500D03*
X1918970Y63500D03*
X1054100Y63500D03*
X1054100Y571500D03*
D11*
X114300Y284246D03*
X114300Y274554D03*
X304800Y284246D03*
X304800Y274554D03*
X901700Y436646D03*
X901700Y426954D03*
X1155700Y284246D03*
X1155700Y274554D03*
X1346200Y284246D03*
X1346200Y274554D03*
X1536700Y284246D03*
X1536700Y274554D03*
X1727200Y284246D03*
X1727200Y274554D03*
X1917700Y284246D03*
X1917700Y274554D03*
X1155700Y436646D03*
X1155700Y426954D03*
X1346200Y436646D03*
X1346200Y426954D03*
X508000Y284246D03*
X508000Y274554D03*
X1536700Y436646D03*
X1536700Y426954D03*
X1727200Y436646D03*
X1727200Y426954D03*
X1917700Y436646D03*
X1917700Y426954D03*
X711200Y284246D03*
X711200Y274554D03*
X901700Y284246D03*
X901700Y274554D03*
X114300Y436646D03*
X114300Y426954D03*
X304800Y436646D03*
X304800Y426954D03*
X508000Y436646D03*
X508000Y426954D03*
X711200Y436646D03*
X711200Y426954D03*
D12*
X412750Y76200D03*
D13*
X412750Y50800D03*
X438150Y76200D03*
X438150Y50800D03*
X463550Y76200D03*
X463550Y50800D03*
X488950Y76200D03*
X488950Y50800D03*
X514350Y76200D03*
X514350Y50800D03*
X539750Y76200D03*
X539750Y50800D03*
X565150Y76200D03*
X565150Y50800D03*
X590550Y76200D03*
X590550Y50800D03*
X615950Y76200D03*
X615950Y50800D03*
X641350Y76200D03*
X641350Y50800D03*
X666750Y76200D03*
X666750Y50800D03*
X692150Y76200D03*
X692150Y50800D03*
D12*
X1404620Y77470D03*
D13*
X1404620Y52070D03*
X1430020Y77470D03*
X1430020Y52070D03*
X1455420Y77470D03*
X1455420Y52070D03*
X1480820Y77470D03*
X1480820Y52070D03*
X1506220Y77470D03*
X1506220Y52070D03*
X1531620Y77470D03*
X1531620Y52070D03*
X1557020Y77470D03*
X1557020Y52070D03*
X1582420Y77470D03*
X1582420Y52070D03*
X1607820Y77470D03*
X1607820Y52070D03*
X1633220Y77470D03*
X1633220Y52070D03*
X1658620Y77470D03*
X1658620Y52070D03*
X1684020Y77470D03*
X1684020Y52070D03*
D14*
X76200Y647700D03*
D15*
X76200Y673100D03*
X101600Y647700D03*
X101600Y673100D03*
X127000Y647700D03*
X127000Y673100D03*
X152400Y647700D03*
X152400Y673100D03*
X177800Y647700D03*
X177800Y673100D03*
X203200Y647700D03*
X203200Y673100D03*
X228600Y647700D03*
X228600Y673100D03*
X254000Y647700D03*
X254000Y673100D03*
X279400Y647700D03*
X279400Y673100D03*
X304800Y647700D03*
X304800Y673100D03*
X330200Y647700D03*
X330200Y673100D03*
X355600Y647700D03*
X355600Y673100D03*
X381000Y647700D03*
X381000Y673100D03*
X406400Y647700D03*
X406400Y673100D03*
X431800Y647700D03*
X431800Y673100D03*
X457200Y647700D03*
X457200Y673100D03*
X482600Y647700D03*
X482600Y673100D03*
X508000Y647700D03*
X508000Y673100D03*
X533400Y647700D03*
X533400Y673100D03*
X558800Y647700D03*
X558800Y673100D03*
X584200Y647700D03*
X584200Y673100D03*
X609600Y647700D03*
X609600Y673100D03*
X635000Y647700D03*
X635000Y673100D03*
X660400Y647700D03*
X660400Y673100D03*
X685800Y647700D03*
X685800Y673100D03*
X711200Y647700D03*
X711200Y673100D03*
X736600Y647700D03*
X736600Y673100D03*
X762000Y647700D03*
X762000Y673100D03*
X787400Y647700D03*
X787400Y673100D03*
X812800Y647700D03*
X812800Y673100D03*
X838200Y647700D03*
X838200Y673100D03*
X863600Y647700D03*
X863600Y673100D03*
X889000Y647700D03*
X889000Y673100D03*
X914400Y647700D03*
X914400Y673100D03*
X939800Y647700D03*
X939800Y673100D03*
X965200Y647700D03*
X965200Y673100D03*
D16*
X115840Y307150D03*
X115840Y313650D03*
X115840Y320150D03*
X115840Y333150D03*
X115840Y326650D03*
X115840Y339650D03*
X115840Y346150D03*
X115840Y352650D03*
X115840Y359150D03*
X115840Y365650D03*
X188960Y307150D03*
X188960Y313650D03*
X188960Y320150D03*
X188960Y326650D03*
X188960Y333150D03*
X188960Y339650D03*
X188960Y346150D03*
X188960Y352650D03*
X188960Y359150D03*
X188960Y365650D03*
X188960Y372150D03*
X188960Y378650D03*
X115840Y378650D03*
X115840Y372150D03*
X306340Y307150D03*
X306340Y313650D03*
X306340Y320150D03*
X306340Y333150D03*
X306340Y326650D03*
X306340Y339650D03*
X306340Y346150D03*
X306340Y352650D03*
X306340Y359150D03*
X306340Y365650D03*
X379460Y307150D03*
X379460Y313650D03*
X379460Y320150D03*
X379460Y326650D03*
X379460Y333150D03*
X379460Y339650D03*
X379460Y346150D03*
X379460Y352650D03*
X379460Y359150D03*
X379460Y365650D03*
X379460Y372150D03*
X379460Y378650D03*
X306340Y378650D03*
X306340Y372150D03*
X509540Y307150D03*
X509540Y313650D03*
X509540Y320150D03*
X509540Y333150D03*
X509540Y326650D03*
X509540Y339650D03*
X509540Y346150D03*
X509540Y352650D03*
X509540Y359150D03*
X509540Y365650D03*
X582660Y307150D03*
X582660Y313650D03*
X582660Y320150D03*
X582660Y326650D03*
X582660Y333150D03*
X582660Y339650D03*
X582660Y346150D03*
X582660Y352650D03*
X582660Y359150D03*
X582660Y365650D03*
X582660Y372150D03*
X582660Y378650D03*
X509540Y378650D03*
X509540Y372150D03*
X712740Y307150D03*
X712740Y313650D03*
X712740Y320150D03*
X712740Y333150D03*
X712740Y326650D03*
X712740Y339650D03*
X712740Y346150D03*
X712740Y352650D03*
X712740Y359150D03*
X712740Y365650D03*
X785860Y307150D03*
X785860Y313650D03*
X785860Y320150D03*
X785860Y326650D03*
X785860Y333150D03*
X785860Y339650D03*
X785860Y346150D03*
X785860Y352650D03*
X785860Y359150D03*
X785860Y365650D03*
X785860Y372150D03*
X785860Y378650D03*
X712740Y378650D03*
X712740Y372150D03*
X903240Y307150D03*
X903240Y313650D03*
X903240Y320150D03*
X903240Y333150D03*
X903240Y326650D03*
X903240Y339650D03*
X903240Y346150D03*
X903240Y352650D03*
X903240Y359150D03*
X903240Y365650D03*
X976360Y307150D03*
X976360Y313650D03*
X976360Y320150D03*
X976360Y326650D03*
X976360Y333150D03*
X976360Y339650D03*
X976360Y346150D03*
X976360Y352650D03*
X976360Y359150D03*
X976360Y365650D03*
X976360Y372150D03*
X976360Y378650D03*
X903240Y378650D03*
X903240Y372150D03*
X115840Y459550D03*
X115840Y466050D03*
X115840Y472550D03*
X115840Y485550D03*
X115840Y479050D03*
X115840Y492050D03*
X115840Y498550D03*
X115840Y505050D03*
X115840Y511550D03*
X115840Y518050D03*
X188960Y459550D03*
X188960Y466050D03*
X188960Y472550D03*
X188960Y479050D03*
X188960Y485550D03*
X188960Y492050D03*
X188960Y498550D03*
X188960Y505050D03*
X188960Y511550D03*
X188960Y518050D03*
X188960Y524550D03*
X188960Y531050D03*
X115840Y531050D03*
X115840Y524550D03*
X306340Y459550D03*
X306340Y466050D03*
X306340Y472550D03*
X306340Y485550D03*
X306340Y479050D03*
X306340Y492050D03*
X306340Y498550D03*
X306340Y505050D03*
X306340Y511550D03*
X306340Y518050D03*
X379460Y459550D03*
X379460Y466050D03*
X379460Y472550D03*
X379460Y479050D03*
X379460Y485550D03*
X379460Y492050D03*
X379460Y498550D03*
X379460Y505050D03*
X379460Y511550D03*
X379460Y518050D03*
X379460Y524550D03*
X379460Y531050D03*
X306340Y531050D03*
X306340Y524550D03*
X509540Y459550D03*
X509540Y466050D03*
X509540Y472550D03*
X509540Y485550D03*
X509540Y479050D03*
X509540Y492050D03*
X509540Y498550D03*
X509540Y505050D03*
X509540Y511550D03*
X509540Y518050D03*
X582660Y459550D03*
X582660Y466050D03*
X582660Y472550D03*
X582660Y479050D03*
X582660Y485550D03*
X582660Y492050D03*
X582660Y498550D03*
X582660Y505050D03*
X582660Y511550D03*
X582660Y518050D03*
X582660Y524550D03*
X582660Y531050D03*
X509540Y531050D03*
X509540Y524550D03*
X712740Y459550D03*
X712740Y466050D03*
X712740Y472550D03*
X712740Y485550D03*
X712740Y479050D03*
X712740Y492050D03*
X712740Y498550D03*
X712740Y505050D03*
X712740Y511550D03*
X712740Y518050D03*
X785860Y459550D03*
X785860Y466050D03*
X785860Y472550D03*
X785860Y479050D03*
X785860Y485550D03*
X785860Y492050D03*
X785860Y498550D03*
X785860Y505050D03*
X785860Y511550D03*
X785860Y518050D03*
X785860Y524550D03*
X785860Y531050D03*
X712740Y531050D03*
X712740Y524550D03*
X903240Y459550D03*
X903240Y466050D03*
X903240Y472550D03*
X903240Y485550D03*
X903240Y479050D03*
X903240Y492050D03*
X903240Y498550D03*
X903240Y505050D03*
X903240Y511550D03*
X903240Y518050D03*
X976360Y459550D03*
X976360Y466050D03*
X976360Y472550D03*
X976360Y479050D03*
X976360Y485550D03*
X976360Y492050D03*
X976360Y498550D03*
X976360Y505050D03*
X976360Y511550D03*
X976360Y518050D03*
X976360Y524550D03*
X976360Y531050D03*
X903240Y531050D03*
X903240Y524550D03*
D14*
X1130300Y647700D03*
D15*
X1130300Y673100D03*
X1155700Y647700D03*
X1155700Y673100D03*
X1181100Y647700D03*
X1181100Y673100D03*
X1206500Y647700D03*
X1206500Y673100D03*
X1231900Y647700D03*
X1231900Y673100D03*
X1257300Y647700D03*
X1257300Y673100D03*
X1282700Y647700D03*
X1282700Y673100D03*
X1308100Y647700D03*
X1308100Y673100D03*
X1333500Y647700D03*
X1333500Y673100D03*
X1358900Y647700D03*
X1358900Y673100D03*
X1384300Y647700D03*
X1384300Y673100D03*
X1409700Y647700D03*
X1409700Y673100D03*
X1435100Y647700D03*
X1435100Y673100D03*
X1460500Y647700D03*
X1460500Y673100D03*
X1485900Y647700D03*
X1485900Y673100D03*
X1511300Y647700D03*
X1511300Y673100D03*
X1536700Y647700D03*
X1536700Y673100D03*
X1562100Y647700D03*
X1562100Y673100D03*
X1587500Y647700D03*
X1587500Y673100D03*
X1612900Y647700D03*
X1612900Y673100D03*
X1638300Y647700D03*
X1638300Y673100D03*
X1663700Y647700D03*
X1663700Y673100D03*
X1689100Y647700D03*
X1689100Y673100D03*
X1714500Y647700D03*
X1714500Y673100D03*
X1739900Y647700D03*
X1739900Y673100D03*
X1765300Y647700D03*
X1765300Y673100D03*
X1790700Y647700D03*
X1790700Y673100D03*
X1816100Y647700D03*
X1816100Y673100D03*
X1841500Y647700D03*
X1841500Y673100D03*
X1866900Y647700D03*
X1866900Y673100D03*
X1892300Y647700D03*
X1892300Y673100D03*
X1917700Y647700D03*
X1917700Y673100D03*
X1943100Y647700D03*
X1943100Y673100D03*
X1968500Y647700D03*
X1968500Y673100D03*
X1993900Y647700D03*
X1993900Y673100D03*
X2019300Y647700D03*
X2019300Y673100D03*
D16*
X1157240Y307150D03*
X1157240Y313650D03*
X1157240Y320150D03*
X1157240Y333150D03*
X1157240Y326650D03*
X1157240Y339650D03*
X1157240Y346150D03*
X1157240Y352650D03*
X1157240Y359150D03*
X1157240Y365650D03*
X1230360Y307150D03*
X1230360Y313650D03*
X1230360Y320150D03*
X1230360Y326650D03*
X1230360Y333150D03*
X1230360Y339650D03*
X1230360Y346150D03*
X1230360Y352650D03*
X1230360Y359150D03*
X1230360Y365650D03*
X1230360Y372150D03*
X1230360Y378650D03*
X1157240Y378650D03*
X1157240Y372150D03*
X1347740Y307150D03*
X1347740Y313650D03*
X1347740Y320150D03*
X1347740Y333150D03*
X1347740Y326650D03*
X1347740Y339650D03*
X1347740Y346150D03*
X1347740Y352650D03*
X1347740Y359150D03*
X1347740Y365650D03*
X1420860Y307150D03*
X1420860Y313650D03*
X1420860Y320150D03*
X1420860Y326650D03*
X1420860Y333150D03*
X1420860Y339650D03*
X1420860Y346150D03*
X1420860Y352650D03*
X1420860Y359150D03*
X1420860Y365650D03*
X1420860Y372150D03*
X1420860Y378650D03*
X1347740Y378650D03*
X1347740Y372150D03*
X1538240Y307150D03*
X1538240Y313650D03*
X1538240Y320150D03*
X1538240Y333150D03*
X1538240Y326650D03*
X1538240Y339650D03*
X1538240Y346150D03*
X1538240Y352650D03*
X1538240Y359150D03*
X1538240Y365650D03*
X1611360Y307150D03*
X1611360Y313650D03*
X1611360Y320150D03*
X1611360Y326650D03*
X1611360Y333150D03*
X1611360Y339650D03*
X1611360Y346150D03*
X1611360Y352650D03*
X1611360Y359150D03*
X1611360Y365650D03*
X1611360Y372150D03*
X1611360Y378650D03*
X1538240Y378650D03*
X1538240Y372150D03*
X1728740Y307150D03*
X1728740Y313650D03*
X1728740Y320150D03*
X1728740Y333150D03*
X1728740Y326650D03*
X1728740Y339650D03*
X1728740Y346150D03*
X1728740Y352650D03*
X1728740Y359150D03*
X1728740Y365650D03*
X1801860Y307150D03*
X1801860Y313650D03*
X1801860Y320150D03*
X1801860Y326650D03*
X1801860Y333150D03*
X1801860Y339650D03*
X1801860Y346150D03*
X1801860Y352650D03*
X1801860Y359150D03*
X1801860Y365650D03*
X1801860Y372150D03*
X1801860Y378650D03*
X1728740Y378650D03*
X1728740Y372150D03*
X1919240Y307150D03*
X1919240Y313650D03*
X1919240Y320150D03*
X1919240Y333150D03*
X1919240Y326650D03*
X1919240Y339650D03*
X1919240Y346150D03*
X1919240Y352650D03*
X1919240Y359150D03*
X1919240Y365650D03*
X1992360Y307150D03*
X1992360Y313650D03*
X1992360Y320150D03*
X1992360Y326650D03*
X1992360Y333150D03*
X1992360Y339650D03*
X1992360Y346150D03*
X1992360Y352650D03*
X1992360Y359150D03*
X1992360Y365650D03*
X1992360Y372150D03*
X1992360Y378650D03*
X1919240Y378650D03*
X1919240Y372150D03*
X1157240Y459550D03*
X1157240Y466050D03*
X1157240Y472550D03*
X1157240Y485550D03*
X1157240Y479050D03*
X1157240Y492050D03*
X1157240Y498550D03*
X1157240Y505050D03*
X1157240Y511550D03*
X1157240Y518050D03*
X1230360Y459550D03*
X1230360Y466050D03*
X1230360Y472550D03*
X1230360Y479050D03*
X1230360Y485550D03*
X1230360Y492050D03*
X1230360Y498550D03*
X1230360Y505050D03*
X1230360Y511550D03*
X1230360Y518050D03*
X1230360Y524550D03*
X1230360Y531050D03*
X1157240Y531050D03*
X1157240Y524550D03*
X1347740Y459550D03*
X1347740Y466050D03*
X1347740Y472550D03*
X1347740Y485550D03*
X1347740Y479050D03*
X1347740Y492050D03*
X1347740Y498550D03*
X1347740Y505050D03*
X1347740Y511550D03*
X1347740Y518050D03*
X1420860Y459550D03*
X1420860Y466050D03*
X1420860Y472550D03*
X1420860Y479050D03*
X1420860Y485550D03*
X1420860Y492050D03*
X1420860Y498550D03*
X1420860Y505050D03*
X1420860Y511550D03*
X1420860Y518050D03*
X1420860Y524550D03*
X1420860Y531050D03*
X1347740Y531050D03*
X1347740Y524550D03*
X1538240Y459550D03*
X1538240Y466050D03*
X1538240Y472550D03*
X1538240Y485550D03*
X1538240Y479050D03*
X1538240Y492050D03*
X1538240Y498550D03*
X1538240Y505050D03*
X1538240Y511550D03*
X1538240Y518050D03*
X1611360Y459550D03*
X1611360Y466050D03*
X1611360Y472550D03*
X1611360Y479050D03*
X1611360Y485550D03*
X1611360Y492050D03*
X1611360Y498550D03*
X1611360Y505050D03*
X1611360Y511550D03*
X1611360Y518050D03*
X1611360Y524550D03*
X1611360Y531050D03*
X1538240Y531050D03*
X1538240Y524550D03*
X1728740Y459550D03*
X1728740Y466050D03*
X1728740Y472550D03*
X1728740Y485550D03*
X1728740Y479050D03*
X1728740Y492050D03*
X1728740Y498550D03*
X1728740Y505050D03*
X1728740Y511550D03*
X1728740Y518050D03*
X1801860Y459550D03*
X1801860Y466050D03*
X1801860Y472550D03*
X1801860Y479050D03*
X1801860Y485550D03*
X1801860Y492050D03*
X1801860Y498550D03*
X1801860Y505050D03*
X1801860Y511550D03*
X1801860Y518050D03*
X1801860Y524550D03*
X1801860Y531050D03*
X1728740Y531050D03*
X1728740Y524550D03*
X1919240Y459550D03*
X1919240Y466050D03*
X1919240Y472550D03*
X1919240Y485550D03*
X1919240Y479050D03*
X1919240Y492050D03*
X1919240Y498550D03*
X1919240Y505050D03*
X1919240Y511550D03*
X1919240Y518050D03*
X1992360Y459550D03*
X1992360Y466050D03*
X1992360Y472550D03*
X1992360Y479050D03*
X1992360Y485550D03*
X1992360Y492050D03*
X1992360Y498550D03*
X1992360Y505050D03*
X1992360Y511550D03*
X1992360Y518050D03*
X1992360Y524550D03*
X1992360Y531050D03*
X1919240Y531050D03*
X1919240Y524550D03*
D17*
X114300Y265430D03*
X508000Y261620D03*
X711200Y264160D03*
X901700Y265430D03*
X304800Y264160D03*
X114300Y417830D03*
X304800Y417830D03*
X508000Y415290D03*
X711200Y417830D03*
X901700Y416560D03*
X975360Y539750D03*
X784860Y386080D03*
X976630Y386362D03*
X580390Y386362D03*
X377190Y386362D03*
X186690Y386362D03*
X783590Y538762D03*
X183588Y538762D03*
X582058Y538762D03*
X377588Y538762D03*
X1155700Y414020D03*
X1346200Y415290D03*
X1536700Y412750D03*
X1727200Y415290D03*
X1917700Y414020D03*
X1917700Y262890D03*
X1727200Y261620D03*
X1536700Y261620D03*
X1346200Y261620D03*
X1155700Y260350D03*
X1992630Y386080D03*
X1800860Y386080D03*
X1611630Y386080D03*
X1421130Y386080D03*
X1230630Y386080D03*
X1992630Y538480D03*
X1802130Y538198D03*
X1611630Y538904D03*
X1421130Y538340D03*
X1229360Y538340D03*
X138488Y505402D03*
X138636Y352854D03*
X151340Y492550D03*
X151489Y340001D03*
X164193Y479697D03*
X164341Y327149D03*
X176669Y466432D03*
X176669Y313772D03*
X220144Y470448D03*
X219915Y318975D03*
X232997Y483643D03*
X232767Y331827D03*
X245670Y496772D03*
X245620Y344680D03*
X258600Y509803D03*
X258472Y357532D03*
X326466Y352984D03*
X326436Y505414D03*
X339319Y340131D03*
X339289Y492561D03*
X352171Y327279D03*
X352141Y479709D03*
X365023Y314427D03*
X365023Y466827D03*
X412826Y318846D03*
X412826Y471246D03*
X425679Y331699D03*
X425752Y484099D03*
X438531Y344551D03*
X438568Y496988D03*
X451383Y357403D03*
X451420Y509840D03*
X531066Y352854D03*
X530803Y505517D03*
X543919Y340001D03*
X543759Y492561D03*
X556771Y327149D03*
X556611Y479709D03*
X569624Y314296D03*
X569493Y466827D03*
X617106Y471246D03*
X615181Y318233D03*
X629242Y485696D03*
X627848Y331270D03*
X642076Y498566D03*
X640367Y344457D03*
X654929Y511419D03*
X650522Y358577D03*
X734266Y352854D03*
X734099Y505421D03*
X747119Y340001D03*
X746989Y492531D03*
X759971Y327149D03*
X759841Y479679D03*
X772824Y314296D03*
X772693Y466827D03*
X816686Y318846D03*
X817956Y471246D03*
X830809Y484099D03*
X830450Y332155D03*
X843661Y496951D03*
X843303Y345349D03*
X856513Y509803D03*
X856155Y358287D03*
X924636Y352984D03*
X924636Y505384D03*
X937489Y340131D03*
X937489Y492531D03*
X950341Y327279D03*
X950341Y479679D03*
X963193Y314427D03*
X963193Y466827D03*
X132062Y511828D03*
X132080Y359150D03*
X144914Y498976D03*
X145063Y346428D03*
X157767Y486123D03*
X157915Y333575D03*
X170601Y473253D03*
X170768Y320723D03*
X213718Y463965D03*
X213360Y312677D03*
X226571Y476988D03*
X226341Y325401D03*
X239700Y489890D03*
X239194Y338254D03*
X252096Y503198D03*
X252095Y351057D03*
X320040Y359410D03*
X320010Y511840D03*
X332892Y346558D03*
X332863Y498987D03*
X345745Y333705D03*
X345715Y486135D03*
X358597Y320853D03*
X358538Y473253D03*
X406400Y312420D03*
X406400Y464820D03*
X419252Y325272D03*
X419252Y477672D03*
X432105Y338125D03*
X432142Y490562D03*
X444957Y350977D03*
X444994Y503414D03*
X524510Y359150D03*
X524377Y511943D03*
X537493Y346428D03*
X537134Y498987D03*
X550345Y333575D03*
X550185Y486135D03*
X563198Y320723D03*
X563008Y473253D03*
X608204Y312294D03*
X609600Y464820D03*
X623174Y478847D03*
X622179Y324087D03*
X635650Y492140D03*
X633940Y338030D03*
X648503Y504993D03*
X648187Y349489D03*
X727710Y359150D03*
X727673Y511847D03*
X740693Y346428D03*
X740489Y498958D03*
X753545Y333575D03*
X753415Y486105D03*
X766398Y320723D03*
X766267Y473253D03*
X810260Y312420D03*
X811530Y464820D03*
X824382Y477672D03*
X824024Y325272D03*
X837235Y490525D03*
X836877Y338809D03*
X850087Y503377D03*
X849729Y351832D03*
X918210Y359410D03*
X918210Y511810D03*
X931062Y346558D03*
X931062Y498958D03*
X943915Y333705D03*
X943915Y486105D03*
X956767Y320853D03*
X956767Y473253D03*
X990600Y365760D03*
X201930Y365218D03*
X393700Y365218D03*
X596900Y365760D03*
X800100Y365218D03*
X201930Y374306D03*
X393700Y374306D03*
X596900Y374848D03*
X800100Y374306D03*
X990600Y374848D03*
X125730Y392430D03*
X892810Y392430D03*
X703580Y392430D03*
X501650Y392430D03*
X297180Y392430D03*
X708660Y401320D03*
X893092Y401518D03*
X501650Y401518D03*
X297180Y401518D03*
X124460Y401518D03*
X189230Y292100D03*
X375920Y292100D03*
X774700Y292100D03*
X577850Y292100D03*
X965200Y292100D03*
X989330Y517962D03*
X598056Y518160D03*
X207860Y518160D03*
X804304Y518160D03*
X395984Y518160D03*
X989330Y527050D03*
X598056Y527248D03*
X207860Y527248D03*
X804304Y527248D03*
X395984Y527248D03*
X891540Y544830D03*
X703580Y544830D03*
X502920Y544830D03*
X297180Y544830D03*
X126012Y544830D03*
X891540Y554990D03*
X703580Y554990D03*
X502920Y554990D03*
X297180Y554990D03*
X126012Y554990D03*
X190500Y444500D03*
X974090Y444500D03*
X783590Y444500D03*
X580390Y444500D03*
X371091Y444500D03*
X697230Y459740D03*
X495300Y459740D03*
X290830Y459740D03*
X101600Y459740D03*
X890270Y458470D03*
X890496Y306070D03*
X699996Y307340D03*
X496796Y307340D03*
X292326Y307340D03*
X102842Y306609D03*
X1906270Y307340D03*
X1143000Y307340D03*
X1333500Y307340D03*
X1524000Y307340D03*
X1714500Y307340D03*
X1906270Y459740D03*
X1143000Y459740D03*
X1333500Y459740D03*
X1524000Y459740D03*
X1714500Y459740D03*
X1985010Y444500D03*
X1803400Y444500D03*
X1612900Y444500D03*
X1422400Y444500D03*
X1231900Y444500D03*
X1907540Y544830D03*
X1714500Y544972D03*
X1524000Y544972D03*
X1333500Y544972D03*
X1146810Y544972D03*
X1907540Y553918D03*
X1714500Y554060D03*
X1524000Y554060D03*
X1333500Y554060D03*
X1156970Y553918D03*
X2006600Y528320D03*
X1816100Y528320D03*
X1625600Y528320D03*
X1435100Y528320D03*
X1244600Y528320D03*
X2006600Y518160D03*
X1816100Y518160D03*
X1625600Y518160D03*
X1435100Y518160D03*
X1244600Y518160D03*
X1981200Y292100D03*
X1803400Y292100D03*
X1612900Y292100D03*
X1422400Y292100D03*
X1230630Y292100D03*
X1908810Y400050D03*
X1144270Y400050D03*
X1333500Y401320D03*
X1524000Y401320D03*
X1717040Y401320D03*
X1908810Y390962D03*
X1717040Y392232D03*
X1524000Y392232D03*
X1333500Y392232D03*
X1144270Y390962D03*
X2005330Y365760D03*
X1816100Y365760D03*
X1625600Y365760D03*
X1435100Y365760D03*
X1244600Y365760D03*
X2005330Y374848D03*
X1816100Y374848D03*
X1625600Y374848D03*
X1435100Y374848D03*
X1244600Y374848D03*
X1170940Y511810D03*
X1170940Y359410D03*
X1183792Y498958D03*
X1183792Y346558D03*
X1196645Y486105D03*
X1196645Y333705D03*
X1209497Y473253D03*
X1209497Y320853D03*
X1250950Y466090D03*
X1247379Y309837D03*
X1263802Y478942D03*
X1260726Y322196D03*
X1276655Y491795D03*
X1273578Y335048D03*
X1289507Y504647D03*
X1285522Y348810D03*
X1361440Y511810D03*
X1361440Y359410D03*
X1374292Y498958D03*
X1374292Y346558D03*
X1387145Y486105D03*
X1387145Y333705D03*
X1399997Y473253D03*
X1399997Y320853D03*
X1441450Y466090D03*
X1441450Y313408D03*
X1454302Y478942D03*
X1454797Y325767D03*
X1467155Y491795D03*
X1467649Y338619D03*
X1480007Y504647D03*
X1480502Y351472D03*
X1551940Y511810D03*
X1551940Y359410D03*
X1564792Y498958D03*
X1564792Y346558D03*
X1577645Y486105D03*
X1577645Y333705D03*
X1590497Y473253D03*
X1590497Y320853D03*
X1631950Y465808D03*
X1628379Y309837D03*
X1645297Y478167D03*
X1641726Y322196D03*
X1658149Y491019D03*
X1654578Y335048D03*
X1671002Y503872D03*
X1666522Y348810D03*
X1742440Y511810D03*
X1742440Y359410D03*
X1755292Y498958D03*
X1755292Y346558D03*
X1768145Y486105D03*
X1768145Y333705D03*
X1780997Y473253D03*
X1780997Y320853D03*
X1823720Y466090D03*
X1822450Y313408D03*
X1836572Y478942D03*
X1835894Y325805D03*
X1849425Y491795D03*
X1848747Y338657D03*
X1862277Y504647D03*
X1861599Y351510D03*
X1932940Y511810D03*
X1932940Y359410D03*
X1945792Y498958D03*
X1945792Y346558D03*
X1958645Y486105D03*
X1958645Y333705D03*
X1971497Y473253D03*
X1971497Y320853D03*
X1177366Y505384D03*
X1177366Y352984D03*
X1190219Y492531D03*
X1190219Y340131D03*
X1203071Y479679D03*
X1203071Y327279D03*
X1215923Y466827D03*
X1215923Y314427D03*
X1257376Y472516D03*
X1254300Y315770D03*
X1270229Y485369D03*
X1267152Y328622D03*
X1283081Y498221D03*
X1280005Y341475D03*
X1295933Y511073D03*
X1285522Y357898D03*
X1367866Y505384D03*
X1367866Y352984D03*
X1380719Y492531D03*
X1380719Y340131D03*
X1393571Y479679D03*
X1393571Y327279D03*
X1406423Y466827D03*
X1406423Y314427D03*
X1447876Y472516D03*
X1448370Y319340D03*
X1460729Y485369D03*
X1461223Y332193D03*
X1473581Y498221D03*
X1474075Y345045D03*
X1486433Y511073D03*
X1486928Y357898D03*
X1558366Y505384D03*
X1558366Y352984D03*
X1571219Y492531D03*
X1571219Y340131D03*
X1584071Y479679D03*
X1584071Y327279D03*
X1596923Y466827D03*
X1596923Y314427D03*
X1638870Y471740D03*
X1635300Y315770D03*
X1651723Y484593D03*
X1648152Y328622D03*
X1664575Y497445D03*
X1661005Y341475D03*
X1677428Y510298D03*
X1666522Y357898D03*
X1748866Y505384D03*
X1748866Y352984D03*
X1761719Y492531D03*
X1761719Y340131D03*
X1774571Y479679D03*
X1774571Y327279D03*
X1787423Y466827D03*
X1787423Y314427D03*
X1830146Y472516D03*
X1829506Y319340D03*
X1842999Y485369D03*
X1842320Y332231D03*
X1855851Y498221D03*
X1855173Y345083D03*
X1868703Y511073D03*
X1868025Y357936D03*
X1939366Y505384D03*
X1939366Y352984D03*
X1952219Y492531D03*
X1952219Y340131D03*
X1965071Y479679D03*
X1965071Y327279D03*
X1977923Y466827D03*
X1977923Y314427D03*
M02*
