M48
;GenerationSoftware,Autodesk,EAGLE,9.7.0*%
;CreationDate,2025-08-27T21:42:08Z*%
FMAT,2
ICI,OFF
METRIC,TZ,000.000
T4C0.350
T3C1.000
T2C1.020
T1C4.000
%
G90
M71
T1
X105410Y57150
X5080Y57150
X204470Y57150
X18923Y6350
X191897Y6350
X105410Y6350
T2
X201930Y67310
X143510Y64770
X143510Y67310
X146050Y64770
X146050Y67310
X148590Y64770
X148590Y67310
X151130Y64770
X151130Y67310
X153670Y64770
X153670Y67310
X156210Y64770
X156210Y67310
X158750Y64770
X158750Y67310
X161290Y64770
X161290Y67310
X163830Y64770
X63500Y64770
X163830Y67310
X166370Y64770
X166370Y67310
X168910Y64770
X168910Y67310
X171450Y64770
X173990Y64770
X173990Y67310
X176530Y64770
X176530Y67310
X179070Y64770
X179070Y67310
X181610Y64770
X86360Y67310
X181610Y67310
X184150Y64770
X184150Y67310
X186690Y64770
X186690Y67310
X189230Y64770
X189230Y67310
X191770Y64770
X191770Y67310
X194310Y64770
X194310Y67310
X196850Y64770
X196850Y67310
X199390Y64770
X199390Y67310
X201930Y64770
X7620Y64770
X7620Y67310
X10160Y64770
X10160Y67310
X12700Y64770
X12700Y67310
X15240Y64770
X15240Y67310
X17780Y64770
X17780Y67310
X20320Y64770
X20320Y67310
X22860Y64770
X22860Y67310
X25400Y64770
X25400Y67310
X27940Y64770
X27940Y67310
X30480Y64770
X30480Y67310
X33020Y64770
X33020Y67310
X35560Y64770
X35560Y67310
X38100Y64770
X38100Y67310
X40640Y64770
X40640Y67310
X43180Y64770
X43180Y67310
X45720Y64770
X45720Y67310
X48260Y64770
X48260Y67310
X50800Y64770
X50800Y67310
X53340Y64770
X53340Y67310
X55880Y64770
X55880Y67310
X58420Y64770
X58420Y67310
X60960Y64770
X60960Y67310
X171450Y67310
X63500Y67310
X66040Y64770
X66040Y67310
X68580Y64770
X68580Y67310
X71120Y64770
X71120Y67310
X73660Y64770
X73660Y67310
X76200Y64770
X76200Y67310
X78740Y64770
X78740Y67310
X81280Y64770
X81280Y67310
X83820Y64770
X83820Y67310
X86360Y64770
X88900Y64770
X88900Y67310
X91440Y64770
X91440Y67310
X93980Y64770
X93980Y67310
X96520Y64770
X96520Y67310
X113030Y64770
X113030Y67310
X115570Y64770
X115570Y67310
X118110Y64770
X118110Y67310
X120650Y64770
X120650Y67310
X123190Y64770
X123190Y67310
X125730Y64770
X125730Y67310
X128270Y64770
X128270Y67310
X130810Y64770
X130810Y67310
X133350Y64770
X133350Y67310
X135890Y64770
X135890Y67310
X138430Y64770
X138430Y67310
X140970Y64770
X140970Y67310
T3
X41275Y7620
X41275Y5080
X43815Y7620
X43815Y5080
X46355Y7620
X46355Y5080
X48895Y7620
X48895Y5080
X51435Y7620
X51435Y5080
X53975Y7620
X53975Y5080
X56515Y7620
X56515Y5080
X59055Y7620
X59055Y5080
X61595Y7620
X64135Y7620
X64135Y5080
X66675Y7620
X66675Y5080
X69215Y7620
X69215Y5080
X140462Y7747
X140462Y5207
X143002Y7747
X143002Y5207
X145542Y7747
X145542Y5207
X148082Y7747
X150622Y7747
X150622Y5207
X153162Y7747
X153162Y5207
X155702Y7747
X155702Y5207
X158242Y7747
X158242Y5207
X160782Y7747
X160782Y5207
X163322Y7747
X163322Y5207
X165862Y7747
X165862Y5207
X168402Y7747
X168402Y5207
X61595Y5080
X148082Y5207
T4
X29718Y39243
X70866Y40132
X89309Y40152
X50165Y40152
X29718Y40152
X12446Y40152
X18923Y29210
X37592Y29210
X77470Y29210
X57785Y29210
X96520Y29210
X98933Y51796
X59806Y51816
X20786Y51816
X80430Y51816
X39598Y51816
X98933Y52705
X59806Y52725
X20786Y52725
X80430Y52725
X39598Y52725
X89154Y54483
X70358Y54483
X50292Y54483
X29718Y54483
X12601Y54483
X89154Y55499
X70358Y55499
X50292Y55499
X29718Y55499
X12601Y55499
X19050Y44450
X97409Y44450
X78359Y44450
X58039Y44450
X37109Y44450
X69723Y45974
X49530Y45974
X29083Y45974
X10160Y45974
X89027Y45847
X89050Y30607
X70000Y30734
X49680Y30734
X29233Y30734
X10284Y30661
X190627Y30734
X114300Y30734
X133350Y30734
X152400Y30734
X171450Y30734
X190627Y45974
X114300Y45974
X133350Y45974
X152400Y45974
X171450Y45974
X198501Y44450
X180340Y44450
X161290Y44450
X142240Y44450
X123190Y44450
X190754Y54483
X171450Y54497
X152400Y54497
X133350Y54497
X114681Y54497
X190754Y55392
X171450Y55406
X152400Y55406
X133350Y55406
X115697Y55392
X200660Y52832
X181610Y52832
X162560Y52832
X143510Y52832
X124460Y52832
X200660Y51816
X181610Y51816
X162560Y51816
X143510Y51816
X124460Y51816
X198120Y29210
X180340Y29210
X161290Y29210
X142240Y29210
X123063Y29210
X190881Y40005
X114427Y40005
X133350Y40132
X152400Y40132
X171704Y40132
X190881Y39096
X171704Y39223
X152400Y39223
X133350Y39223
X114427Y39096
X200533Y36576
X181610Y36576
X162560Y36576
X143510Y36576
X124460Y36576
X200533Y37485
X181610Y37485
X162560Y37485
X143510Y37485
X124460Y37485
X117094Y51181
X117094Y35941
X118379Y49896
X118379Y34656
X119664Y48611
X119664Y33371
X120950Y47325
X120950Y32085
X125095Y46609
X124738Y30984
X126380Y47894
X126073Y32220
X127665Y49179
X127358Y33505
X128951Y50465
X128552Y34881
X136144Y51181
X136144Y35941
X137429Y49896
X61711Y47125
X138714Y48611
X138714Y33371
X140000Y47325
X140000Y32085
X144145Y46609
X144145Y31341
X145430Y47894
X145480Y32577
X146715Y49179
X146765Y33862
X148001Y50465
X148050Y35147
X155194Y51181
X155194Y35941
X156479Y49896
X156479Y34656
X157764Y48611
X157764Y33371
X159050Y47325
X159050Y32085
X163195Y46581
X162838Y30984
X164530Y47817
X164173Y32220
X165815Y49102
X165458Y33505
X167100Y50387
X166652Y34881
X174244Y51181
X174244Y35941
X175529Y49896
X175529Y34656
X176814Y48611
X176814Y33371
X178100Y47325
X178100Y32085
X182372Y46609
X182245Y31341
X183657Y47894
X183589Y32580
X184942Y49179
X184875Y33866
X186228Y50465
X186160Y35151
X193294Y51181
X193294Y35941
X194579Y49896
X194579Y34656
X195864Y48611
X195864Y33371
X197150Y47325
X197150Y32085
X117737Y50538
X117737Y35298
X119022Y49253
X119022Y34013
X120307Y47968
X120307Y32728
X121592Y46683
X121592Y31443
X125738Y47252
X125430Y31577
X127023Y48537
X126715Y32862
X128308Y49822
X128000Y34147
X129593Y51107
X128552Y35790
X136787Y50538
X136787Y35298
X138072Y49253
X138072Y34013
X139357Y47968
X139357Y32728
X140642Y46683
X140642Y31443
X144788Y47252
X144837Y31934
X146073Y48537
X146122Y33219
X147358Y49822
X147408Y34505
X148643Y51107
X148693Y35790
X155837Y50538
X155837Y35298
X157122Y49253
X157122Y34013
X158407Y47968
X158407Y32728
X159692Y46683
X159692Y31443
X163887Y47174
X163530Y31577
X165172Y48459
X164815Y32862
X166458Y49745
X166100Y34147
X167743Y51030
X166652Y35790
X174887Y50538
X174887Y35298
X176172Y49253
X176172Y34013
X177457Y47968
X177457Y32728
X178742Y46683
X178742Y31443
X183015Y47252
X182951Y31934
X184300Y48537
X184232Y33223
X185585Y49822
X185517Y34508
X186870Y51107
X186803Y35794
X193937Y50538
X193937Y35298
X195222Y49253
X195222Y34013
X196507Y47968
X196507Y32728
X197792Y46683
X197792Y31443
X11430Y26543
X50800Y26162
X71120Y26416
X90170Y26543
X30480Y26416
X11430Y41783
X30480Y41783
X50800Y41529
X71120Y41783
X90170Y41656
X97536Y53975
X78486Y38608
X97663Y38636
X58039Y38636
X37719Y38636
X18669Y38636
X78359Y53876
X18359Y53876
X58206Y53876
X37759Y53876
X115570Y41402
X134620Y41529
X153670Y41275
X172720Y41529
X191770Y41402
X191770Y26289
X172720Y26162
X153670Y26162
X134620Y26162
X115570Y26035
X199263Y38608
X180086Y38608
X161163Y38608
X142113Y38608
X123063Y38608
X199263Y53848
X180213Y53820
X161163Y53890
X142113Y53834
X122936Y53834
X13849Y50540
X13864Y35285
X15134Y49255
X15149Y34000
X16419Y47970
X16434Y32715
X17667Y46643
X17667Y31377
X22014Y47045
X21991Y31897
X23300Y48364
X23277Y33183
X24567Y49677
X24562Y34468
X25860Y50980
X25847Y35753
X32647Y35298
X32644Y50541
X33932Y34013
X33929Y49256
X35217Y32728
X35214Y47971
X36502Y31443
X36502Y46683
X41283Y31885
X41283Y47125
X42568Y33170
X42575Y48410
X43853Y34455
X43857Y49699
X45138Y35740
X45142Y50984
X53107Y35285
X53080Y50552
X54392Y34000
X54376Y49256
X55677Y32715
X55661Y47971
X56962Y31430
X56949Y46683
X61518Y31823
X62924Y48570
X62785Y33127
X64208Y49857
X64037Y34446
X65493Y51142
X65052Y35858
X73427Y35285
X73410Y50542
X74712Y34000
X74699Y49253
X75997Y32715
X75984Y47968
X77282Y31430
X77269Y46683
X81669Y31885
X81796Y47125
X83081Y48410
X83045Y33215
X84366Y49695
X84330Y34535
X85651Y50980
X85616Y35829
X92464Y35298
X92464Y50538
X93749Y34013
X93749Y49253
X95034Y32728
X95034Y47968
X96319Y31443
X96319Y46683
X13206Y51183
X13208Y35915
X14491Y49898
X14506Y34643
X15777Y48612
X15791Y33358
X137429Y34656
X17060Y47325
X17077Y32072
X21372Y46397
X21336Y31268
X22657Y47699
X22634Y32540
X23970Y48989
X23919Y33825
X25210Y50320
X25209Y35106
X32004Y35941
X32001Y51184
X33289Y34656
X33286Y49899
X34574Y33371
X34572Y48613
X35860Y32085
X35854Y47325
X40640Y31242
X40640Y46482
X41925Y32527
X41925Y47767
X43210Y33812
X43214Y49056
X44496Y35098
X44499Y50341
X52451Y35915
X52438Y51194
X53749Y34643
X53713Y49899
X55034Y33358
X55019Y48613
X56320Y32072
X56301Y47325
X60820Y31229
X60960Y46482
X62317Y47885
X62218Y32409
X63565Y49214
X63394Y33803
X64850Y50499
X64819Y34949
X72771Y35915
X72767Y51185
X74069Y34643
X74049Y49896
X75355Y33358
X75341Y48611
X76640Y32072
X76627Y47325
X81026Y31242
X81153Y46482
X82438Y47767
X82402Y32527
X83723Y49052
X83688Y33881
X85009Y50338
X84973Y35183
X91821Y35941
X91821Y51181
X93106Y34656
X93106Y49896
X94391Y33371
X94391Y48611
X95677Y32085
X95677Y47325
X99060Y36576
X20193Y36522
X39370Y36522
X59690Y36576
X80010Y36522
X20193Y37431
X39370Y37431
X59690Y37485
X80010Y37431
X99060Y37485
X12573Y39243
X89281Y39243
X70358Y39243
X50165Y39243
M30