G04 EAGLE Gerber RS-274X export*
G75*
%MOMM*%
%FSLAX34Y34*%
%LPD*%
%INCopper Layer 2*%
%IPPOS*%
%AMOC8*
5,1,8,0,0,1.08239X$1,22.5*%
G01*
G04 Define Apertures*
%ADD10C,1.524000*%
%ADD11C,1.508000*%
%ADD12C,0.756400*%
G36*
X1589375Y10220D02*
X1589078Y10160D01*
X10922Y10160D01*
X10647Y10211D01*
X10392Y10375D01*
X10220Y10625D01*
X10160Y10922D01*
X10160Y1382778D01*
X10211Y1383053D01*
X10375Y1383308D01*
X10625Y1383480D01*
X10922Y1383540D01*
X1589078Y1383540D01*
X1589353Y1383489D01*
X1589608Y1383325D01*
X1589780Y1383075D01*
X1589840Y1382778D01*
X1589840Y10922D01*
X1589789Y10647D01*
X1589625Y10392D01*
X1589375Y10220D01*
G37*
%LPC*%
G36*
X1545429Y1316040D02*
X1553371Y1316040D01*
X1561041Y1318095D01*
X1567919Y1322066D01*
X1573534Y1327681D01*
X1577505Y1334559D01*
X1579560Y1342229D01*
X1579560Y1350171D01*
X1577505Y1357841D01*
X1573534Y1364719D01*
X1567919Y1370334D01*
X1561041Y1374305D01*
X1553371Y1376360D01*
X1545429Y1376360D01*
X1537759Y1374305D01*
X1530881Y1370334D01*
X1525266Y1364719D01*
X1521295Y1357841D01*
X1519240Y1350171D01*
X1519240Y1342229D01*
X1521295Y1334559D01*
X1525266Y1327681D01*
X1530881Y1322066D01*
X1537759Y1318095D01*
X1545429Y1316040D01*
G37*
G36*
X46829Y1316040D02*
X54771Y1316040D01*
X62441Y1318095D01*
X69319Y1322066D01*
X74934Y1327681D01*
X78905Y1334559D01*
X80960Y1342229D01*
X80960Y1350171D01*
X78905Y1357841D01*
X74934Y1364719D01*
X69319Y1370334D01*
X62441Y1374305D01*
X54771Y1376360D01*
X46829Y1376360D01*
X39159Y1374305D01*
X32281Y1370334D01*
X26666Y1364719D01*
X22695Y1357841D01*
X20640Y1350171D01*
X20640Y1342229D01*
X22695Y1334559D01*
X26666Y1327681D01*
X32281Y1322066D01*
X39159Y1318095D01*
X46829Y1316040D01*
G37*
G36*
X1221820Y1308862D02*
X1231138Y1308862D01*
X1231138Y1318180D01*
X1229895Y1318180D01*
X1226190Y1316645D01*
X1223355Y1313810D01*
X1221820Y1310105D01*
X1221820Y1308862D01*
G37*
G36*
X1196420Y1308862D02*
X1205738Y1308862D01*
X1205738Y1318180D01*
X1204495Y1318180D01*
X1200790Y1316645D01*
X1197955Y1313810D01*
X1196420Y1310105D01*
X1196420Y1308862D01*
G37*
G36*
X472520Y1308862D02*
X481838Y1308862D01*
X481838Y1318180D01*
X480595Y1318180D01*
X476890Y1316645D01*
X474055Y1313810D01*
X472520Y1310105D01*
X472520Y1308862D01*
G37*
G36*
X447120Y1308862D02*
X456438Y1308862D01*
X456438Y1318180D01*
X455195Y1318180D01*
X451490Y1316645D01*
X448655Y1313810D01*
X447120Y1310105D01*
X447120Y1308862D01*
G37*
G36*
X457962Y1308862D02*
X467280Y1308862D01*
X467280Y1310105D01*
X465745Y1313810D01*
X462910Y1316645D01*
X459205Y1318180D01*
X457962Y1318180D01*
X457962Y1308862D01*
G37*
G36*
X483362Y1308862D02*
X492680Y1308862D01*
X492680Y1310105D01*
X491145Y1313810D01*
X488310Y1316645D01*
X484605Y1318180D01*
X483362Y1318180D01*
X483362Y1308862D01*
G37*
G36*
X1207262Y1308862D02*
X1216580Y1308862D01*
X1216580Y1310105D01*
X1215045Y1313810D01*
X1212210Y1316645D01*
X1208505Y1318180D01*
X1207262Y1318180D01*
X1207262Y1308862D01*
G37*
G36*
X1232662Y1308862D02*
X1241980Y1308862D01*
X1241980Y1310105D01*
X1240445Y1313810D01*
X1237610Y1316645D01*
X1233905Y1318180D01*
X1232662Y1318180D01*
X1232662Y1308862D01*
G37*
G36*
X1382497Y1299036D02*
X1386103Y1299036D01*
X1389434Y1300416D01*
X1391984Y1302966D01*
X1393364Y1306297D01*
X1393364Y1309903D01*
X1391984Y1313234D01*
X1389434Y1315784D01*
X1386103Y1317164D01*
X1382497Y1317164D01*
X1379166Y1315784D01*
X1376616Y1313234D01*
X1375236Y1309903D01*
X1375236Y1306297D01*
X1376616Y1302966D01*
X1379166Y1300416D01*
X1382497Y1299036D01*
G37*
G36*
X1357097Y1299036D02*
X1360703Y1299036D01*
X1364034Y1300416D01*
X1366584Y1302966D01*
X1367964Y1306297D01*
X1367964Y1309903D01*
X1366584Y1313234D01*
X1364034Y1315784D01*
X1360703Y1317164D01*
X1357097Y1317164D01*
X1353766Y1315784D01*
X1351216Y1313234D01*
X1349836Y1309903D01*
X1349836Y1306297D01*
X1351216Y1302966D01*
X1353766Y1300416D01*
X1357097Y1299036D01*
G37*
G36*
X1331697Y1299036D02*
X1335303Y1299036D01*
X1338634Y1300416D01*
X1341184Y1302966D01*
X1342564Y1306297D01*
X1342564Y1309903D01*
X1341184Y1313234D01*
X1338634Y1315784D01*
X1335303Y1317164D01*
X1331697Y1317164D01*
X1328366Y1315784D01*
X1325816Y1313234D01*
X1324436Y1309903D01*
X1324436Y1306297D01*
X1325816Y1302966D01*
X1328366Y1300416D01*
X1331697Y1299036D01*
G37*
G36*
X1306297Y1299036D02*
X1309903Y1299036D01*
X1313234Y1300416D01*
X1315784Y1302966D01*
X1317164Y1306297D01*
X1317164Y1309903D01*
X1315784Y1313234D01*
X1313234Y1315784D01*
X1309903Y1317164D01*
X1306297Y1317164D01*
X1302966Y1315784D01*
X1300416Y1313234D01*
X1299036Y1309903D01*
X1299036Y1306297D01*
X1300416Y1302966D01*
X1302966Y1300416D01*
X1306297Y1299036D01*
G37*
G36*
X1280897Y1299036D02*
X1284503Y1299036D01*
X1287834Y1300416D01*
X1290384Y1302966D01*
X1291764Y1306297D01*
X1291764Y1309903D01*
X1290384Y1313234D01*
X1287834Y1315784D01*
X1284503Y1317164D01*
X1280897Y1317164D01*
X1277566Y1315784D01*
X1275016Y1313234D01*
X1273636Y1309903D01*
X1273636Y1306297D01*
X1275016Y1302966D01*
X1277566Y1300416D01*
X1280897Y1299036D01*
G37*
G36*
X1255497Y1299036D02*
X1259103Y1299036D01*
X1262434Y1300416D01*
X1264984Y1302966D01*
X1266364Y1306297D01*
X1266364Y1309903D01*
X1264984Y1313234D01*
X1262434Y1315784D01*
X1259103Y1317164D01*
X1255497Y1317164D01*
X1252166Y1315784D01*
X1249616Y1313234D01*
X1248236Y1309903D01*
X1248236Y1306297D01*
X1249616Y1302966D01*
X1252166Y1300416D01*
X1255497Y1299036D01*
G37*
G36*
X734797Y1299036D02*
X738403Y1299036D01*
X741734Y1300416D01*
X744284Y1302966D01*
X745664Y1306297D01*
X745664Y1309903D01*
X744284Y1313234D01*
X741734Y1315784D01*
X738403Y1317164D01*
X734797Y1317164D01*
X731466Y1315784D01*
X728916Y1313234D01*
X727536Y1309903D01*
X727536Y1306297D01*
X728916Y1302966D01*
X731466Y1300416D01*
X734797Y1299036D01*
G37*
G36*
X709397Y1299036D02*
X713003Y1299036D01*
X716334Y1300416D01*
X718884Y1302966D01*
X720264Y1306297D01*
X720264Y1309903D01*
X718884Y1313234D01*
X716334Y1315784D01*
X713003Y1317164D01*
X709397Y1317164D01*
X706066Y1315784D01*
X703516Y1313234D01*
X702136Y1309903D01*
X702136Y1306297D01*
X703516Y1302966D01*
X706066Y1300416D01*
X709397Y1299036D01*
G37*
G36*
X683997Y1299036D02*
X687603Y1299036D01*
X690934Y1300416D01*
X693484Y1302966D01*
X694864Y1306297D01*
X694864Y1309903D01*
X693484Y1313234D01*
X690934Y1315784D01*
X687603Y1317164D01*
X683997Y1317164D01*
X680666Y1315784D01*
X678116Y1313234D01*
X676736Y1309903D01*
X676736Y1306297D01*
X678116Y1302966D01*
X680666Y1300416D01*
X683997Y1299036D01*
G37*
G36*
X658597Y1299036D02*
X662203Y1299036D01*
X665534Y1300416D01*
X668084Y1302966D01*
X669464Y1306297D01*
X669464Y1309903D01*
X668084Y1313234D01*
X665534Y1315784D01*
X662203Y1317164D01*
X658597Y1317164D01*
X655266Y1315784D01*
X652716Y1313234D01*
X651336Y1309903D01*
X651336Y1306297D01*
X652716Y1302966D01*
X655266Y1300416D01*
X658597Y1299036D01*
G37*
G36*
X633197Y1299036D02*
X636803Y1299036D01*
X640134Y1300416D01*
X642684Y1302966D01*
X644064Y1306297D01*
X644064Y1309903D01*
X642684Y1313234D01*
X640134Y1315784D01*
X636803Y1317164D01*
X633197Y1317164D01*
X629866Y1315784D01*
X627316Y1313234D01*
X625936Y1309903D01*
X625936Y1306297D01*
X627316Y1302966D01*
X629866Y1300416D01*
X633197Y1299036D01*
G37*
G36*
X607797Y1299036D02*
X611403Y1299036D01*
X614734Y1300416D01*
X617284Y1302966D01*
X618664Y1306297D01*
X618664Y1309903D01*
X617284Y1313234D01*
X614734Y1315784D01*
X611403Y1317164D01*
X607797Y1317164D01*
X604466Y1315784D01*
X601916Y1313234D01*
X600536Y1309903D01*
X600536Y1306297D01*
X601916Y1302966D01*
X604466Y1300416D01*
X607797Y1299036D01*
G37*
G36*
X582397Y1299036D02*
X586003Y1299036D01*
X589334Y1300416D01*
X591884Y1302966D01*
X593264Y1306297D01*
X593264Y1309903D01*
X591884Y1313234D01*
X589334Y1315784D01*
X586003Y1317164D01*
X582397Y1317164D01*
X579066Y1315784D01*
X576516Y1313234D01*
X575136Y1309903D01*
X575136Y1306297D01*
X576516Y1302966D01*
X579066Y1300416D01*
X582397Y1299036D01*
G37*
G36*
X556997Y1299036D02*
X560603Y1299036D01*
X563934Y1300416D01*
X566484Y1302966D01*
X567864Y1306297D01*
X567864Y1309903D01*
X566484Y1313234D01*
X563934Y1315784D01*
X560603Y1317164D01*
X556997Y1317164D01*
X553666Y1315784D01*
X551116Y1313234D01*
X549736Y1309903D01*
X549736Y1306297D01*
X551116Y1302966D01*
X553666Y1300416D01*
X556997Y1299036D01*
G37*
G36*
X531597Y1299036D02*
X535203Y1299036D01*
X538534Y1300416D01*
X541084Y1302966D01*
X542464Y1306297D01*
X542464Y1309903D01*
X541084Y1313234D01*
X538534Y1315784D01*
X535203Y1317164D01*
X531597Y1317164D01*
X528266Y1315784D01*
X525716Y1313234D01*
X524336Y1309903D01*
X524336Y1306297D01*
X525716Y1302966D01*
X528266Y1300416D01*
X531597Y1299036D01*
G37*
G36*
X506197Y1299036D02*
X509803Y1299036D01*
X513134Y1300416D01*
X515684Y1302966D01*
X517064Y1306297D01*
X517064Y1309903D01*
X515684Y1313234D01*
X513134Y1315784D01*
X509803Y1317164D01*
X506197Y1317164D01*
X502866Y1315784D01*
X500316Y1313234D01*
X498936Y1309903D01*
X498936Y1306297D01*
X500316Y1302966D01*
X502866Y1300416D01*
X506197Y1299036D01*
G37*
G36*
X379197Y1299036D02*
X382803Y1299036D01*
X386134Y1300416D01*
X388684Y1302966D01*
X390064Y1306297D01*
X390064Y1309903D01*
X388684Y1313234D01*
X386134Y1315784D01*
X382803Y1317164D01*
X379197Y1317164D01*
X375866Y1315784D01*
X373316Y1313234D01*
X371936Y1309903D01*
X371936Y1306297D01*
X373316Y1302966D01*
X375866Y1300416D01*
X379197Y1299036D01*
G37*
G36*
X353797Y1299036D02*
X357403Y1299036D01*
X360734Y1300416D01*
X363284Y1302966D01*
X364664Y1306297D01*
X364664Y1309903D01*
X363284Y1313234D01*
X360734Y1315784D01*
X357403Y1317164D01*
X353797Y1317164D01*
X350466Y1315784D01*
X347916Y1313234D01*
X346536Y1309903D01*
X346536Y1306297D01*
X347916Y1302966D01*
X350466Y1300416D01*
X353797Y1299036D01*
G37*
G36*
X328397Y1299036D02*
X332003Y1299036D01*
X335334Y1300416D01*
X337884Y1302966D01*
X339264Y1306297D01*
X339264Y1309903D01*
X337884Y1313234D01*
X335334Y1315784D01*
X332003Y1317164D01*
X328397Y1317164D01*
X325066Y1315784D01*
X322516Y1313234D01*
X321136Y1309903D01*
X321136Y1306297D01*
X322516Y1302966D01*
X325066Y1300416D01*
X328397Y1299036D01*
G37*
G36*
X302997Y1299036D02*
X306603Y1299036D01*
X309934Y1300416D01*
X312484Y1302966D01*
X313864Y1306297D01*
X313864Y1309903D01*
X312484Y1313234D01*
X309934Y1315784D01*
X306603Y1317164D01*
X302997Y1317164D01*
X299666Y1315784D01*
X297116Y1313234D01*
X295736Y1309903D01*
X295736Y1306297D01*
X297116Y1302966D01*
X299666Y1300416D01*
X302997Y1299036D01*
G37*
G36*
X277597Y1299036D02*
X281203Y1299036D01*
X284534Y1300416D01*
X287084Y1302966D01*
X288464Y1306297D01*
X288464Y1309903D01*
X287084Y1313234D01*
X284534Y1315784D01*
X281203Y1317164D01*
X277597Y1317164D01*
X274266Y1315784D01*
X271716Y1313234D01*
X270336Y1309903D01*
X270336Y1306297D01*
X271716Y1302966D01*
X274266Y1300416D01*
X277597Y1299036D01*
G37*
G36*
X252197Y1299036D02*
X255803Y1299036D01*
X259134Y1300416D01*
X261684Y1302966D01*
X263064Y1306297D01*
X263064Y1309903D01*
X261684Y1313234D01*
X259134Y1315784D01*
X255803Y1317164D01*
X252197Y1317164D01*
X248866Y1315784D01*
X246316Y1313234D01*
X244936Y1309903D01*
X244936Y1306297D01*
X246316Y1302966D01*
X248866Y1300416D01*
X252197Y1299036D01*
G37*
G36*
X226797Y1299036D02*
X230403Y1299036D01*
X233734Y1300416D01*
X236284Y1302966D01*
X237664Y1306297D01*
X237664Y1309903D01*
X236284Y1313234D01*
X233734Y1315784D01*
X230403Y1317164D01*
X226797Y1317164D01*
X223466Y1315784D01*
X220916Y1313234D01*
X219536Y1309903D01*
X219536Y1306297D01*
X220916Y1302966D01*
X223466Y1300416D01*
X226797Y1299036D01*
G37*
G36*
X201397Y1299036D02*
X205003Y1299036D01*
X208334Y1300416D01*
X210884Y1302966D01*
X212264Y1306297D01*
X212264Y1309903D01*
X210884Y1313234D01*
X208334Y1315784D01*
X205003Y1317164D01*
X201397Y1317164D01*
X198066Y1315784D01*
X195516Y1313234D01*
X194136Y1309903D01*
X194136Y1306297D01*
X195516Y1302966D01*
X198066Y1300416D01*
X201397Y1299036D01*
G37*
G36*
X175997Y1299036D02*
X179603Y1299036D01*
X182934Y1300416D01*
X185484Y1302966D01*
X186864Y1306297D01*
X186864Y1309903D01*
X185484Y1313234D01*
X182934Y1315784D01*
X179603Y1317164D01*
X175997Y1317164D01*
X172666Y1315784D01*
X170116Y1313234D01*
X168736Y1309903D01*
X168736Y1306297D01*
X170116Y1302966D01*
X172666Y1300416D01*
X175997Y1299036D01*
G37*
G36*
X150597Y1299036D02*
X154203Y1299036D01*
X157534Y1300416D01*
X160084Y1302966D01*
X161464Y1306297D01*
X161464Y1309903D01*
X160084Y1313234D01*
X157534Y1315784D01*
X154203Y1317164D01*
X150597Y1317164D01*
X147266Y1315784D01*
X144716Y1313234D01*
X143336Y1309903D01*
X143336Y1306297D01*
X144716Y1302966D01*
X147266Y1300416D01*
X150597Y1299036D01*
G37*
G36*
X125197Y1299036D02*
X128803Y1299036D01*
X132134Y1300416D01*
X134684Y1302966D01*
X136064Y1306297D01*
X136064Y1309903D01*
X134684Y1313234D01*
X132134Y1315784D01*
X128803Y1317164D01*
X125197Y1317164D01*
X121866Y1315784D01*
X119316Y1313234D01*
X117936Y1309903D01*
X117936Y1306297D01*
X119316Y1302966D01*
X121866Y1300416D01*
X125197Y1299036D01*
G37*
G36*
X99797Y1299036D02*
X103403Y1299036D01*
X106734Y1300416D01*
X109284Y1302966D01*
X110664Y1306297D01*
X110664Y1309903D01*
X109284Y1313234D01*
X106734Y1315784D01*
X103403Y1317164D01*
X99797Y1317164D01*
X96466Y1315784D01*
X93916Y1313234D01*
X92536Y1309903D01*
X92536Y1306297D01*
X93916Y1302966D01*
X96466Y1300416D01*
X99797Y1299036D01*
G37*
G36*
X1484097Y1299036D02*
X1487703Y1299036D01*
X1491034Y1300416D01*
X1493584Y1302966D01*
X1494964Y1306297D01*
X1494964Y1309903D01*
X1493584Y1313234D01*
X1491034Y1315784D01*
X1487703Y1317164D01*
X1484097Y1317164D01*
X1480766Y1315784D01*
X1478216Y1313234D01*
X1476836Y1309903D01*
X1476836Y1306297D01*
X1478216Y1302966D01*
X1480766Y1300416D01*
X1484097Y1299036D01*
G37*
G36*
X1458697Y1299036D02*
X1462303Y1299036D01*
X1465634Y1300416D01*
X1468184Y1302966D01*
X1469564Y1306297D01*
X1469564Y1309903D01*
X1468184Y1313234D01*
X1465634Y1315784D01*
X1462303Y1317164D01*
X1458697Y1317164D01*
X1455366Y1315784D01*
X1452816Y1313234D01*
X1451436Y1309903D01*
X1451436Y1306297D01*
X1452816Y1302966D01*
X1455366Y1300416D01*
X1458697Y1299036D01*
G37*
G36*
X1433297Y1299036D02*
X1436903Y1299036D01*
X1440234Y1300416D01*
X1442784Y1302966D01*
X1444164Y1306297D01*
X1444164Y1309903D01*
X1442784Y1313234D01*
X1440234Y1315784D01*
X1436903Y1317164D01*
X1433297Y1317164D01*
X1429966Y1315784D01*
X1427416Y1313234D01*
X1426036Y1309903D01*
X1426036Y1306297D01*
X1427416Y1302966D01*
X1429966Y1300416D01*
X1433297Y1299036D01*
G37*
G36*
X1407897Y1299036D02*
X1411503Y1299036D01*
X1414834Y1300416D01*
X1417384Y1302966D01*
X1418764Y1306297D01*
X1418764Y1309903D01*
X1417384Y1313234D01*
X1414834Y1315784D01*
X1411503Y1317164D01*
X1407897Y1317164D01*
X1404566Y1315784D01*
X1402016Y1313234D01*
X1400636Y1309903D01*
X1400636Y1306297D01*
X1402016Y1302966D01*
X1404566Y1300416D01*
X1407897Y1299036D01*
G37*
G36*
X1027017Y1297766D02*
X1030623Y1297766D01*
X1033954Y1299146D01*
X1036504Y1301696D01*
X1037884Y1305027D01*
X1037884Y1308633D01*
X1036504Y1311964D01*
X1033954Y1314514D01*
X1030623Y1315894D01*
X1027017Y1315894D01*
X1023686Y1314514D01*
X1021136Y1311964D01*
X1019756Y1308633D01*
X1019756Y1305027D01*
X1021136Y1301696D01*
X1023686Y1299146D01*
X1027017Y1297766D01*
G37*
G36*
X1001617Y1297766D02*
X1005223Y1297766D01*
X1008554Y1299146D01*
X1011104Y1301696D01*
X1012484Y1305027D01*
X1012484Y1308633D01*
X1011104Y1311964D01*
X1008554Y1314514D01*
X1005223Y1315894D01*
X1001617Y1315894D01*
X998286Y1314514D01*
X995736Y1311964D01*
X994356Y1308633D01*
X994356Y1305027D01*
X995736Y1301696D01*
X998286Y1299146D01*
X1001617Y1297766D01*
G37*
G36*
X976217Y1297766D02*
X979823Y1297766D01*
X983154Y1299146D01*
X985704Y1301696D01*
X987084Y1305027D01*
X987084Y1308633D01*
X985704Y1311964D01*
X983154Y1314514D01*
X979823Y1315894D01*
X976217Y1315894D01*
X972886Y1314514D01*
X970336Y1311964D01*
X968956Y1308633D01*
X968956Y1305027D01*
X970336Y1301696D01*
X972886Y1299146D01*
X976217Y1297766D01*
G37*
G36*
X950817Y1297766D02*
X954423Y1297766D01*
X957754Y1299146D01*
X960304Y1301696D01*
X961684Y1305027D01*
X961684Y1308633D01*
X960304Y1311964D01*
X957754Y1314514D01*
X954423Y1315894D01*
X950817Y1315894D01*
X947486Y1314514D01*
X944936Y1311964D01*
X943556Y1308633D01*
X943556Y1305027D01*
X944936Y1301696D01*
X947486Y1299146D01*
X950817Y1297766D01*
G37*
G36*
X1128617Y1297766D02*
X1132223Y1297766D01*
X1135554Y1299146D01*
X1138104Y1301696D01*
X1139484Y1305027D01*
X1139484Y1308633D01*
X1138104Y1311964D01*
X1135554Y1314514D01*
X1132223Y1315894D01*
X1128617Y1315894D01*
X1125286Y1314514D01*
X1122736Y1311964D01*
X1121356Y1308633D01*
X1121356Y1305027D01*
X1122736Y1301696D01*
X1125286Y1299146D01*
X1128617Y1297766D01*
G37*
G36*
X900017Y1297766D02*
X903623Y1297766D01*
X906954Y1299146D01*
X909504Y1301696D01*
X910884Y1305027D01*
X910884Y1308633D01*
X909504Y1311964D01*
X906954Y1314514D01*
X903623Y1315894D01*
X900017Y1315894D01*
X896686Y1314514D01*
X894136Y1311964D01*
X892756Y1308633D01*
X892756Y1305027D01*
X894136Y1301696D01*
X896686Y1299146D01*
X900017Y1297766D01*
G37*
G36*
X874617Y1297766D02*
X878223Y1297766D01*
X881554Y1299146D01*
X884104Y1301696D01*
X885484Y1305027D01*
X885484Y1308633D01*
X884104Y1311964D01*
X881554Y1314514D01*
X878223Y1315894D01*
X874617Y1315894D01*
X871286Y1314514D01*
X868736Y1311964D01*
X867356Y1308633D01*
X867356Y1305027D01*
X868736Y1301696D01*
X871286Y1299146D01*
X874617Y1297766D01*
G37*
G36*
X849217Y1297766D02*
X852823Y1297766D01*
X856154Y1299146D01*
X858704Y1301696D01*
X860084Y1305027D01*
X860084Y1308633D01*
X858704Y1311964D01*
X856154Y1314514D01*
X852823Y1315894D01*
X849217Y1315894D01*
X845886Y1314514D01*
X843336Y1311964D01*
X841956Y1308633D01*
X841956Y1305027D01*
X843336Y1301696D01*
X845886Y1299146D01*
X849217Y1297766D01*
G37*
G36*
X925417Y1297766D02*
X929023Y1297766D01*
X932354Y1299146D01*
X934904Y1301696D01*
X936284Y1305027D01*
X936284Y1308633D01*
X934904Y1311964D01*
X932354Y1314514D01*
X929023Y1315894D01*
X925417Y1315894D01*
X922086Y1314514D01*
X919536Y1311964D01*
X918156Y1308633D01*
X918156Y1305027D01*
X919536Y1301696D01*
X922086Y1299146D01*
X925417Y1297766D01*
G37*
G36*
X1103217Y1297766D02*
X1106823Y1297766D01*
X1110154Y1299146D01*
X1112704Y1301696D01*
X1114084Y1305027D01*
X1114084Y1308633D01*
X1112704Y1311964D01*
X1110154Y1314514D01*
X1106823Y1315894D01*
X1103217Y1315894D01*
X1099886Y1314514D01*
X1097336Y1311964D01*
X1095956Y1308633D01*
X1095956Y1305027D01*
X1097336Y1301696D01*
X1099886Y1299146D01*
X1103217Y1297766D01*
G37*
G36*
X1077817Y1297766D02*
X1081423Y1297766D01*
X1084754Y1299146D01*
X1087304Y1301696D01*
X1088684Y1305027D01*
X1088684Y1308633D01*
X1087304Y1311964D01*
X1084754Y1314514D01*
X1081423Y1315894D01*
X1077817Y1315894D01*
X1074486Y1314514D01*
X1071936Y1311964D01*
X1070556Y1308633D01*
X1070556Y1305027D01*
X1071936Y1301696D01*
X1074486Y1299146D01*
X1077817Y1297766D01*
G37*
G36*
X1052417Y1297766D02*
X1056023Y1297766D01*
X1059354Y1299146D01*
X1061904Y1301696D01*
X1063284Y1305027D01*
X1063284Y1308633D01*
X1061904Y1311964D01*
X1059354Y1314514D01*
X1056023Y1315894D01*
X1052417Y1315894D01*
X1049086Y1314514D01*
X1046536Y1311964D01*
X1045156Y1308633D01*
X1045156Y1305027D01*
X1046536Y1301696D01*
X1049086Y1299146D01*
X1052417Y1297766D01*
G37*
G36*
X1232662Y1298020D02*
X1233905Y1298020D01*
X1237610Y1299555D01*
X1240445Y1302390D01*
X1241980Y1306095D01*
X1241980Y1307338D01*
X1232662Y1307338D01*
X1232662Y1298020D01*
G37*
G36*
X1229895Y1298020D02*
X1231138Y1298020D01*
X1231138Y1307338D01*
X1221820Y1307338D01*
X1221820Y1306095D01*
X1223355Y1302390D01*
X1226190Y1299555D01*
X1229895Y1298020D01*
G37*
G36*
X1207262Y1298020D02*
X1208505Y1298020D01*
X1212210Y1299555D01*
X1215045Y1302390D01*
X1216580Y1306095D01*
X1216580Y1307338D01*
X1207262Y1307338D01*
X1207262Y1298020D01*
G37*
G36*
X1204495Y1298020D02*
X1205738Y1298020D01*
X1205738Y1307338D01*
X1196420Y1307338D01*
X1196420Y1306095D01*
X1197955Y1302390D01*
X1200790Y1299555D01*
X1204495Y1298020D01*
G37*
G36*
X483362Y1298020D02*
X484605Y1298020D01*
X488310Y1299555D01*
X491145Y1302390D01*
X492680Y1306095D01*
X492680Y1307338D01*
X483362Y1307338D01*
X483362Y1298020D01*
G37*
G36*
X480595Y1298020D02*
X481838Y1298020D01*
X481838Y1307338D01*
X472520Y1307338D01*
X472520Y1306095D01*
X474055Y1302390D01*
X476890Y1299555D01*
X480595Y1298020D01*
G37*
G36*
X457962Y1298020D02*
X459205Y1298020D01*
X462910Y1299555D01*
X465745Y1302390D01*
X467280Y1306095D01*
X467280Y1307338D01*
X457962Y1307338D01*
X457962Y1298020D01*
G37*
G36*
X455195Y1298020D02*
X456438Y1298020D01*
X456438Y1307338D01*
X447120Y1307338D01*
X447120Y1306095D01*
X448655Y1302390D01*
X451490Y1299555D01*
X455195Y1298020D01*
G37*
G36*
X1196420Y1283462D02*
X1205738Y1283462D01*
X1205738Y1292780D01*
X1204495Y1292780D01*
X1200790Y1291245D01*
X1197955Y1288410D01*
X1196420Y1284705D01*
X1196420Y1283462D01*
G37*
G36*
X447120Y1283462D02*
X456438Y1283462D01*
X456438Y1292780D01*
X455195Y1292780D01*
X451490Y1291245D01*
X448655Y1288410D01*
X447120Y1284705D01*
X447120Y1283462D01*
G37*
G36*
X91520Y1283462D02*
X100838Y1283462D01*
X100838Y1292780D01*
X99595Y1292780D01*
X95890Y1291245D01*
X93055Y1288410D01*
X91520Y1284705D01*
X91520Y1283462D01*
G37*
G36*
X102362Y1283462D02*
X111680Y1283462D01*
X111680Y1284705D01*
X110145Y1288410D01*
X107310Y1291245D01*
X103605Y1292780D01*
X102362Y1292780D01*
X102362Y1283462D01*
G37*
G36*
X457962Y1283462D02*
X467280Y1283462D01*
X467280Y1284705D01*
X465745Y1288410D01*
X462910Y1291245D01*
X459205Y1292780D01*
X457962Y1292780D01*
X457962Y1283462D01*
G37*
G36*
X1207262Y1283462D02*
X1216580Y1283462D01*
X1216580Y1284705D01*
X1215045Y1288410D01*
X1212210Y1291245D01*
X1208505Y1292780D01*
X1207262Y1292780D01*
X1207262Y1283462D01*
G37*
G36*
X1280897Y1273636D02*
X1284503Y1273636D01*
X1287834Y1275016D01*
X1290384Y1277566D01*
X1291764Y1280897D01*
X1291764Y1284503D01*
X1290384Y1287834D01*
X1287834Y1290384D01*
X1284503Y1291764D01*
X1280897Y1291764D01*
X1277566Y1290384D01*
X1275016Y1287834D01*
X1273636Y1284503D01*
X1273636Y1280897D01*
X1275016Y1277566D01*
X1277566Y1275016D01*
X1280897Y1273636D01*
G37*
G36*
X1255497Y1273636D02*
X1259103Y1273636D01*
X1262434Y1275016D01*
X1264984Y1277566D01*
X1266364Y1280897D01*
X1266364Y1284503D01*
X1264984Y1287834D01*
X1262434Y1290384D01*
X1259103Y1291764D01*
X1255497Y1291764D01*
X1252166Y1290384D01*
X1249616Y1287834D01*
X1248236Y1284503D01*
X1248236Y1280897D01*
X1249616Y1277566D01*
X1252166Y1275016D01*
X1255497Y1273636D01*
G37*
G36*
X1230097Y1273636D02*
X1233703Y1273636D01*
X1237034Y1275016D01*
X1239584Y1277566D01*
X1240964Y1280897D01*
X1240964Y1284503D01*
X1239584Y1287834D01*
X1237034Y1290384D01*
X1233703Y1291764D01*
X1230097Y1291764D01*
X1226766Y1290384D01*
X1224216Y1287834D01*
X1222836Y1284503D01*
X1222836Y1280897D01*
X1224216Y1277566D01*
X1226766Y1275016D01*
X1230097Y1273636D01*
G37*
G36*
X734797Y1273636D02*
X738403Y1273636D01*
X741734Y1275016D01*
X744284Y1277566D01*
X745664Y1280897D01*
X745664Y1284503D01*
X744284Y1287834D01*
X741734Y1290384D01*
X738403Y1291764D01*
X734797Y1291764D01*
X731466Y1290384D01*
X728916Y1287834D01*
X727536Y1284503D01*
X727536Y1280897D01*
X728916Y1277566D01*
X731466Y1275016D01*
X734797Y1273636D01*
G37*
G36*
X709397Y1273636D02*
X713003Y1273636D01*
X716334Y1275016D01*
X718884Y1277566D01*
X720264Y1280897D01*
X720264Y1284503D01*
X718884Y1287834D01*
X716334Y1290384D01*
X713003Y1291764D01*
X709397Y1291764D01*
X706066Y1290384D01*
X703516Y1287834D01*
X702136Y1284503D01*
X702136Y1280897D01*
X703516Y1277566D01*
X706066Y1275016D01*
X709397Y1273636D01*
G37*
G36*
X683997Y1273636D02*
X687603Y1273636D01*
X690934Y1275016D01*
X693484Y1277566D01*
X694864Y1280897D01*
X694864Y1284503D01*
X693484Y1287834D01*
X690934Y1290384D01*
X687603Y1291764D01*
X683997Y1291764D01*
X680666Y1290384D01*
X678116Y1287834D01*
X676736Y1284503D01*
X676736Y1280897D01*
X678116Y1277566D01*
X680666Y1275016D01*
X683997Y1273636D01*
G37*
G36*
X658597Y1273636D02*
X662203Y1273636D01*
X665534Y1275016D01*
X668084Y1277566D01*
X669464Y1280897D01*
X669464Y1284503D01*
X668084Y1287834D01*
X665534Y1290384D01*
X662203Y1291764D01*
X658597Y1291764D01*
X655266Y1290384D01*
X652716Y1287834D01*
X651336Y1284503D01*
X651336Y1280897D01*
X652716Y1277566D01*
X655266Y1275016D01*
X658597Y1273636D01*
G37*
G36*
X633197Y1273636D02*
X636803Y1273636D01*
X640134Y1275016D01*
X642684Y1277566D01*
X644064Y1280897D01*
X644064Y1284503D01*
X642684Y1287834D01*
X640134Y1290384D01*
X636803Y1291764D01*
X633197Y1291764D01*
X629866Y1290384D01*
X627316Y1287834D01*
X625936Y1284503D01*
X625936Y1280897D01*
X627316Y1277566D01*
X629866Y1275016D01*
X633197Y1273636D01*
G37*
G36*
X607797Y1273636D02*
X611403Y1273636D01*
X614734Y1275016D01*
X617284Y1277566D01*
X618664Y1280897D01*
X618664Y1284503D01*
X617284Y1287834D01*
X614734Y1290384D01*
X611403Y1291764D01*
X607797Y1291764D01*
X604466Y1290384D01*
X601916Y1287834D01*
X600536Y1284503D01*
X600536Y1280897D01*
X601916Y1277566D01*
X604466Y1275016D01*
X607797Y1273636D01*
G37*
G36*
X582397Y1273636D02*
X586003Y1273636D01*
X589334Y1275016D01*
X591884Y1277566D01*
X593264Y1280897D01*
X593264Y1284503D01*
X591884Y1287834D01*
X589334Y1290384D01*
X586003Y1291764D01*
X582397Y1291764D01*
X579066Y1290384D01*
X576516Y1287834D01*
X575136Y1284503D01*
X575136Y1280897D01*
X576516Y1277566D01*
X579066Y1275016D01*
X582397Y1273636D01*
G37*
G36*
X556997Y1273636D02*
X560603Y1273636D01*
X563934Y1275016D01*
X566484Y1277566D01*
X567864Y1280897D01*
X567864Y1284503D01*
X566484Y1287834D01*
X563934Y1290384D01*
X560603Y1291764D01*
X556997Y1291764D01*
X553666Y1290384D01*
X551116Y1287834D01*
X549736Y1284503D01*
X549736Y1280897D01*
X551116Y1277566D01*
X553666Y1275016D01*
X556997Y1273636D01*
G37*
G36*
X531597Y1273636D02*
X535203Y1273636D01*
X538534Y1275016D01*
X541084Y1277566D01*
X542464Y1280897D01*
X542464Y1284503D01*
X541084Y1287834D01*
X538534Y1290384D01*
X535203Y1291764D01*
X531597Y1291764D01*
X528266Y1290384D01*
X525716Y1287834D01*
X524336Y1284503D01*
X524336Y1280897D01*
X525716Y1277566D01*
X528266Y1275016D01*
X531597Y1273636D01*
G37*
G36*
X506197Y1273636D02*
X509803Y1273636D01*
X513134Y1275016D01*
X515684Y1277566D01*
X517064Y1280897D01*
X517064Y1284503D01*
X515684Y1287834D01*
X513134Y1290384D01*
X509803Y1291764D01*
X506197Y1291764D01*
X502866Y1290384D01*
X500316Y1287834D01*
X498936Y1284503D01*
X498936Y1280897D01*
X500316Y1277566D01*
X502866Y1275016D01*
X506197Y1273636D01*
G37*
G36*
X480797Y1273636D02*
X484403Y1273636D01*
X487734Y1275016D01*
X490284Y1277566D01*
X491664Y1280897D01*
X491664Y1284503D01*
X490284Y1287834D01*
X487734Y1290384D01*
X484403Y1291764D01*
X480797Y1291764D01*
X477466Y1290384D01*
X474916Y1287834D01*
X473536Y1284503D01*
X473536Y1280897D01*
X474916Y1277566D01*
X477466Y1275016D01*
X480797Y1273636D01*
G37*
G36*
X379197Y1273636D02*
X382803Y1273636D01*
X386134Y1275016D01*
X388684Y1277566D01*
X390064Y1280897D01*
X390064Y1284503D01*
X388684Y1287834D01*
X386134Y1290384D01*
X382803Y1291764D01*
X379197Y1291764D01*
X375866Y1290384D01*
X373316Y1287834D01*
X371936Y1284503D01*
X371936Y1280897D01*
X373316Y1277566D01*
X375866Y1275016D01*
X379197Y1273636D01*
G37*
G36*
X353797Y1273636D02*
X357403Y1273636D01*
X360734Y1275016D01*
X363284Y1277566D01*
X364664Y1280897D01*
X364664Y1284503D01*
X363284Y1287834D01*
X360734Y1290384D01*
X357403Y1291764D01*
X353797Y1291764D01*
X350466Y1290384D01*
X347916Y1287834D01*
X346536Y1284503D01*
X346536Y1280897D01*
X347916Y1277566D01*
X350466Y1275016D01*
X353797Y1273636D01*
G37*
G36*
X328397Y1273636D02*
X332003Y1273636D01*
X335334Y1275016D01*
X337884Y1277566D01*
X339264Y1280897D01*
X339264Y1284503D01*
X337884Y1287834D01*
X335334Y1290384D01*
X332003Y1291764D01*
X328397Y1291764D01*
X325066Y1290384D01*
X322516Y1287834D01*
X321136Y1284503D01*
X321136Y1280897D01*
X322516Y1277566D01*
X325066Y1275016D01*
X328397Y1273636D01*
G37*
G36*
X302997Y1273636D02*
X306603Y1273636D01*
X309934Y1275016D01*
X312484Y1277566D01*
X313864Y1280897D01*
X313864Y1284503D01*
X312484Y1287834D01*
X309934Y1290384D01*
X306603Y1291764D01*
X302997Y1291764D01*
X299666Y1290384D01*
X297116Y1287834D01*
X295736Y1284503D01*
X295736Y1280897D01*
X297116Y1277566D01*
X299666Y1275016D01*
X302997Y1273636D01*
G37*
G36*
X277597Y1273636D02*
X281203Y1273636D01*
X284534Y1275016D01*
X287084Y1277566D01*
X288464Y1280897D01*
X288464Y1284503D01*
X287084Y1287834D01*
X284534Y1290384D01*
X281203Y1291764D01*
X277597Y1291764D01*
X274266Y1290384D01*
X271716Y1287834D01*
X270336Y1284503D01*
X270336Y1280897D01*
X271716Y1277566D01*
X274266Y1275016D01*
X277597Y1273636D01*
G37*
G36*
X252197Y1273636D02*
X255803Y1273636D01*
X259134Y1275016D01*
X261684Y1277566D01*
X263064Y1280897D01*
X263064Y1284503D01*
X261684Y1287834D01*
X259134Y1290384D01*
X255803Y1291764D01*
X252197Y1291764D01*
X248866Y1290384D01*
X246316Y1287834D01*
X244936Y1284503D01*
X244936Y1280897D01*
X246316Y1277566D01*
X248866Y1275016D01*
X252197Y1273636D01*
G37*
G36*
X226797Y1273636D02*
X230403Y1273636D01*
X233734Y1275016D01*
X236284Y1277566D01*
X237664Y1280897D01*
X237664Y1284503D01*
X236284Y1287834D01*
X233734Y1290384D01*
X230403Y1291764D01*
X226797Y1291764D01*
X223466Y1290384D01*
X220916Y1287834D01*
X219536Y1284503D01*
X219536Y1280897D01*
X220916Y1277566D01*
X223466Y1275016D01*
X226797Y1273636D01*
G37*
G36*
X201397Y1273636D02*
X205003Y1273636D01*
X208334Y1275016D01*
X210884Y1277566D01*
X212264Y1280897D01*
X212264Y1284503D01*
X210884Y1287834D01*
X208334Y1290384D01*
X205003Y1291764D01*
X201397Y1291764D01*
X198066Y1290384D01*
X195516Y1287834D01*
X194136Y1284503D01*
X194136Y1280897D01*
X195516Y1277566D01*
X198066Y1275016D01*
X201397Y1273636D01*
G37*
G36*
X175997Y1273636D02*
X179603Y1273636D01*
X182934Y1275016D01*
X185484Y1277566D01*
X186864Y1280897D01*
X186864Y1284503D01*
X185484Y1287834D01*
X182934Y1290384D01*
X179603Y1291764D01*
X175997Y1291764D01*
X172666Y1290384D01*
X170116Y1287834D01*
X168736Y1284503D01*
X168736Y1280897D01*
X170116Y1277566D01*
X172666Y1275016D01*
X175997Y1273636D01*
G37*
G36*
X150597Y1273636D02*
X154203Y1273636D01*
X157534Y1275016D01*
X160084Y1277566D01*
X161464Y1280897D01*
X161464Y1284503D01*
X160084Y1287834D01*
X157534Y1290384D01*
X154203Y1291764D01*
X150597Y1291764D01*
X147266Y1290384D01*
X144716Y1287834D01*
X143336Y1284503D01*
X143336Y1280897D01*
X144716Y1277566D01*
X147266Y1275016D01*
X150597Y1273636D01*
G37*
G36*
X125197Y1273636D02*
X128803Y1273636D01*
X132134Y1275016D01*
X134684Y1277566D01*
X136064Y1280897D01*
X136064Y1284503D01*
X134684Y1287834D01*
X132134Y1290384D01*
X128803Y1291764D01*
X125197Y1291764D01*
X121866Y1290384D01*
X119316Y1287834D01*
X117936Y1284503D01*
X117936Y1280897D01*
X119316Y1277566D01*
X121866Y1275016D01*
X125197Y1273636D01*
G37*
G36*
X1484097Y1273636D02*
X1487703Y1273636D01*
X1491034Y1275016D01*
X1493584Y1277566D01*
X1494964Y1280897D01*
X1494964Y1284503D01*
X1493584Y1287834D01*
X1491034Y1290384D01*
X1487703Y1291764D01*
X1484097Y1291764D01*
X1480766Y1290384D01*
X1478216Y1287834D01*
X1476836Y1284503D01*
X1476836Y1280897D01*
X1478216Y1277566D01*
X1480766Y1275016D01*
X1484097Y1273636D01*
G37*
G36*
X1458697Y1273636D02*
X1462303Y1273636D01*
X1465634Y1275016D01*
X1468184Y1277566D01*
X1469564Y1280897D01*
X1469564Y1284503D01*
X1468184Y1287834D01*
X1465634Y1290384D01*
X1462303Y1291764D01*
X1458697Y1291764D01*
X1455366Y1290384D01*
X1452816Y1287834D01*
X1451436Y1284503D01*
X1451436Y1280897D01*
X1452816Y1277566D01*
X1455366Y1275016D01*
X1458697Y1273636D01*
G37*
G36*
X1433297Y1273636D02*
X1436903Y1273636D01*
X1440234Y1275016D01*
X1442784Y1277566D01*
X1444164Y1280897D01*
X1444164Y1284503D01*
X1442784Y1287834D01*
X1440234Y1290384D01*
X1436903Y1291764D01*
X1433297Y1291764D01*
X1429966Y1290384D01*
X1427416Y1287834D01*
X1426036Y1284503D01*
X1426036Y1280897D01*
X1427416Y1277566D01*
X1429966Y1275016D01*
X1433297Y1273636D01*
G37*
G36*
X1407897Y1273636D02*
X1411503Y1273636D01*
X1414834Y1275016D01*
X1417384Y1277566D01*
X1418764Y1280897D01*
X1418764Y1284503D01*
X1417384Y1287834D01*
X1414834Y1290384D01*
X1411503Y1291764D01*
X1407897Y1291764D01*
X1404566Y1290384D01*
X1402016Y1287834D01*
X1400636Y1284503D01*
X1400636Y1280897D01*
X1402016Y1277566D01*
X1404566Y1275016D01*
X1407897Y1273636D01*
G37*
G36*
X1382497Y1273636D02*
X1386103Y1273636D01*
X1389434Y1275016D01*
X1391984Y1277566D01*
X1393364Y1280897D01*
X1393364Y1284503D01*
X1391984Y1287834D01*
X1389434Y1290384D01*
X1386103Y1291764D01*
X1382497Y1291764D01*
X1379166Y1290384D01*
X1376616Y1287834D01*
X1375236Y1284503D01*
X1375236Y1280897D01*
X1376616Y1277566D01*
X1379166Y1275016D01*
X1382497Y1273636D01*
G37*
G36*
X1357097Y1273636D02*
X1360703Y1273636D01*
X1364034Y1275016D01*
X1366584Y1277566D01*
X1367964Y1280897D01*
X1367964Y1284503D01*
X1366584Y1287834D01*
X1364034Y1290384D01*
X1360703Y1291764D01*
X1357097Y1291764D01*
X1353766Y1290384D01*
X1351216Y1287834D01*
X1349836Y1284503D01*
X1349836Y1280897D01*
X1351216Y1277566D01*
X1353766Y1275016D01*
X1357097Y1273636D01*
G37*
G36*
X1331697Y1273636D02*
X1335303Y1273636D01*
X1338634Y1275016D01*
X1341184Y1277566D01*
X1342564Y1280897D01*
X1342564Y1284503D01*
X1341184Y1287834D01*
X1338634Y1290384D01*
X1335303Y1291764D01*
X1331697Y1291764D01*
X1328366Y1290384D01*
X1325816Y1287834D01*
X1324436Y1284503D01*
X1324436Y1280897D01*
X1325816Y1277566D01*
X1328366Y1275016D01*
X1331697Y1273636D01*
G37*
G36*
X1306297Y1273636D02*
X1309903Y1273636D01*
X1313234Y1275016D01*
X1315784Y1277566D01*
X1317164Y1280897D01*
X1317164Y1284503D01*
X1315784Y1287834D01*
X1313234Y1290384D01*
X1309903Y1291764D01*
X1306297Y1291764D01*
X1302966Y1290384D01*
X1300416Y1287834D01*
X1299036Y1284503D01*
X1299036Y1280897D01*
X1300416Y1277566D01*
X1302966Y1275016D01*
X1306297Y1273636D01*
G37*
G36*
X840940Y1282192D02*
X850258Y1282192D01*
X850258Y1291510D01*
X849015Y1291510D01*
X845310Y1289975D01*
X842475Y1287140D01*
X840940Y1283435D01*
X840940Y1282192D01*
G37*
G36*
X851782Y1282192D02*
X861100Y1282192D01*
X861100Y1283435D01*
X859565Y1287140D01*
X856730Y1289975D01*
X853025Y1291510D01*
X851782Y1291510D01*
X851782Y1282192D01*
G37*
G36*
X950817Y1272366D02*
X954423Y1272366D01*
X957754Y1273746D01*
X960304Y1276296D01*
X961684Y1279627D01*
X961684Y1283233D01*
X960304Y1286564D01*
X957754Y1289114D01*
X954423Y1290494D01*
X950817Y1290494D01*
X947486Y1289114D01*
X944936Y1286564D01*
X943556Y1283233D01*
X943556Y1279627D01*
X944936Y1276296D01*
X947486Y1273746D01*
X950817Y1272366D01*
G37*
G36*
X925417Y1272366D02*
X929023Y1272366D01*
X932354Y1273746D01*
X934904Y1276296D01*
X936284Y1279627D01*
X936284Y1283233D01*
X934904Y1286564D01*
X932354Y1289114D01*
X929023Y1290494D01*
X925417Y1290494D01*
X922086Y1289114D01*
X919536Y1286564D01*
X918156Y1283233D01*
X918156Y1279627D01*
X919536Y1276296D01*
X922086Y1273746D01*
X925417Y1272366D01*
G37*
G36*
X900017Y1272366D02*
X903623Y1272366D01*
X906954Y1273746D01*
X909504Y1276296D01*
X910884Y1279627D01*
X910884Y1283233D01*
X909504Y1286564D01*
X906954Y1289114D01*
X903623Y1290494D01*
X900017Y1290494D01*
X896686Y1289114D01*
X894136Y1286564D01*
X892756Y1283233D01*
X892756Y1279627D01*
X894136Y1276296D01*
X896686Y1273746D01*
X900017Y1272366D01*
G37*
G36*
X874617Y1272366D02*
X878223Y1272366D01*
X881554Y1273746D01*
X884104Y1276296D01*
X885484Y1279627D01*
X885484Y1283233D01*
X884104Y1286564D01*
X881554Y1289114D01*
X878223Y1290494D01*
X874617Y1290494D01*
X871286Y1289114D01*
X868736Y1286564D01*
X867356Y1283233D01*
X867356Y1279627D01*
X868736Y1276296D01*
X871286Y1273746D01*
X874617Y1272366D01*
G37*
G36*
X1128617Y1272366D02*
X1132223Y1272366D01*
X1135554Y1273746D01*
X1138104Y1276296D01*
X1139484Y1279627D01*
X1139484Y1283233D01*
X1138104Y1286564D01*
X1135554Y1289114D01*
X1132223Y1290494D01*
X1128617Y1290494D01*
X1125286Y1289114D01*
X1122736Y1286564D01*
X1121356Y1283233D01*
X1121356Y1279627D01*
X1122736Y1276296D01*
X1125286Y1273746D01*
X1128617Y1272366D01*
G37*
G36*
X1103217Y1272366D02*
X1106823Y1272366D01*
X1110154Y1273746D01*
X1112704Y1276296D01*
X1114084Y1279627D01*
X1114084Y1283233D01*
X1112704Y1286564D01*
X1110154Y1289114D01*
X1106823Y1290494D01*
X1103217Y1290494D01*
X1099886Y1289114D01*
X1097336Y1286564D01*
X1095956Y1283233D01*
X1095956Y1279627D01*
X1097336Y1276296D01*
X1099886Y1273746D01*
X1103217Y1272366D01*
G37*
G36*
X1077817Y1272366D02*
X1081423Y1272366D01*
X1084754Y1273746D01*
X1087304Y1276296D01*
X1088684Y1279627D01*
X1088684Y1283233D01*
X1087304Y1286564D01*
X1084754Y1289114D01*
X1081423Y1290494D01*
X1077817Y1290494D01*
X1074486Y1289114D01*
X1071936Y1286564D01*
X1070556Y1283233D01*
X1070556Y1279627D01*
X1071936Y1276296D01*
X1074486Y1273746D01*
X1077817Y1272366D01*
G37*
G36*
X1052417Y1272366D02*
X1056023Y1272366D01*
X1059354Y1273746D01*
X1061904Y1276296D01*
X1063284Y1279627D01*
X1063284Y1283233D01*
X1061904Y1286564D01*
X1059354Y1289114D01*
X1056023Y1290494D01*
X1052417Y1290494D01*
X1049086Y1289114D01*
X1046536Y1286564D01*
X1045156Y1283233D01*
X1045156Y1279627D01*
X1046536Y1276296D01*
X1049086Y1273746D01*
X1052417Y1272366D01*
G37*
G36*
X1027017Y1272366D02*
X1030623Y1272366D01*
X1033954Y1273746D01*
X1036504Y1276296D01*
X1037884Y1279627D01*
X1037884Y1283233D01*
X1036504Y1286564D01*
X1033954Y1289114D01*
X1030623Y1290494D01*
X1027017Y1290494D01*
X1023686Y1289114D01*
X1021136Y1286564D01*
X1019756Y1283233D01*
X1019756Y1279627D01*
X1021136Y1276296D01*
X1023686Y1273746D01*
X1027017Y1272366D01*
G37*
G36*
X1001617Y1272366D02*
X1005223Y1272366D01*
X1008554Y1273746D01*
X1011104Y1276296D01*
X1012484Y1279627D01*
X1012484Y1283233D01*
X1011104Y1286564D01*
X1008554Y1289114D01*
X1005223Y1290494D01*
X1001617Y1290494D01*
X998286Y1289114D01*
X995736Y1286564D01*
X994356Y1283233D01*
X994356Y1279627D01*
X995736Y1276296D01*
X998286Y1273746D01*
X1001617Y1272366D01*
G37*
G36*
X976217Y1272366D02*
X979823Y1272366D01*
X983154Y1273746D01*
X985704Y1276296D01*
X987084Y1279627D01*
X987084Y1283233D01*
X985704Y1286564D01*
X983154Y1289114D01*
X979823Y1290494D01*
X976217Y1290494D01*
X972886Y1289114D01*
X970336Y1286564D01*
X968956Y1283233D01*
X968956Y1279627D01*
X970336Y1276296D01*
X972886Y1273746D01*
X976217Y1272366D01*
G37*
G36*
X1207262Y1272620D02*
X1208505Y1272620D01*
X1212210Y1274155D01*
X1215045Y1276990D01*
X1216580Y1280695D01*
X1216580Y1281938D01*
X1207262Y1281938D01*
X1207262Y1272620D01*
G37*
G36*
X1204495Y1272620D02*
X1205738Y1272620D01*
X1205738Y1281938D01*
X1196420Y1281938D01*
X1196420Y1280695D01*
X1197955Y1276990D01*
X1200790Y1274155D01*
X1204495Y1272620D01*
G37*
G36*
X457962Y1272620D02*
X459205Y1272620D01*
X462910Y1274155D01*
X465745Y1276990D01*
X467280Y1280695D01*
X467280Y1281938D01*
X457962Y1281938D01*
X457962Y1272620D01*
G37*
G36*
X455195Y1272620D02*
X456438Y1272620D01*
X456438Y1281938D01*
X447120Y1281938D01*
X447120Y1280695D01*
X448655Y1276990D01*
X451490Y1274155D01*
X455195Y1272620D01*
G37*
G36*
X102362Y1272620D02*
X103605Y1272620D01*
X107310Y1274155D01*
X110145Y1276990D01*
X111680Y1280695D01*
X111680Y1281938D01*
X102362Y1281938D01*
X102362Y1272620D01*
G37*
G36*
X99595Y1272620D02*
X100838Y1272620D01*
X100838Y1281938D01*
X91520Y1281938D01*
X91520Y1280695D01*
X93055Y1276990D01*
X95890Y1274155D01*
X99595Y1272620D01*
G37*
G36*
X851782Y1271350D02*
X853025Y1271350D01*
X856730Y1272885D01*
X859565Y1275720D01*
X861100Y1279425D01*
X861100Y1280668D01*
X851782Y1280668D01*
X851782Y1271350D01*
G37*
G36*
X849015Y1271350D02*
X850258Y1271350D01*
X850258Y1280668D01*
X840940Y1280668D01*
X840940Y1279425D01*
X842475Y1275720D01*
X845310Y1272885D01*
X849015Y1271350D01*
G37*
G36*
X1369402Y1213894D02*
X1373798Y1213894D01*
X1376906Y1217002D01*
X1376906Y1221398D01*
X1373798Y1224506D01*
X1369402Y1224506D01*
X1366294Y1221398D01*
X1366294Y1217002D01*
X1369402Y1213894D01*
G37*
G36*
X607402Y1213894D02*
X611798Y1213894D01*
X614906Y1217002D01*
X614906Y1221398D01*
X611798Y1224506D01*
X607402Y1224506D01*
X604294Y1221398D01*
X604294Y1217002D01*
X607402Y1213894D01*
G37*
G36*
X226402Y1212624D02*
X230798Y1212624D01*
X233906Y1215732D01*
X233906Y1220128D01*
X230798Y1223236D01*
X226402Y1223236D01*
X223294Y1220128D01*
X223294Y1215732D01*
X226402Y1212624D01*
G37*
G36*
X993482Y1208814D02*
X997878Y1208814D01*
X1000986Y1211922D01*
X1000986Y1216318D01*
X997878Y1219426D01*
X993482Y1219426D01*
X990374Y1216318D01*
X990374Y1211922D01*
X993482Y1208814D01*
G37*
G36*
X205740Y1080262D02*
X215138Y1080262D01*
X215138Y1089660D01*
X213879Y1089660D01*
X210145Y1088113D01*
X207287Y1085255D01*
X205740Y1081521D01*
X205740Y1080262D01*
G37*
G36*
X216662Y1080262D02*
X226060Y1080262D01*
X226060Y1081521D01*
X224513Y1085255D01*
X221655Y1088113D01*
X217921Y1089660D01*
X216662Y1089660D01*
X216662Y1080262D01*
G37*
G36*
X645881Y1070356D02*
X649519Y1070356D01*
X652880Y1071748D01*
X655452Y1074320D01*
X656844Y1077681D01*
X656844Y1081319D01*
X655452Y1084680D01*
X652880Y1087252D01*
X649519Y1088644D01*
X645881Y1088644D01*
X642520Y1087252D01*
X639948Y1084680D01*
X638556Y1081319D01*
X638556Y1077681D01*
X639948Y1074320D01*
X642520Y1071748D01*
X645881Y1070356D01*
G37*
G36*
X620481Y1070356D02*
X624119Y1070356D01*
X627480Y1071748D01*
X630052Y1074320D01*
X631444Y1077681D01*
X631444Y1081319D01*
X630052Y1084680D01*
X627480Y1087252D01*
X624119Y1088644D01*
X620481Y1088644D01*
X617120Y1087252D01*
X614548Y1084680D01*
X613156Y1081319D01*
X613156Y1077681D01*
X614548Y1074320D01*
X617120Y1071748D01*
X620481Y1070356D01*
G37*
G36*
X595081Y1070356D02*
X598719Y1070356D01*
X602080Y1071748D01*
X604652Y1074320D01*
X606044Y1077681D01*
X606044Y1081319D01*
X604652Y1084680D01*
X602080Y1087252D01*
X598719Y1088644D01*
X595081Y1088644D01*
X591720Y1087252D01*
X589148Y1084680D01*
X587756Y1081319D01*
X587756Y1077681D01*
X589148Y1074320D01*
X591720Y1071748D01*
X595081Y1070356D01*
G37*
G36*
X569681Y1070356D02*
X573319Y1070356D01*
X576680Y1071748D01*
X579252Y1074320D01*
X580644Y1077681D01*
X580644Y1081319D01*
X579252Y1084680D01*
X576680Y1087252D01*
X573319Y1088644D01*
X569681Y1088644D01*
X566320Y1087252D01*
X563748Y1084680D01*
X562356Y1081319D01*
X562356Y1077681D01*
X563748Y1074320D01*
X566320Y1071748D01*
X569681Y1070356D01*
G37*
G36*
X544281Y1070356D02*
X547919Y1070356D01*
X551280Y1071748D01*
X553852Y1074320D01*
X555244Y1077681D01*
X555244Y1081319D01*
X553852Y1084680D01*
X551280Y1087252D01*
X547919Y1088644D01*
X544281Y1088644D01*
X540920Y1087252D01*
X538348Y1084680D01*
X536956Y1081319D01*
X536956Y1077681D01*
X538348Y1074320D01*
X540920Y1071748D01*
X544281Y1070356D01*
G37*
G36*
X518881Y1070356D02*
X522519Y1070356D01*
X525880Y1071748D01*
X528452Y1074320D01*
X529844Y1077681D01*
X529844Y1081319D01*
X528452Y1084680D01*
X525880Y1087252D01*
X522519Y1088644D01*
X518881Y1088644D01*
X515520Y1087252D01*
X512948Y1084680D01*
X511556Y1081319D01*
X511556Y1077681D01*
X512948Y1074320D01*
X515520Y1071748D01*
X518881Y1070356D01*
G37*
G36*
X493481Y1070356D02*
X497119Y1070356D01*
X500480Y1071748D01*
X503052Y1074320D01*
X504444Y1077681D01*
X504444Y1081319D01*
X503052Y1084680D01*
X500480Y1087252D01*
X497119Y1088644D01*
X493481Y1088644D01*
X490120Y1087252D01*
X487548Y1084680D01*
X486156Y1081319D01*
X486156Y1077681D01*
X487548Y1074320D01*
X490120Y1071748D01*
X493481Y1070356D01*
G37*
G36*
X468081Y1070356D02*
X471719Y1070356D01*
X475080Y1071748D01*
X477652Y1074320D01*
X479044Y1077681D01*
X479044Y1081319D01*
X477652Y1084680D01*
X475080Y1087252D01*
X471719Y1088644D01*
X468081Y1088644D01*
X464720Y1087252D01*
X462148Y1084680D01*
X460756Y1081319D01*
X460756Y1077681D01*
X462148Y1074320D01*
X464720Y1071748D01*
X468081Y1070356D01*
G37*
G36*
X239481Y1070356D02*
X243119Y1070356D01*
X246480Y1071748D01*
X249052Y1074320D01*
X250444Y1077681D01*
X250444Y1081319D01*
X249052Y1084680D01*
X246480Y1087252D01*
X243119Y1088644D01*
X239481Y1088644D01*
X236120Y1087252D01*
X233548Y1084680D01*
X232156Y1081319D01*
X232156Y1077681D01*
X233548Y1074320D01*
X236120Y1071748D01*
X239481Y1070356D01*
G37*
G36*
X391881Y1070356D02*
X395519Y1070356D01*
X398880Y1071748D01*
X401452Y1074320D01*
X402844Y1077681D01*
X402844Y1081319D01*
X401452Y1084680D01*
X398880Y1087252D01*
X395519Y1088644D01*
X391881Y1088644D01*
X388520Y1087252D01*
X385948Y1084680D01*
X384556Y1081319D01*
X384556Y1077681D01*
X385948Y1074320D01*
X388520Y1071748D01*
X391881Y1070356D01*
G37*
G36*
X442681Y1070356D02*
X446319Y1070356D01*
X449680Y1071748D01*
X452252Y1074320D01*
X453644Y1077681D01*
X453644Y1081319D01*
X452252Y1084680D01*
X449680Y1087252D01*
X446319Y1088644D01*
X442681Y1088644D01*
X439320Y1087252D01*
X436748Y1084680D01*
X435356Y1081319D01*
X435356Y1077681D01*
X436748Y1074320D01*
X439320Y1071748D01*
X442681Y1070356D01*
G37*
G36*
X366481Y1070356D02*
X370119Y1070356D01*
X373480Y1071748D01*
X376052Y1074320D01*
X377444Y1077681D01*
X377444Y1081319D01*
X376052Y1084680D01*
X373480Y1087252D01*
X370119Y1088644D01*
X366481Y1088644D01*
X363120Y1087252D01*
X360548Y1084680D01*
X359156Y1081319D01*
X359156Y1077681D01*
X360548Y1074320D01*
X363120Y1071748D01*
X366481Y1070356D01*
G37*
G36*
X341081Y1070356D02*
X344719Y1070356D01*
X348080Y1071748D01*
X350652Y1074320D01*
X352044Y1077681D01*
X352044Y1081319D01*
X350652Y1084680D01*
X348080Y1087252D01*
X344719Y1088644D01*
X341081Y1088644D01*
X337720Y1087252D01*
X335148Y1084680D01*
X333756Y1081319D01*
X333756Y1077681D01*
X335148Y1074320D01*
X337720Y1071748D01*
X341081Y1070356D01*
G37*
G36*
X315681Y1070356D02*
X319319Y1070356D01*
X322680Y1071748D01*
X325252Y1074320D01*
X326644Y1077681D01*
X326644Y1081319D01*
X325252Y1084680D01*
X322680Y1087252D01*
X319319Y1088644D01*
X315681Y1088644D01*
X312320Y1087252D01*
X309748Y1084680D01*
X308356Y1081319D01*
X308356Y1077681D01*
X309748Y1074320D01*
X312320Y1071748D01*
X315681Y1070356D01*
G37*
G36*
X290281Y1070356D02*
X293919Y1070356D01*
X297280Y1071748D01*
X299852Y1074320D01*
X301244Y1077681D01*
X301244Y1081319D01*
X299852Y1084680D01*
X297280Y1087252D01*
X293919Y1088644D01*
X290281Y1088644D01*
X286920Y1087252D01*
X284348Y1084680D01*
X282956Y1081319D01*
X282956Y1077681D01*
X284348Y1074320D01*
X286920Y1071748D01*
X290281Y1070356D01*
G37*
G36*
X264881Y1070356D02*
X268519Y1070356D01*
X271880Y1071748D01*
X274452Y1074320D01*
X275844Y1077681D01*
X275844Y1081319D01*
X274452Y1084680D01*
X271880Y1087252D01*
X268519Y1088644D01*
X264881Y1088644D01*
X261520Y1087252D01*
X258948Y1084680D01*
X257556Y1081319D01*
X257556Y1077681D01*
X258948Y1074320D01*
X261520Y1071748D01*
X264881Y1070356D01*
G37*
G36*
X417281Y1070356D02*
X420919Y1070356D01*
X424280Y1071748D01*
X426852Y1074320D01*
X428244Y1077681D01*
X428244Y1081319D01*
X426852Y1084680D01*
X424280Y1087252D01*
X420919Y1088644D01*
X417281Y1088644D01*
X413920Y1087252D01*
X411348Y1084680D01*
X409956Y1081319D01*
X409956Y1077681D01*
X411348Y1074320D01*
X413920Y1071748D01*
X417281Y1070356D01*
G37*
G36*
X967740Y1077720D02*
X977138Y1077720D01*
X977138Y1087118D01*
X975879Y1087118D01*
X972145Y1085571D01*
X969287Y1082713D01*
X967740Y1078979D01*
X967740Y1077720D01*
G37*
G36*
X978662Y1077720D02*
X988060Y1077720D01*
X988060Y1078979D01*
X986513Y1082713D01*
X983655Y1085571D01*
X979921Y1087118D01*
X978662Y1087118D01*
X978662Y1077720D01*
G37*
G36*
X1407881Y1067814D02*
X1411519Y1067814D01*
X1414880Y1069206D01*
X1417452Y1071778D01*
X1418844Y1075139D01*
X1418844Y1078777D01*
X1417452Y1082138D01*
X1414880Y1084710D01*
X1411519Y1086102D01*
X1407881Y1086102D01*
X1404520Y1084710D01*
X1401948Y1082138D01*
X1400556Y1078777D01*
X1400556Y1075139D01*
X1401948Y1071778D01*
X1404520Y1069206D01*
X1407881Y1067814D01*
G37*
G36*
X1128481Y1067814D02*
X1132119Y1067814D01*
X1135480Y1069206D01*
X1138052Y1071778D01*
X1139444Y1075139D01*
X1139444Y1078777D01*
X1138052Y1082138D01*
X1135480Y1084710D01*
X1132119Y1086102D01*
X1128481Y1086102D01*
X1125120Y1084710D01*
X1122548Y1082138D01*
X1121156Y1078777D01*
X1121156Y1075139D01*
X1122548Y1071778D01*
X1125120Y1069206D01*
X1128481Y1067814D01*
G37*
G36*
X1103081Y1067814D02*
X1106719Y1067814D01*
X1110080Y1069206D01*
X1112652Y1071778D01*
X1114044Y1075139D01*
X1114044Y1078777D01*
X1112652Y1082138D01*
X1110080Y1084710D01*
X1106719Y1086102D01*
X1103081Y1086102D01*
X1099720Y1084710D01*
X1097148Y1082138D01*
X1095756Y1078777D01*
X1095756Y1075139D01*
X1097148Y1071778D01*
X1099720Y1069206D01*
X1103081Y1067814D01*
G37*
G36*
X1077681Y1067814D02*
X1081319Y1067814D01*
X1084680Y1069206D01*
X1087252Y1071778D01*
X1088644Y1075139D01*
X1088644Y1078777D01*
X1087252Y1082138D01*
X1084680Y1084710D01*
X1081319Y1086102D01*
X1077681Y1086102D01*
X1074320Y1084710D01*
X1071748Y1082138D01*
X1070356Y1078777D01*
X1070356Y1075139D01*
X1071748Y1071778D01*
X1074320Y1069206D01*
X1077681Y1067814D01*
G37*
G36*
X1382481Y1067814D02*
X1386119Y1067814D01*
X1389480Y1069206D01*
X1392052Y1071778D01*
X1393444Y1075139D01*
X1393444Y1078777D01*
X1392052Y1082138D01*
X1389480Y1084710D01*
X1386119Y1086102D01*
X1382481Y1086102D01*
X1379120Y1084710D01*
X1376548Y1082138D01*
X1375156Y1078777D01*
X1375156Y1075139D01*
X1376548Y1071778D01*
X1379120Y1069206D01*
X1382481Y1067814D01*
G37*
G36*
X1026881Y1067814D02*
X1030519Y1067814D01*
X1033880Y1069206D01*
X1036452Y1071778D01*
X1037844Y1075139D01*
X1037844Y1078777D01*
X1036452Y1082138D01*
X1033880Y1084710D01*
X1030519Y1086102D01*
X1026881Y1086102D01*
X1023520Y1084710D01*
X1020948Y1082138D01*
X1019556Y1078777D01*
X1019556Y1075139D01*
X1020948Y1071778D01*
X1023520Y1069206D01*
X1026881Y1067814D01*
G37*
G36*
X1001481Y1067814D02*
X1005119Y1067814D01*
X1008480Y1069206D01*
X1011052Y1071778D01*
X1012444Y1075139D01*
X1012444Y1078777D01*
X1011052Y1082138D01*
X1008480Y1084710D01*
X1005119Y1086102D01*
X1001481Y1086102D01*
X998120Y1084710D01*
X995548Y1082138D01*
X994156Y1078777D01*
X994156Y1075139D01*
X995548Y1071778D01*
X998120Y1069206D01*
X1001481Y1067814D01*
G37*
G36*
X1357081Y1067814D02*
X1360719Y1067814D01*
X1364080Y1069206D01*
X1366652Y1071778D01*
X1368044Y1075139D01*
X1368044Y1078777D01*
X1366652Y1082138D01*
X1364080Y1084710D01*
X1360719Y1086102D01*
X1357081Y1086102D01*
X1353720Y1084710D01*
X1351148Y1082138D01*
X1349756Y1078777D01*
X1349756Y1075139D01*
X1351148Y1071778D01*
X1353720Y1069206D01*
X1357081Y1067814D01*
G37*
G36*
X1331681Y1067814D02*
X1335319Y1067814D01*
X1338680Y1069206D01*
X1341252Y1071778D01*
X1342644Y1075139D01*
X1342644Y1078777D01*
X1341252Y1082138D01*
X1338680Y1084710D01*
X1335319Y1086102D01*
X1331681Y1086102D01*
X1328320Y1084710D01*
X1325748Y1082138D01*
X1324356Y1078777D01*
X1324356Y1075139D01*
X1325748Y1071778D01*
X1328320Y1069206D01*
X1331681Y1067814D01*
G37*
G36*
X1052281Y1067814D02*
X1055919Y1067814D01*
X1059280Y1069206D01*
X1061852Y1071778D01*
X1063244Y1075139D01*
X1063244Y1078777D01*
X1061852Y1082138D01*
X1059280Y1084710D01*
X1055919Y1086102D01*
X1052281Y1086102D01*
X1048920Y1084710D01*
X1046348Y1082138D01*
X1044956Y1078777D01*
X1044956Y1075139D01*
X1046348Y1071778D01*
X1048920Y1069206D01*
X1052281Y1067814D01*
G37*
G36*
X1306281Y1067814D02*
X1309919Y1067814D01*
X1313280Y1069206D01*
X1315852Y1071778D01*
X1317244Y1075139D01*
X1317244Y1078777D01*
X1315852Y1082138D01*
X1313280Y1084710D01*
X1309919Y1086102D01*
X1306281Y1086102D01*
X1302920Y1084710D01*
X1300348Y1082138D01*
X1298956Y1078777D01*
X1298956Y1075139D01*
X1300348Y1071778D01*
X1302920Y1069206D01*
X1306281Y1067814D01*
G37*
G36*
X1280881Y1067814D02*
X1284519Y1067814D01*
X1287880Y1069206D01*
X1290452Y1071778D01*
X1291844Y1075139D01*
X1291844Y1078777D01*
X1290452Y1082138D01*
X1287880Y1084710D01*
X1284519Y1086102D01*
X1280881Y1086102D01*
X1277520Y1084710D01*
X1274948Y1082138D01*
X1273556Y1078777D01*
X1273556Y1075139D01*
X1274948Y1071778D01*
X1277520Y1069206D01*
X1280881Y1067814D01*
G37*
G36*
X1255481Y1067814D02*
X1259119Y1067814D01*
X1262480Y1069206D01*
X1265052Y1071778D01*
X1266444Y1075139D01*
X1266444Y1078777D01*
X1265052Y1082138D01*
X1262480Y1084710D01*
X1259119Y1086102D01*
X1255481Y1086102D01*
X1252120Y1084710D01*
X1249548Y1082138D01*
X1248156Y1078777D01*
X1248156Y1075139D01*
X1249548Y1071778D01*
X1252120Y1069206D01*
X1255481Y1067814D01*
G37*
G36*
X1230081Y1067814D02*
X1233719Y1067814D01*
X1237080Y1069206D01*
X1239652Y1071778D01*
X1241044Y1075139D01*
X1241044Y1078777D01*
X1239652Y1082138D01*
X1237080Y1084710D01*
X1233719Y1086102D01*
X1230081Y1086102D01*
X1226720Y1084710D01*
X1224148Y1082138D01*
X1222756Y1078777D01*
X1222756Y1075139D01*
X1224148Y1071778D01*
X1226720Y1069206D01*
X1230081Y1067814D01*
G37*
G36*
X1204681Y1067814D02*
X1208319Y1067814D01*
X1211680Y1069206D01*
X1214252Y1071778D01*
X1215644Y1075139D01*
X1215644Y1078777D01*
X1214252Y1082138D01*
X1211680Y1084710D01*
X1208319Y1086102D01*
X1204681Y1086102D01*
X1201320Y1084710D01*
X1198748Y1082138D01*
X1197356Y1078777D01*
X1197356Y1075139D01*
X1198748Y1071778D01*
X1201320Y1069206D01*
X1204681Y1067814D01*
G37*
G36*
X1179281Y1067814D02*
X1182919Y1067814D01*
X1186280Y1069206D01*
X1188852Y1071778D01*
X1190244Y1075139D01*
X1190244Y1078777D01*
X1188852Y1082138D01*
X1186280Y1084710D01*
X1182919Y1086102D01*
X1179281Y1086102D01*
X1175920Y1084710D01*
X1173348Y1082138D01*
X1171956Y1078777D01*
X1171956Y1075139D01*
X1173348Y1071778D01*
X1175920Y1069206D01*
X1179281Y1067814D01*
G37*
G36*
X1153881Y1067814D02*
X1157519Y1067814D01*
X1160880Y1069206D01*
X1163452Y1071778D01*
X1164844Y1075139D01*
X1164844Y1078777D01*
X1163452Y1082138D01*
X1160880Y1084710D01*
X1157519Y1086102D01*
X1153881Y1086102D01*
X1150520Y1084710D01*
X1147948Y1082138D01*
X1146556Y1078777D01*
X1146556Y1075139D01*
X1147948Y1071778D01*
X1150520Y1069206D01*
X1153881Y1067814D01*
G37*
G36*
X216662Y1069340D02*
X217921Y1069340D01*
X221655Y1070887D01*
X224513Y1073745D01*
X226060Y1077479D01*
X226060Y1078738D01*
X216662Y1078738D01*
X216662Y1069340D01*
G37*
G36*
X213879Y1069340D02*
X215138Y1069340D01*
X215138Y1078738D01*
X205740Y1078738D01*
X205740Y1077479D01*
X207287Y1073745D01*
X210145Y1070887D01*
X213879Y1069340D01*
G37*
G36*
X978662Y1066798D02*
X979921Y1066798D01*
X983655Y1068345D01*
X986513Y1071203D01*
X988060Y1074937D01*
X988060Y1076196D01*
X978662Y1076196D01*
X978662Y1066798D01*
G37*
G36*
X975879Y1066798D02*
X977138Y1066798D01*
X977138Y1076196D01*
X967740Y1076196D01*
X967740Y1074937D01*
X969287Y1071203D01*
X972145Y1068345D01*
X975879Y1066798D01*
G37*
G36*
X205740Y1054862D02*
X215138Y1054862D01*
X215138Y1064260D01*
X213879Y1064260D01*
X210145Y1062713D01*
X207287Y1059855D01*
X205740Y1056121D01*
X205740Y1054862D01*
G37*
G36*
X216662Y1054862D02*
X226060Y1054862D01*
X226060Y1056121D01*
X224513Y1059855D01*
X221655Y1062713D01*
X217921Y1064260D01*
X216662Y1064260D01*
X216662Y1054862D01*
G37*
G36*
X366481Y1044956D02*
X370119Y1044956D01*
X373480Y1046348D01*
X376052Y1048920D01*
X377444Y1052281D01*
X377444Y1055919D01*
X376052Y1059280D01*
X373480Y1061852D01*
X370119Y1063244D01*
X366481Y1063244D01*
X363120Y1061852D01*
X360548Y1059280D01*
X359156Y1055919D01*
X359156Y1052281D01*
X360548Y1048920D01*
X363120Y1046348D01*
X366481Y1044956D01*
G37*
G36*
X341081Y1044956D02*
X344719Y1044956D01*
X348080Y1046348D01*
X350652Y1048920D01*
X352044Y1052281D01*
X352044Y1055919D01*
X350652Y1059280D01*
X348080Y1061852D01*
X344719Y1063244D01*
X341081Y1063244D01*
X337720Y1061852D01*
X335148Y1059280D01*
X333756Y1055919D01*
X333756Y1052281D01*
X335148Y1048920D01*
X337720Y1046348D01*
X341081Y1044956D01*
G37*
G36*
X315681Y1044956D02*
X319319Y1044956D01*
X322680Y1046348D01*
X325252Y1048920D01*
X326644Y1052281D01*
X326644Y1055919D01*
X325252Y1059280D01*
X322680Y1061852D01*
X319319Y1063244D01*
X315681Y1063244D01*
X312320Y1061852D01*
X309748Y1059280D01*
X308356Y1055919D01*
X308356Y1052281D01*
X309748Y1048920D01*
X312320Y1046348D01*
X315681Y1044956D01*
G37*
G36*
X290281Y1044956D02*
X293919Y1044956D01*
X297280Y1046348D01*
X299852Y1048920D01*
X301244Y1052281D01*
X301244Y1055919D01*
X299852Y1059280D01*
X297280Y1061852D01*
X293919Y1063244D01*
X290281Y1063244D01*
X286920Y1061852D01*
X284348Y1059280D01*
X282956Y1055919D01*
X282956Y1052281D01*
X284348Y1048920D01*
X286920Y1046348D01*
X290281Y1044956D01*
G37*
G36*
X264881Y1044956D02*
X268519Y1044956D01*
X271880Y1046348D01*
X274452Y1048920D01*
X275844Y1052281D01*
X275844Y1055919D01*
X274452Y1059280D01*
X271880Y1061852D01*
X268519Y1063244D01*
X264881Y1063244D01*
X261520Y1061852D01*
X258948Y1059280D01*
X257556Y1055919D01*
X257556Y1052281D01*
X258948Y1048920D01*
X261520Y1046348D01*
X264881Y1044956D01*
G37*
G36*
X239481Y1044956D02*
X243119Y1044956D01*
X246480Y1046348D01*
X249052Y1048920D01*
X250444Y1052281D01*
X250444Y1055919D01*
X249052Y1059280D01*
X246480Y1061852D01*
X243119Y1063244D01*
X239481Y1063244D01*
X236120Y1061852D01*
X233548Y1059280D01*
X232156Y1055919D01*
X232156Y1052281D01*
X233548Y1048920D01*
X236120Y1046348D01*
X239481Y1044956D01*
G37*
G36*
X645881Y1044956D02*
X649519Y1044956D01*
X652880Y1046348D01*
X655452Y1048920D01*
X656844Y1052281D01*
X656844Y1055919D01*
X655452Y1059280D01*
X652880Y1061852D01*
X649519Y1063244D01*
X645881Y1063244D01*
X642520Y1061852D01*
X639948Y1059280D01*
X638556Y1055919D01*
X638556Y1052281D01*
X639948Y1048920D01*
X642520Y1046348D01*
X645881Y1044956D01*
G37*
G36*
X620481Y1044956D02*
X624119Y1044956D01*
X627480Y1046348D01*
X630052Y1048920D01*
X631444Y1052281D01*
X631444Y1055919D01*
X630052Y1059280D01*
X627480Y1061852D01*
X624119Y1063244D01*
X620481Y1063244D01*
X617120Y1061852D01*
X614548Y1059280D01*
X613156Y1055919D01*
X613156Y1052281D01*
X614548Y1048920D01*
X617120Y1046348D01*
X620481Y1044956D01*
G37*
G36*
X595081Y1044956D02*
X598719Y1044956D01*
X602080Y1046348D01*
X604652Y1048920D01*
X606044Y1052281D01*
X606044Y1055919D01*
X604652Y1059280D01*
X602080Y1061852D01*
X598719Y1063244D01*
X595081Y1063244D01*
X591720Y1061852D01*
X589148Y1059280D01*
X587756Y1055919D01*
X587756Y1052281D01*
X589148Y1048920D01*
X591720Y1046348D01*
X595081Y1044956D01*
G37*
G36*
X569681Y1044956D02*
X573319Y1044956D01*
X576680Y1046348D01*
X579252Y1048920D01*
X580644Y1052281D01*
X580644Y1055919D01*
X579252Y1059280D01*
X576680Y1061852D01*
X573319Y1063244D01*
X569681Y1063244D01*
X566320Y1061852D01*
X563748Y1059280D01*
X562356Y1055919D01*
X562356Y1052281D01*
X563748Y1048920D01*
X566320Y1046348D01*
X569681Y1044956D01*
G37*
G36*
X544281Y1044956D02*
X547919Y1044956D01*
X551280Y1046348D01*
X553852Y1048920D01*
X555244Y1052281D01*
X555244Y1055919D01*
X553852Y1059280D01*
X551280Y1061852D01*
X547919Y1063244D01*
X544281Y1063244D01*
X540920Y1061852D01*
X538348Y1059280D01*
X536956Y1055919D01*
X536956Y1052281D01*
X538348Y1048920D01*
X540920Y1046348D01*
X544281Y1044956D01*
G37*
G36*
X518881Y1044956D02*
X522519Y1044956D01*
X525880Y1046348D01*
X528452Y1048920D01*
X529844Y1052281D01*
X529844Y1055919D01*
X528452Y1059280D01*
X525880Y1061852D01*
X522519Y1063244D01*
X518881Y1063244D01*
X515520Y1061852D01*
X512948Y1059280D01*
X511556Y1055919D01*
X511556Y1052281D01*
X512948Y1048920D01*
X515520Y1046348D01*
X518881Y1044956D01*
G37*
G36*
X493481Y1044956D02*
X497119Y1044956D01*
X500480Y1046348D01*
X503052Y1048920D01*
X504444Y1052281D01*
X504444Y1055919D01*
X503052Y1059280D01*
X500480Y1061852D01*
X497119Y1063244D01*
X493481Y1063244D01*
X490120Y1061852D01*
X487548Y1059280D01*
X486156Y1055919D01*
X486156Y1052281D01*
X487548Y1048920D01*
X490120Y1046348D01*
X493481Y1044956D01*
G37*
G36*
X468081Y1044956D02*
X471719Y1044956D01*
X475080Y1046348D01*
X477652Y1048920D01*
X479044Y1052281D01*
X479044Y1055919D01*
X477652Y1059280D01*
X475080Y1061852D01*
X471719Y1063244D01*
X468081Y1063244D01*
X464720Y1061852D01*
X462148Y1059280D01*
X460756Y1055919D01*
X460756Y1052281D01*
X462148Y1048920D01*
X464720Y1046348D01*
X468081Y1044956D01*
G37*
G36*
X442681Y1044956D02*
X446319Y1044956D01*
X449680Y1046348D01*
X452252Y1048920D01*
X453644Y1052281D01*
X453644Y1055919D01*
X452252Y1059280D01*
X449680Y1061852D01*
X446319Y1063244D01*
X442681Y1063244D01*
X439320Y1061852D01*
X436748Y1059280D01*
X435356Y1055919D01*
X435356Y1052281D01*
X436748Y1048920D01*
X439320Y1046348D01*
X442681Y1044956D01*
G37*
G36*
X417281Y1044956D02*
X420919Y1044956D01*
X424280Y1046348D01*
X426852Y1048920D01*
X428244Y1052281D01*
X428244Y1055919D01*
X426852Y1059280D01*
X424280Y1061852D01*
X420919Y1063244D01*
X417281Y1063244D01*
X413920Y1061852D01*
X411348Y1059280D01*
X409956Y1055919D01*
X409956Y1052281D01*
X411348Y1048920D01*
X413920Y1046348D01*
X417281Y1044956D01*
G37*
G36*
X391881Y1044956D02*
X395519Y1044956D01*
X398880Y1046348D01*
X401452Y1048920D01*
X402844Y1052281D01*
X402844Y1055919D01*
X401452Y1059280D01*
X398880Y1061852D01*
X395519Y1063244D01*
X391881Y1063244D01*
X388520Y1061852D01*
X385948Y1059280D01*
X384556Y1055919D01*
X384556Y1052281D01*
X385948Y1048920D01*
X388520Y1046348D01*
X391881Y1044956D01*
G37*
G36*
X967740Y1052320D02*
X977138Y1052320D01*
X977138Y1061718D01*
X975879Y1061718D01*
X972145Y1060171D01*
X969287Y1057313D01*
X967740Y1053579D01*
X967740Y1052320D01*
G37*
G36*
X978662Y1052320D02*
X988060Y1052320D01*
X988060Y1053579D01*
X986513Y1057313D01*
X983655Y1060171D01*
X979921Y1061718D01*
X978662Y1061718D01*
X978662Y1052320D01*
G37*
G36*
X1153881Y1042414D02*
X1157519Y1042414D01*
X1160880Y1043806D01*
X1163452Y1046378D01*
X1164844Y1049739D01*
X1164844Y1053377D01*
X1163452Y1056738D01*
X1160880Y1059310D01*
X1157519Y1060702D01*
X1153881Y1060702D01*
X1150520Y1059310D01*
X1147948Y1056738D01*
X1146556Y1053377D01*
X1146556Y1049739D01*
X1147948Y1046378D01*
X1150520Y1043806D01*
X1153881Y1042414D01*
G37*
G36*
X1128481Y1042414D02*
X1132119Y1042414D01*
X1135480Y1043806D01*
X1138052Y1046378D01*
X1139444Y1049739D01*
X1139444Y1053377D01*
X1138052Y1056738D01*
X1135480Y1059310D01*
X1132119Y1060702D01*
X1128481Y1060702D01*
X1125120Y1059310D01*
X1122548Y1056738D01*
X1121156Y1053377D01*
X1121156Y1049739D01*
X1122548Y1046378D01*
X1125120Y1043806D01*
X1128481Y1042414D01*
G37*
G36*
X1103081Y1042414D02*
X1106719Y1042414D01*
X1110080Y1043806D01*
X1112652Y1046378D01*
X1114044Y1049739D01*
X1114044Y1053377D01*
X1112652Y1056738D01*
X1110080Y1059310D01*
X1106719Y1060702D01*
X1103081Y1060702D01*
X1099720Y1059310D01*
X1097148Y1056738D01*
X1095756Y1053377D01*
X1095756Y1049739D01*
X1097148Y1046378D01*
X1099720Y1043806D01*
X1103081Y1042414D01*
G37*
G36*
X1077681Y1042414D02*
X1081319Y1042414D01*
X1084680Y1043806D01*
X1087252Y1046378D01*
X1088644Y1049739D01*
X1088644Y1053377D01*
X1087252Y1056738D01*
X1084680Y1059310D01*
X1081319Y1060702D01*
X1077681Y1060702D01*
X1074320Y1059310D01*
X1071748Y1056738D01*
X1070356Y1053377D01*
X1070356Y1049739D01*
X1071748Y1046378D01*
X1074320Y1043806D01*
X1077681Y1042414D01*
G37*
G36*
X1052281Y1042414D02*
X1055919Y1042414D01*
X1059280Y1043806D01*
X1061852Y1046378D01*
X1063244Y1049739D01*
X1063244Y1053377D01*
X1061852Y1056738D01*
X1059280Y1059310D01*
X1055919Y1060702D01*
X1052281Y1060702D01*
X1048920Y1059310D01*
X1046348Y1056738D01*
X1044956Y1053377D01*
X1044956Y1049739D01*
X1046348Y1046378D01*
X1048920Y1043806D01*
X1052281Y1042414D01*
G37*
G36*
X1026881Y1042414D02*
X1030519Y1042414D01*
X1033880Y1043806D01*
X1036452Y1046378D01*
X1037844Y1049739D01*
X1037844Y1053377D01*
X1036452Y1056738D01*
X1033880Y1059310D01*
X1030519Y1060702D01*
X1026881Y1060702D01*
X1023520Y1059310D01*
X1020948Y1056738D01*
X1019556Y1053377D01*
X1019556Y1049739D01*
X1020948Y1046378D01*
X1023520Y1043806D01*
X1026881Y1042414D01*
G37*
G36*
X1001481Y1042414D02*
X1005119Y1042414D01*
X1008480Y1043806D01*
X1011052Y1046378D01*
X1012444Y1049739D01*
X1012444Y1053377D01*
X1011052Y1056738D01*
X1008480Y1059310D01*
X1005119Y1060702D01*
X1001481Y1060702D01*
X998120Y1059310D01*
X995548Y1056738D01*
X994156Y1053377D01*
X994156Y1049739D01*
X995548Y1046378D01*
X998120Y1043806D01*
X1001481Y1042414D01*
G37*
G36*
X1179281Y1042414D02*
X1182919Y1042414D01*
X1186280Y1043806D01*
X1188852Y1046378D01*
X1190244Y1049739D01*
X1190244Y1053377D01*
X1188852Y1056738D01*
X1186280Y1059310D01*
X1182919Y1060702D01*
X1179281Y1060702D01*
X1175920Y1059310D01*
X1173348Y1056738D01*
X1171956Y1053377D01*
X1171956Y1049739D01*
X1173348Y1046378D01*
X1175920Y1043806D01*
X1179281Y1042414D01*
G37*
G36*
X1357081Y1042414D02*
X1360719Y1042414D01*
X1364080Y1043806D01*
X1366652Y1046378D01*
X1368044Y1049739D01*
X1368044Y1053377D01*
X1366652Y1056738D01*
X1364080Y1059310D01*
X1360719Y1060702D01*
X1357081Y1060702D01*
X1353720Y1059310D01*
X1351148Y1056738D01*
X1349756Y1053377D01*
X1349756Y1049739D01*
X1351148Y1046378D01*
X1353720Y1043806D01*
X1357081Y1042414D01*
G37*
G36*
X1382481Y1042414D02*
X1386119Y1042414D01*
X1389480Y1043806D01*
X1392052Y1046378D01*
X1393444Y1049739D01*
X1393444Y1053377D01*
X1392052Y1056738D01*
X1389480Y1059310D01*
X1386119Y1060702D01*
X1382481Y1060702D01*
X1379120Y1059310D01*
X1376548Y1056738D01*
X1375156Y1053377D01*
X1375156Y1049739D01*
X1376548Y1046378D01*
X1379120Y1043806D01*
X1382481Y1042414D01*
G37*
G36*
X1407881Y1042414D02*
X1411519Y1042414D01*
X1414880Y1043806D01*
X1417452Y1046378D01*
X1418844Y1049739D01*
X1418844Y1053377D01*
X1417452Y1056738D01*
X1414880Y1059310D01*
X1411519Y1060702D01*
X1407881Y1060702D01*
X1404520Y1059310D01*
X1401948Y1056738D01*
X1400556Y1053377D01*
X1400556Y1049739D01*
X1401948Y1046378D01*
X1404520Y1043806D01*
X1407881Y1042414D01*
G37*
G36*
X1204681Y1042414D02*
X1208319Y1042414D01*
X1211680Y1043806D01*
X1214252Y1046378D01*
X1215644Y1049739D01*
X1215644Y1053377D01*
X1214252Y1056738D01*
X1211680Y1059310D01*
X1208319Y1060702D01*
X1204681Y1060702D01*
X1201320Y1059310D01*
X1198748Y1056738D01*
X1197356Y1053377D01*
X1197356Y1049739D01*
X1198748Y1046378D01*
X1201320Y1043806D01*
X1204681Y1042414D01*
G37*
G36*
X1230081Y1042414D02*
X1233719Y1042414D01*
X1237080Y1043806D01*
X1239652Y1046378D01*
X1241044Y1049739D01*
X1241044Y1053377D01*
X1239652Y1056738D01*
X1237080Y1059310D01*
X1233719Y1060702D01*
X1230081Y1060702D01*
X1226720Y1059310D01*
X1224148Y1056738D01*
X1222756Y1053377D01*
X1222756Y1049739D01*
X1224148Y1046378D01*
X1226720Y1043806D01*
X1230081Y1042414D01*
G37*
G36*
X1255481Y1042414D02*
X1259119Y1042414D01*
X1262480Y1043806D01*
X1265052Y1046378D01*
X1266444Y1049739D01*
X1266444Y1053377D01*
X1265052Y1056738D01*
X1262480Y1059310D01*
X1259119Y1060702D01*
X1255481Y1060702D01*
X1252120Y1059310D01*
X1249548Y1056738D01*
X1248156Y1053377D01*
X1248156Y1049739D01*
X1249548Y1046378D01*
X1252120Y1043806D01*
X1255481Y1042414D01*
G37*
G36*
X1280881Y1042414D02*
X1284519Y1042414D01*
X1287880Y1043806D01*
X1290452Y1046378D01*
X1291844Y1049739D01*
X1291844Y1053377D01*
X1290452Y1056738D01*
X1287880Y1059310D01*
X1284519Y1060702D01*
X1280881Y1060702D01*
X1277520Y1059310D01*
X1274948Y1056738D01*
X1273556Y1053377D01*
X1273556Y1049739D01*
X1274948Y1046378D01*
X1277520Y1043806D01*
X1280881Y1042414D01*
G37*
G36*
X1306281Y1042414D02*
X1309919Y1042414D01*
X1313280Y1043806D01*
X1315852Y1046378D01*
X1317244Y1049739D01*
X1317244Y1053377D01*
X1315852Y1056738D01*
X1313280Y1059310D01*
X1309919Y1060702D01*
X1306281Y1060702D01*
X1302920Y1059310D01*
X1300348Y1056738D01*
X1298956Y1053377D01*
X1298956Y1049739D01*
X1300348Y1046378D01*
X1302920Y1043806D01*
X1306281Y1042414D01*
G37*
G36*
X1331681Y1042414D02*
X1335319Y1042414D01*
X1338680Y1043806D01*
X1341252Y1046378D01*
X1342644Y1049739D01*
X1342644Y1053377D01*
X1341252Y1056738D01*
X1338680Y1059310D01*
X1335319Y1060702D01*
X1331681Y1060702D01*
X1328320Y1059310D01*
X1325748Y1056738D01*
X1324356Y1053377D01*
X1324356Y1049739D01*
X1325748Y1046378D01*
X1328320Y1043806D01*
X1331681Y1042414D01*
G37*
G36*
X216662Y1043940D02*
X217921Y1043940D01*
X221655Y1045487D01*
X224513Y1048345D01*
X226060Y1052079D01*
X226060Y1053338D01*
X216662Y1053338D01*
X216662Y1043940D01*
G37*
G36*
X213879Y1043940D02*
X215138Y1043940D01*
X215138Y1053338D01*
X205740Y1053338D01*
X205740Y1052079D01*
X207287Y1048345D01*
X210145Y1045487D01*
X213879Y1043940D01*
G37*
G36*
X978662Y1041398D02*
X979921Y1041398D01*
X983655Y1042945D01*
X986513Y1045803D01*
X988060Y1049537D01*
X988060Y1050796D01*
X978662Y1050796D01*
X978662Y1041398D01*
G37*
G36*
X975879Y1041398D02*
X977138Y1041398D01*
X977138Y1050796D01*
X967740Y1050796D01*
X967740Y1049537D01*
X969287Y1045803D01*
X972145Y1042945D01*
X975879Y1041398D01*
G37*
G36*
X163281Y1019556D02*
X166919Y1019556D01*
X170280Y1020948D01*
X172852Y1023520D01*
X174244Y1026881D01*
X174244Y1030519D01*
X172852Y1033880D01*
X170280Y1036452D01*
X166919Y1037844D01*
X163281Y1037844D01*
X159920Y1036452D01*
X157348Y1033880D01*
X155956Y1030519D01*
X155956Y1026881D01*
X157348Y1023520D01*
X159920Y1020948D01*
X163281Y1019556D01*
G37*
G36*
X925281Y1017014D02*
X928919Y1017014D01*
X932280Y1018406D01*
X934852Y1020978D01*
X936244Y1024339D01*
X936244Y1027977D01*
X934852Y1031338D01*
X932280Y1033910D01*
X928919Y1035302D01*
X925281Y1035302D01*
X921920Y1033910D01*
X919348Y1031338D01*
X917956Y1027977D01*
X917956Y1024339D01*
X919348Y1020978D01*
X921920Y1018406D01*
X925281Y1017014D01*
G37*
G36*
X163281Y994156D02*
X166919Y994156D01*
X170280Y995548D01*
X172852Y998120D01*
X174244Y1001481D01*
X174244Y1005119D01*
X172852Y1008480D01*
X170280Y1011052D01*
X166919Y1012444D01*
X163281Y1012444D01*
X159920Y1011052D01*
X157348Y1008480D01*
X155956Y1005119D01*
X155956Y1001481D01*
X157348Y998120D01*
X159920Y995548D01*
X163281Y994156D01*
G37*
G36*
X925281Y991614D02*
X928919Y991614D01*
X932280Y993006D01*
X934852Y995578D01*
X936244Y998939D01*
X936244Y1002577D01*
X934852Y1005938D01*
X932280Y1008510D01*
X928919Y1009902D01*
X925281Y1009902D01*
X921920Y1008510D01*
X919348Y1005938D01*
X917956Y1002577D01*
X917956Y998939D01*
X919348Y995578D01*
X921920Y993006D01*
X925281Y991614D01*
G37*
G36*
X645881Y968756D02*
X649519Y968756D01*
X652880Y970148D01*
X655452Y972720D01*
X656844Y976081D01*
X656844Y979719D01*
X655452Y983080D01*
X652880Y985652D01*
X649519Y987044D01*
X645881Y987044D01*
X642520Y985652D01*
X639948Y983080D01*
X638556Y979719D01*
X638556Y976081D01*
X639948Y972720D01*
X642520Y970148D01*
X645881Y968756D01*
G37*
G36*
X163281Y968756D02*
X166919Y968756D01*
X170280Y970148D01*
X172852Y972720D01*
X174244Y976081D01*
X174244Y979719D01*
X172852Y983080D01*
X170280Y985652D01*
X166919Y987044D01*
X163281Y987044D01*
X159920Y985652D01*
X157348Y983080D01*
X155956Y979719D01*
X155956Y976081D01*
X157348Y972720D01*
X159920Y970148D01*
X163281Y968756D01*
G37*
G36*
X1407881Y966214D02*
X1411519Y966214D01*
X1414880Y967606D01*
X1417452Y970178D01*
X1418844Y973539D01*
X1418844Y977177D01*
X1417452Y980538D01*
X1414880Y983110D01*
X1411519Y984502D01*
X1407881Y984502D01*
X1404520Y983110D01*
X1401948Y980538D01*
X1400556Y977177D01*
X1400556Y973539D01*
X1401948Y970178D01*
X1404520Y967606D01*
X1407881Y966214D01*
G37*
G36*
X925281Y966214D02*
X928919Y966214D01*
X932280Y967606D01*
X934852Y970178D01*
X936244Y973539D01*
X936244Y977177D01*
X934852Y980538D01*
X932280Y983110D01*
X928919Y984502D01*
X925281Y984502D01*
X921920Y983110D01*
X919348Y980538D01*
X917956Y977177D01*
X917956Y973539D01*
X919348Y970178D01*
X921920Y967606D01*
X925281Y966214D01*
G37*
G36*
X645881Y943356D02*
X649519Y943356D01*
X652880Y944748D01*
X655452Y947320D01*
X656844Y950681D01*
X656844Y954319D01*
X655452Y957680D01*
X652880Y960252D01*
X649519Y961644D01*
X645881Y961644D01*
X642520Y960252D01*
X639948Y957680D01*
X638556Y954319D01*
X638556Y950681D01*
X639948Y947320D01*
X642520Y944748D01*
X645881Y943356D01*
G37*
G36*
X163281Y943356D02*
X166919Y943356D01*
X170280Y944748D01*
X172852Y947320D01*
X174244Y950681D01*
X174244Y954319D01*
X172852Y957680D01*
X170280Y960252D01*
X166919Y961644D01*
X163281Y961644D01*
X159920Y960252D01*
X157348Y957680D01*
X155956Y954319D01*
X155956Y950681D01*
X157348Y947320D01*
X159920Y944748D01*
X163281Y943356D01*
G37*
G36*
X1407881Y940814D02*
X1411519Y940814D01*
X1414880Y942206D01*
X1417452Y944778D01*
X1418844Y948139D01*
X1418844Y951777D01*
X1417452Y955138D01*
X1414880Y957710D01*
X1411519Y959102D01*
X1407881Y959102D01*
X1404520Y957710D01*
X1401948Y955138D01*
X1400556Y951777D01*
X1400556Y948139D01*
X1401948Y944778D01*
X1404520Y942206D01*
X1407881Y940814D01*
G37*
G36*
X925281Y940814D02*
X928919Y940814D01*
X932280Y942206D01*
X934852Y944778D01*
X936244Y948139D01*
X936244Y951777D01*
X934852Y955138D01*
X932280Y957710D01*
X928919Y959102D01*
X925281Y959102D01*
X921920Y957710D01*
X919348Y955138D01*
X917956Y951777D01*
X917956Y948139D01*
X919348Y944778D01*
X921920Y942206D01*
X925281Y940814D01*
G37*
G36*
X645881Y917956D02*
X649519Y917956D01*
X652880Y919348D01*
X655452Y921920D01*
X656844Y925281D01*
X656844Y928919D01*
X655452Y932280D01*
X652880Y934852D01*
X649519Y936244D01*
X645881Y936244D01*
X642520Y934852D01*
X639948Y932280D01*
X638556Y928919D01*
X638556Y925281D01*
X639948Y921920D01*
X642520Y919348D01*
X645881Y917956D01*
G37*
G36*
X163281Y917956D02*
X166919Y917956D01*
X170280Y919348D01*
X172852Y921920D01*
X174244Y925281D01*
X174244Y928919D01*
X172852Y932280D01*
X170280Y934852D01*
X166919Y936244D01*
X163281Y936244D01*
X159920Y934852D01*
X157348Y932280D01*
X155956Y928919D01*
X155956Y925281D01*
X157348Y921920D01*
X159920Y919348D01*
X163281Y917956D01*
G37*
G36*
X1407881Y915414D02*
X1411519Y915414D01*
X1414880Y916806D01*
X1417452Y919378D01*
X1418844Y922739D01*
X1418844Y926377D01*
X1417452Y929738D01*
X1414880Y932310D01*
X1411519Y933702D01*
X1407881Y933702D01*
X1404520Y932310D01*
X1401948Y929738D01*
X1400556Y926377D01*
X1400556Y922739D01*
X1401948Y919378D01*
X1404520Y916806D01*
X1407881Y915414D01*
G37*
G36*
X925281Y915414D02*
X928919Y915414D01*
X932280Y916806D01*
X934852Y919378D01*
X936244Y922739D01*
X936244Y926377D01*
X934852Y929738D01*
X932280Y932310D01*
X928919Y933702D01*
X925281Y933702D01*
X921920Y932310D01*
X919348Y929738D01*
X917956Y926377D01*
X917956Y922739D01*
X919348Y919378D01*
X921920Y916806D01*
X925281Y915414D01*
G37*
G36*
X645881Y892556D02*
X649519Y892556D01*
X652880Y893948D01*
X655452Y896520D01*
X656844Y899881D01*
X656844Y903519D01*
X655452Y906880D01*
X652880Y909452D01*
X649519Y910844D01*
X645881Y910844D01*
X642520Y909452D01*
X639948Y906880D01*
X638556Y903519D01*
X638556Y899881D01*
X639948Y896520D01*
X642520Y893948D01*
X645881Y892556D01*
G37*
G36*
X163281Y892556D02*
X166919Y892556D01*
X170280Y893948D01*
X172852Y896520D01*
X174244Y899881D01*
X174244Y903519D01*
X172852Y906880D01*
X170280Y909452D01*
X166919Y910844D01*
X163281Y910844D01*
X159920Y909452D01*
X157348Y906880D01*
X155956Y903519D01*
X155956Y899881D01*
X157348Y896520D01*
X159920Y893948D01*
X163281Y892556D01*
G37*
G36*
X1407881Y890014D02*
X1411519Y890014D01*
X1414880Y891406D01*
X1417452Y893978D01*
X1418844Y897339D01*
X1418844Y900977D01*
X1417452Y904338D01*
X1414880Y906910D01*
X1411519Y908302D01*
X1407881Y908302D01*
X1404520Y906910D01*
X1401948Y904338D01*
X1400556Y900977D01*
X1400556Y897339D01*
X1401948Y893978D01*
X1404520Y891406D01*
X1407881Y890014D01*
G37*
G36*
X925281Y890014D02*
X928919Y890014D01*
X932280Y891406D01*
X934852Y893978D01*
X936244Y897339D01*
X936244Y900977D01*
X934852Y904338D01*
X932280Y906910D01*
X928919Y908302D01*
X925281Y908302D01*
X921920Y906910D01*
X919348Y904338D01*
X917956Y900977D01*
X917956Y897339D01*
X919348Y893978D01*
X921920Y891406D01*
X925281Y890014D01*
G37*
G36*
X163281Y867156D02*
X166919Y867156D01*
X170280Y868548D01*
X172852Y871120D01*
X174244Y874481D01*
X174244Y878119D01*
X172852Y881480D01*
X170280Y884052D01*
X166919Y885444D01*
X163281Y885444D01*
X159920Y884052D01*
X157348Y881480D01*
X155956Y878119D01*
X155956Y874481D01*
X157348Y871120D01*
X159920Y868548D01*
X163281Y867156D01*
G37*
G36*
X645881Y867156D02*
X649519Y867156D01*
X652880Y868548D01*
X655452Y871120D01*
X656844Y874481D01*
X656844Y878119D01*
X655452Y881480D01*
X652880Y884052D01*
X649519Y885444D01*
X645881Y885444D01*
X642520Y884052D01*
X639948Y881480D01*
X638556Y878119D01*
X638556Y874481D01*
X639948Y871120D01*
X642520Y868548D01*
X645881Y867156D01*
G37*
G36*
X925281Y864614D02*
X928919Y864614D01*
X932280Y866006D01*
X934852Y868578D01*
X936244Y871939D01*
X936244Y875577D01*
X934852Y878938D01*
X932280Y881510D01*
X928919Y882902D01*
X925281Y882902D01*
X921920Y881510D01*
X919348Y878938D01*
X917956Y875577D01*
X917956Y871939D01*
X919348Y868578D01*
X921920Y866006D01*
X925281Y864614D01*
G37*
G36*
X1407881Y864614D02*
X1411519Y864614D01*
X1414880Y866006D01*
X1417452Y868578D01*
X1418844Y871939D01*
X1418844Y875577D01*
X1417452Y878938D01*
X1414880Y881510D01*
X1411519Y882902D01*
X1407881Y882902D01*
X1404520Y881510D01*
X1401948Y878938D01*
X1400556Y875577D01*
X1400556Y871939D01*
X1401948Y868578D01*
X1404520Y866006D01*
X1407881Y864614D01*
G37*
G36*
X645881Y841756D02*
X649519Y841756D01*
X652880Y843148D01*
X655452Y845720D01*
X656844Y849081D01*
X656844Y852719D01*
X655452Y856080D01*
X652880Y858652D01*
X649519Y860044D01*
X645881Y860044D01*
X642520Y858652D01*
X639948Y856080D01*
X638556Y852719D01*
X638556Y849081D01*
X639948Y845720D01*
X642520Y843148D01*
X645881Y841756D01*
G37*
G36*
X163281Y841756D02*
X166919Y841756D01*
X170280Y843148D01*
X172852Y845720D01*
X174244Y849081D01*
X174244Y852719D01*
X172852Y856080D01*
X170280Y858652D01*
X166919Y860044D01*
X163281Y860044D01*
X159920Y858652D01*
X157348Y856080D01*
X155956Y852719D01*
X155956Y849081D01*
X157348Y845720D01*
X159920Y843148D01*
X163281Y841756D01*
G37*
G36*
X1407881Y839214D02*
X1411519Y839214D01*
X1414880Y840606D01*
X1417452Y843178D01*
X1418844Y846539D01*
X1418844Y850177D01*
X1417452Y853538D01*
X1414880Y856110D01*
X1411519Y857502D01*
X1407881Y857502D01*
X1404520Y856110D01*
X1401948Y853538D01*
X1400556Y850177D01*
X1400556Y846539D01*
X1401948Y843178D01*
X1404520Y840606D01*
X1407881Y839214D01*
G37*
G36*
X925281Y839214D02*
X928919Y839214D01*
X932280Y840606D01*
X934852Y843178D01*
X936244Y846539D01*
X936244Y850177D01*
X934852Y853538D01*
X932280Y856110D01*
X928919Y857502D01*
X925281Y857502D01*
X921920Y856110D01*
X919348Y853538D01*
X917956Y850177D01*
X917956Y846539D01*
X919348Y843178D01*
X921920Y840606D01*
X925281Y839214D01*
G37*
G36*
X645881Y816356D02*
X649519Y816356D01*
X652880Y817748D01*
X655452Y820320D01*
X656844Y823681D01*
X656844Y827319D01*
X655452Y830680D01*
X652880Y833252D01*
X649519Y834644D01*
X645881Y834644D01*
X642520Y833252D01*
X639948Y830680D01*
X638556Y827319D01*
X638556Y823681D01*
X639948Y820320D01*
X642520Y817748D01*
X645881Y816356D01*
G37*
G36*
X1407881Y813814D02*
X1411519Y813814D01*
X1414880Y815206D01*
X1417452Y817778D01*
X1418844Y821139D01*
X1418844Y824777D01*
X1417452Y828138D01*
X1414880Y830710D01*
X1411519Y832102D01*
X1407881Y832102D01*
X1404520Y830710D01*
X1401948Y828138D01*
X1400556Y824777D01*
X1400556Y821139D01*
X1401948Y817778D01*
X1404520Y815206D01*
X1407881Y813814D01*
G37*
G36*
X163281Y790956D02*
X166919Y790956D01*
X170280Y792348D01*
X172852Y794920D01*
X174244Y798281D01*
X174244Y801919D01*
X172852Y805280D01*
X170280Y807852D01*
X166919Y809244D01*
X163281Y809244D01*
X159920Y807852D01*
X157348Y805280D01*
X155956Y801919D01*
X155956Y798281D01*
X157348Y794920D01*
X159920Y792348D01*
X163281Y790956D01*
G37*
G36*
X645881Y790956D02*
X649519Y790956D01*
X652880Y792348D01*
X655452Y794920D01*
X656844Y798281D01*
X656844Y801919D01*
X655452Y805280D01*
X652880Y807852D01*
X649519Y809244D01*
X645881Y809244D01*
X642520Y807852D01*
X639948Y805280D01*
X638556Y801919D01*
X638556Y798281D01*
X639948Y794920D01*
X642520Y792348D01*
X645881Y790956D01*
G37*
G36*
X1407881Y788414D02*
X1411519Y788414D01*
X1414880Y789806D01*
X1417452Y792378D01*
X1418844Y795739D01*
X1418844Y799377D01*
X1417452Y802738D01*
X1414880Y805310D01*
X1411519Y806702D01*
X1407881Y806702D01*
X1404520Y805310D01*
X1401948Y802738D01*
X1400556Y799377D01*
X1400556Y795739D01*
X1401948Y792378D01*
X1404520Y789806D01*
X1407881Y788414D01*
G37*
G36*
X925281Y788414D02*
X928919Y788414D01*
X932280Y789806D01*
X934852Y792378D01*
X936244Y795739D01*
X936244Y799377D01*
X934852Y802738D01*
X932280Y805310D01*
X928919Y806702D01*
X925281Y806702D01*
X921920Y805310D01*
X919348Y802738D01*
X917956Y799377D01*
X917956Y795739D01*
X919348Y792378D01*
X921920Y789806D01*
X925281Y788414D01*
G37*
G36*
X163281Y765556D02*
X166919Y765556D01*
X170280Y766948D01*
X172852Y769520D01*
X174244Y772881D01*
X174244Y776519D01*
X172852Y779880D01*
X170280Y782452D01*
X166919Y783844D01*
X163281Y783844D01*
X159920Y782452D01*
X157348Y779880D01*
X155956Y776519D01*
X155956Y772881D01*
X157348Y769520D01*
X159920Y766948D01*
X163281Y765556D01*
G37*
G36*
X925281Y763014D02*
X928919Y763014D01*
X932280Y764406D01*
X934852Y766978D01*
X936244Y770339D01*
X936244Y773977D01*
X934852Y777338D01*
X932280Y779910D01*
X928919Y781302D01*
X925281Y781302D01*
X921920Y779910D01*
X919348Y777338D01*
X917956Y773977D01*
X917956Y770339D01*
X919348Y766978D01*
X921920Y764406D01*
X925281Y763014D01*
G37*
G36*
X163281Y740156D02*
X166919Y740156D01*
X170280Y741548D01*
X172852Y744120D01*
X174244Y747481D01*
X174244Y751119D01*
X172852Y754480D01*
X170280Y757052D01*
X166919Y758444D01*
X163281Y758444D01*
X159920Y757052D01*
X157348Y754480D01*
X155956Y751119D01*
X155956Y747481D01*
X157348Y744120D01*
X159920Y741548D01*
X163281Y740156D01*
G37*
G36*
X645881Y740156D02*
X649519Y740156D01*
X652880Y741548D01*
X655452Y744120D01*
X656844Y747481D01*
X656844Y751119D01*
X655452Y754480D01*
X652880Y757052D01*
X649519Y758444D01*
X645881Y758444D01*
X642520Y757052D01*
X639948Y754480D01*
X638556Y751119D01*
X638556Y747481D01*
X639948Y744120D01*
X642520Y741548D01*
X645881Y740156D01*
G37*
G36*
X925281Y737614D02*
X928919Y737614D01*
X932280Y739006D01*
X934852Y741578D01*
X936244Y744939D01*
X936244Y748577D01*
X934852Y751938D01*
X932280Y754510D01*
X928919Y755902D01*
X925281Y755902D01*
X921920Y754510D01*
X919348Y751938D01*
X917956Y748577D01*
X917956Y744939D01*
X919348Y741578D01*
X921920Y739006D01*
X925281Y737614D01*
G37*
G36*
X1407881Y737614D02*
X1411519Y737614D01*
X1414880Y739006D01*
X1417452Y741578D01*
X1418844Y744939D01*
X1418844Y748577D01*
X1417452Y751938D01*
X1414880Y754510D01*
X1411519Y755902D01*
X1407881Y755902D01*
X1404520Y754510D01*
X1401948Y751938D01*
X1400556Y748577D01*
X1400556Y744939D01*
X1401948Y741578D01*
X1404520Y739006D01*
X1407881Y737614D01*
G37*
G36*
X645881Y714756D02*
X649519Y714756D01*
X652880Y716148D01*
X655452Y718720D01*
X656844Y722081D01*
X656844Y725719D01*
X655452Y729080D01*
X652880Y731652D01*
X649519Y733044D01*
X645881Y733044D01*
X642520Y731652D01*
X639948Y729080D01*
X638556Y725719D01*
X638556Y722081D01*
X639948Y718720D01*
X642520Y716148D01*
X645881Y714756D01*
G37*
G36*
X163281Y714756D02*
X166919Y714756D01*
X170280Y716148D01*
X172852Y718720D01*
X174244Y722081D01*
X174244Y725719D01*
X172852Y729080D01*
X170280Y731652D01*
X166919Y733044D01*
X163281Y733044D01*
X159920Y731652D01*
X157348Y729080D01*
X155956Y725719D01*
X155956Y722081D01*
X157348Y718720D01*
X159920Y716148D01*
X163281Y714756D01*
G37*
G36*
X1407881Y712214D02*
X1411519Y712214D01*
X1414880Y713606D01*
X1417452Y716178D01*
X1418844Y719539D01*
X1418844Y723177D01*
X1417452Y726538D01*
X1414880Y729110D01*
X1411519Y730502D01*
X1407881Y730502D01*
X1404520Y729110D01*
X1401948Y726538D01*
X1400556Y723177D01*
X1400556Y719539D01*
X1401948Y716178D01*
X1404520Y713606D01*
X1407881Y712214D01*
G37*
G36*
X925281Y712214D02*
X928919Y712214D01*
X932280Y713606D01*
X934852Y716178D01*
X936244Y719539D01*
X936244Y723177D01*
X934852Y726538D01*
X932280Y729110D01*
X928919Y730502D01*
X925281Y730502D01*
X921920Y729110D01*
X919348Y726538D01*
X917956Y723177D01*
X917956Y719539D01*
X919348Y716178D01*
X921920Y713606D01*
X925281Y712214D01*
G37*
G36*
X645881Y689356D02*
X649519Y689356D01*
X652880Y690748D01*
X655452Y693320D01*
X656844Y696681D01*
X656844Y700319D01*
X655452Y703680D01*
X652880Y706252D01*
X649519Y707644D01*
X645881Y707644D01*
X642520Y706252D01*
X639948Y703680D01*
X638556Y700319D01*
X638556Y696681D01*
X639948Y693320D01*
X642520Y690748D01*
X645881Y689356D01*
G37*
G36*
X163281Y689356D02*
X166919Y689356D01*
X170280Y690748D01*
X172852Y693320D01*
X174244Y696681D01*
X174244Y700319D01*
X172852Y703680D01*
X170280Y706252D01*
X166919Y707644D01*
X163281Y707644D01*
X159920Y706252D01*
X157348Y703680D01*
X155956Y700319D01*
X155956Y696681D01*
X157348Y693320D01*
X159920Y690748D01*
X163281Y689356D01*
G37*
G36*
X925281Y686814D02*
X928919Y686814D01*
X932280Y688206D01*
X934852Y690778D01*
X936244Y694139D01*
X936244Y697777D01*
X934852Y701138D01*
X932280Y703710D01*
X928919Y705102D01*
X925281Y705102D01*
X921920Y703710D01*
X919348Y701138D01*
X917956Y697777D01*
X917956Y694139D01*
X919348Y690778D01*
X921920Y688206D01*
X925281Y686814D01*
G37*
G36*
X1407881Y686814D02*
X1411519Y686814D01*
X1414880Y688206D01*
X1417452Y690778D01*
X1418844Y694139D01*
X1418844Y697777D01*
X1417452Y701138D01*
X1414880Y703710D01*
X1411519Y705102D01*
X1407881Y705102D01*
X1404520Y703710D01*
X1401948Y701138D01*
X1400556Y697777D01*
X1400556Y694139D01*
X1401948Y690778D01*
X1404520Y688206D01*
X1407881Y686814D01*
G37*
G36*
X645881Y663956D02*
X649519Y663956D01*
X652880Y665348D01*
X655452Y667920D01*
X656844Y671281D01*
X656844Y674919D01*
X655452Y678280D01*
X652880Y680852D01*
X649519Y682244D01*
X645881Y682244D01*
X642520Y680852D01*
X639948Y678280D01*
X638556Y674919D01*
X638556Y671281D01*
X639948Y667920D01*
X642520Y665348D01*
X645881Y663956D01*
G37*
G36*
X163281Y663956D02*
X166919Y663956D01*
X170280Y665348D01*
X172852Y667920D01*
X174244Y671281D01*
X174244Y674919D01*
X172852Y678280D01*
X170280Y680852D01*
X166919Y682244D01*
X163281Y682244D01*
X159920Y680852D01*
X157348Y678280D01*
X155956Y674919D01*
X155956Y671281D01*
X157348Y667920D01*
X159920Y665348D01*
X163281Y663956D01*
G37*
G36*
X1407881Y661414D02*
X1411519Y661414D01*
X1414880Y662806D01*
X1417452Y665378D01*
X1418844Y668739D01*
X1418844Y672377D01*
X1417452Y675738D01*
X1414880Y678310D01*
X1411519Y679702D01*
X1407881Y679702D01*
X1404520Y678310D01*
X1401948Y675738D01*
X1400556Y672377D01*
X1400556Y668739D01*
X1401948Y665378D01*
X1404520Y662806D01*
X1407881Y661414D01*
G37*
G36*
X925281Y661414D02*
X928919Y661414D01*
X932280Y662806D01*
X934852Y665378D01*
X936244Y668739D01*
X936244Y672377D01*
X934852Y675738D01*
X932280Y678310D01*
X928919Y679702D01*
X925281Y679702D01*
X921920Y678310D01*
X919348Y675738D01*
X917956Y672377D01*
X917956Y668739D01*
X919348Y665378D01*
X921920Y662806D01*
X925281Y661414D01*
G37*
G36*
X645881Y638556D02*
X649519Y638556D01*
X652880Y639948D01*
X655452Y642520D01*
X656844Y645881D01*
X656844Y649519D01*
X655452Y652880D01*
X652880Y655452D01*
X649519Y656844D01*
X645881Y656844D01*
X642520Y655452D01*
X639948Y652880D01*
X638556Y649519D01*
X638556Y645881D01*
X639948Y642520D01*
X642520Y639948D01*
X645881Y638556D01*
G37*
G36*
X163281Y638556D02*
X166919Y638556D01*
X170280Y639948D01*
X172852Y642520D01*
X174244Y645881D01*
X174244Y649519D01*
X172852Y652880D01*
X170280Y655452D01*
X166919Y656844D01*
X163281Y656844D01*
X159920Y655452D01*
X157348Y652880D01*
X155956Y649519D01*
X155956Y645881D01*
X157348Y642520D01*
X159920Y639948D01*
X163281Y638556D01*
G37*
G36*
X1407881Y636014D02*
X1411519Y636014D01*
X1414880Y637406D01*
X1417452Y639978D01*
X1418844Y643339D01*
X1418844Y646977D01*
X1417452Y650338D01*
X1414880Y652910D01*
X1411519Y654302D01*
X1407881Y654302D01*
X1404520Y652910D01*
X1401948Y650338D01*
X1400556Y646977D01*
X1400556Y643339D01*
X1401948Y639978D01*
X1404520Y637406D01*
X1407881Y636014D01*
G37*
G36*
X925281Y636014D02*
X928919Y636014D01*
X932280Y637406D01*
X934852Y639978D01*
X936244Y643339D01*
X936244Y646977D01*
X934852Y650338D01*
X932280Y652910D01*
X928919Y654302D01*
X925281Y654302D01*
X921920Y652910D01*
X919348Y650338D01*
X917956Y646977D01*
X917956Y643339D01*
X919348Y639978D01*
X921920Y637406D01*
X925281Y636014D01*
G37*
G36*
X645881Y613156D02*
X649519Y613156D01*
X652880Y614548D01*
X655452Y617120D01*
X656844Y620481D01*
X656844Y624119D01*
X655452Y627480D01*
X652880Y630052D01*
X649519Y631444D01*
X645881Y631444D01*
X642520Y630052D01*
X639948Y627480D01*
X638556Y624119D01*
X638556Y620481D01*
X639948Y617120D01*
X642520Y614548D01*
X645881Y613156D01*
G37*
G36*
X163281Y613156D02*
X166919Y613156D01*
X170280Y614548D01*
X172852Y617120D01*
X174244Y620481D01*
X174244Y624119D01*
X172852Y627480D01*
X170280Y630052D01*
X166919Y631444D01*
X163281Y631444D01*
X159920Y630052D01*
X157348Y627480D01*
X155956Y624119D01*
X155956Y620481D01*
X157348Y617120D01*
X159920Y614548D01*
X163281Y613156D01*
G37*
G36*
X925281Y610614D02*
X928919Y610614D01*
X932280Y612006D01*
X934852Y614578D01*
X936244Y617939D01*
X936244Y621577D01*
X934852Y624938D01*
X932280Y627510D01*
X928919Y628902D01*
X925281Y628902D01*
X921920Y627510D01*
X919348Y624938D01*
X917956Y621577D01*
X917956Y617939D01*
X919348Y614578D01*
X921920Y612006D01*
X925281Y610614D01*
G37*
G36*
X1407881Y610614D02*
X1411519Y610614D01*
X1414880Y612006D01*
X1417452Y614578D01*
X1418844Y617939D01*
X1418844Y621577D01*
X1417452Y624938D01*
X1414880Y627510D01*
X1411519Y628902D01*
X1407881Y628902D01*
X1404520Y627510D01*
X1401948Y624938D01*
X1400556Y621577D01*
X1400556Y617939D01*
X1401948Y614578D01*
X1404520Y612006D01*
X1407881Y610614D01*
G37*
G36*
X645881Y587756D02*
X649519Y587756D01*
X652880Y589148D01*
X655452Y591720D01*
X656844Y595081D01*
X656844Y598719D01*
X655452Y602080D01*
X652880Y604652D01*
X649519Y606044D01*
X645881Y606044D01*
X642520Y604652D01*
X639948Y602080D01*
X638556Y598719D01*
X638556Y595081D01*
X639948Y591720D01*
X642520Y589148D01*
X645881Y587756D01*
G37*
G36*
X1407881Y585214D02*
X1411519Y585214D01*
X1414880Y586606D01*
X1417452Y589178D01*
X1418844Y592539D01*
X1418844Y596177D01*
X1417452Y599538D01*
X1414880Y602110D01*
X1411519Y603502D01*
X1407881Y603502D01*
X1404520Y602110D01*
X1401948Y599538D01*
X1400556Y596177D01*
X1400556Y592539D01*
X1401948Y589178D01*
X1404520Y586606D01*
X1407881Y585214D01*
G37*
G36*
X163281Y562356D02*
X166919Y562356D01*
X170280Y563748D01*
X172852Y566320D01*
X174244Y569681D01*
X174244Y573319D01*
X172852Y576680D01*
X170280Y579252D01*
X166919Y580644D01*
X163281Y580644D01*
X159920Y579252D01*
X157348Y576680D01*
X155956Y573319D01*
X155956Y569681D01*
X157348Y566320D01*
X159920Y563748D01*
X163281Y562356D01*
G37*
G36*
X645881Y562356D02*
X649519Y562356D01*
X652880Y563748D01*
X655452Y566320D01*
X656844Y569681D01*
X656844Y573319D01*
X655452Y576680D01*
X652880Y579252D01*
X649519Y580644D01*
X645881Y580644D01*
X642520Y579252D01*
X639948Y576680D01*
X638556Y573319D01*
X638556Y569681D01*
X639948Y566320D01*
X642520Y563748D01*
X645881Y562356D01*
G37*
G36*
X1407881Y559814D02*
X1411519Y559814D01*
X1414880Y561206D01*
X1417452Y563778D01*
X1418844Y567139D01*
X1418844Y570777D01*
X1417452Y574138D01*
X1414880Y576710D01*
X1411519Y578102D01*
X1407881Y578102D01*
X1404520Y576710D01*
X1401948Y574138D01*
X1400556Y570777D01*
X1400556Y567139D01*
X1401948Y563778D01*
X1404520Y561206D01*
X1407881Y559814D01*
G37*
G36*
X925281Y559814D02*
X928919Y559814D01*
X932280Y561206D01*
X934852Y563778D01*
X936244Y567139D01*
X936244Y570777D01*
X934852Y574138D01*
X932280Y576710D01*
X928919Y578102D01*
X925281Y578102D01*
X921920Y576710D01*
X919348Y574138D01*
X917956Y570777D01*
X917956Y567139D01*
X919348Y563778D01*
X921920Y561206D01*
X925281Y559814D01*
G37*
G36*
X154940Y546862D02*
X164338Y546862D01*
X164338Y556260D01*
X163079Y556260D01*
X159345Y554713D01*
X156487Y551855D01*
X154940Y548121D01*
X154940Y546862D01*
G37*
G36*
X165862Y546862D02*
X175260Y546862D01*
X175260Y548121D01*
X173713Y551855D01*
X170855Y554713D01*
X167121Y556260D01*
X165862Y556260D01*
X165862Y546862D01*
G37*
G36*
X916940Y544320D02*
X926338Y544320D01*
X926338Y553718D01*
X925079Y553718D01*
X921345Y552171D01*
X918487Y549313D01*
X916940Y545579D01*
X916940Y544320D01*
G37*
G36*
X927862Y544320D02*
X937260Y544320D01*
X937260Y545579D01*
X935713Y549313D01*
X932855Y552171D01*
X929121Y553718D01*
X927862Y553718D01*
X927862Y544320D01*
G37*
G36*
X165862Y535940D02*
X167121Y535940D01*
X170855Y537487D01*
X173713Y540345D01*
X175260Y544079D01*
X175260Y545338D01*
X165862Y545338D01*
X165862Y535940D01*
G37*
G36*
X163079Y535940D02*
X164338Y535940D01*
X164338Y545338D01*
X154940Y545338D01*
X154940Y544079D01*
X156487Y540345D01*
X159345Y537487D01*
X163079Y535940D01*
G37*
G36*
X927862Y533398D02*
X929121Y533398D01*
X932855Y534945D01*
X935713Y537803D01*
X937260Y541537D01*
X937260Y542796D01*
X927862Y542796D01*
X927862Y533398D01*
G37*
G36*
X925079Y533398D02*
X926338Y533398D01*
X926338Y542796D01*
X916940Y542796D01*
X916940Y541537D01*
X918487Y537803D01*
X921345Y534945D01*
X925079Y533398D01*
G37*
G36*
X645881Y524256D02*
X649519Y524256D01*
X652880Y525648D01*
X655452Y528220D01*
X656844Y531581D01*
X656844Y535219D01*
X655452Y538580D01*
X652880Y541152D01*
X649519Y542544D01*
X645881Y542544D01*
X642520Y541152D01*
X639948Y538580D01*
X638556Y535219D01*
X638556Y531581D01*
X639948Y528220D01*
X642520Y525648D01*
X645881Y524256D01*
G37*
G36*
X1407881Y521714D02*
X1411519Y521714D01*
X1414880Y523106D01*
X1417452Y525678D01*
X1418844Y529039D01*
X1418844Y532677D01*
X1417452Y536038D01*
X1414880Y538610D01*
X1411519Y540002D01*
X1407881Y540002D01*
X1404520Y538610D01*
X1401948Y536038D01*
X1400556Y532677D01*
X1400556Y529039D01*
X1401948Y525678D01*
X1404520Y523106D01*
X1407881Y521714D01*
G37*
G36*
X154940Y521462D02*
X164338Y521462D01*
X164338Y530860D01*
X163079Y530860D01*
X159345Y529313D01*
X156487Y526455D01*
X154940Y522721D01*
X154940Y521462D01*
G37*
G36*
X165862Y521462D02*
X175260Y521462D01*
X175260Y522721D01*
X173713Y526455D01*
X170855Y529313D01*
X167121Y530860D01*
X165862Y530860D01*
X165862Y521462D01*
G37*
G36*
X916940Y518920D02*
X926338Y518920D01*
X926338Y528318D01*
X925079Y528318D01*
X921345Y526771D01*
X918487Y523913D01*
X916940Y520179D01*
X916940Y518920D01*
G37*
G36*
X927862Y518920D02*
X937260Y518920D01*
X937260Y520179D01*
X935713Y523913D01*
X932855Y526771D01*
X929121Y528318D01*
X927862Y528318D01*
X927862Y518920D01*
G37*
G36*
X165862Y510540D02*
X167121Y510540D01*
X170855Y512087D01*
X173713Y514945D01*
X175260Y518679D01*
X175260Y519938D01*
X165862Y519938D01*
X165862Y510540D01*
G37*
G36*
X163079Y510540D02*
X164338Y510540D01*
X164338Y519938D01*
X154940Y519938D01*
X154940Y518679D01*
X156487Y514945D01*
X159345Y512087D01*
X163079Y510540D01*
G37*
G36*
X927862Y507998D02*
X929121Y507998D01*
X932855Y509545D01*
X935713Y512403D01*
X937260Y516137D01*
X937260Y517396D01*
X927862Y517396D01*
X927862Y507998D01*
G37*
G36*
X925079Y507998D02*
X926338Y507998D01*
X926338Y517396D01*
X916940Y517396D01*
X916940Y516137D01*
X918487Y512403D01*
X921345Y509545D01*
X925079Y507998D01*
G37*
G36*
X645881Y498856D02*
X649519Y498856D01*
X652880Y500248D01*
X655452Y502820D01*
X656844Y506181D01*
X656844Y509819D01*
X655452Y513180D01*
X652880Y515752D01*
X649519Y517144D01*
X645881Y517144D01*
X642520Y515752D01*
X639948Y513180D01*
X638556Y509819D01*
X638556Y506181D01*
X639948Y502820D01*
X642520Y500248D01*
X645881Y498856D01*
G37*
G36*
X1407881Y496314D02*
X1411519Y496314D01*
X1414880Y497706D01*
X1417452Y500278D01*
X1418844Y503639D01*
X1418844Y507277D01*
X1417452Y510638D01*
X1414880Y513210D01*
X1411519Y514602D01*
X1407881Y514602D01*
X1404520Y513210D01*
X1401948Y510638D01*
X1400556Y507277D01*
X1400556Y503639D01*
X1401948Y500278D01*
X1404520Y497706D01*
X1407881Y496314D01*
G37*
G36*
X163281Y486156D02*
X166919Y486156D01*
X170280Y487548D01*
X172852Y490120D01*
X174244Y493481D01*
X174244Y497119D01*
X172852Y500480D01*
X170280Y503052D01*
X166919Y504444D01*
X163281Y504444D01*
X159920Y503052D01*
X157348Y500480D01*
X155956Y497119D01*
X155956Y493481D01*
X157348Y490120D01*
X159920Y487548D01*
X163281Y486156D01*
G37*
G36*
X925281Y483614D02*
X928919Y483614D01*
X932280Y485006D01*
X934852Y487578D01*
X936244Y490939D01*
X936244Y494577D01*
X934852Y497938D01*
X932280Y500510D01*
X928919Y501902D01*
X925281Y501902D01*
X921920Y500510D01*
X919348Y497938D01*
X917956Y494577D01*
X917956Y490939D01*
X919348Y487578D01*
X921920Y485006D01*
X925281Y483614D01*
G37*
G36*
X645881Y473456D02*
X649519Y473456D01*
X652880Y474848D01*
X655452Y477420D01*
X656844Y480781D01*
X656844Y484419D01*
X655452Y487780D01*
X652880Y490352D01*
X649519Y491744D01*
X645881Y491744D01*
X642520Y490352D01*
X639948Y487780D01*
X638556Y484419D01*
X638556Y480781D01*
X639948Y477420D01*
X642520Y474848D01*
X645881Y473456D01*
G37*
G36*
X1407881Y470914D02*
X1411519Y470914D01*
X1414880Y472306D01*
X1417452Y474878D01*
X1418844Y478239D01*
X1418844Y481877D01*
X1417452Y485238D01*
X1414880Y487810D01*
X1411519Y489202D01*
X1407881Y489202D01*
X1404520Y487810D01*
X1401948Y485238D01*
X1400556Y481877D01*
X1400556Y478239D01*
X1401948Y474878D01*
X1404520Y472306D01*
X1407881Y470914D01*
G37*
G36*
X163281Y460756D02*
X166919Y460756D01*
X170280Y462148D01*
X172852Y464720D01*
X174244Y468081D01*
X174244Y471719D01*
X172852Y475080D01*
X170280Y477652D01*
X166919Y479044D01*
X163281Y479044D01*
X159920Y477652D01*
X157348Y475080D01*
X155956Y471719D01*
X155956Y468081D01*
X157348Y464720D01*
X159920Y462148D01*
X163281Y460756D01*
G37*
G36*
X925281Y458214D02*
X928919Y458214D01*
X932280Y459606D01*
X934852Y462178D01*
X936244Y465539D01*
X936244Y469177D01*
X934852Y472538D01*
X932280Y475110D01*
X928919Y476502D01*
X925281Y476502D01*
X921920Y475110D01*
X919348Y472538D01*
X917956Y469177D01*
X917956Y465539D01*
X919348Y462178D01*
X921920Y459606D01*
X925281Y458214D01*
G37*
G36*
X645881Y448056D02*
X649519Y448056D01*
X652880Y449448D01*
X655452Y452020D01*
X656844Y455381D01*
X656844Y459019D01*
X655452Y462380D01*
X652880Y464952D01*
X649519Y466344D01*
X645881Y466344D01*
X642520Y464952D01*
X639948Y462380D01*
X638556Y459019D01*
X638556Y455381D01*
X639948Y452020D01*
X642520Y449448D01*
X645881Y448056D01*
G37*
G36*
X1407881Y445514D02*
X1411519Y445514D01*
X1414880Y446906D01*
X1417452Y449478D01*
X1418844Y452839D01*
X1418844Y456477D01*
X1417452Y459838D01*
X1414880Y462410D01*
X1411519Y463802D01*
X1407881Y463802D01*
X1404520Y462410D01*
X1401948Y459838D01*
X1400556Y456477D01*
X1400556Y452839D01*
X1401948Y449478D01*
X1404520Y446906D01*
X1407881Y445514D01*
G37*
G36*
X163281Y435356D02*
X166919Y435356D01*
X170280Y436748D01*
X172852Y439320D01*
X174244Y442681D01*
X174244Y446319D01*
X172852Y449680D01*
X170280Y452252D01*
X166919Y453644D01*
X163281Y453644D01*
X159920Y452252D01*
X157348Y449680D01*
X155956Y446319D01*
X155956Y442681D01*
X157348Y439320D01*
X159920Y436748D01*
X163281Y435356D01*
G37*
G36*
X925281Y432814D02*
X928919Y432814D01*
X932280Y434206D01*
X934852Y436778D01*
X936244Y440139D01*
X936244Y443777D01*
X934852Y447138D01*
X932280Y449710D01*
X928919Y451102D01*
X925281Y451102D01*
X921920Y449710D01*
X919348Y447138D01*
X917956Y443777D01*
X917956Y440139D01*
X919348Y436778D01*
X921920Y434206D01*
X925281Y432814D01*
G37*
G36*
X645881Y422656D02*
X649519Y422656D01*
X652880Y424048D01*
X655452Y426620D01*
X656844Y429981D01*
X656844Y433619D01*
X655452Y436980D01*
X652880Y439552D01*
X649519Y440944D01*
X645881Y440944D01*
X642520Y439552D01*
X639948Y436980D01*
X638556Y433619D01*
X638556Y429981D01*
X639948Y426620D01*
X642520Y424048D01*
X645881Y422656D01*
G37*
G36*
X1407881Y420114D02*
X1411519Y420114D01*
X1414880Y421506D01*
X1417452Y424078D01*
X1418844Y427439D01*
X1418844Y431077D01*
X1417452Y434438D01*
X1414880Y437010D01*
X1411519Y438402D01*
X1407881Y438402D01*
X1404520Y437010D01*
X1401948Y434438D01*
X1400556Y431077D01*
X1400556Y427439D01*
X1401948Y424078D01*
X1404520Y421506D01*
X1407881Y420114D01*
G37*
G36*
X163281Y409956D02*
X166919Y409956D01*
X170280Y411348D01*
X172852Y413920D01*
X174244Y417281D01*
X174244Y420919D01*
X172852Y424280D01*
X170280Y426852D01*
X166919Y428244D01*
X163281Y428244D01*
X159920Y426852D01*
X157348Y424280D01*
X155956Y420919D01*
X155956Y417281D01*
X157348Y413920D01*
X159920Y411348D01*
X163281Y409956D01*
G37*
G36*
X925281Y407414D02*
X928919Y407414D01*
X932280Y408806D01*
X934852Y411378D01*
X936244Y414739D01*
X936244Y418377D01*
X934852Y421738D01*
X932280Y424310D01*
X928919Y425702D01*
X925281Y425702D01*
X921920Y424310D01*
X919348Y421738D01*
X917956Y418377D01*
X917956Y414739D01*
X919348Y411378D01*
X921920Y408806D01*
X925281Y407414D01*
G37*
G36*
X645881Y397256D02*
X649519Y397256D01*
X652880Y398648D01*
X655452Y401220D01*
X656844Y404581D01*
X656844Y408219D01*
X655452Y411580D01*
X652880Y414152D01*
X649519Y415544D01*
X645881Y415544D01*
X642520Y414152D01*
X639948Y411580D01*
X638556Y408219D01*
X638556Y404581D01*
X639948Y401220D01*
X642520Y398648D01*
X645881Y397256D01*
G37*
G36*
X1407881Y394714D02*
X1411519Y394714D01*
X1414880Y396106D01*
X1417452Y398678D01*
X1418844Y402039D01*
X1418844Y405677D01*
X1417452Y409038D01*
X1414880Y411610D01*
X1411519Y413002D01*
X1407881Y413002D01*
X1404520Y411610D01*
X1401948Y409038D01*
X1400556Y405677D01*
X1400556Y402039D01*
X1401948Y398678D01*
X1404520Y396106D01*
X1407881Y394714D01*
G37*
G36*
X163281Y384556D02*
X166919Y384556D01*
X170280Y385948D01*
X172852Y388520D01*
X174244Y391881D01*
X174244Y395519D01*
X172852Y398880D01*
X170280Y401452D01*
X166919Y402844D01*
X163281Y402844D01*
X159920Y401452D01*
X157348Y398880D01*
X155956Y395519D01*
X155956Y391881D01*
X157348Y388520D01*
X159920Y385948D01*
X163281Y384556D01*
G37*
G36*
X925281Y382014D02*
X928919Y382014D01*
X932280Y383406D01*
X934852Y385978D01*
X936244Y389339D01*
X936244Y392977D01*
X934852Y396338D01*
X932280Y398910D01*
X928919Y400302D01*
X925281Y400302D01*
X921920Y398910D01*
X919348Y396338D01*
X917956Y392977D01*
X917956Y389339D01*
X919348Y385978D01*
X921920Y383406D01*
X925281Y382014D01*
G37*
G36*
X637540Y381762D02*
X646938Y381762D01*
X646938Y391160D01*
X645679Y391160D01*
X641945Y389613D01*
X639087Y386755D01*
X637540Y383021D01*
X637540Y381762D01*
G37*
G36*
X648462Y381762D02*
X657860Y381762D01*
X657860Y383021D01*
X656313Y386755D01*
X653455Y389613D01*
X649721Y391160D01*
X648462Y391160D01*
X648462Y381762D01*
G37*
G36*
X1399540Y379220D02*
X1408938Y379220D01*
X1408938Y388618D01*
X1407679Y388618D01*
X1403945Y387071D01*
X1401087Y384213D01*
X1399540Y380479D01*
X1399540Y379220D01*
G37*
G36*
X1410462Y379220D02*
X1419860Y379220D01*
X1419860Y380479D01*
X1418313Y384213D01*
X1415455Y387071D01*
X1411721Y388618D01*
X1410462Y388618D01*
X1410462Y379220D01*
G37*
G36*
X648462Y370840D02*
X649721Y370840D01*
X653455Y372387D01*
X656313Y375245D01*
X657860Y378979D01*
X657860Y380238D01*
X648462Y380238D01*
X648462Y370840D01*
G37*
G36*
X645679Y370840D02*
X646938Y370840D01*
X646938Y380238D01*
X637540Y380238D01*
X637540Y378979D01*
X639087Y375245D01*
X641945Y372387D01*
X645679Y370840D01*
G37*
G36*
X1410462Y368298D02*
X1411721Y368298D01*
X1415455Y369845D01*
X1418313Y372703D01*
X1419860Y376437D01*
X1419860Y377696D01*
X1410462Y377696D01*
X1410462Y368298D01*
G37*
G36*
X1407679Y368298D02*
X1408938Y368298D01*
X1408938Y377696D01*
X1399540Y377696D01*
X1399540Y376437D01*
X1401087Y372703D01*
X1403945Y369845D01*
X1407679Y368298D01*
G37*
G36*
X645881Y346456D02*
X649519Y346456D01*
X652880Y347848D01*
X655452Y350420D01*
X656844Y353781D01*
X656844Y357419D01*
X655452Y360780D01*
X652880Y363352D01*
X649519Y364744D01*
X645881Y364744D01*
X642520Y363352D01*
X639948Y360780D01*
X638556Y357419D01*
X638556Y353781D01*
X639948Y350420D01*
X642520Y347848D01*
X645881Y346456D01*
G37*
G36*
X1407881Y343914D02*
X1411519Y343914D01*
X1414880Y345306D01*
X1417452Y347878D01*
X1418844Y351239D01*
X1418844Y354877D01*
X1417452Y358238D01*
X1414880Y360810D01*
X1411519Y362202D01*
X1407881Y362202D01*
X1404520Y360810D01*
X1401948Y358238D01*
X1400556Y354877D01*
X1400556Y351239D01*
X1401948Y347878D01*
X1404520Y345306D01*
X1407881Y343914D01*
G37*
G36*
X645881Y321056D02*
X649519Y321056D01*
X652880Y322448D01*
X655452Y325020D01*
X656844Y328381D01*
X656844Y332019D01*
X655452Y335380D01*
X652880Y337952D01*
X649519Y339344D01*
X645881Y339344D01*
X642520Y337952D01*
X639948Y335380D01*
X638556Y332019D01*
X638556Y328381D01*
X639948Y325020D01*
X642520Y322448D01*
X645881Y321056D01*
G37*
G36*
X1407881Y318514D02*
X1411519Y318514D01*
X1414880Y319906D01*
X1417452Y322478D01*
X1418844Y325839D01*
X1418844Y329477D01*
X1417452Y332838D01*
X1414880Y335410D01*
X1411519Y336802D01*
X1407881Y336802D01*
X1404520Y335410D01*
X1401948Y332838D01*
X1400556Y329477D01*
X1400556Y325839D01*
X1401948Y322478D01*
X1404520Y319906D01*
X1407881Y318514D01*
G37*
G36*
X645881Y295656D02*
X649519Y295656D01*
X652880Y297048D01*
X655452Y299620D01*
X656844Y302981D01*
X656844Y306619D01*
X655452Y309980D01*
X652880Y312552D01*
X649519Y313944D01*
X645881Y313944D01*
X642520Y312552D01*
X639948Y309980D01*
X638556Y306619D01*
X638556Y302981D01*
X639948Y299620D01*
X642520Y297048D01*
X645881Y295656D01*
G37*
G36*
X1407881Y293114D02*
X1411519Y293114D01*
X1414880Y294506D01*
X1417452Y297078D01*
X1418844Y300439D01*
X1418844Y304077D01*
X1417452Y307438D01*
X1414880Y310010D01*
X1411519Y311402D01*
X1407881Y311402D01*
X1404520Y310010D01*
X1401948Y307438D01*
X1400556Y304077D01*
X1400556Y300439D01*
X1401948Y297078D01*
X1404520Y294506D01*
X1407881Y293114D01*
G37*
G36*
X1545429Y20640D02*
X1553371Y20640D01*
X1561041Y22695D01*
X1567919Y26666D01*
X1573534Y32281D01*
X1577505Y39159D01*
X1579560Y46829D01*
X1579560Y54771D01*
X1577505Y62441D01*
X1573534Y69319D01*
X1567919Y74934D01*
X1561041Y78905D01*
X1553371Y80960D01*
X1545429Y80960D01*
X1537759Y78905D01*
X1530881Y74934D01*
X1525266Y69319D01*
X1521295Y62441D01*
X1519240Y54771D01*
X1519240Y46829D01*
X1521295Y39159D01*
X1525266Y32281D01*
X1530881Y26666D01*
X1537759Y22695D01*
X1545429Y20640D01*
G37*
G36*
X46829Y20640D02*
X54771Y20640D01*
X62441Y22695D01*
X69319Y26666D01*
X74934Y32281D01*
X78905Y39159D01*
X80960Y46829D01*
X80960Y54771D01*
X78905Y62441D01*
X74934Y69319D01*
X69319Y74934D01*
X62441Y78905D01*
X54771Y80960D01*
X46829Y80960D01*
X39159Y78905D01*
X32281Y74934D01*
X26666Y69319D01*
X22695Y62441D01*
X20640Y54771D01*
X20640Y46829D01*
X22695Y39159D01*
X26666Y32281D01*
X32281Y26666D01*
X39159Y22695D01*
X46829Y20640D01*
G37*
%LPD*%
D10*
X165100Y876300D03*
X165100Y901700D03*
X165100Y927100D03*
X165100Y952500D03*
X165100Y977900D03*
X165100Y1003300D03*
X165100Y1028700D03*
X165100Y850900D03*
X647700Y825500D03*
X647700Y850900D03*
X647700Y876300D03*
X647700Y901700D03*
X647700Y927100D03*
X647700Y952500D03*
X647700Y977900D03*
X647700Y800100D03*
X165100Y647700D03*
X165100Y673100D03*
X165100Y698500D03*
X165100Y723900D03*
X165100Y749300D03*
X165100Y774700D03*
X165100Y800100D03*
X165100Y622300D03*
X647700Y596900D03*
X647700Y622300D03*
X647700Y647700D03*
X647700Y673100D03*
X647700Y698500D03*
X647700Y723900D03*
X647700Y749300D03*
X647700Y571500D03*
X647700Y381000D03*
X647700Y406400D03*
X647700Y431800D03*
X647700Y457200D03*
X647700Y482600D03*
X647700Y508000D03*
X647700Y533400D03*
X647700Y355600D03*
X444500Y1079500D03*
X444500Y1054100D03*
X469900Y1079500D03*
X469900Y1054100D03*
X495300Y1079500D03*
X495300Y1054100D03*
X520700Y1079500D03*
X520700Y1054100D03*
X546100Y1079500D03*
X546100Y1054100D03*
X571500Y1079500D03*
X571500Y1054100D03*
X596900Y1079500D03*
X596900Y1054100D03*
X622300Y1079500D03*
X622300Y1054100D03*
X241300Y1079500D03*
X241300Y1054100D03*
X266700Y1079500D03*
X266700Y1054100D03*
X292100Y1079500D03*
X292100Y1054100D03*
X317500Y1079500D03*
X317500Y1054100D03*
X342900Y1079500D03*
X342900Y1054100D03*
X368300Y1079500D03*
X368300Y1054100D03*
X393700Y1079500D03*
X393700Y1054100D03*
X419100Y1079500D03*
X419100Y1054100D03*
X215900Y1054100D03*
X215900Y1079500D03*
X647700Y1054100D03*
X647700Y1079500D03*
X165100Y444500D03*
X165100Y469900D03*
X165100Y495300D03*
X165100Y520700D03*
X165100Y546100D03*
X165100Y571500D03*
X647700Y330200D03*
X647700Y304800D03*
X165100Y419100D03*
X165100Y393700D03*
X927100Y873758D03*
X927100Y899158D03*
X927100Y924558D03*
X927100Y949958D03*
X927100Y975358D03*
X927100Y1000758D03*
X927100Y1026158D03*
X927100Y848358D03*
X1409700Y822958D03*
X1409700Y848358D03*
X1409700Y873758D03*
X1409700Y899158D03*
X1409700Y924558D03*
X1409700Y949958D03*
X1409700Y975358D03*
X1409700Y797558D03*
X927100Y645158D03*
X927100Y670558D03*
X927100Y695958D03*
X927100Y721358D03*
X927100Y746758D03*
X927100Y772158D03*
X927100Y797558D03*
X927100Y619758D03*
X1409700Y594358D03*
X1409700Y619758D03*
X1409700Y645158D03*
X1409700Y670558D03*
X1409700Y695958D03*
X1409700Y721358D03*
X1409700Y746758D03*
X1409700Y568958D03*
X1409700Y378458D03*
X1409700Y403858D03*
X1409700Y429258D03*
X1409700Y454658D03*
X1409700Y480058D03*
X1409700Y505458D03*
X1409700Y530858D03*
X1409700Y353058D03*
X1206500Y1076958D03*
X1206500Y1051558D03*
X1231900Y1076958D03*
X1231900Y1051558D03*
X1257300Y1076958D03*
X1257300Y1051558D03*
X1282700Y1076958D03*
X1282700Y1051558D03*
X1308100Y1076958D03*
X1308100Y1051558D03*
X1333500Y1076958D03*
X1333500Y1051558D03*
X1358900Y1076958D03*
X1358900Y1051558D03*
X1384300Y1076958D03*
X1384300Y1051558D03*
X1003300Y1076958D03*
X1003300Y1051558D03*
X1028700Y1076958D03*
X1028700Y1051558D03*
X1054100Y1076958D03*
X1054100Y1051558D03*
X1079500Y1076958D03*
X1079500Y1051558D03*
X1104900Y1076958D03*
X1104900Y1051558D03*
X1130300Y1076958D03*
X1130300Y1051558D03*
X1155700Y1076958D03*
X1155700Y1051558D03*
X1181100Y1076958D03*
X1181100Y1051558D03*
X977900Y1051558D03*
X977900Y1076958D03*
X1409700Y1051558D03*
X1409700Y1076958D03*
X927100Y441958D03*
X927100Y467358D03*
X927100Y492758D03*
X927100Y518158D03*
X927100Y543558D03*
X927100Y568958D03*
X1409700Y327658D03*
X1409700Y302258D03*
X927100Y416558D03*
X927100Y391158D03*
D11*
X457200Y1282700D03*
X457200Y1308100D03*
X482600Y1282700D03*
X482600Y1308100D03*
X508000Y1282700D03*
X508000Y1308100D03*
X533400Y1282700D03*
X533400Y1308100D03*
X558800Y1282700D03*
X558800Y1308100D03*
X584200Y1282700D03*
X584200Y1308100D03*
X609600Y1282700D03*
X609600Y1308100D03*
X635000Y1282700D03*
X635000Y1308100D03*
X660400Y1282700D03*
X660400Y1308100D03*
X685800Y1282700D03*
X685800Y1308100D03*
X711200Y1282700D03*
X711200Y1308100D03*
X736600Y1282700D03*
X736600Y1308100D03*
X1206500Y1282700D03*
X1206500Y1308100D03*
X1231900Y1282700D03*
X1231900Y1308100D03*
X1257300Y1282700D03*
X1257300Y1308100D03*
X1282700Y1282700D03*
X1282700Y1308100D03*
X1308100Y1282700D03*
X1308100Y1308100D03*
X1333500Y1282700D03*
X1333500Y1308100D03*
X1358900Y1282700D03*
X1358900Y1308100D03*
X1384300Y1282700D03*
X1384300Y1308100D03*
X1409700Y1282700D03*
X1409700Y1308100D03*
X1435100Y1282700D03*
X1435100Y1308100D03*
X1460500Y1282700D03*
X1460500Y1308100D03*
X1485900Y1282700D03*
X1485900Y1308100D03*
X1130420Y1306830D03*
X1130420Y1281430D03*
X1105020Y1306830D03*
X1105020Y1281430D03*
X1079620Y1306830D03*
X1079620Y1281430D03*
X1054220Y1306830D03*
X1054220Y1281430D03*
X1028820Y1306830D03*
X1028820Y1281430D03*
X1003420Y1306830D03*
X1003420Y1281430D03*
X978020Y1306830D03*
X978020Y1281430D03*
X952620Y1306830D03*
X952620Y1281430D03*
X927220Y1306830D03*
X927220Y1281430D03*
X901820Y1306830D03*
X901820Y1281430D03*
X876420Y1306830D03*
X876420Y1281430D03*
X851020Y1306830D03*
X851020Y1281430D03*
X381000Y1308100D03*
X381000Y1282700D03*
X355600Y1308100D03*
X355600Y1282700D03*
X330200Y1308100D03*
X330200Y1282700D03*
X304800Y1308100D03*
X304800Y1282700D03*
X279400Y1308100D03*
X279400Y1282700D03*
X254000Y1308100D03*
X254000Y1282700D03*
X228600Y1308100D03*
X228600Y1282700D03*
X203200Y1308100D03*
X203200Y1282700D03*
X177800Y1308100D03*
X177800Y1282700D03*
X152400Y1308100D03*
X152400Y1282700D03*
X127000Y1308100D03*
X127000Y1282700D03*
X101600Y1308100D03*
X101600Y1282700D03*
D12*
X228600Y1217930D03*
X609600Y1219200D03*
X1371600Y1219200D03*
X995680Y1214120D03*
M02*
