G04 EAGLE Gerber RS-274X export*
G75*
%MOMM*%
%FSLAX34Y34*%
%LPD*%
%INTop Copper*%
%IPPOS*%
%AMOC8*
5,1,8,0,0,1.08239X$1,22.5*%
G01*
G04 Define Apertures*
%ADD10C,1.879600*%
%ADD11P,2.03446X8X22.5*%
%ADD12R,1.508000X1.508000*%
%ADD13C,1.508000*%
%ADD14R,0.644000X0.535100*%
%ADD15C,0.152400*%
%ADD16C,0.756400*%
D10*
X165100Y876300D03*
X165100Y901700D03*
X165100Y927100D03*
X165100Y952500D03*
X165100Y977900D03*
X165100Y1003300D03*
X165100Y1028700D03*
X165100Y850900D03*
X647700Y825500D03*
X647700Y850900D03*
X647700Y876300D03*
X647700Y901700D03*
X647700Y927100D03*
X647700Y952500D03*
X647700Y977900D03*
X647700Y800100D03*
X165100Y647700D03*
X165100Y673100D03*
X165100Y698500D03*
X165100Y723900D03*
X165100Y749300D03*
X165100Y774700D03*
X165100Y800100D03*
X165100Y622300D03*
X647700Y596900D03*
X647700Y622300D03*
X647700Y647700D03*
X647700Y673100D03*
X647700Y698500D03*
X647700Y723900D03*
X647700Y749300D03*
X647700Y571500D03*
X647700Y381000D03*
X647700Y406400D03*
X647700Y431800D03*
X647700Y457200D03*
X647700Y482600D03*
X647700Y508000D03*
X647700Y533400D03*
X647700Y355600D03*
D11*
X444500Y1079500D03*
X444500Y1054100D03*
X469900Y1079500D03*
X469900Y1054100D03*
X495300Y1079500D03*
X495300Y1054100D03*
X520700Y1079500D03*
X520700Y1054100D03*
X546100Y1079500D03*
X546100Y1054100D03*
X571500Y1079500D03*
X571500Y1054100D03*
X596900Y1079500D03*
X596900Y1054100D03*
X622300Y1079500D03*
X622300Y1054100D03*
X241300Y1079500D03*
X241300Y1054100D03*
X266700Y1079500D03*
X266700Y1054100D03*
X292100Y1079500D03*
X292100Y1054100D03*
X317500Y1079500D03*
X317500Y1054100D03*
X342900Y1079500D03*
X342900Y1054100D03*
X368300Y1079500D03*
X368300Y1054100D03*
X393700Y1079500D03*
X393700Y1054100D03*
X419100Y1079500D03*
X419100Y1054100D03*
D10*
X215900Y1054100D03*
X215900Y1079500D03*
X647700Y1054100D03*
X647700Y1079500D03*
X165100Y444500D03*
X165100Y469900D03*
X165100Y495300D03*
X165100Y520700D03*
X165100Y546100D03*
X165100Y571500D03*
X647700Y330200D03*
X647700Y304800D03*
X165100Y419100D03*
X165100Y393700D03*
X927100Y873758D03*
X927100Y899158D03*
X927100Y924558D03*
X927100Y949958D03*
X927100Y975358D03*
X927100Y1000758D03*
X927100Y1026158D03*
X927100Y848358D03*
X1409700Y822958D03*
X1409700Y848358D03*
X1409700Y873758D03*
X1409700Y899158D03*
X1409700Y924558D03*
X1409700Y949958D03*
X1409700Y975358D03*
X1409700Y797558D03*
X927100Y645158D03*
X927100Y670558D03*
X927100Y695958D03*
X927100Y721358D03*
X927100Y746758D03*
X927100Y772158D03*
X927100Y797558D03*
X927100Y619758D03*
X1409700Y594358D03*
X1409700Y619758D03*
X1409700Y645158D03*
X1409700Y670558D03*
X1409700Y695958D03*
X1409700Y721358D03*
X1409700Y746758D03*
X1409700Y568958D03*
X1409700Y378458D03*
X1409700Y403858D03*
X1409700Y429258D03*
X1409700Y454658D03*
X1409700Y480058D03*
X1409700Y505458D03*
X1409700Y530858D03*
X1409700Y353058D03*
D11*
X1206500Y1076958D03*
X1206500Y1051558D03*
X1231900Y1076958D03*
X1231900Y1051558D03*
X1257300Y1076958D03*
X1257300Y1051558D03*
X1282700Y1076958D03*
X1282700Y1051558D03*
X1308100Y1076958D03*
X1308100Y1051558D03*
X1333500Y1076958D03*
X1333500Y1051558D03*
X1358900Y1076958D03*
X1358900Y1051558D03*
X1384300Y1076958D03*
X1384300Y1051558D03*
X1003300Y1076958D03*
X1003300Y1051558D03*
X1028700Y1076958D03*
X1028700Y1051558D03*
X1054100Y1076958D03*
X1054100Y1051558D03*
X1079500Y1076958D03*
X1079500Y1051558D03*
X1104900Y1076958D03*
X1104900Y1051558D03*
X1130300Y1076958D03*
X1130300Y1051558D03*
X1155700Y1076958D03*
X1155700Y1051558D03*
X1181100Y1076958D03*
X1181100Y1051558D03*
D10*
X977900Y1051558D03*
X977900Y1076958D03*
X1409700Y1051558D03*
X1409700Y1076958D03*
X927100Y441958D03*
X927100Y467358D03*
X927100Y492758D03*
X927100Y518158D03*
X927100Y543558D03*
X927100Y568958D03*
X1409700Y327658D03*
X1409700Y302258D03*
X927100Y416558D03*
X927100Y391158D03*
D12*
X457200Y1282700D03*
D13*
X457200Y1308100D03*
X482600Y1282700D03*
X482600Y1308100D03*
X508000Y1282700D03*
X508000Y1308100D03*
X533400Y1282700D03*
X533400Y1308100D03*
X558800Y1282700D03*
X558800Y1308100D03*
X584200Y1282700D03*
X584200Y1308100D03*
X609600Y1282700D03*
X609600Y1308100D03*
X635000Y1282700D03*
X635000Y1308100D03*
X660400Y1282700D03*
X660400Y1308100D03*
X685800Y1282700D03*
X685800Y1308100D03*
X711200Y1282700D03*
X711200Y1308100D03*
X736600Y1282700D03*
X736600Y1308100D03*
D12*
X1206500Y1282700D03*
D13*
X1206500Y1308100D03*
X1231900Y1282700D03*
X1231900Y1308100D03*
X1257300Y1282700D03*
X1257300Y1308100D03*
X1282700Y1282700D03*
X1282700Y1308100D03*
X1308100Y1282700D03*
X1308100Y1308100D03*
X1333500Y1282700D03*
X1333500Y1308100D03*
X1358900Y1282700D03*
X1358900Y1308100D03*
X1384300Y1282700D03*
X1384300Y1308100D03*
X1409700Y1282700D03*
X1409700Y1308100D03*
X1435100Y1282700D03*
X1435100Y1308100D03*
X1460500Y1282700D03*
X1460500Y1308100D03*
X1485900Y1282700D03*
X1485900Y1308100D03*
D12*
X1130420Y1306830D03*
D13*
X1130420Y1281430D03*
X1105020Y1306830D03*
X1105020Y1281430D03*
X1079620Y1306830D03*
X1079620Y1281430D03*
X1054220Y1306830D03*
X1054220Y1281430D03*
X1028820Y1306830D03*
X1028820Y1281430D03*
X1003420Y1306830D03*
X1003420Y1281430D03*
X978020Y1306830D03*
X978020Y1281430D03*
X952620Y1306830D03*
X952620Y1281430D03*
X927220Y1306830D03*
X927220Y1281430D03*
X901820Y1306830D03*
X901820Y1281430D03*
X876420Y1306830D03*
X876420Y1281430D03*
X851020Y1306830D03*
X851020Y1281430D03*
D12*
X381000Y1308100D03*
D13*
X381000Y1282700D03*
X355600Y1308100D03*
X355600Y1282700D03*
X330200Y1308100D03*
X330200Y1282700D03*
X304800Y1308100D03*
X304800Y1282700D03*
X279400Y1308100D03*
X279400Y1282700D03*
X254000Y1308100D03*
X254000Y1282700D03*
X228600Y1308100D03*
X228600Y1282700D03*
X203200Y1308100D03*
X203200Y1282700D03*
X177800Y1308100D03*
X177800Y1282700D03*
X152400Y1308100D03*
X152400Y1282700D03*
X127000Y1308100D03*
X127000Y1282700D03*
X101600Y1308100D03*
X101600Y1282700D03*
D14*
X482600Y1239525D03*
X482600Y1249675D03*
X508000Y1239525D03*
X508000Y1249675D03*
X533400Y1239525D03*
X533400Y1249675D03*
X546100Y1239525D03*
X546100Y1249675D03*
X571500Y1239525D03*
X571500Y1249675D03*
X596900Y1239525D03*
X596900Y1249675D03*
X622300Y1239525D03*
X622300Y1249675D03*
X647700Y1239525D03*
X647700Y1249675D03*
X673100Y1239525D03*
X673100Y1249675D03*
X698500Y1239525D03*
X698500Y1249675D03*
X723900Y1239525D03*
X723900Y1249675D03*
X495300Y1239525D03*
X495300Y1249675D03*
X520700Y1239525D03*
X520700Y1249675D03*
X558800Y1239525D03*
X558800Y1249675D03*
X584200Y1239525D03*
X584200Y1249675D03*
X609600Y1239525D03*
X609600Y1249675D03*
X635000Y1239525D03*
X635000Y1249675D03*
X660400Y1239525D03*
X660400Y1249675D03*
X685800Y1239525D03*
X685800Y1249675D03*
X711200Y1239525D03*
X711200Y1249675D03*
X736600Y1239525D03*
X736600Y1249675D03*
X393700Y1239525D03*
X393700Y1249675D03*
X368300Y1239525D03*
X368300Y1249675D03*
X342900Y1239525D03*
X342900Y1249675D03*
X317500Y1239525D03*
X317500Y1249675D03*
X292100Y1239525D03*
X292100Y1249675D03*
X266700Y1239525D03*
X266700Y1249675D03*
X241300Y1239525D03*
X241300Y1249675D03*
X215900Y1239525D03*
X215900Y1249675D03*
X190500Y1239525D03*
X190500Y1249675D03*
X165100Y1239525D03*
X165100Y1249675D03*
X139700Y1239525D03*
X139700Y1249675D03*
X114300Y1239525D03*
X114300Y1249675D03*
X381000Y1239525D03*
X381000Y1249675D03*
X355600Y1239525D03*
X355600Y1249675D03*
X330200Y1239525D03*
X330200Y1249675D03*
X304800Y1239525D03*
X304800Y1249675D03*
X279400Y1239525D03*
X279400Y1249675D03*
X254000Y1239525D03*
X254000Y1249675D03*
X228600Y1239525D03*
X228600Y1249675D03*
X203200Y1239525D03*
X203200Y1249675D03*
X177800Y1239525D03*
X177800Y1249675D03*
X152744Y1249675D03*
X152744Y1239525D03*
X127000Y1239525D03*
X127000Y1249675D03*
X1270000Y1239525D03*
X1270000Y1249675D03*
X1295400Y1239525D03*
X1295400Y1249675D03*
X1320800Y1239525D03*
X1320800Y1249675D03*
X1346200Y1239525D03*
X1346200Y1249675D03*
X1371600Y1239525D03*
X1371600Y1249675D03*
X1397000Y1239525D03*
X1397000Y1249675D03*
X1422400Y1239525D03*
X1422400Y1249675D03*
X1447800Y1239525D03*
X1447800Y1249675D03*
X1473200Y1239525D03*
X1473200Y1249675D03*
X1498600Y1239525D03*
X1498600Y1249675D03*
X1141730Y1240795D03*
X1141730Y1250945D03*
X1116330Y1240795D03*
X1116330Y1250945D03*
X1090930Y1240795D03*
X1090930Y1250945D03*
X1065530Y1240795D03*
X1065530Y1250945D03*
X1040130Y1240795D03*
X1040130Y1250945D03*
X1014730Y1240795D03*
X1014730Y1250945D03*
X989330Y1240795D03*
X989330Y1250945D03*
X963930Y1240795D03*
X963930Y1250945D03*
X938530Y1240795D03*
X938530Y1250945D03*
X913130Y1240795D03*
X913130Y1250945D03*
X887730Y1240795D03*
X887730Y1250945D03*
X862330Y1240795D03*
X862330Y1250945D03*
X1129030Y1240795D03*
X1129030Y1250945D03*
X1103630Y1240795D03*
X1103630Y1250945D03*
X1078230Y1240795D03*
X1078230Y1250945D03*
X1052830Y1240795D03*
X1052830Y1250945D03*
X1027430Y1240795D03*
X1027430Y1250945D03*
X1002030Y1240795D03*
X1002030Y1250945D03*
X976630Y1240795D03*
X976630Y1250945D03*
X951230Y1240795D03*
X951230Y1250945D03*
X925830Y1240795D03*
X925830Y1250945D03*
X900430Y1240795D03*
X900430Y1250945D03*
X875030Y1240795D03*
X875030Y1250945D03*
X1244600Y1239525D03*
X1244600Y1249675D03*
X1257300Y1239525D03*
X1257300Y1249675D03*
X1282700Y1239525D03*
X1282700Y1249675D03*
X1308100Y1239525D03*
X1308100Y1249675D03*
X1333500Y1239525D03*
X1333500Y1249675D03*
X1358900Y1239525D03*
X1358900Y1249675D03*
X1384300Y1239525D03*
X1384300Y1249675D03*
X1409356Y1239525D03*
X1409356Y1249675D03*
X1435100Y1239525D03*
X1435100Y1249675D03*
X1460500Y1239525D03*
X1460500Y1249675D03*
X1485900Y1239525D03*
X1485900Y1249675D03*
D15*
X228600Y1239525D02*
X228600Y1217930D01*
D16*
X228600Y1217930D03*
D15*
X228600Y1249675D02*
X228600Y1282700D01*
X609600Y1308100D02*
X619426Y1298274D01*
X619426Y1258957D01*
X610145Y1249675D01*
X609600Y1249675D01*
X978020Y1252335D02*
X978020Y1281430D01*
X978020Y1252335D02*
X976630Y1250945D01*
X609600Y1239525D02*
X609600Y1219200D01*
D16*
X609600Y1219200D03*
D15*
X1358900Y1308100D02*
X1371600Y1295400D01*
X1371600Y1249675D01*
X1371600Y1239525D02*
X1371600Y1219200D01*
D16*
X1371600Y1219200D03*
D15*
X976630Y1233170D02*
X976630Y1240795D01*
X976630Y1233170D02*
X995680Y1214120D01*
D16*
X995680Y1214120D03*
D15*
X913130Y1233170D02*
X913130Y1240795D01*
X1054100Y1092200D02*
X1054100Y1076958D01*
X1054100Y1092200D02*
X913130Y1233170D01*
X911646Y1297004D02*
X901820Y1306830D01*
X911646Y1297004D02*
X911646Y1252429D01*
X913130Y1250945D01*
X862330Y1240795D02*
X862330Y1231900D01*
X1003300Y1090930D02*
X1003300Y1076958D01*
X1003300Y1090930D02*
X862330Y1231900D01*
X860846Y1297004D02*
X851020Y1306830D01*
X860846Y1297004D02*
X860846Y1252429D01*
X862330Y1250945D01*
X876420Y1252335D02*
X876420Y1281430D01*
X876420Y1252335D02*
X875030Y1250945D01*
X875030Y1240795D02*
X875030Y1231912D01*
X1016000Y1090942D01*
X1016000Y1064258D01*
X1003300Y1051558D01*
X887730Y1231900D02*
X887730Y1240795D01*
X1028700Y1090930D02*
X1028700Y1076958D01*
X1028700Y1090930D02*
X887730Y1231900D01*
X886246Y1297004D02*
X876420Y1306830D01*
X886246Y1297004D02*
X886246Y1252429D01*
X887730Y1250945D01*
X901820Y1252335D02*
X901820Y1281430D01*
X901820Y1252335D02*
X900430Y1250945D01*
X1041400Y1064258D02*
X1028700Y1051558D01*
X900430Y1231912D02*
X900430Y1240795D01*
X900430Y1231912D02*
X1041400Y1090942D01*
X1041400Y1064258D01*
X1003420Y1252335D02*
X1003420Y1281430D01*
X1003420Y1252335D02*
X1002030Y1250945D01*
X1130808Y1103623D02*
X1130808Y1077466D01*
X1130300Y1076958D01*
X1002030Y1232401D02*
X1002030Y1240795D01*
X1002030Y1232401D02*
X1130808Y1103623D01*
X1028820Y1252335D02*
X1028820Y1281430D01*
X1028820Y1252335D02*
X1027430Y1250945D01*
X1027430Y1240795D02*
X1027430Y1232412D01*
X1155700Y1104142D01*
X1155700Y1076958D01*
X1054220Y1252335D02*
X1054220Y1281430D01*
X1054220Y1252335D02*
X1052830Y1250945D01*
X1052830Y1240795D02*
X1052829Y1233671D01*
X1181100Y1105401D01*
X1181100Y1076958D01*
X1079620Y1252335D02*
X1079620Y1281430D01*
X1079620Y1252335D02*
X1078230Y1250945D01*
X1078230Y1240795D02*
X1078230Y1233168D01*
X1206500Y1104898D02*
X1206500Y1076958D01*
X1206500Y1104898D02*
X1078230Y1233168D01*
X1105020Y1252335D02*
X1105020Y1281430D01*
X1105020Y1252335D02*
X1103630Y1250945D01*
X1103630Y1240795D02*
X1103630Y1233182D01*
X1231900Y1104912D02*
X1231900Y1076958D01*
X1231900Y1104912D02*
X1103630Y1233182D01*
X1130420Y1252335D02*
X1130420Y1281430D01*
X1130420Y1252335D02*
X1129030Y1250945D01*
X1129030Y1240795D02*
X1129030Y1233168D01*
X1257300Y1104898D02*
X1257300Y1076958D01*
X1257300Y1104898D02*
X1129030Y1233168D01*
X989330Y1231912D02*
X989330Y1240795D01*
X989330Y1231912D02*
X1116584Y1104658D01*
X1116584Y1063242D02*
X1104900Y1051558D01*
X1116584Y1063242D02*
X1116584Y1104658D01*
X987846Y1297004D02*
X978020Y1306830D01*
X987846Y1297004D02*
X987846Y1252429D01*
X989330Y1250945D01*
X927220Y1252335D02*
X927220Y1281430D01*
X927220Y1252335D02*
X925830Y1250945D01*
X925830Y1240795D02*
X925830Y1231900D01*
X1066800Y1090930D01*
X1066800Y1064258D01*
X1054100Y1051558D01*
X938530Y1232401D02*
X938530Y1240795D01*
X938530Y1232401D02*
X1079500Y1091431D01*
X1079500Y1076958D01*
X937046Y1297004D02*
X927220Y1306830D01*
X937046Y1297004D02*
X937046Y1252429D01*
X938530Y1250945D01*
X952620Y1252335D02*
X952620Y1281430D01*
X952620Y1252335D02*
X951230Y1250945D01*
X951230Y1240795D02*
X951230Y1231912D01*
X1092200Y1090942D01*
X1092200Y1064258D01*
X1079500Y1051558D01*
X963930Y1231142D02*
X963930Y1240795D01*
X963930Y1231142D02*
X1104138Y1090934D01*
X1104138Y1077720D01*
X1104900Y1076958D01*
X962446Y1297004D02*
X952620Y1306830D01*
X962446Y1297004D02*
X962446Y1252429D01*
X963930Y1250945D01*
X1141730Y1240795D02*
X1141730Y1233170D01*
X1270000Y1104900D01*
X1270000Y1064258D01*
X1257300Y1051558D01*
X1140246Y1252429D02*
X1140246Y1297004D01*
X1140246Y1252429D02*
X1141730Y1250945D01*
X1140246Y1297004D02*
X1130420Y1306830D01*
X1244600Y1064258D02*
X1231900Y1051558D01*
X1116330Y1233182D02*
X1116330Y1240795D01*
X1116330Y1233182D02*
X1244600Y1104912D01*
X1244600Y1064258D01*
X1114846Y1297004D02*
X1105020Y1306830D01*
X1114846Y1297004D02*
X1114846Y1252429D01*
X1116330Y1250945D01*
X1090930Y1240795D02*
X1090930Y1233170D01*
X1219200Y1104900D01*
X1219200Y1064258D01*
X1206500Y1051558D01*
X1089446Y1297004D02*
X1079620Y1306830D01*
X1089446Y1297004D02*
X1089446Y1252429D01*
X1090930Y1250945D01*
X1065530Y1240795D02*
X1065530Y1233182D01*
X1193800Y1104912D01*
X1193800Y1064258D01*
X1181100Y1051558D01*
X1064046Y1297004D02*
X1054220Y1306830D01*
X1064046Y1297004D02*
X1064046Y1252429D01*
X1065530Y1250945D01*
X1040130Y1240795D02*
X1040130Y1233170D01*
X1168400Y1104900D01*
X1168400Y1064258D01*
X1155700Y1051558D01*
X1038646Y1297004D02*
X1028820Y1306830D01*
X1038646Y1297004D02*
X1038646Y1252429D01*
X1040130Y1250945D01*
X1014730Y1240795D02*
X1014730Y1233182D01*
X1143000Y1104912D01*
X1143000Y1064258D01*
X1130300Y1051558D01*
X1013246Y1297004D02*
X1003420Y1306830D01*
X1013246Y1297004D02*
X1013246Y1252429D01*
X1014730Y1250945D01*
X1536700Y1094745D02*
X1536700Y607058D01*
X1409700Y480058D01*
X1485900Y1249675D02*
X1485900Y1282700D01*
X1485900Y1145545D02*
X1536700Y1094745D01*
X1485900Y1145545D02*
X1485900Y1239525D01*
X1282700Y1249675D02*
X1282700Y1282700D01*
X1282700Y1145545D02*
X1320800Y1107445D01*
X1282700Y1145545D02*
X1282700Y1239525D01*
X1320800Y1107445D02*
X1320800Y1064260D01*
X1308100Y1051560D01*
X1308100Y1051558D01*
X1498600Y1094745D02*
X1498600Y657858D01*
X1409700Y568958D01*
X1447800Y1295400D02*
X1435100Y1308100D01*
X1447800Y1295400D02*
X1447800Y1249675D01*
X1447800Y1145545D02*
X1498600Y1094745D01*
X1447800Y1145545D02*
X1447800Y1239525D01*
X1511300Y1094745D02*
X1511300Y632458D01*
X1409700Y530858D01*
X1460500Y1249675D02*
X1460500Y1282700D01*
X1460500Y1145545D02*
X1511300Y1094745D01*
X1460500Y1145545D02*
X1460500Y1239525D01*
X1473200Y683258D02*
X1409700Y619758D01*
X1473200Y683258D02*
X1473200Y1094745D01*
X1422400Y1295400D02*
X1409700Y1308100D01*
X1422400Y1295400D02*
X1422400Y1249675D01*
X1422400Y1145545D02*
X1473200Y1094745D01*
X1422400Y1145545D02*
X1422400Y1239525D01*
X1447800Y1094745D02*
X1447800Y708658D01*
X1409700Y670558D01*
X1397000Y1295400D02*
X1384300Y1308100D01*
X1397000Y1295400D02*
X1397000Y1249675D01*
X1397000Y1145545D02*
X1447800Y1094745D01*
X1397000Y1145545D02*
X1397000Y1239525D01*
X1270000Y1295400D02*
X1257300Y1308100D01*
X1270000Y1295400D02*
X1270000Y1249675D01*
X1270000Y1145545D02*
X1308100Y1107445D01*
X1270000Y1145545D02*
X1270000Y1239525D01*
X1308100Y1107445D02*
X1308100Y1076958D01*
X1244600Y1270000D02*
X1231900Y1282700D01*
X1244600Y1270000D02*
X1244600Y1249675D01*
X1244600Y1145545D02*
X1282700Y1107445D01*
X1244600Y1145545D02*
X1244600Y1239525D01*
X1282700Y1107445D02*
X1282700Y1076958D01*
X1257300Y1249675D02*
X1257300Y1282700D01*
X1257300Y1145545D02*
X1295400Y1107445D01*
X1257300Y1145545D02*
X1257300Y1239525D01*
X1295400Y1107445D02*
X1295400Y1065530D01*
X1282700Y1052830D01*
X1282700Y1051558D01*
X1295400Y1295400D02*
X1282700Y1308100D01*
X1295400Y1295400D02*
X1295400Y1249675D01*
X1295400Y1145545D02*
X1333500Y1107445D01*
X1295400Y1145545D02*
X1295400Y1239525D01*
X1333500Y1107445D02*
X1333500Y1076958D01*
X1549400Y1094745D02*
X1549400Y594358D01*
X1409700Y454658D01*
X1498600Y1295400D02*
X1485900Y1308100D01*
X1498600Y1295400D02*
X1498600Y1249675D01*
X1498600Y1145545D02*
X1549400Y1094745D01*
X1498600Y1145545D02*
X1498600Y1239525D01*
X1397000Y1064258D02*
X1384300Y1051558D01*
X1358900Y1249675D02*
X1358900Y1282700D01*
X1358900Y1145545D02*
X1397000Y1107445D01*
X1358900Y1145545D02*
X1358900Y1239525D01*
X1397000Y1107445D02*
X1397000Y1064258D01*
X1524000Y1094745D02*
X1524000Y619758D01*
X1409700Y505458D01*
X1473200Y1295400D02*
X1460500Y1308100D01*
X1473200Y1295400D02*
X1473200Y1249675D01*
X1473200Y1145545D02*
X1524000Y1094745D01*
X1473200Y1145545D02*
X1473200Y1239525D01*
X1485900Y1094745D02*
X1485900Y670558D01*
X1409700Y594358D01*
X1435100Y1249675D02*
X1435100Y1282700D01*
X1435100Y1145545D02*
X1485900Y1094745D01*
X1435100Y1145545D02*
X1435100Y1239525D01*
X1435100Y721358D02*
X1409700Y695958D01*
X1435100Y721358D02*
X1435100Y1094745D01*
X1384300Y1249675D02*
X1384300Y1282700D01*
X1384300Y1145545D02*
X1435100Y1094745D01*
X1384300Y1145545D02*
X1384300Y1239525D01*
X1460500Y695958D02*
X1409700Y645158D01*
X1460500Y695958D02*
X1460500Y1094401D01*
X1409700Y1250019D02*
X1409700Y1282700D01*
X1409700Y1250019D02*
X1409356Y1249675D01*
X1409356Y1145545D02*
X1460500Y1094401D01*
X1409356Y1145545D02*
X1409356Y1239525D01*
X1320800Y1295400D02*
X1308100Y1308100D01*
X1320800Y1295400D02*
X1320800Y1249675D01*
X1320800Y1145545D02*
X1358900Y1107445D01*
X1320800Y1145545D02*
X1320800Y1239525D01*
X1358900Y1107445D02*
X1358900Y1076958D01*
X1308100Y1249675D02*
X1308100Y1282700D01*
X1308100Y1145545D02*
X1346200Y1107445D01*
X1308100Y1145545D02*
X1308100Y1239525D01*
X1346200Y1107445D02*
X1346200Y1062990D01*
X1334768Y1051558D01*
X1333500Y1051558D01*
X1333500Y1249675D02*
X1333500Y1282700D01*
X1333500Y1145545D02*
X1371600Y1107445D01*
X1333500Y1145545D02*
X1333500Y1239525D01*
X1371600Y1107445D02*
X1371600Y1064258D01*
X1358900Y1051558D01*
X1346200Y1295400D02*
X1333500Y1308100D01*
X1346200Y1295400D02*
X1346200Y1249675D01*
X1346200Y1145545D02*
X1384300Y1107445D01*
X1346200Y1145545D02*
X1346200Y1239525D01*
X1384300Y1107445D02*
X1384300Y1076958D01*
X698500Y1089660D02*
X698500Y698500D01*
X647700Y647700D01*
X660400Y1261831D02*
X660400Y1282700D01*
X660400Y1261831D02*
X648245Y1249675D01*
X647700Y1249675D01*
X647700Y1239525D02*
X647700Y1140460D01*
X698500Y1089660D01*
X685800Y1089660D02*
X685800Y711200D01*
X647700Y673100D01*
X644826Y1298274D02*
X635000Y1308100D01*
X644826Y1298274D02*
X644826Y1258957D01*
X635545Y1249675D01*
X635000Y1249675D01*
X635000Y1239525D02*
X635000Y1140460D01*
X685800Y1089660D01*
X584200Y1261831D02*
X584200Y1282700D01*
X584200Y1261831D02*
X572045Y1249675D01*
X571500Y1249675D01*
X571500Y1239525D02*
X571500Y1140729D01*
X608584Y1065784D02*
X596900Y1054100D01*
X608584Y1103645D02*
X571500Y1140729D01*
X608584Y1103645D02*
X608584Y1065784D01*
X594026Y1298274D02*
X584200Y1308100D01*
X594026Y1298274D02*
X594026Y1258957D01*
X584745Y1249675D01*
X584200Y1249675D01*
X622005Y1079795D02*
X622300Y1079500D01*
X584200Y1141229D02*
X584200Y1239525D01*
X622005Y1103425D02*
X622005Y1079795D01*
X622005Y1103425D02*
X584200Y1141229D01*
X546100Y1270000D02*
X558800Y1282700D01*
X546100Y1270000D02*
X546100Y1249675D01*
X583184Y1065784D02*
X571500Y1054100D01*
X546100Y1142268D02*
X546100Y1239525D01*
X546100Y1142268D02*
X583184Y1105184D01*
X583184Y1065784D01*
X568626Y1298274D02*
X558800Y1308100D01*
X568626Y1298274D02*
X568626Y1258957D01*
X559345Y1249675D01*
X558800Y1249675D01*
X558800Y1239525D02*
X558800Y1141498D01*
X596900Y1103398D01*
X596900Y1079500D01*
X609600Y1261831D02*
X609600Y1282700D01*
X609600Y1261831D02*
X597445Y1249675D01*
X596900Y1249675D01*
X596900Y1239525D02*
X596900Y1140460D01*
X633984Y1103376D01*
X633984Y1065784D01*
X622300Y1054100D01*
X673100Y1090429D02*
X673100Y723900D01*
X647700Y698500D01*
X635000Y1261831D02*
X635000Y1282700D01*
X635000Y1261831D02*
X622845Y1249675D01*
X622300Y1249675D01*
X622300Y1239525D02*
X622300Y1141229D01*
X673100Y1090429D01*
X520700Y1295400D02*
X533400Y1308100D01*
X520700Y1295400D02*
X520700Y1249675D01*
X520700Y1239525D02*
X520700Y1143037D01*
X554374Y1109364D01*
X558800Y1066800D02*
X546100Y1054100D01*
X558800Y1066800D02*
X558800Y1104937D01*
X554374Y1109364D01*
X508000Y1249675D02*
X508000Y1282700D01*
X508000Y1239525D02*
X508000Y1144576D01*
X546100Y1106476D01*
X546100Y1079500D01*
X495300Y1295400D02*
X508000Y1308100D01*
X495300Y1295400D02*
X495300Y1249675D01*
X495300Y1239525D02*
X495300Y1144076D01*
X532384Y1065784D02*
X520700Y1054100D01*
X532384Y1106991D02*
X495300Y1144076D01*
X532384Y1106991D02*
X532384Y1065784D01*
X482600Y1249675D02*
X482600Y1282700D01*
X482600Y1239525D02*
X482600Y1144845D01*
X520700Y1106745D02*
X520700Y1079500D01*
X520700Y1106745D02*
X482600Y1144845D01*
X533400Y1249675D02*
X533400Y1282700D01*
X571500Y1104900D02*
X571500Y1079500D01*
X571500Y1104900D02*
X533400Y1143000D01*
X533400Y1239525D01*
X711200Y1089660D02*
X711200Y685800D01*
X647700Y622300D01*
X670226Y1298274D02*
X660400Y1308100D01*
X670226Y1298274D02*
X670226Y1258957D01*
X660945Y1249675D01*
X660400Y1249675D01*
X660400Y1239525D02*
X660400Y1140460D01*
X711200Y1089660D01*
X723900Y1089660D02*
X723900Y673100D01*
X647700Y596900D01*
X685800Y1261831D02*
X685800Y1282700D01*
X685800Y1261831D02*
X673645Y1249675D01*
X673100Y1249675D01*
X673100Y1239525D02*
X673100Y1140460D01*
X723900Y1089660D01*
X736600Y1089660D02*
X736600Y660400D01*
X647700Y571500D01*
X695626Y1298274D02*
X685800Y1308100D01*
X695626Y1298274D02*
X695626Y1258957D01*
X686345Y1249675D01*
X685800Y1249675D01*
X685800Y1239525D02*
X685800Y1140460D01*
X736600Y1089660D01*
X749300Y1089660D02*
X749300Y635000D01*
X647700Y533400D01*
X711200Y1261831D02*
X711200Y1282700D01*
X711200Y1261831D02*
X699045Y1249675D01*
X698500Y1249675D01*
X698500Y1239525D02*
X698500Y1140460D01*
X749300Y1089660D01*
X787400Y1089660D02*
X787400Y596900D01*
X647700Y457200D01*
X746426Y1298274D02*
X736600Y1308100D01*
X746426Y1298274D02*
X746426Y1258957D01*
X737145Y1249675D01*
X736600Y1249675D01*
X736600Y1239525D02*
X736600Y1140460D01*
X787400Y1089660D01*
X774700Y1089660D02*
X774700Y609600D01*
X647700Y482600D01*
X736600Y1261831D02*
X736600Y1282700D01*
X736600Y1261831D02*
X724445Y1249675D01*
X723900Y1249675D01*
X723900Y1239525D02*
X723900Y1140460D01*
X774700Y1089660D01*
X762000Y1089660D02*
X762000Y622300D01*
X647700Y508000D01*
X721026Y1298274D02*
X711200Y1308100D01*
X721026Y1298274D02*
X721026Y1258957D01*
X711745Y1249675D01*
X711200Y1249675D01*
X711200Y1239525D02*
X711200Y1140460D01*
X762000Y1089660D01*
X279400Y1092200D02*
X152744Y1218856D01*
X279400Y1092200D02*
X279400Y1066800D01*
X266700Y1054100D01*
X152744Y1218856D02*
X152744Y1239525D01*
X152400Y1250019D02*
X152400Y1282700D01*
X152400Y1250019D02*
X152744Y1249675D01*
X266700Y1092969D02*
X266700Y1079500D01*
X139700Y1219969D02*
X139700Y1239525D01*
X139700Y1219969D02*
X266700Y1092969D01*
X139700Y1295400D02*
X127000Y1308100D01*
X139700Y1295400D02*
X139700Y1249675D01*
X254000Y1066800D02*
X241300Y1054100D01*
X254000Y1095746D02*
X127503Y1222243D01*
X254000Y1095746D02*
X254000Y1066800D01*
X127503Y1239022D02*
X127000Y1239525D01*
X127503Y1239022D02*
X127503Y1222243D01*
X127000Y1249675D02*
X127000Y1282700D01*
X242024Y1080224D02*
X241300Y1079500D01*
X242024Y1094521D02*
X114300Y1222246D01*
X242024Y1094521D02*
X242024Y1080224D01*
X114300Y1222246D02*
X114300Y1239525D01*
X114300Y1295400D02*
X101600Y1308100D01*
X114300Y1295400D02*
X114300Y1249675D01*
X165100Y1219200D02*
X292100Y1092200D01*
X292100Y1079500D01*
X165100Y1219200D02*
X165100Y1239525D01*
X165100Y1295400D02*
X152400Y1308100D01*
X165100Y1295400D02*
X165100Y1249675D01*
X381000Y1104900D02*
X381000Y1064274D01*
X370826Y1054100D01*
X368300Y1054100D01*
X381000Y1104900D02*
X266700Y1219200D01*
X266700Y1239525D01*
X266700Y1295400D02*
X254000Y1308100D01*
X266700Y1295400D02*
X266700Y1249675D01*
X342900Y1089969D02*
X342900Y1079500D01*
X215900Y1216969D02*
X215900Y1239525D01*
X215900Y1216969D02*
X342900Y1089969D01*
X215900Y1295400D02*
X203200Y1308100D01*
X215900Y1295400D02*
X215900Y1249675D01*
X203200Y1219200D02*
X330200Y1092200D01*
X330200Y1066800D01*
X317500Y1054100D01*
X203200Y1219200D02*
X203200Y1239525D01*
X203200Y1249675D02*
X203200Y1282700D01*
X190500Y1219200D02*
X317500Y1092200D01*
X317500Y1079500D01*
X190500Y1219200D02*
X190500Y1239525D01*
X190500Y1295400D02*
X177800Y1308100D01*
X190500Y1295400D02*
X190500Y1249675D01*
X177800Y1219200D02*
X304800Y1092200D01*
X304800Y1066800D01*
X292100Y1054100D01*
X177800Y1219200D02*
X177800Y1239525D01*
X177800Y1249675D02*
X177800Y1282700D01*
X241300Y1219200D02*
X354584Y1105916D01*
X354584Y1065784D01*
X342900Y1054100D01*
X241300Y1219200D02*
X241300Y1239525D01*
X241300Y1295400D02*
X228600Y1308100D01*
X241300Y1295400D02*
X241300Y1249675D01*
X254000Y1219200D02*
X368300Y1104900D01*
X368300Y1079500D01*
X254000Y1219200D02*
X254000Y1239525D01*
X254000Y1249675D02*
X254000Y1282700D01*
X393700Y1219200D02*
X508254Y1104646D01*
X508254Y1067054D01*
X495300Y1054100D01*
X393700Y1295400D02*
X381000Y1308100D01*
X393700Y1295400D02*
X393700Y1249675D01*
X393700Y1239525D02*
X393700Y1219200D01*
X368300Y1219200D02*
X482600Y1104900D01*
X482600Y1066814D01*
X469900Y1054114D01*
X469900Y1054100D01*
X368300Y1295400D02*
X355600Y1308100D01*
X368300Y1295400D02*
X368300Y1249675D01*
X368300Y1239525D02*
X368300Y1219200D01*
X342900Y1219200D02*
X457454Y1104646D01*
X457454Y1067054D01*
X444500Y1054100D01*
X342900Y1295400D02*
X330200Y1308100D01*
X342900Y1295400D02*
X342900Y1249675D01*
X342900Y1239525D02*
X342900Y1219200D01*
X317500Y1219200D02*
X431800Y1104900D01*
X431800Y1066814D01*
X419100Y1054114D01*
X419100Y1054100D01*
X317500Y1295400D02*
X304800Y1308100D01*
X317500Y1295400D02*
X317500Y1249675D01*
X317500Y1239525D02*
X317500Y1219200D01*
X292100Y1219200D02*
X406400Y1104900D01*
X406400Y1066814D01*
X393700Y1054114D01*
X393700Y1054100D01*
X292100Y1295400D02*
X279400Y1308100D01*
X292100Y1295400D02*
X292100Y1249675D01*
X292100Y1239525D02*
X292100Y1219200D01*
X279400Y1219200D02*
X393700Y1104900D01*
X393700Y1079500D01*
X279400Y1219200D02*
X279400Y1239525D01*
X279400Y1249675D02*
X279400Y1282700D01*
X304800Y1219200D02*
X419100Y1104900D01*
X419100Y1079500D01*
X304800Y1219200D02*
X304800Y1239525D01*
X304800Y1249675D02*
X304800Y1282700D01*
X330200Y1219200D02*
X444500Y1104900D01*
X444500Y1079500D01*
X330200Y1219200D02*
X330200Y1239525D01*
X330200Y1249675D02*
X330200Y1282700D01*
X355600Y1219200D02*
X469900Y1104900D01*
X469900Y1079500D01*
X355600Y1219200D02*
X355600Y1239525D01*
X355600Y1249675D02*
X355600Y1282700D01*
X495300Y1104900D02*
X495300Y1079500D01*
X495300Y1104900D02*
X381000Y1219200D01*
X381000Y1239525D01*
X381000Y1249675D02*
X381000Y1282700D01*
M02*
