G04 EAGLE Gerber RS-274X export*
G75*
%MOMM*%
%FSLAX34Y34*%
%LPD*%
%INSoldermask Bottom*%
%IPPOS*%
%AMOC8*
5,1,8,0,0,1.08239X$1,22.5*%
G01*
G04 Define Apertures*
%ADD10C,4.203200*%
%ADD11C,2.082800*%
%ADD12P,2.2544X8X22.5*%
%ADD13R,1.711200X1.711200*%
%ADD14C,1.711200*%
%ADD15C,0.959600*%
D10*
X50800Y50800D03*
X1549400Y50800D03*
X50800Y1346200D03*
X1549400Y1346200D03*
D11*
X165100Y876300D03*
X165100Y901700D03*
X165100Y927100D03*
X165100Y952500D03*
X165100Y977900D03*
X165100Y1003300D03*
X165100Y1028700D03*
X165100Y850900D03*
X647700Y825500D03*
X647700Y850900D03*
X647700Y876300D03*
X647700Y901700D03*
X647700Y927100D03*
X647700Y952500D03*
X647700Y977900D03*
X647700Y800100D03*
X165100Y647700D03*
X165100Y673100D03*
X165100Y698500D03*
X165100Y723900D03*
X165100Y749300D03*
X165100Y774700D03*
X165100Y800100D03*
X165100Y622300D03*
X647700Y596900D03*
X647700Y622300D03*
X647700Y647700D03*
X647700Y673100D03*
X647700Y698500D03*
X647700Y723900D03*
X647700Y749300D03*
X647700Y571500D03*
X647700Y381000D03*
X647700Y406400D03*
X647700Y431800D03*
X647700Y457200D03*
X647700Y482600D03*
X647700Y508000D03*
X647700Y533400D03*
X647700Y355600D03*
D12*
X444500Y1079500D03*
X444500Y1054100D03*
X469900Y1079500D03*
X469900Y1054100D03*
X495300Y1079500D03*
X495300Y1054100D03*
X520700Y1079500D03*
X520700Y1054100D03*
X546100Y1079500D03*
X546100Y1054100D03*
X571500Y1079500D03*
X571500Y1054100D03*
X596900Y1079500D03*
X596900Y1054100D03*
X622300Y1079500D03*
X622300Y1054100D03*
X241300Y1079500D03*
X241300Y1054100D03*
X266700Y1079500D03*
X266700Y1054100D03*
X292100Y1079500D03*
X292100Y1054100D03*
X317500Y1079500D03*
X317500Y1054100D03*
X342900Y1079500D03*
X342900Y1054100D03*
X368300Y1079500D03*
X368300Y1054100D03*
X393700Y1079500D03*
X393700Y1054100D03*
X419100Y1079500D03*
X419100Y1054100D03*
D11*
X215900Y1054100D03*
X215900Y1079500D03*
X647700Y1054100D03*
X647700Y1079500D03*
X165100Y444500D03*
X165100Y469900D03*
X165100Y495300D03*
X165100Y520700D03*
X165100Y546100D03*
X165100Y571500D03*
X647700Y330200D03*
X647700Y304800D03*
X165100Y419100D03*
X165100Y393700D03*
X927100Y873758D03*
X927100Y899158D03*
X927100Y924558D03*
X927100Y949958D03*
X927100Y975358D03*
X927100Y1000758D03*
X927100Y1026158D03*
X927100Y848358D03*
X1409700Y822958D03*
X1409700Y848358D03*
X1409700Y873758D03*
X1409700Y899158D03*
X1409700Y924558D03*
X1409700Y949958D03*
X1409700Y975358D03*
X1409700Y797558D03*
X927100Y645158D03*
X927100Y670558D03*
X927100Y695958D03*
X927100Y721358D03*
X927100Y746758D03*
X927100Y772158D03*
X927100Y797558D03*
X927100Y619758D03*
X1409700Y594358D03*
X1409700Y619758D03*
X1409700Y645158D03*
X1409700Y670558D03*
X1409700Y695958D03*
X1409700Y721358D03*
X1409700Y746758D03*
X1409700Y568958D03*
X1409700Y378458D03*
X1409700Y403858D03*
X1409700Y429258D03*
X1409700Y454658D03*
X1409700Y480058D03*
X1409700Y505458D03*
X1409700Y530858D03*
X1409700Y353058D03*
D12*
X1206500Y1076958D03*
X1206500Y1051558D03*
X1231900Y1076958D03*
X1231900Y1051558D03*
X1257300Y1076958D03*
X1257300Y1051558D03*
X1282700Y1076958D03*
X1282700Y1051558D03*
X1308100Y1076958D03*
X1308100Y1051558D03*
X1333500Y1076958D03*
X1333500Y1051558D03*
X1358900Y1076958D03*
X1358900Y1051558D03*
X1384300Y1076958D03*
X1384300Y1051558D03*
X1003300Y1076958D03*
X1003300Y1051558D03*
X1028700Y1076958D03*
X1028700Y1051558D03*
X1054100Y1076958D03*
X1054100Y1051558D03*
X1079500Y1076958D03*
X1079500Y1051558D03*
X1104900Y1076958D03*
X1104900Y1051558D03*
X1130300Y1076958D03*
X1130300Y1051558D03*
X1155700Y1076958D03*
X1155700Y1051558D03*
X1181100Y1076958D03*
X1181100Y1051558D03*
D11*
X977900Y1051558D03*
X977900Y1076958D03*
X1409700Y1051558D03*
X1409700Y1076958D03*
X927100Y441958D03*
X927100Y467358D03*
X927100Y492758D03*
X927100Y518158D03*
X927100Y543558D03*
X927100Y568958D03*
X1409700Y327658D03*
X1409700Y302258D03*
X927100Y416558D03*
X927100Y391158D03*
D13*
X457200Y1282700D03*
D14*
X457200Y1308100D03*
X482600Y1282700D03*
X482600Y1308100D03*
X508000Y1282700D03*
X508000Y1308100D03*
X533400Y1282700D03*
X533400Y1308100D03*
X558800Y1282700D03*
X558800Y1308100D03*
X584200Y1282700D03*
X584200Y1308100D03*
X609600Y1282700D03*
X609600Y1308100D03*
X635000Y1282700D03*
X635000Y1308100D03*
X660400Y1282700D03*
X660400Y1308100D03*
X685800Y1282700D03*
X685800Y1308100D03*
X711200Y1282700D03*
X711200Y1308100D03*
X736600Y1282700D03*
X736600Y1308100D03*
D13*
X1206500Y1282700D03*
D14*
X1206500Y1308100D03*
X1231900Y1282700D03*
X1231900Y1308100D03*
X1257300Y1282700D03*
X1257300Y1308100D03*
X1282700Y1282700D03*
X1282700Y1308100D03*
X1308100Y1282700D03*
X1308100Y1308100D03*
X1333500Y1282700D03*
X1333500Y1308100D03*
X1358900Y1282700D03*
X1358900Y1308100D03*
X1384300Y1282700D03*
X1384300Y1308100D03*
X1409700Y1282700D03*
X1409700Y1308100D03*
X1435100Y1282700D03*
X1435100Y1308100D03*
X1460500Y1282700D03*
X1460500Y1308100D03*
X1485900Y1282700D03*
X1485900Y1308100D03*
D13*
X1130420Y1306830D03*
D14*
X1130420Y1281430D03*
X1105020Y1306830D03*
X1105020Y1281430D03*
X1079620Y1306830D03*
X1079620Y1281430D03*
X1054220Y1306830D03*
X1054220Y1281430D03*
X1028820Y1306830D03*
X1028820Y1281430D03*
X1003420Y1306830D03*
X1003420Y1281430D03*
X978020Y1306830D03*
X978020Y1281430D03*
X952620Y1306830D03*
X952620Y1281430D03*
X927220Y1306830D03*
X927220Y1281430D03*
X901820Y1306830D03*
X901820Y1281430D03*
X876420Y1306830D03*
X876420Y1281430D03*
X851020Y1306830D03*
X851020Y1281430D03*
D13*
X381000Y1308100D03*
D14*
X381000Y1282700D03*
X355600Y1308100D03*
X355600Y1282700D03*
X330200Y1308100D03*
X330200Y1282700D03*
X304800Y1308100D03*
X304800Y1282700D03*
X279400Y1308100D03*
X279400Y1282700D03*
X254000Y1308100D03*
X254000Y1282700D03*
X228600Y1308100D03*
X228600Y1282700D03*
X203200Y1308100D03*
X203200Y1282700D03*
X177800Y1308100D03*
X177800Y1282700D03*
X152400Y1308100D03*
X152400Y1282700D03*
X127000Y1308100D03*
X127000Y1282700D03*
X101600Y1308100D03*
X101600Y1282700D03*
D15*
X228600Y1217930D03*
X609600Y1219200D03*
X1371600Y1219200D03*
X995680Y1214120D03*
M02*
