M48
;GenerationSoftware,Autodesk,EAGLE,9.7.0*%
;CreationDate,2025-08-27T21:38:23Z*%
FMAT,2
ICI,OFF
METRIC,TZ,000.000
T4C0.350
T3C1.000
T2C1.016
T1C4.000
%
G90
M71
T1
X5080Y5080
X154940Y5080
X5080Y134620
X154940Y134620
T2
X64770Y64770
X140970Y32766
X140970Y30226
X92710Y41656
X16510Y87630
X16510Y90170
X16510Y92710
X16510Y95250
X16510Y97790
X16510Y100330
X16510Y102870
X16510Y85090
X64770Y82550
X64770Y85090
X64770Y87630
X64770Y90170
X64770Y92710
X64770Y95250
X64770Y97790
X64770Y80010
X16510Y64770
X16510Y67310
X16510Y69850
X16510Y72390
X16510Y74930
X16510Y77470
X16510Y80010
X16510Y62230
X64770Y59690
X64770Y62230
X29210Y107950
X64770Y67310
X64770Y69850
X64770Y72390
X64770Y74930
X64770Y57150
X64770Y38100
X64770Y40640
X64770Y43180
X64770Y45720
X64770Y48260
X64770Y50800
X64770Y53340
X64770Y35560
X44450Y107950
X44450Y105410
X46990Y107950
X46990Y105410
X49530Y107950
X49530Y105410
X52070Y107950
X52070Y105410
X54610Y107950
X54610Y105410
X57150Y107950
X57150Y105410
X59690Y107950
X59690Y105410
X62230Y107950
X62230Y105410
X24130Y107950
X24130Y105410
X26670Y107950
X26670Y105410
X92710Y39116
X29210Y105410
X31750Y107950
X31750Y105410
X34290Y107950
X34290Y105410
X36830Y107950
X36830Y105410
X39370Y107950
X39370Y105410
X41910Y107950
X41910Y105410
X21590Y105410
X21590Y107950
X64770Y105410
X64770Y107950
X16510Y44450
X16510Y46990
X16510Y49530
X16510Y52070
X16510Y54610
X16510Y57150
X64770Y33020
X64770Y30480
X16510Y41910
X16510Y39370
X92710Y87376
X92710Y89916
X92710Y92456
X92710Y94996
X92710Y97536
X92710Y100076
X92710Y102616
X92710Y84836
X140970Y82296
X140970Y84836
X140970Y87376
X140970Y89916
X140970Y92456
X140970Y94996
X140970Y97536
X140970Y79756
X92710Y64516
X92710Y67056
X92710Y69596
X92710Y72136
X92710Y74676
X92710Y77216
X92710Y79756
X92710Y61976
X140970Y59436
X140970Y61976
X140970Y64516
X140970Y67056
X140970Y69596
X140970Y72136
X140970Y74676
X140970Y56896
X140970Y37846
X140970Y40386
X140970Y42926
X140970Y45466
X140970Y48006
X140970Y50546
X140970Y53086
X140970Y35306
X120650Y107696
X120650Y105156
X123190Y107696
X123190Y105156
X125730Y107696
X125730Y105156
X128270Y107696
X128270Y105156
X130810Y107696
X130810Y105156
X133350Y107696
X133350Y105156
X135890Y107696
X135890Y105156
X138430Y107696
X138430Y105156
X100330Y107696
X100330Y105156
X102870Y107696
X102870Y105156
X105410Y107696
X105410Y105156
X107950Y107696
X107950Y105156
X110490Y107696
X110490Y105156
X113030Y107696
X113030Y105156
X115570Y107696
X115570Y105156
X118110Y107696
X118110Y105156
X97790Y105156
X97790Y107696
X140970Y105156
X140970Y107696
X92710Y44196
X92710Y46736
X92710Y49276
X92710Y51816
X92710Y54356
X92710Y56896
T3
X55880Y128270
X12700Y130810
X12700Y128270
X10160Y130810
X45720Y128270
X45720Y130810
X48260Y128270
X48260Y130810
X50800Y128270
X50800Y130810
X53340Y128270
X53340Y130810
X71120Y128270
X55880Y130810
X58420Y128270
X58420Y130810
X60960Y128270
X60960Y130810
X63500Y128270
X63500Y130810
X66040Y128270
X66040Y130810
X68580Y128270
X68580Y130810
X10160Y128270
X71120Y130810
X73660Y128270
X73660Y130810
X120650Y128270
X120650Y130810
X123190Y128270
X123190Y130810
X125730Y128270
X125730Y130810
X128270Y128270
X128270Y130810
X130810Y128270
X130810Y130810
X133350Y128270
X133350Y130810
X135890Y128270
X135890Y130810
X138430Y128270
X138430Y130810
X140970Y128270
X140970Y130810
X143510Y128270
X143510Y130810
X146050Y128270
X146050Y130810
X148590Y128270
X148590Y130810
X113042Y130683
X113042Y128143
X110502Y130683
X110502Y128143
X107962Y130683
X107962Y128143
X105422Y130683
X105422Y128143
X102882Y130683
X102882Y128143
X100342Y130683
X100342Y128143
X97802Y130683
X97802Y128143
X95262Y130683
X95262Y128143
X92722Y130683
X92722Y128143
X90182Y130683
X90182Y128143
X87642Y130683
X87642Y128143
X85102Y130683
X85102Y128143
X38100Y130810
X38100Y128270
X35560Y130810
X35560Y128270
X33020Y130810
X33020Y128270
X30480Y130810
X30480Y128270
X27940Y130810
X27940Y128270
X25400Y130810
X25400Y128270
X22860Y130810
X22860Y128270
X20320Y130810
X20320Y128270
X17780Y130810
X17780Y128270
X15240Y130810
X15240Y128270
T4
X137160Y121920
X99568Y121412
X22860Y121793
X60960Y121920
M30