M48
;GenerationSoftware,Autodesk,EAGLE,9.7.0*%
;CreationDate,2025-08-27T21:36:59Z*%
FMAT,2
ICI,OFF
METRIC,TZ,000.000
T4C0.350
T3C1.000
T2C1.040
T1C4.000
%
G90
M71
T1
X4850Y97850
X4850Y10350
X177600Y10350
X177600Y97850
X91250Y113850
T2
X111601Y119888
X13951Y125003
X13951Y122463
X13951Y119923
X16491Y125003
X16491Y122463
X16491Y119923
X19031Y125003
X19031Y122463
X19031Y119923
X21571Y125003
X21571Y122463
X21571Y119923
X24111Y125003
X24111Y122463
X24111Y119923
X26651Y125003
X26651Y122463
X26651Y119923
X29191Y125003
X29191Y122463
X29191Y119923
X31731Y125003
X31731Y122463
X31731Y119923
X34271Y125003
X34271Y122463
X34271Y119923
X36811Y125003
X36811Y122463
X36811Y119923
X39351Y125003
X39351Y122463
X39351Y119923
X41891Y125003
X41891Y122463
X41891Y119923
X44431Y125003
X44431Y122463
X44431Y119923
X46971Y125003
X46971Y122463
X46971Y119923
X49511Y125003
X49511Y122463
X49511Y119923
X52051Y125003
X52051Y122463
X52051Y119923
X54591Y125003
X54591Y122463
X54591Y119923
X57131Y125003
X57131Y122463
X57131Y119923
X59671Y125003
X59671Y122463
X59671Y119923
X62211Y125003
X62211Y122463
X62211Y119923
X64751Y125003
X64751Y122463
X64751Y119923
X67291Y125003
X67291Y122463
X67291Y119923
X69831Y125003
X69831Y122463
X69831Y119923
X72371Y125003
X72371Y122463
X72371Y119923
X74911Y125003
X74911Y122463
X74911Y119923
X77451Y125003
X77451Y122463
X77451Y119923
X79991Y125003
X79991Y122463
X79991Y119923
X82531Y125003
X82531Y122463
X82531Y119923
X85071Y125003
X85071Y122463
X85071Y119923
X87611Y125003
X87611Y122463
X87611Y119923
X90151Y125003
X90151Y122463
X90151Y119923
X92691Y125003
X92691Y122463
X92691Y119923
X162401Y122428
X162401Y119888
X164941Y124968
X164941Y122428
X164941Y119888
X167481Y124968
X167481Y122428
X167481Y119888
X170021Y124968
X170021Y122428
X170021Y119888
X172561Y124968
X172561Y122428
X172561Y119888
X175101Y124968
X175101Y122428
X175101Y119888
X177641Y124968
X177641Y122428
X177641Y119888
X121761Y124968
X98901Y124968
X98901Y122428
X98901Y119888
X101441Y124968
X101441Y122428
X101441Y119888
X103981Y124968
X103981Y122428
X103981Y119888
X106521Y124968
X106521Y122428
X106521Y119888
X109061Y124968
X109061Y122428
X109061Y119888
X111601Y124968
X111601Y122428
X114141Y124968
X114141Y122428
X114141Y119888
X116681Y124968
X116681Y122428
X116681Y119888
X119221Y124968
X119221Y122428
X119221Y119888
X121761Y122428
X121761Y119888
X124301Y124968
X124301Y122428
X124301Y119888
X126841Y124968
X126841Y122428
X126841Y119888
X129381Y124968
X129381Y122428
X129381Y119888
X131921Y124968
X131921Y122428
X131921Y119888
X134461Y124968
X134461Y122428
X134461Y119888
X137001Y124968
X137001Y122428
X137001Y119888
X139541Y124968
X139541Y122428
X139541Y119888
X142081Y124968
X142081Y122428
X142081Y119888
X144621Y124968
X144621Y122428
X144621Y119888
X147161Y124968
X147161Y122428
X147161Y119888
X149701Y124968
X149701Y122428
X149701Y119888
X152241Y124968
X152241Y122428
X152241Y119888
X154781Y124968
X154781Y122428
X154781Y119888
X157321Y124968
X157321Y122428
X157321Y119888
X159861Y124968
X159861Y122428
X159861Y119888
X162401Y124968
T3
X65517Y8068
X65517Y10608
X62977Y8068
X62977Y10608
X60437Y8068
X60437Y10608
X57897Y8068
X57897Y10608
X55357Y8068
X55357Y10608
X52817Y8068
X52817Y10608
X50277Y8068
X50277Y10608
X47737Y8068
X47737Y10608
X45197Y8068
X45197Y10608
X42657Y8068
X42657Y10608
X37577Y10608
X40117Y10608
X37577Y8068
X40117Y8068
X139954Y8068
X139954Y10608
X137414Y8068
X137414Y10608
X134874Y8068
X134874Y10608
X132334Y8068
X132334Y10608
X129794Y8068
X129794Y10608
X127254Y8068
X127254Y10608
X124714Y8068
X124714Y10608
X122174Y8068
X122174Y10608
X119634Y8068
X119634Y10608
X117094Y8068
X117094Y10608
X114554Y8068
X114554Y10608
X112014Y8068
X112014Y10608
T4
X43359Y89483
X27305Y90348
X43358Y90392
X58801Y90222
X74255Y90279
X11005Y90243
X89436Y90204
X49473Y92280
X79896Y92280
X2193Y91397
X16863Y91995
X33496Y92280
X64850Y92280
X17526Y92887
X50588Y92929
X80508Y92954
X34417Y92887
X1549Y92831
X65975Y92948
X42291Y82169
X26444Y82169
X58054Y82154
X73477Y82169
X10716Y82121
X88646Y82169
X11049Y75290
X27379Y75345
X89412Y75396
X58999Y75300
X74214Y75349
X43388Y75273
X11018Y76198
X27330Y76254
X89412Y76305
X43388Y76181
X58999Y76209
X74214Y76257
X64643Y77851
X17907Y77610
X3753Y76511
X79594Y77284
X49403Y77526
X34143Y77577
X50673Y78486
X66421Y78486
X3223Y77298
X80503Y77577
X35199Y78486
X18762Y78309
X10160Y66802
X88519Y68199
X26289Y68199
X42545Y68199
X58166Y68199
X73406Y68199
X17145Y83348
X67818Y68834
X52578Y68961
X36830Y68834
X19939Y68834
X162560Y39624
X85852Y54737
X162433Y54864
X130683Y54864
X115697Y54737
X100711Y54737
X100226Y39614
X114945Y39614
X130274Y39576
X146276Y54864
X146319Y39493
X85468Y39624
X33490Y83348
X3063Y80757
X82296Y68806
X4442Y68707
X48925Y83307
X64365Y83348
X79375Y83385
X89423Y44181
X89475Y59623
X91351Y42253
X91448Y57741
X95142Y40786
X95473Y55813
X97139Y42644
X97478Y57757
X99076Y44693
X99418Y59931
X103840Y60117
X103767Y44823
X105768Y58189
X105694Y42896
X107648Y56189
X107622Y40968
X111885Y57275
X111517Y41921
X113509Y43786
X113850Y59203
X117983Y60702
X118020Y45467
X119913Y58776
X120023Y43541
X121966Y41610
X121877Y56848
X126116Y41026
X126389Y56666
X128044Y42954
X128317Y58594
X129885Y44968
X130190Y60651
X134472Y59395
X134439Y44229
X136486Y42330
X136410Y57428
X140970Y56007
X141097Y40894
X142898Y57935
X143025Y42822
X144953Y44750
X144871Y59908
X149741Y60063
X149741Y44823
X151668Y58136
X151668Y42896
X153596Y56208
X153596Y40968
X158245Y57407
X158257Y42052
X160186Y59335
X160185Y43980
X165227Y45466
X165221Y60702
X167155Y43538
X167217Y58843
X169083Y41610
X169236Y56843
X173871Y56777
X173998Y41410
X175798Y58704
X175925Y43337
X177726Y60632
X177853Y45265
X88781Y44823
X88895Y60330
X90708Y42896
X90823Y58402
X92636Y40968
X92648Y56371
X96491Y42008
X96851Y57100
X98796Y59010
X98525Y43959
X103188Y60750
X103124Y45466
X105125Y58832
X105052Y43538
X107041Y56892
X106980Y41610
X111272Y56602
X110811Y41342
X112866Y43143
X113208Y58560
X115031Y60702
X114726Y45138
X83383Y87325
X119304Y44181
X121323Y42253
X121239Y57496
X125473Y40383
X125746Y56023
X127401Y42311
X127674Y57951
X129313Y44254
X129583Y59898
X133764Y60038
X133871Y44945
X135843Y42973
X135728Y58070
X137771Y41045
X137718Y56124
X142255Y57292
X142382Y42179
X144310Y44107
X144274Y59220
X149098Y60706
X149098Y45466
X151026Y58778
X151026Y43538
X152954Y56850
X152954Y41610
X157602Y56764
X157615Y41410
X159532Y58692
X159542Y43337
X161623Y60607
X161470Y45265
X166512Y44181
X166575Y59485
X168440Y42253
X168570Y57624
X173228Y56134
X173355Y40767
X175156Y58062
X175283Y42695
X177084Y59990
X177211Y44623
X88102Y45466
X88066Y60785
X90066Y43538
X90181Y59044
X91994Y41610
X92045Y57053
X95848Y41365
X96108Y56465
X97886Y43271
X98136Y58385
X99726Y45328
X100025Y60734
X104483Y59474
X104409Y44181
X106410Y57547
X106337Y42253
X110599Y55989
X110168Y40699
X112223Y42500
X112565Y57917
X114104Y44475
X114457Y59919
X118628Y60061
X118662Y44824
X120618Y58160
X120663Y42896
X122608Y40968
X122573Y56206
X126758Y41668
X127032Y57309
X128686Y43596
X128959Y59236
X133096Y60655
X133149Y45509
X135127Y58754
X135197Y43616
X137128Y41688
X137057Y56747
X141613Y56650
X141740Y41537
X143540Y58577
X143667Y43464
X145595Y45392
X145514Y60551
X150383Y59421
X150383Y44181
X152311Y57493
X152311Y42253
X156959Y56121
X156972Y40767
X158887Y58049
X158900Y42695
X160841Y59977
X160828Y44623
X165870Y44823
X165932Y60128
X167797Y42896
X167860Y58200
X169725Y40968
X169807Y56063
X174513Y57419
X174640Y42052
X176441Y59347
X176568Y43980
X171069Y53721
X108839Y53721
X123825Y53721
X139065Y53721
X154940Y53721
X93881Y53721
X102145Y64880
X86383Y64897
X117376Y64917
X132489Y65024
X148364Y65024
X163457Y64651
X162687Y64135
X85649Y64135
X100958Y64108
X115928Y64101
X131016Y64183
X147221Y64262
X125145Y62170
X140312Y62218
X156227Y62218
X172516Y62218
X95275Y62301
X110185Y62211
X125145Y61262
X140312Y61309
X156227Y61309
X172516Y61309
X95218Y61392
X110185Y61302
X108839Y38608
X123825Y38608
X139065Y38608
X154940Y38608
X170434Y38608
X94488Y37084
X87249Y49657
X163322Y49657
X148209Y49657
X102581Y49657
X117376Y49657
X132489Y49657
X85217Y48768
X116078Y49022
X101092Y49022
X131099Y49022
X146940Y49022
X164699Y49022
X156106Y47010
X140335Y47010
X125222Y47010
X110109Y47010
X95106Y47037
X172367Y47010
X156210Y46101
X140335Y46101
X125222Y46101
X110109Y46101
X95147Y46129
X172367Y46101
X27432Y91256
X58750Y91131
X74255Y91315
X10950Y91279
X88773Y77851
X27178Y77244
X74041Y77244
X80645Y78486
X65405Y78867
X49657Y78740
X34290Y78486
X18034Y78867
X35560Y65278
X50419Y65151
X65532Y65151
X80899Y65278
X18844Y65326
X10947Y77117
X3071Y79375
X163703Y50800
X86614Y50673
X86614Y34925
X116586Y50645
X131683Y50562
X101537Y50546
X109220Y63500
X124117Y63462
X139446Y63500
X147577Y50772
X171323Y63627
X163703Y35687
X109220Y48133
X124460Y48133
X171450Y48133
X94234Y48161
X139446Y48161
X155321Y48161
X101473Y35786
X116578Y35913
X131699Y35786
X147574Y35913
X94767Y63373
X155262Y63500
X3548Y65151
X89436Y91112
X43261Y77244
X43359Y91440
X58801Y77245
X4369Y88087
X4871Y74123
X6307Y86137
X6713Y72110
X8559Y69860
X8420Y84151
X12963Y85456
X12967Y71260
X14879Y87396
X14895Y73188
X20066Y88728
X20066Y74671
X22017Y86822
X22085Y72784
X23973Y84867
X24013Y70851
X28811Y84691
X28811Y70721
X30923Y72696
X30917Y86659
X32846Y74696
X32854Y88705
X37407Y73464
X37415Y87553
X39335Y71536
X39343Y85625
X43798Y70214
X43868Y84266
X45820Y72145
X45805Y86294
X47851Y74070
X47712Y88243
X52268Y74097
X52240Y88003
X54192Y86016
X54196Y72169
X56120Y84088
X56124Y70241
X60740Y71183
X60689Y85279
X62644Y73135
X62602Y87221
X67043Y88532
X66929Y74763
X68971Y86604
X68877Y72855
X70899Y84676
X70805Y70927
X75300Y70600
X75378Y84471
X77268Y72562
X77224Y86503
X79022Y88623
X79008Y74700
X83399Y73444
X85301Y85387
X85317Y71506
X90043Y83947
X90170Y70231
X92098Y72159
X92098Y85868
X94026Y74087
X94022Y87799
X3724Y88728
X4442Y74980
X5684Y86802
X6076Y72758
X7926Y70560
X7638Y84758
X12418Y84717
X12344Y70597
X14237Y86754
X14252Y72545
X16164Y88681
X16157Y74496
X21374Y87465
X21443Y73426
X23339Y85519
X23366Y71494
X28169Y84049
X28169Y70079
X30190Y85977
X30190Y72007
X32173Y74083
X32197Y87950
X36764Y74107
X36772Y88222
X38692Y72179
X38693Y86261
X40620Y70251
X40637Y84331
X45179Y71500
X45167Y85647
X47108Y73432
X119270Y59419
X47078Y87591
X51562Y88646
X51689Y74803
X53550Y86658
X53553Y72812
X55477Y84731
X55481Y70884
X60085Y70482
X60081Y84601
X62004Y72490
X61961Y86577
X63886Y88641
X63728Y74621
X68329Y87246
X68234Y73498
X70257Y85318
X70162Y71570
X74656Y69957
X74619Y83945
X76648Y71893
X76634Y85807
X78561Y73862
X78443Y87886
X82776Y88023
X82757Y74088
X84658Y86030
X84684Y72159
X86624Y70221
X86586Y84102
X91449Y85225
X91455Y71516
X93383Y73444
X93379Y87156
X5012Y87444
X5451Y73418
X7320Y71306
X7013Y85431
X11684Y84074
X11682Y69975
X13594Y86111
X13609Y71902
X15522Y88039
X15537Y73830
X20731Y88108
X20767Y74064
X22697Y86180
X22728Y72141
X24660Y70209
X24619Y84228
X29454Y85334
X29454Y71364
X31531Y73441
X31554Y87307
X36068Y74714
X36111Y88845
X38049Y72822
X38058Y86910
X39977Y70894
X40003Y85000
X44573Y84934
X44475Y70857
X46424Y72831
X46488Y86897
X48446Y88836
X48458Y74823
X52907Y87301
X52911Y73454
X54835Y85373
X54839Y71526
X59368Y69909
X59417Y83980
X61365Y71843
X61324Y85928
X63286Y73778
X63152Y87957
X67686Y87889
X67592Y74140
X69614Y85961
X69520Y72212
X71554Y84046
X71447Y70285
X76012Y85122
X76028Y71222
X77942Y73196
X77820Y87193
X82022Y88666
X82158Y74774
X84015Y86673
X84041Y72801
X85924Y84725
X85979Y70864
X90805Y84582
X90813Y70874
X92740Y72801
X92737Y86514
X94731Y74818
X94665Y88442
X27274Y89439
X58785Y89263
X74255Y89363
X11077Y89335
X89436Y89295
M30